<?xml version="1.0" standalone="no"?>
<!DOCTYPE svg PUBLIC "-//W3C//DTD SVG 1.1//EN" "http://www.w3.org/Graphics/SVG/1.1/DTD/svg11.dtd" >
<svg xmlns="http://www.w3.org/2000/svg" xmlns:xlink="http://www.w3.org/1999/xlink" version="1.1">
<metadata>
Created by FontForge 20161003 at Mon Dec  3 19:21:45 2018
 By www-data
Copyright (c) 2017 Polythene Designs. All rights reserved.
</metadata>
<defs>
<font id="BelugaScript" horiz-adv-x="275" >
  <font-face 
    font-family="BelugaScript"
    font-weight="400"
    font-stretch="normal"
    units-per-em="1000"
    panose-1="2 0 5 8 3 0 0 2 0 3"
    ascent="800"
    descent="-200"
    x-height="260"
    cap-height="495.5"
    bbox="-1185.53 -415.121 1381 961.154"
    underline-thickness="50"
    underline-position="-150"
    unicode-range="U+000D-20AC"
  />
<missing-glyph horiz-adv-x="197" 
 />
    <glyph glyph-name=".notdef" horiz-adv-x="197" 
 />
    <glyph glyph-name=".null" horiz-adv-x="0" 
 />
    <glyph glyph-name="nonmarkingreturn" horiz-adv-x="333" 
 />
    <glyph glyph-name="NULL" horiz-adv-x="0" 
 />
    <glyph glyph-name="NULL" horiz-adv-x="0" 
 />
    <glyph glyph-name="CR" unicode="&#xd;" horiz-adv-x="197" 
 />
    <glyph glyph-name="space" unicode=" " horiz-adv-x="197" 
 />
    <glyph glyph-name="exclam" unicode="!" horiz-adv-x="58" 
d="M44 371v-256q0 -15 -15.5 -15t-15.5 15v256q0 10 7.5 14t15.5 0t8 -14zM47 39q2 -17 -14 -18q-17 -2 -18 14q-1 4 -1.5 5.5t-1 4l-1.5 7.5q-5 14 10 20q14 5 20 -11q2 -11 6 -22z" />
    <glyph glyph-name="quotedbl" unicode="&#x22;" horiz-adv-x="109" 
d="M43 458q0 -24 3 -46q1 -10 -6 -15.5t-15.5 -2.5t-9.5 12q-2 15 -4 24q-1 4 0 17q1 7 1 12q0 9 8 13t15.5 0t7.5 -14zM95 458q0 -24 3 -46q1 -10 -6 -15.5t-15.5 -2.5t-9.5 12q-2 15 -4 24q-1 4 0 17q1 7 1 12q0 9 8 13t15.5 0t7.5 -14z" />
    <glyph glyph-name="numbersign" unicode="#" horiz-adv-x="298" 
d="M167 370q-17 -50 -29 -109l69 10q16 78 23 99q4 9 12.5 9.5t14.5 -6.5t2 -16q-11 -34 -19 -82q22 2 32 2q16 0 16 -16t-16 -16q-12 0 -38 -2q-2 -10 -3.5 -28t-3.5 -27q3 0 8 0.5t9 0.5q16 0 16 -16t-16 -16q-6 0 -22 -2q-5 -48 -10 -76q-2 -9 -11 -11.5t-15.5 3
t-4.5 14.5l9 66q-28 -3 -73 -11q-10 -48 -18 -73q-4 -9 -13 -10t-15 5.5t-2 15.5q9 28 15 57q-16 -2 -25 -2q-15 0 -15 15.5t15 15.5q26 2 32 4l9 55q-14 -2 -41.5 -4.5t-32.5 -3.5q-16 0 -16 16t16 16q26 1 80 9q12 72 32 126q4 9 12.5 9.5t14.5 -6t2 -15.5zM194 184l8 55
l-70 -11l-9 -56q4 1 30.5 5.5t40.5 6.5z" />
    <glyph glyph-name="dollar" unicode="$" horiz-adv-x="232" 
d="M198 319q-32 12 -64 17q0 -46 2 -128q86 -78 86 -106q0 -18 -14 -25.5t-31 -6t-37 7.5l2 -49q0 -16 -16 -16t-16 16q0 20 -2 60q-83 36 -95 86q-1 9 6 14.5t15.5 2.5t9.5 -13q8 -25 64 -54l-3 68q-52 47 -78 83.5t-11 60.5q23 36 88 34q0 36 4 53q2 9 11 11t15.5 -4
t4.5 -16q-2 -8 -4 -47q44 -6 77 -20q9 -4 9.5 -12.5t-7 -14.5t-16.5 -2zM103 339q-43 5 -60 -18q-9 -17 61 -82q-2 69 -1 100zM140 110q34 -13 50 -6q-4 16 -52 59q0 -5 0.5 -13.5t0.5 -11.5q0 -4 0.5 -13t0.5 -15z" />
    <glyph glyph-name="percent" unicode="%" horiz-adv-x="208" 
d="M174 377q9 5 16.5 0t7.5 -13t-8 -14q-4 -12 -13.5 -34t-22.5 -49.5t-17 -35.5q-60 -145 -75 -185q0 -15 -15.5 -15t-15.5 15q4 17 21 62q89 222 122 269zM150 161q23 -1 30.5 -33t-2.5 -64.5t-31 -36.5q-37 -8 -48 33.5t12 76.5q15 24 39 24zM133 60q8 -2 12 3t4.5 14.5
t0 19t-1.5 20t-1 12.5q-11 -2 -17 -31t3 -38zM95 257q-29 -38 -60 -8q-26 27 -24 69q5 48 51 54q14 0 28.5 -20.5t17.5 -46t-13 -48.5zM62 341q-22 -3 -19 -38q3 -29 15 -33q10 -3 17 16q9 24 -11 49z" />
    <glyph glyph-name="ampersand" unicode="&#x26;" horiz-adv-x="418" 
d="M10 4q3 25 16.5 39t36 16.5t41.5 1t45 -5.5q8 -1 12 -2q2 0 13 -3q202 -45 188 0q-9 30 -44 75q-61 -61 -134.5 -57t-86.5 65.5t67 171.5q-39 54 -35 86q4 41 41 47q36 5 60 -23q26 -30 2 -71q-2 -4 -28 -39q20 -25 59.5 -68t55.5 -62q20 23 67 49q9 4 15.5 -2t6 -15
t-9.5 -13q-40 -21 -59 -45q78 -94 47 -132q-14 -16 -50.5 -19t-70 2.5t-80.5 14.5t-59 11q-18 6 -50 4t-34 -26q0 -15 -16 -15t-16 15zM298 150q-14 16 -54.5 61t-60.5 69q-64 -87 -56 -134t65 -47t106 51zM184 331z" />
    <glyph glyph-name="quotesingle" unicode="'" horiz-adv-x="57" 
d="M43 458q0 -24 3 -46q1 -10 -6 -15.5t-15.5 -2.5t-9.5 12q-2 15 -4 24q-1 4 0 17q1 7 1 12q0 9 8 13t15.5 0t7.5 -14z" />
    <glyph glyph-name="parenleft" unicode="(" horiz-adv-x="158" 
d="M129 439q-47 -23 -68.5 -91.5t-17 -140t29 -130t59.5 -62.5q16 0 16 -16t-16 -16q-40 5 -70.5 49t-42 107.5t-8 129.5t31.5 121.5t75 77.5q9 4 15.5 -2t5.5 -14.5t-10 -12.5z" />
    <glyph glyph-name="parenright" unicode=")" horiz-adv-x="158" 
d="M29 37q47 21 68.5 90t17 141.5t-29 131t-59.5 61.5q-16 0 -16 16t16 16q40 -5 70.5 -49t42 -107.5t8 -129.5t-31.5 -121.5t-75 -77.5q-9 -4 -15.5 2t-5.5 14.5t10 12.5z" />
    <glyph glyph-name="asterisk" unicode="*" horiz-adv-x="185" 
d="M103 458q1 -24 6 -50q17 20 42 38q9 5 16.5 0t7.5 -13t-8 -14q-24 -18 -48 -46q3 -1 9 -5.5t10 -6.5q9 -4 10 -13t-5.5 -15t-15.5 -2q-1 1 -3 2l-4 2l1 -4q2 -10 -5 -16t-16 -3t-10 12q-2 10 -2 13q-3 -4 -8.5 -10.5t-6.5 -7.5q-7 -8 -16 -6t-12 9.5t2 15.5q23 28 27 32
q-7 6 -25.5 24.5t-30.5 28.5q-8 5 -7 14t8 12.5t15 -0.5q9 -6 24 -20t18 -17q-3 14 -5 46q0 16 16 16t16 -16z" />
    <glyph glyph-name="plus" unicode="+" horiz-adv-x="247" 
d="M128 340q0 -26 5 -59q19 -2 88 -2q16 0 16 -16t-16 -16q-29 0 -85 2q5 -42 5 -75q0 -10 -8.5 -13.5t-16 1.5t-6.5 15q0 23 -6 73q-39 3 -78 3q-10 0 -14 7.5t0 15.5t14 8q25 0 75 -2q-3 19 -5 59q0 9 8 13t16 0t8 -14z" />
    <glyph glyph-name="comma" unicode="," horiz-adv-x="96" 
d="M22 11q3 1 7 2t6.5 1t5 1t4.5 2q-9 5 -9 13q0 18 20 23.5t26 -9.5q19 -46 -52 -64q-10 -2 -16 4.5t-4 15.5t12 11z" />
    <glyph glyph-name="hyphen" unicode="-" horiz-adv-x="191" 
d="M26 220h139q16 0 16 -16t-16 -16h-139q-16 0 -16 16t16 16z" />
    <glyph glyph-name="period" unicode="." horiz-adv-x="65" 
d="M11 28q10 31 29 19q16 -10 14 -28q-1 -20 -33 -11q-15 6 -10 20z" />
    <glyph glyph-name="slash" unicode="/" horiz-adv-x="184" 
d="M173 458q-101 -302 -121 -386q-11 -39 -11 -47q0 -15 -15.5 -15t-15.5 15l11 55q23 94 121 387q6 15 20.5 10t10.5 -19z" />
    <glyph glyph-name="zero" unicode="0" horiz-adv-x="251" 
d="M104 328q-49 -53 -63 -111t18 -123q43 -75 93 -49q40 21 56 86q20 82 -22 136q-8 11 -19 19q-24 21 -46 5q-8 -7 -16 -3t-9.5 12t5.5 16q24 17 44 14q53 -6 81 -71t17 -122q-24 -110 -91 -127q-53 -13 -100 37q-54 59 -46 147q9 82 76 156q7 7 15.5 4t10.5 -11t-4 -15z
" />
    <glyph glyph-name="one" unicode="1" horiz-adv-x="42" 
d="M37 346v-329q0 -16 -16 -16t-16 16v329q0 16 16 16t16 -16z" />
    <glyph glyph-name="two" unicode="2" horiz-adv-x="226" 
d="M7 256q52 106 117 103q27 -1 39.5 -18t12 -42t-5.5 -46.5t-12 -41.5q-25 -66 -94 -161l134 56q9 4 16 -2t6.5 -14.5t-9.5 -12.5l-170 -72q-18 -6 -24.5 8.5t7.5 34.5q7 10 19 27t19.5 27t17 25.5t17.5 30.5q1 1 6 11.5t8.5 18.5t10 22t10.5 25t8 24.5t5 23.5t0.5 20
t-5 16t-12.5 8q-26 5 -51 -22.5t-41 -60.5q-4 -9 -12.5 -9.5t-14.5 6t-2 15.5z" />
    <glyph glyph-name="three" unicode="3" horiz-adv-x="253" 
d="M54 305q1 1 16 9t20.5 10.5t21 10t23.5 10t22 6.5t23.5 4t21 -1.5t20.5 -7t16 -14.5q9 -11 9 -25t-5 -27t-16 -28.5t-21 -27t-23 -26.5t-19 -22q40 -12 58 -33t7 -61q-14 -42 -43 -63t-61.5 -19.5t-65 25.5t-51.5 66q-4 9 2 15.5t14.5 6t12.5 -9.5q28 -61 76.5 -71
t82.5 52q13 27 -0.5 41.5t-38 20.5t-27.5 10q-12 13 14.5 45.5t53 64.5t16.5 46q-26 34 -145 -36q-9 -4 -16.5 2t-7 14.5t9.5 12.5z" />
    <glyph glyph-name="four" unicode="4" horiz-adv-x="248" 
d="M135 400q-4 -30 -18.5 -56.5t-39 -58t-34.5 -47.5q74 0 131 4q13 64 17 122q0 10 8 13.5t16 -1t8 -14.5q-4 -49 -16 -117q3 0 6.5 0.5t4.5 0.5q8 5 16 0.5t8.5 -12.5t-6.5 -14q-2 -2 -35 -7q-26 -128 -27 -190q0 -16 -16 -16t-16 16q3 68 26 188q-41 -4 -91 -5t-55 1
q-32 8 1 58q7 11 24 35q53 70 56 100q0 16 16 16t16 -16z" />
    <glyph glyph-name="five" unicode="5" horiz-adv-x="228" 
d="M85 343l-3 -16q58 -7 107 -7q16 0 16 -16t-16 -16q-57 0 -113 8l-17 -96q7 2 31 12.5t41 16t39.5 4.5t37.5 -14q36 -31 -14 -108q-42 -65 -101 -101q-67 -40 -83 6q-3 8 -4 17q0 10 7.5 14.5t15.5 1t9 -13.5q2 -28 55 15q58 48 88 101q18 33 6 44q-4 4 -10.5 5.5
t-12.5 1.5t-15 -2t-15.5 -4t-16 -5.5t-14 -5.5t-12.5 -6t-9 -4q-19 -8 -32 -8.5t-18 7t-7 17t0.5 25.5t5.5 29t7.5 30t6.5 26q-2 0 -10 1.5t-14 2.5q-16 2 -13.5 18t17.5 14q12 -3 26 -5l2 17q1 9 10 11.5t16 -2.5t6 -15z" />
    <glyph glyph-name="six" unicode="6" horiz-adv-x="250" 
d="M154 331q-97 -39 -114 -134q-13 -74 25 -131q36 -54 86 -40q12 4 25 13q27 20 35 56t-12.5 60.5t-66.5 11.5q-8 -2 -14.5 -5.5t-12.5 -10.5t-9 -11t-9.5 -14.5t-8.5 -13.5q-5 -9 -14 -8t-13 8t0 17q2 3 6 9.5t6 9t5.5 8t6 8t6.5 7t7 7t7 6t8.5 5.5t9.5 4t11 4
q66 17 99 -22t19 -94t-66 -78q-72 -31 -125 28q-50 55 -46 141q5 105 91 164q21 15 47 25q3 2 13 0q3 -1 8 -9q5 -15 -10 -21z" />
    <glyph glyph-name="seven" unicode="7" horiz-adv-x="230" 
d="M209 201q16 0 16 -16t-16 -16q-24 0 -72 -2q-52 -79 -60 -160q0 -10 -7.5 -14t-15.5 0t-8 14q4 67 32 122l21 35q-7 0 -23 -2q-10 -1 -15 6t-2 15.5t12 9.5q17 3 49 5q47 80 48 97q3 45 -147 45q-10 0 -14 8t0 15.5t14 7.5q36 0 62.5 -2t56 -10t44 -22t15 -40.5
t-20.5 -63.5l-20 -33q8 0 24.5 0.5t26.5 0.5z" />
    <glyph glyph-name="eight" unicode="8" horiz-adv-x="215" 
d="M125 38q-47 4 -71 45t-14.5 88.5t48.5 67.5q12 -14 39 -38t38 -42q12 -18 14 -47.5t-12 -52.5t-42 -21zM71 266q-28 -10 -46 -48t-19.5 -80.5t25 -81t78.5 -48.5q48 -10 75.5 22t25.5 79t-29 81q13 21 19 55.5t3 69.5t-21.5 64t-50.5 36q-37 9 -58.5 -10t-22 -50t9.5 -64
q3 -9 11 -25zM156 216z" />
    <glyph glyph-name="nine" unicode="9" horiz-adv-x="240" 
d="M40 35q104 12 145 101q32 69 9 134q-21 58 -70 58q-14 0 -30 -6q-22 -9 -38 -31t-19.5 -45t13.5 -40.5t54 -17.5q6 0 11.5 0.5t11 3.5t9 4.5t9.5 6.5t8 7t9 8.5t8 7.5q7 7 16 4t10.5 -11.5t-4.5 -15.5q-2 -2 -13 -12t-14 -12t-12.5 -8.5t-15 -8.5t-15 -4t-19.5 -2
q-41 0 -66.5 19t-29 46.5t4.5 56.5t33.5 51.5t58.5 28.5q75 12 111 -56q35 -65 10 -148q-28 -95 -116 -134q-31 -13 -67 -17q-10 0 -14.5 7.5t-1 15.5t13.5 9z" />
    <glyph glyph-name="colon" unicode=":" horiz-adv-x="65" 
d="M11 99q10 31 29 19q16 -10 14 -28q-1 -20 -33 -11q-15 6 -10 20zM21 179q-15 6 -10 20q10 31 29 19q16 -10 15 -28q-2 -20 -34 -11z" />
    <glyph glyph-name="semicolon" unicode=";" horiz-adv-x="96" 
d="M21 179q-15 6 -10 20q10 31 29 19q16 -10 15 -28q-2 -20 -34 -11zM22 11q3 1 7 2t6.5 1t5 1t4.5 2q-9 5 -9 13q0 18 20 23.5t26 -9.5q19 -46 -52 -64q-10 -2 -16 4.5t-4 15.5t12 11z" />
    <glyph glyph-name="less" unicode="&#x3c;" horiz-adv-x="216" 
d="M190 276q-77 -41 -138 -91q20 -11 69 -55t69 -48q10 0 14 -8t0 -15.5t-13 -7.5q-23 4 -49 22t-55.5 45t-43.5 36q-4 3 -11 5.5t-10.5 4t-7 5t-3.5 9.5q-3 20 64 65t109 65q15 2 18.5 -13t-12.5 -19z" />
    <glyph glyph-name="equal" unicode="=" horiz-adv-x="191" 
d="M26 217h139q16 0 16 -16t-16 -16h-139q-16 0 -16 16t16 16zM26 294h139q16 0 16 -16t-16 -16h-139q-16 0 -16 16t16 16z" />
    <glyph glyph-name="greater" unicode="&#x3e;" horiz-adv-x="216" 
d="M26 90q99 55 138 91q-22 12 -70.5 55.5t-67.5 47.5q-10 0 -14 8t0 15.5t13 7.5q23 -4 49 -22t55.5 -45t43.5 -36q5 -3 13.5 -6.5t13 -7t5.5 -10.5q3 -20 -64 -65t-109 -65q-9 -2 -15 5t-3.5 16t12.5 11z" />
    <glyph glyph-name="question" unicode="?" horiz-adv-x="210" 
d="M10 334q7 79 65 98q47 16 89 -16q48 -36 32 -98q-8 -29 -30 -58q-11 -13 -31 -29.5t-32 -31.5t-14 -36q0 -16 -16 -16t-16 16q4 31 15.5 48.5t34 35t35.5 33.5q44 58 13 100q-22 30 -59 25q-41 -6 -52 -55q-2 -7 -3 -16q0 -10 -7.5 -14t-15.5 0t-8 14zM83 91q2 -11 6 -22
q2 -15 -14 -17q-17 -2 -18 14l-2 7q-1 3 -2 10q-5 13 10 19q14 5 20 -11z" />
    <glyph glyph-name="at" unicode="@" horiz-adv-x="357" 
d="M211 248q-65 -6 -71 -70q0 -24 5 -33q7 7 21.5 36.5t28 45.5t27.5 2q7 -7 9 -23t1 -33t-0.5 -32.5t5.5 -24t17 -5.5q52 14 60 65t-32 100t-108 57q-70 8 -108 -64q-36 -67 -19 -144q19 -82 88 -100q65 -18 160 31q9 5 16 -0.5t7 -13.5t-8 -14q-153 -80 -239 -6
q-60 52 -61 151q0 95 54 152q46 47 114 40q48 -6 86.5 -31.5t57.5 -60.5t23.5 -72t-14.5 -69t-57 -47q-15 -6 -26.5 -6.5t-19 3t-13 11.5t-8.5 16.5t-4.5 21t-2 22t-0.5 22.5q-35 -72 -67 -59q-25 9 -26 52q-1 59 45 91q25 17 59 21q16 0 16 -16t-16 -16z" />
    <glyph glyph-name="A" unicode="A" horiz-adv-x="526" 
d="M505 -225q10 0 14 -7.5t0 -15.5t-14 -8q-42 5 -75 22.5t-54 52.5t-34.5 63.5t-21.5 82t-11 78.5t-7 82q-1 17 -2 25l-95 -9q-41 -80 -74 -112q-27 -25 -50 -29t-41.5 9.5t-37.5 42.5q-8 14 7 21q13 7 20 -6q28 -40 49 -37t53 47q20 26 38 62q-49 -2 -86 5q-9 2 -11 10.5
t4 15t16 4.5q41 -8 93 -3q61 125 109 309q2 13 14 14q16 -1 17 -28q0 -207 5 -283q10 0 14 -7.5t0 -15.5t-13 -8q9 -148 23 -206q37 -160 151 -171zM220 174l39 3t39 4q-4 60 -4 112v75q-29 -96 -74 -194z" />
    <glyph glyph-name="B" unicode="B" horiz-adv-x="357" 
d="M-41 442q67 53 100 9q36 62 112 41q62 -16 101 -70q46 -64 7 -115q-15 -20 -44 -35q99 -26 114 -130q14 -94 -43 -192q-55 -95 -136 -119q-116 -34 -218 104q-15 20 -29 44q-7 13 6 21t21 -6q42 -69 90 -103t90 -32t80 26t64 64t38.5 89.5t5.5 95.5q-5 28 -14.5 48.5
t-25.5 32.5t-30 19t-39 9.5t-39.5 3t-44 -0.5t-41.5 -1q-2 -43 -7 -90.5t-10 -87.5t-6 -46q0 -16 -16 -16t-16 16q0 5 13 150q24 262 -28 264q-15 0 -34 -17q-8 -7 -16.5 -3t-10 12t5.5 15zM77 411l4 -61q4 -60 4 -74q110 2 155 49q40 42 -3 86q-4 3 -8 7q-20 17 -41.5 28
t-44 15.5t-40.5 -8t-26 -42.5z" />
    <glyph glyph-name="C" unicode="C" horiz-adv-x="295" 
d="M253 397q9 16 2 38.5t-28 28.5q-34 11 -77.5 -6.5t-68.5 -48.5q-56 -73 -47 -208t72 -198q21 -21 42 -21.5t37 12t31.5 36t24.5 42.5t17 40q0 9 8 13t16 0t8 -14q-24 -75 -62 -120q-68 -78 -135 -19q-60 53 -84 174q-27 140 21 241q37 79 115 103q99 31 133 -27
q21 -36 6 -73q-9 -17 -21 -21q-12 -2 -16 9.5t6 18.5z" />
    <glyph glyph-name="D" unicode="D" horiz-adv-x="331" 
d="M49 449v-35q150 153 225 89q58 -49 51 -196q-7 -155 -76 -285q-75 -144 -179 -155q-103 -11 -213 115q-6 7 -2.5 15.5t11.5 10t15 -5.5q12 -14 22 -25t24.5 -25t27.5 -23.5t29 -18.5t31 -13t32 -3.5t33 6.5q94 36 158 182q59 133 57 260q-1 118 -60 136q-68 19 -186 -110
v-384q0 -16 -17 -16q-6 0 -10.5 4.5t-4.5 11.5v465q0 16 16 16t16 -16z" />
    <glyph glyph-name="E" unicode="E" horiz-adv-x="300" 
d="M265 62q5 9 14 8t13 -8t0 -17q-36 -55 -74.5 -84t-71.5 -31.5t-61.5 15.5t-47.5 52.5t-27.5 84.5t-2.5 106q-8 5 -7 15t11 13q6 37 16.5 77t27.5 83.5t40.5 73t50.5 44.5t62.5 -1.5t73.5 -65.5q7 -8 2.5 -16t-13 -8.5t-14.5 6.5q-51 53 -86.5 56t-63 -48.5t-42 -99.5
t-21.5 -98q23 2 90 9.5t106 8.5q9 0 13 -8t0 -16t-14 -8q-38 -1 -105 -8.5t-95 -9.5q-9 -71 7 -128.5t47 -82.5t78 -5.5t94 91.5z" />
    <glyph glyph-name="F" unicode="F" horiz-adv-x="315" 
d="M122 469v-193q22 1 62.5 5.5t62.5 5.5q13 0 13 -16t-13 -16q-27 -2 -125 -11v-306q0 -16 -16 -16t-16 16v304q-33 -2 -36 13q-3 9 14 14q9 3 22 4v197h-78q-12 0 -12 15.5t12 15.5q182 0 242 3q3 0 16.5 1.5t23.5 1.5t13 -4q25 -39 -174 -34h-11z" />
    <glyph glyph-name="G" unicode="G" horiz-adv-x="325" 
d="M192 336q75 61 65 103q-8 28 -48 26q-53 -4 -97 -60q-39 -50 -57.5 -128t-18.5 -155q0 -56 65 -37q52 14 91 52l13 15q-7 66 -4 96q-49 0 -74 1q-10 0 -14 7.5t0 15.5t14 8q28 0 63 -0.5t62 -0.5q16 0 16 -16t-16 -16h-20q-4 -69 19 -169.5t62 -135.5q8 -7 6 -16
t-9.5 -12t-15.5 2q-61 55 -82 196q-26 -24 -61 -40.5t-68 -21.5t-56 13t-23 60q0 89 24 177.5t74 141.5q56 60 121 54q49 -5 63 -44q20 -56 -57 -126q-8 -7 -18 -15q-8 -7 -16 -3t-9 12.5t6 15.5z" />
    <glyph glyph-name="H" unicode="H" horiz-adv-x="395" 
d="M67 458q-2 -75 -3 -81t4 -84.5t5 -81.5h152q-17 161 -17 276q0 16 16 16t16 -16q0 -45 7 -142t21 -219t42 -211t62 -89q10 1 15 -6t1.5 -15.5t-13.5 -9.5q-104 0 -146 384h-155q5 -68 6 -134q0 -16 -16 -16t-16 16q-2 90 -5 134h-58q-16 0 -16 16t16 16h56
q-1 17 -4.5 83.5t-3.5 86.5t3 83q1 9 9.5 11.5t15.5 -3t6 -14.5z" />
    <glyph glyph-name="I" unicode="I" horiz-adv-x="71" 
d="M40 475q-8 -53 -8 -225t14 -213q7 1 13 -3q9 -8 5 -18.5t-14.5 -14t-21.5 3.5q-26 23 -28 228.5t10 251.5q3 9 11.5 10.5t15 -5t3.5 -15.5z" />
    <glyph glyph-name="J" unicode="J" horiz-adv-x="294" 
d="M87 455q55 15 85 29q45 23 62 16.5t19 -59.5q1 -17 1 -68q28 6 34 -8q4 -12 -21 -21q-6 -2 -13 -4q-7 -349 -135 -364q-55 -7 -92 50q-42 64 -20 147q29 112 163 171q25 11 53 20q2 84 -4 106q-8 -3 -52 -20.5t-74 -25.5q-9 -2 -15 4.5t-3.5 15.5t12.5 11zM221 331
q-135 -43 -175 -134q-30 -67 -1 -135q22 -51 59 -54q46 -4 78 78q32 85 39 245z" />
    <glyph glyph-name="K" unicode="K" horiz-adv-x="260" 
d="M40 481q0 -88 5 -201q90 130 170 215q8 7 16 3t9.5 -12t-5.5 -15q-50 -56 -110 -135q11 -39 25.5 -83t41.5 -116.5t55.5 -119.5t51.5 -48q12 0 16 -13q6 -16 -15 -18h-10q-36 5 -78 80.5t-67 146.5t-44 139q-5 -6 -17 -24.5t-22.5 -34t-15.5 -20.5q0 -25 -3 -79t-2 -82
q0 -10 -7.5 -14t-15.5 0t-8 14q-2 91 -2 417q0 16 16 16t16 -16z" />
    <glyph glyph-name="L" unicode="L" horiz-adv-x="172" 
d="M70 481q-7 -57 3 -305q4 -68 4 -149l29 5q30 4 63 9t39 5q16 0 16 -16t-16 -16q-32 -2 -94.5 -13.5t-98.5 -13.5q-6 0 -10.5 4.5t-4.5 11.5q0 9 7 12.5t22 4.5t18 1q-6 15 -8.5 230t0.5 239q4 15 19.5 10t11.5 -19z" />
    <glyph glyph-name="M" unicode="M" horiz-adv-x="311" 
d="M36 352q8 -228 8 -272q0 -16 -16 -16t-16 16q0 42 -4 207t-7 172q0 10 7.5 14.5t15.5 1t9 -13.5l35 -101q28 -84 69 -195q1 4 29 99.5t54.5 167.5t41.5 74q19 2 19 -15q6 -84 10 -180t7.5 -213.5t6.5 -181.5q0 -9 -8 -12.5t-16 -0.5t-8 12l-21 505q-5 -14 -40 -133.5
t-60 -163.5l31 -81q4 -9 -2 -15.5t-14.5 -6.5t-12.5 9q-20 46 -39.5 99t-43 122t-35.5 102z" />
    <glyph glyph-name="N" unicode="N" horiz-adv-x="265" 
d="M36 426l7 -361q0 -10 -8 -14t-16 0t-8 13q0 2 -6 129t-4.5 219.5t17.5 92.5q5 0 15.5 -8t13.5 -13q19 -49 59 -144.5t70.5 -174t51.5 -149.5q1 52 -2 193q0 6 -1 41.5t-1.5 48t-1.5 46.5t-2.5 51.5t-3.5 47.5t-4.5 50t-6.5 43t-8 41q-2 9 4.5 14.5t15 4t11.5 -10.5
q21 -93 28 -318q7 -247 0 -338q-4 -28 -20 -27q-13 1 -15 16q-18 79 -47 161t-74.5 190.5t-63.5 155.5z" />
    <glyph glyph-name="O" unicode="O" horiz-adv-x="301" 
d="M129 468q-50 -6 -79 -107q-30 -107 -13 -209t73 -104q26 -1 58 21q51 36 77 99t13.5 128.5t-65.5 103.5q-17 11 -22 8t-5 -22q0 -10 -7.5 -14.5t-15.5 -0.5t-9 13q1 34 17 49t47 1q42 -20 65.5 -60.5t26.5 -87t-9 -95.5t-36.5 -88t-61 -63.5t-76.5 -22.5q-46 2 -74.5 51
t-32 117.5t7.5 137.5t44 120t77 57q16 0 16 -16t-16 -16z" />
    <glyph glyph-name="P" unicode="P" horiz-adv-x="224" 
d="M49 510l1 -108q12 25 20.5 39.5t23 32.5t32 24t38.5 0q47 -11 63 -91q18 -86 -13 -158q-35 -83 -110 -66q-25 6 -53 23l2 -220q0 -16 -16 -16t-16 16l-2 243q-36 30 -29 47q5 13 26 -3q2 -1 3 -2l-2 239q0 14 16 15t16 -15zM51 245q59 -45 100 -26t49 102q4 38 -8 93.5
t-41 53.5q-24 -1 -42 -23.5t-34.5 -60.5t-24.5 -50q0 -1 0.5 -42.5t0.5 -46.5z" />
    <glyph glyph-name="Q" unicode="Q" horiz-adv-x="355" 
d="M145 464q-24 2 -60 -70q-52 -102 -55 -197q-4 -118 86 -120q10 0 22 1q23 3 48 17q-19 35 -36 92.5t-26.5 121t8.5 111t66 53.5q54 6 88 -21.5t42.5 -75t1 -101.5t-35 -106t-66.5 -84q19 -36 37 -60.5t44 -46t56.5 -18.5t62.5 32q6 8 14.5 5t11 -11t-2.5 -16
q-132 -119 -250 97q-27 -16 -59 -21q-115 -15 -138 95q-20 92 28 216q40 103 90 131q16 9 30 7q9 -3 11 -11.5t-3.5 -15t-14.5 -4.5zM213 114q54 48 78.5 129.5t1.5 143.5t-91 54q-36 -4 -46 -45.5t1 -98t26.5 -104.5t29.5 -79z" />
    <glyph glyph-name="R" unicode="R" horiz-adv-x="247" 
d="M50 510l1 -57q18 24 48 38q68 33 104 -26q32 -53 17 -129q-12 -57 -48 -87q-3 -31 8.5 -79.5t33 -93.5t57 -68t74.5 -4q9 5 16.5 -0.5t7.5 -13.5t-8 -14q-42 -22 -76.5 -11t-60.5 40t-44.5 71t-28 82t-10.5 73q-31 -13 -84 -5l4 -141q0 -16 -16 -16t-16 16l-4 148
q-31 8 -29 23q1 13 21 11q4 0 7 -1l-6 243q0 10 8 14t16 0t8 -13zM134 469q-34 -5 -56 -34t-24 -66l2 -111q50 -9 84 6q31 14 45.5 67t0.5 98.5t-52 39.5z" />
    <glyph glyph-name="S" unicode="S" horiz-adv-x="269" 
d="M239 463q-17 6 -54.5 2.5t-75.5 -10.5t-62.5 -26t-16.5 -43q5 -17 18.5 -35t41 -46.5t36.5 -38.5q23 15 72.5 38t58.5 15q13 -8 3 -22q-11 -6 -51 -24.5t-62 -31.5q9 -11 15 -21q20 -34 32 -71t5.5 -77.5t-41.5 -60.5q-48 -28 -93 11t-42 102q3 72 76 125q-3 4 -53 56
q-31 34 -41.5 64.5t-1 51.5t29.5 38t49.5 26t60.5 13t61 2t52 -10q8 -6 7 -15.5t-8 -13t-16 1.5zM120 225q-85 -57 -65 -125q12 -42 50 -60q40 -18 58 13q13 23 5 69q-9 53 -48 103z" />
    <glyph glyph-name="T" unicode="T" horiz-adv-x="321" 
d="M-49 512q56 -20 173 -30.5t168 7.5q8 5 16 0t8 -13t-8 -14q-58 -24 -181 -12q0 -61 12.5 -221.5t10.5 -213.5q0 -16 -16 -16t-16 16q2 54 -10 215.5t-12 222.5q-99 11 -156 29q-9 4 -10 13t5.5 15t15.5 2z" />
    <glyph glyph-name="U" unicode="U" 
d="M40 400q0 -5 -1.5 -31t-3.5 -58.5t-3.5 -72t-0.5 -75.5t4.5 -66t12 -47t21.5 -14q34 6 79 32t75 54q-15 174 -21 417q0 16 16 16t16 -16q2 -199 21 -418q4 -14 7 -54t7 -57q2 -9 -4.5 -15.5t-15.5 -4.5t-11 11q-5 20 -12 83q-78 -65 -152 -79q-23 -4 -39 11.5t-23.5 48
t-11 66.5t-2.5 81t2.5 77t5 68.5t3.5 42.5q0 10 7.5 14t15.5 0t8 -14z" />
    <glyph glyph-name="V" unicode="V" horiz-adv-x="227" 
d="M45 355q21 -195 50 -302q26 28 60 114t45 133q47 186 -28 231q-33 14 -23 30q8 11 19 6q120 -54 63 -275q-4 -19 -19.5 -64t-37.5 -99.5t-48.5 -89t-46.5 -22.5q-19 10 -39 137t-27 201q0 16 16 16t16 -16z" />
    <glyph glyph-name="W" unicode="W" horiz-adv-x="374" 
d="M31 315q9 -33 25 -106.5t27 -111.5q16 116 57 252q9 35 28 24q3 -2 7 -13.5t9 -28t9.5 -32l9 -31t5.5 -19.5q49 -157 67 -200q7 46 29.5 127t38.5 141t15.5 133t-29.5 127q-5 9 0 16.5t13 7.5t14 -8q32 -60 34 -135.5t-13.5 -135t-39.5 -144t-32 -133.5q-24 -145 -94 88
q-5 16 -15.5 49t-20 62.5t-16.5 54.5q-47 -165 -51 -267q-1 -14 -8 -21.5t-17 0.5q-15 10 -42 119t-42 182q-1 10 6 15t16 1.5t10 -13.5z" />
    <glyph glyph-name="X" unicode="X" horiz-adv-x="260" 
d="M276 478q-2 -19 -6.5 -38t-14.5 -41.5t-16.5 -36.5t-23 -40.5t-21.5 -34.5t-25 -37.5t-22 -31.5q61 -109 98 -140q8 -6 6 -15t-9 -12.5t-15 0.5q-41 36 -100 137q-3 -4 -27.5 -39.5t-33.5 -48.5t-29.5 -45.5t-31 -52t-22 -46t-17.5 -48.5q-1 -10 -9.5 -13t-15.5 2t-6 14
q6 24 18 53t23.5 51t33.5 56t33 50.5t36.5 52.5t31.5 45q-76 141 -95 235q-1 9 6 14t15.5 2t9.5 -12q12 -66 84 -209q105 151 114 227q0 10 7.5 14.5t15.5 0.5t8 -13z" />
    <glyph glyph-name="Y" unicode="Y" horiz-adv-x="220" 
d="M31 442q0 -3 -0.5 -20.5t-0.5 -33.5t0.5 -38.5t2 -41.5t3.5 -36t6.5 -27.5t10.5 -12.5q7 -2 58 40.5t65 44.5q-5 110 7 175q2 9 11 10.5t15.5 -4t4.5 -15.5q-9 -40 -6 -100.5t2.5 -135t-4 -140.5t-25.5 -117.5t-61 -64.5q-59 -22 -92 40q-28 54 -16 114q11 55 50 55
q24 1 55 -22q8 -6 5.5 -15t-10.5 -11.5t-16 2.5q-43 32 -55 -11q-11 -41 11 -91q23 -51 56 -35q19 10 39 45q16 31 24 79.5t7.5 99.5t-1.5 109q-14 -7 -46.5 -35.5t-35.5 -31.5q-104 -76 -97 190q1 34 1 35q0 16 16 16t16 -16z" />
    <glyph glyph-name="Z" unicode="Z" horiz-adv-x="352" 
d="M15 449q14 0 47 2q161 7 215 -12q106 -35 -25 -176h60q15 0 15 -16t-15 -16q-13 0 -43 0.5t-46 0.5q-19 -20 -46.5 -63t-60.5 -100t-43 -72q-12 -19 24 -14q38 5 164 48l71 22q37 9 99 14q16 0 16 -16t-16 -16q-94 -5 -265 -63q-224 -71 -83 135q30 42 98 126
q-87 0 -134 -6q-9 -2 -15 5t-3.5 16t12.5 11q49 7 168 5q78 78 84 115q4 18 -18.5 28t-62 12.5t-75.5 2t-75.5 -2.5t-45.5 -2q-10 0 -14 8t0 16t13 8z" />
    <glyph glyph-name="bracketleft" unicode="[" horiz-adv-x="165" 
d="M104 388q-51 0 -62 -9q0 -59 6 -197.5t14 -172.5q10 -1 36 -3.5t36 -4.5q9 3 15.5 -3.5t4.5 -15.5t-11 -12q-96 0 -104 14q-13 15 -20.5 163.5t-7.5 224.5q-1 24 16.5 36.5t41 11.5t45.5 -2q9 -4 10.5 -13t-5 -15t-15.5 -2z" />
    <glyph glyph-name="backslash" unicode="\" horiz-adv-x="268" 
d="M40 432q138 -278 187 -358q25 -40 26 -41q11 -11 0 -22t-22 0q-5 5 -31 47q-49 82 -188 359q-4 9 2 16.5t13.5 7t12.5 -8.5z" />
    <glyph glyph-name="bracketright" unicode="]" horiz-adv-x="165" 
d="M61 -22q1 0 14 -0.5t19 0t15 2.5t14 7q0 59 -6 198t-14 172q-10 1 -36 3.5t-36 4.5q-9 -2 -15.5 4.5t-4.5 15.5t11 11q94 0 104 -14q13 -15 20.5 -163.5t7.5 -224.5q1 -24 -17 -36.5t-41.5 -11.5t-44.5 2q-9 4 -10.5 12.5t5 14.5t15.5 3z" />
    <glyph glyph-name="asciicircum" unicode="^" horiz-adv-x="278" 
d="M235 312q-41 77 -91 138q-12 -22 -55.5 -70.5t-47.5 -67.5q0 -10 -7.5 -14t-15.5 0t-8 13q4 23 22 49t45 55.5t36 43.5q3 4 5.5 10.5t4 10t5 7t9.5 4.5q20 3 65 -64t65 -109q2 -15 -13 -18.5t-19 12.5z" />
    <glyph glyph-name="underscore" unicode="_" horiz-adv-x="344" 
d="M26 32h292q16 0 16 -16t-16 -16h-292q-16 0 -16 16t16 16z" />
    <glyph glyph-name="grave" unicode="`" horiz-adv-x="109" 
d="M43 419q29 -47 51 -73q7 -7 4 -15.5t-11 -10.5t-16 3q-27 32 -55 79q-5 9 0 17t13 8t14 -8z" />
    <glyph glyph-name="a" unicode="a" horiz-adv-x="274" 
d="M159 276q-71 -7 -109 -67q-28 -43 -14 -69q6 -11 20 -12t30 18.5t28.5 43t26 43.5t23.5 20q6 0 9.5 -3t4.5 -9t1.5 -10.5t0 -12t-0.5 -8.5q0 -4 -0.5 -28t-0.5 -42.5t1.5 -39.5t5.5 -30q15 11 31 52.5t21 67.5q0 10 8 14t16 0t8 -13q-5 -36 -26.5 -87t-46.5 -64
q-18 -9 -29.5 1.5t-15.5 33.5t-5.5 51t0.5 53q-57 -93 -99 -81q-49 10 -47 62q2 55 53 101q46 42 106 47q16 0 16 -16t-16 -16z" />
    <glyph glyph-name="b" unicode="b" horiz-adv-x="198" 
d="M35 206q116 177 48 195q-14 4 -24.5 -21t-15 -63.5t-6.5 -67t-2 -43.5zM32 149v-10q0 -12 2 -32t6 -45.5t13.5 -42t21.5 -13.5q12 2 19.5 32t7.5 63q-23 -3 -34 11t-6.5 32.5t20.5 28.5q30 19 44 -29q15 7 21.5 10t14 11t7.5 17q-2 9 4.5 15t15.5 3.5t11 -12.5
q2 -28 -16 -45t-52 -32q4 -50 -10 -92.5t-46 -44.5q-38 -2 -57 42t-18.5 105t4.5 123q10 125 35 164q20 32 52 24q40 -11 46 -49t-15 -84.5t-45 -85t-46 -64.5zM98 134z" />
    <glyph glyph-name="c" unicode="c" horiz-adv-x="209" 
d="M108 236q15 15 20.5 33t-5.5 37q-18 20 -51 -33q-38 -64 -41 -127q-2 -62 43 -60q2 1 5 1q15 2 27.5 9t20 14t16 21.5t11.5 22.5t10 25.5l9 22.5q6 8 14 8t13.5 -8t0.5 -16q-10 -26 -18.5 -44t-24 -41t-38 -35t-50.5 -11q-42 1 -59 35t-10.5 78t25.5 87.5t42 65.5
q37 36 71 15q31 -19 24 -62q-6 -33 -36 -63q-8 -6 -16 -2.5t-9 11.5t6 16z" />
    <glyph glyph-name="d" unicode="d" horiz-adv-x="277" 
d="M176 289q27 93 23 127q-12 -27 -23 -127zM138 243q-48 48 -82 -3q-28 -40 -24 -94q3 -46 32 -44q26 2 67 51q2 51 7 90zM130 107q-75 -67 -112 -20q-28 37 -15 107q13 73 58 96q36 18 80 -10q0 3 2.5 20.5t4 30t5 32.5t7.5 34t9 28.5t11.5 22.5t13.5 9q58 10 23 -139
q-20 -84 -55 -174q0 -104 13 -117q6 -3 14.5 12t16.5 40t15.5 50.5t13 46.5t7.5 25q5 8 12.5 8.5t13.5 -6.5t2 -16l-6 -24t-9.5 -35.5t-11.5 -38.5t-15 -39.5t-18 -31t-22 -20t-25 -0.5q-28 11 -33 109z" />
    <glyph glyph-name="e" unicode="e" horiz-adv-x="222" 
d="M55 178q52 0 55 17q2 7 -6 15q-20 22 -40.5 13t-27.5 -40q-17 -76 28 -81q38 -5 81 36q29 28 40 60q4 16 18.5 12.5t12.5 -18.5q-19 -67 -83 -103q-59 -33 -100 -9q-33 19 -33 72q0 62 32 88t66.5 13.5t42.5 -47.5q7 -34 -20.5 -47t-65.5 -13q-16 0 -16 16t16 16z" />
    <glyph glyph-name="f" unicode="f" horiz-adv-x="161" 
d="M38 255q7 67 15 89q12 38 24 35q14 -3 12 -38q-5 -59 -51 -86zM35 219q36 6 60 46t24 80q0 33 -17.5 54.5t-45.5 6.5q-32 -17 -47 -134t-6 -234.5t38 -136.5q23 -16 41 4t23 49q6 26 2 58.5t-8.5 50t-13 43.5t-11.5 38q44 -19 67.5 -13.5t37.5 56.5q4 13 -13 17
q-16 0 -19 -14q-1 -16 -7 -22t-15 -4.5t-19 6t-22.5 9t-22.5 4.5q-10 -1 -15.5 -7t-5.5 -16t1.5 -21t6 -24.5l7.5 -22.5t7.5 -18.5t4.5 -10.5q14 -35 4 -99q-5 -31 -12 -30q-3 0 -5 5q-15 24 -19.5 120t0.5 160z" />
    <glyph glyph-name="g" unicode="g" horiz-adv-x="263" 
d="M99 237q39 16 63.5 -26t34.5 -102q19 32 28 88q1 9 10 12t16 -2t6 -15q-17 -91 -55 -125q2 -77 -29.5 -141t-96.5 -93q-35 -14 -46.5 17.5t-1.5 66.5q10 38 35 70.5t44.5 48t61.5 45.5q-5 49 -24 95q-15 -25 -45 -49.5t-54 -24.5q-43 0 -46 51q-3 54 34 103q45 59 101 35
q3 -2 7 -4q9 -5 8 -14t-8 -13t-17 0q-39 21 -72 -31q-26 -43 -21 -77q6 -35 46 -3q9 7 18 16q15 15 27 42q-6 4 -11 1q-9 -4 -16 2t-6.5 14.5t9.5 12.5zM170 44q-80 -53 -106 -119q-11 -28 -9 -53q1 -13 9 -10q51 23 77.5 72t28.5 110z" />
    <glyph glyph-name="h" unicode="h" horiz-adv-x="205" 
d="M48 276q11 15 19 35.5t11 44t-8 38.5q-5 -1 -9.5 -27.5t-8 -57t-4.5 -33.5zM48 215q50 56 77 19q13 -17 14.5 -84.5t1.5 -68.5q6 8 11.5 32t9.5 50t6 31q1 10 9.5 13t15.5 -3t6 -15q0 -2 -1.5 -12.5t-3 -17t-3.5 -18.5t-4 -20.5t-5.5 -19.5t-7 -19t-7.5 -16t-9 -12.5
t-11 -6.5q-17 -6 -26 7t-11.5 37t-3 49t-2 47t-5.5 29q-11 -4 -30.5 -26.5t-30.5 -39.5q-6 -112 -6 -126q0 -16 -16 -16t-16 16q9 273 33 366q6 24 22 32.5t30.5 0t18.5 -28.5q10 -43 -1 -78.5t-31.5 -64t-23.5 -36.5z" />
    <glyph glyph-name="i" unicode="i" horiz-adv-x="160" 
d="M37 223q-2 -16 -4 -41.5t-1 -56.5t8 -38q15 2 42 43t41 69q4 9 13 9.5t15 -6t2 -15.5q-55 -112 -100 -129q-43 -16 -51 51q-5 42 4 118q1 9 9.5 12t15.5 -2t6 -14zM23 265q-18 0 -16 22q3 21 18 24q3 1 6 0q16 -6 11 -26t-19 -20z" />
    <glyph glyph-name="j" unicode="j" horiz-adv-x="227" 
d="M128 261q-18 0 -16 22q2 20 17 23q3 1 6 0q16 -4 11 -24.5t-18 -20.5zM190 194q0 9 8 12.5t16 -0.5t8 -13q-3 -13 -8.5 -25.5t-10 -21t-15.5 -22t-15 -18.5t-18 -20.5t-17 -18.5q0 -6 -1 -22.5t-1.5 -32t-2.5 -38t-4.5 -40.5t-7.5 -39t-11.5 -34t-15.5 -25t-21 -12t-27 4
q-28 11 -28.5 49.5t18 82.5t38.5 80.5t33 50.5q1 16 2 36t1.5 40.5t0.5 27.5q-29 -25 -37 -19q-12 10 7.5 33t38.5 30q7 4 15 0.5t8 -14.5q0 -9 -1 -49t-1 -59q44 55 49 77zM56 -140q20 -12 32 32q7 25 18 131q-31 -39 -48.5 -97t-1.5 -66z" />
    <glyph glyph-name="k" unicode="k" horiz-adv-x="259" 
d="M41 256q17 19 26 69.5t-3 66.5q-14 -25 -23 -136zM76 250q33 7 49 -9.5t-7 -47.5q-17 -21 -29 -30q23 -24 40.5 -70.5t30.5 -59.5q16 -18 37 37q25 70 30 124q0 16 15 19q15 1 16 -13q0 -40 -21.5 -108t-47.5 -87q-25 -20 -45 -1.5t-30.5 46.5t-26 61t-30.5 41
q-22 10 4 27q32 23 36 27q8 9 4 18q-5 11 -29 -2.5t-35 -26.5q-5 -79 -5 -147q0 -16 -16 -16t-16 16q0 370 60 378q19 2 29 -12t11.5 -36.5t-1.5 -47.5t-9.5 -47t-13.5 -33z" />
    <glyph glyph-name="l" unicode="l" horiz-adv-x="187" 
d="M34 148q23 38 41 124t0 130q-32 -51 -41 -254zM35 109q2 -21 4 -36t7.5 -40.5t12.5 -28.5t20 1q22 18 45 84.5t26 103.5q0 16 16 16t16 -16q-5 -57 -34.5 -135t-69.5 -89q-49 -14 -68 68q-22 99 5 255q22 129 54 145q2 2 5 2q41 3 41.5 -78t-26.5 -164.5t-54 -87.5z" />
    <glyph glyph-name="m" unicode="m" horiz-adv-x="347" 
d="M32 251q0 -32 1 -55q35 132 69 132q21 0 30.5 -31.5t13.5 -90.5q14 54 31.5 77.5t40.5 2.5q19 -18 26 -109t14 -109q17 19 32.5 59t19.5 67q0 16 16 16t16 -16q-5 -37 -28.5 -93t-47.5 -67q-19 -8 -30.5 9t-15.5 48.5t-6.5 65t-5.5 64t-10 40.5q-17 -28 -30 -109
q-3 -11 -8.5 -62.5t-6.5 -53.5q-4 -14 -17.5 -12t-15.5 20q-2 14 -4.5 116t-14.5 131q-26 -36 -51 -161q0 -2 -1.5 -8l-2.5 -10t-3 -10.5t-5 -8.5t-7.5 -4.5t-9.5 1.5q-21 10 -21 161q0 16 16 16t16 -16z" />
    <glyph glyph-name="n" unicode="n" horiz-adv-x="251" 
d="M31 205q27 81 77 96q25 7 39.5 -9t18 -48t3.5 -61.5t-3 -64t-3 -40.5q-2 -20 -1 -39q28 45 52 164q3 9 12 11t15.5 -4.5t3.5 -15.5q-4 -13 -13.5 -50t-18 -63t-18.5 -47q-5 -11 -14.5 -22t-21.5 -16t-21 8q-11 14 -4 132q7 121 -9 133q-3 2 -8 1q-11 -3 -20.5 -11
t-16 -17.5t-12 -25t-8.5 -27t-6 -30.5t-4 -27.5t-3 -26.5t-2 -21q-1 -9 -7.5 -13t-13.5 -2t-10 8q-6 15 -10 74t-4 88q7 15 21 7q4 -2 6 -8t2.5 -10t1 -12.5t0.5 -10.5z" />
    <glyph glyph-name="o" unicode="o" horiz-adv-x="208" 
d="M74 228q-21 -2 -33.5 -33t-5.5 -61t34 -28q19 1 30 26q-41 6 -43 44t32 54q25 11 38.5 -8.5t12.5 -53.5q27 9 32 29q1 10 9.5 13t15.5 -2.5t6 -15.5q-12 -45 -69 -59q-16 -54 -61 -58q-47 -4 -64.5 41t2.5 92.5t64 51.5q16 0 16 -16t-16 -16zM107 162q5 28 -6 39
q-8 -3 -12.5 -11.5t-0.5 -17.5t19 -10z" />
    <glyph glyph-name="p" unicode="p" horiz-adv-x="228" 
d="M32 265q48 76 103 65q62 -11 3 -151q39 28 63 40q9 4 15.5 -2t6 -14.5t-9.5 -12.5q-29 -14 -65.5 -47.5t-50.5 -42.5q-10 -6 -19 2t-3 21q86 172 55 176q-7 1 -13.5 -0.5t-13.5 -6t-12.5 -8.5t-12.5 -12t-10.5 -12.5t-10.5 -15l-9 -13.5t-8 -13l-7 -11q0 -33 2 -138
t2 -162q0 -16 -16 -16t-16 16q0 69 -2.5 207.5t-2.5 208.5q0 15 15.5 15t15.5 -15q1 -19 1 -58z" />
    <glyph glyph-name="q" unicode="q" horiz-adv-x="242" 
d="M157 272q-12 -51 -17.5 -173.5t3.5 -179.5q28 17 28.5 41t-13 59t-14.5 54q-1 13 9.5 23t25.5 26.5t22 43.5l4 26q0 16 16 16t16 -16q-6 -45 -16.5 -64.5t-44.5 -53.5q0 -8 14 -50.5t11 -69.5q-4 -32 -32 -57.5t-46 -10.5q-24 20 -14 210q-12 -5 -30 -5q-68 3 -78 64
q-9 53 25 101q34 49 73 32q13 -6 25 -19q1 4 2 9v3q3 9 12 10.5t15.5 -4.5t3.5 -15zM105 134l6 5q1 13 3.5 30t3.5 26t-1.5 21t-9.5 24q-28 40 -55 0q-23 -35 -19 -76q1 -9 3 -16q8 -18 31 -23.5t38 9.5z" />
    <glyph glyph-name="r" unicode="r" horiz-adv-x="258" 
d="M11 213l5 7q6 8 11.5 16t6.5 9q-23 24 -16.5 52.5t34.5 38.5q29 8 36 -20.5t-9 -61.5q8 -3 34 -5.5t39.5 -10t8.5 -26.5q-5 -20 -14 -103.5t-9 -114.5q25 35 59 104.5t36 101.5q0 16 16 16t16 -16q-3 -43 -48 -135q-55 -115 -91 -111q-8 1 -14 8q-12 24 -3.5 117.5
t20.5 134.5q-7 1 -21.5 2.5t-25 3.5t-21.5 7q-2 -2 -11 -13t-17.5 -20.5t-13.5 -11.5q-13 -5 -19 12q-5 14 11 19zM52 273q10 24 7 31q-7 -3 -9.5 -12t2.5 -19z" />
    <glyph glyph-name="s" unicode="s" horiz-adv-x="243" 
d="M112 255q-19 -10 -26.5 -19.5t-4.5 -20t9.5 -19.5t18.5 -25t19 -29q34 16 39 20.5t43 50.5q6 8 15 5.5t12 -10t-3 -15.5q-38 -48 -45.5 -54t-46.5 -25q33 -70 30 -155q-3 -84 -48 -87q-11 0 -24 5q-20 7 -39 38.5t-28 70t6.5 79.5t60.5 63q-7 12 -22 35t-20 34.5
t-7.5 28.5t10 30.5t38.5 27.5q9 4 16 -2t6.5 -14.5t-9.5 -12.5zM114 100q-41 -21 -47 -64.5t9 -78t29 -44.5q29 -18 37 31q9 60 -16 130q-6 14 -12 26z" />
    <glyph glyph-name="t" unicode="t" horiz-adv-x="223" 
d="M122 447q-1 -3 -7 -58q7 0 19.5 -0.5t18.5 -0.5q16 0 16 -16t-16 -16q-13 1 -41 1q-8 -75 -5.5 -190t21.5 -127q16 -11 64 60q25 45 29 93q0 16 16 16t16 -16q-2 -27 -19.5 -73.5t-50.5 -86t-66 -30.5q-24 6 -35 72.5t-10 140t7 141.5q-141 0 -158 -2q-9 -2 -16 4.5
t-5.5 15t11.5 10.5q36 4 171 4q4 42 10 68q3 9 11.5 10.5t15 -5t3.5 -15.5z" />
    <glyph glyph-name="u" unicode="u" horiz-adv-x="214" 
d="M33 279q-6 -18 -2.5 -98.5t20.5 -83.5q7 -2 13.5 8.5t10.5 28.5t8 40t7 45t5.5 42.5t5 33t5.5 16.5q10 8 17.5 3.5t9.5 -18.5q3 -19 8 -54t9.5 -59.5t13.5 -55.5q33 69 39 79q8 14 17 8t8 -22q-40 -95 -68 -104q-10 -3 -19 15t-14 45t-7 56q-2 -8 -6.5 -36.5t-9 -49
t-18.5 -39t-34 -20.5q-26 -3 -40 26.5t-15.5 71.5t0.5 77t6 54q5 15 20 10.5t10 -19.5z" />
    <glyph glyph-name="v" unicode="v" horiz-adv-x="174" 
d="M7 273q13 -134 33 -199q22 31 44 108q-21 25 -6 56q12 24 28 16l9 -8q11 -12 4 -50q7 -2 18 2t22 10.5t15 7.5q10 1 15.5 -6t2.5 -15.5t-13 -9.5q-8 -1 -31 -12.5t-35 -8.5q-13 -55 -39 -96t-49 -30q-12 6 -24 61t-17 98.5t-8 75.5q0 10 8 14t15.5 0t7.5 -14z" />
    <glyph glyph-name="w" unicode="w" horiz-adv-x="335" 
d="M32 283q15 -158 32 -188q16 17 44 94.5t35 81.5q9 3 14.5 1t9.5 -12t6 -19t3 -18.5t2 -11.5q13 -75 22 -87q17 19 29 56q-34 24 -18 52q12 20 33 18q28 -3 22 -50q22 -2 32 4v3q0 16 16 16t15 -19q-2 -24 -25 -31t-45 -4q-21 -68 -50 -79q-14 -5 -25 3.5t-18 28t-11 38
t-8 42.5q-41 -118 -68 -136q-36 -26 -58 58q-20 75 -21 159q0 16 16 16t16 -16z" />
    <glyph glyph-name="x" unicode="x" horiz-adv-x="267" 
d="M-1 204q28 47 39 86q4 14 15.5 14.5t18.5 -18.5q0 -1 3.5 -15t7 -28.5t9.5 -32.5t11 -29q42 87 68 124q12 8 21 -4t-3 -22q-35 -66 -66 -132q17 -28 30.5 -42t23 -14t17 7t13.5 23t10.5 32t10.5 35.5t12 31.5q3 6 11 3t11 -9q-12 -70 -33 -111q-49 -92 -122 11
q-22 -45 -52 -114q-2 -10 -10.5 -11.5t-15 5.5t-4.5 16q10 23 61 136q-8 11 -22.5 49.5t-14.5 39.5q-19 -41 -24 -49q-6 -8 -15.5 -6t-12.5 9t2 15z" />
    <glyph glyph-name="y" unicode="y" horiz-adv-x="245" 
d="M31 267v-13.5t0.5 -22.5t1.5 -28.5t3 -25t5.5 -19t7.5 -4.5q26 10 59 61v82q0 16 16 16t16 -16q0 -157 -4 -218q39 24 53.5 47.5t18.5 68.5q0 16 16 16t16 -16q-6 -63 -26.5 -91.5t-81.5 -63.5q-7 -53 -15 -78q-13 -38 -41 -30q-25 7 -31 36q-11 48 49 86q4 3 8 5
q5 50 6 103q-49 -55 -81 -36q-27 17 -27 141q0 10 8 14t15.5 0t7.5 -14zM97 19q-16 -10 -21 -25t8 -30q3 5 13 55z" />
    <glyph glyph-name="z" unicode="z" horiz-adv-x="240" 
d="M185 210q5 8 14.5 6.5t13 -9t-2.5 -16.5q-4 -7 -28 -53.5t-42 -61.5q6 -36 -10.5 -78t-42.5 -58t-55 8q-19 20 -16 44t18 45t37 35q15 9 31 17q-6 9 -53 35q-15 9 -15 21.5t10.5 25t23.5 24.5t25 24.5t13 20.5q-19 11 -88 -14q-2 -14 -12 -52q-1 -4 -8 -6t-13.5 -0.5
t-6.5 5.5q0 2 2.5 16.5t4 23.5t5 19.5t8.5 15.5q1 0 2 1q20 10 46 18.5t56.5 6t35.5 -27.5q2 -14 -9 -31t-34.5 -40t-26.5 -26q6 -4 19 -9.5t23 -12.5t18 -19q13 16 31 53t26 49zM53 -28q18 -26 41 28q17 37 17 59q-83 -50 -58 -87z" />
    <glyph glyph-name="braceleft" unicode="{" horiz-adv-x="196" 
d="M140 -30q-70 -47 -94 4q-11 22 -11.5 53.5t3.5 66.5t2 51q-18 8 -24.5 16.5t-5 15t7 21.5t7.5 25q19 94 27 118q38 112 110 29q36 -41 18 -59q-10 -10 -21 0q-4 3 -5 8q-12 35 -38 50q-11 6 -20.5 -5t-16.5 -34t-11.5 -45t-8 -44t-3.5 -24q-3 -13 -7.5 -24.5t-5.5 -14.5
q3 -2 11 -5t12 -7q6 -7 6 -32.5t-2.5 -59.5t-2.5 -41q2 -44 11 -51t44 14q8 5 16 0.5t8.5 -12.5t-6.5 -14z" />
    <glyph glyph-name="bar" unicode="|" horiz-adv-x="62" 
d="M11 -39q15 481 6 627q0 43 -2 48q-2 9 4 14.5t14.5 4.5t10.5 -10q2 -6 5 -56q9 -145 -6 -628q0 -15 -16 -15t-16 15z" />
    <glyph glyph-name="braceright" unicode="}" horiz-adv-x="196" 
d="M56 354q23 13 35 18.5t30.5 2t28.5 -24.5q11 -22 11.5 -53.5t-3.5 -66.5t-2 -51q18 -8 24.5 -16.5t5 -15t-7 -21.5t-7.5 -25q-19 -94 -27 -118q-38 -112 -110 -29q-36 41 -18 59q10 10 21 0q4 -3 5 -8q12 -35 38 -50q11 -7 20.5 4t16 34.5t11.5 45.5t8 44t4 24
q3 13 7.5 24.5t5.5 14.5q-3 2 -11 5t-12 7q-6 7 -6 32.5t2.5 59.5t2.5 41q-2 45 -11.5 51.5t-43.5 -14.5q-8 -6 -15.5 -2t-8.5 12.5t6 15.5z" />
    <glyph glyph-name="asciitilde" unicode="~" horiz-adv-x="195" 
d="M10 166q2 26 14.5 37t30.5 8t36 -10t36 -15t25 -8q1 7 1 11q-1 10 6.5 15t16 1.5t8.5 -13.5q1 -24 -6.5 -35t-22.5 -10t-28 5t-32 12.5t-26 10.5q-13 5 -17.5 5.5t-6.5 -2.5t-3 -13q0 -9 -8 -13t-16 0t-8 14z" />
    <glyph glyph-name="exclamdown" unicode="&#xa1;" horiz-adv-x="58" 
d="M44 297v-256q0 -10 -8 -14t-15.5 0t-7.5 14v256q0 15 15.5 15t15.5 -15zM47 373l-6 -22q-6 -16 -20 -11q-15 6 -10 20l4 17q1 16 18 14q16 -1 14 -18z" />
    <glyph glyph-name="cent" unicode="&#xa2;" horiz-adv-x="209" 
d="M83 -39q0 28 2 94h-15q-42 1 -59 35t-10.5 78t25.5 87.5t42 65.5q7 7 23 16l-2 57q0 43 -2 48q-2 9 4 14.5t14.5 4.5t10.5 -10q2 -6 5 -56l2 -49q47 4 67 -30.5t-21 -79.5q-8 -6 -16 -2.5t-9 11.5t6 16q8 9 11 17t1.5 13.5t-4 9.5t-8.5 6.5t-10.5 4t-10 3t-6.5 1.5
q2 -103 -3 -211q13 10 21.5 25.5t18.5 40.5t13 31q6 8 14 8t13.5 -8t0.5 -16q-30 -72 -53 -98q-15 -15 -30 -23l-3 -104q0 -15 -16 -15t-16 15zM79 87q1 0 4 0.5t4 0.5q4 95 4 211q-37 -43 -53 -116q-19 -86 23 -96q8 -1 18 0z" />
    <glyph glyph-name="section" unicode="&#xa7;" horiz-adv-x="284" 
d="M-12 -219q28 -4 75.5 0t88.5 27t32 55q-3 8 -9 18.5t-11 19t-16.5 22t-17 20t-20 23t-18.5 20.5q-50 25 -61.5 78t9.5 104.5t59 80.5q-3 4 -53 56q-31 34 -41.5 64.5t-1 51.5t29.5 38t49.5 26t60.5 13t61 2t52 -10q8 -6 7 -15.5t-8 -13t-16 1.5q-17 6 -54.5 2.5
t-75.5 -10.5t-62.5 -26t-16.5 -43q5 -17 18.5 -35t41 -46.5t36.5 -38.5q48 -4 69 -69t2 -130.5t-69 -71.5q3 -4 53 -56q31 -34 41.5 -64.5t1 -51.5t-29.5 -38t-49.5 -26t-60.5 -13t-61 -2t-52 10q-9 5 -8 14t8 13t17 0zM118 23q48 15 54 90q4 63 -21 98q-16 22 -37 10
q-44 -30 -49 -103q-4 -64 24 -88q13 -11 29 -7z" />
    <glyph glyph-name="plusminus" unicode="&#xb1;" horiz-adv-x="260" 
d="M26 220h208q16 0 16 -16t-16 -16h-208q-16 0 -16 16t16 16zM26 377h88v88q0 16 16 16t16 -16v-88h88q16 0 16 -16t-16 -16h-88v-88q0 -16 -16 -16t-16 16v88h-88q-16 0 -16 16t16 16z" />
    <glyph glyph-name="acute" unicode="&#xb4;" horiz-adv-x="93" 
d="M13 338q29 54 38 81q2 9 11 10.5t16 -4.5t4 -15q-12 -34 -40 -87q-6 -8 -14.5 -8.5t-14 7t-0.5 16.5z" />
    <glyph glyph-name="onequarter" unicode="&#xbc;" horiz-adv-x="397" 
d="M279 390q-4 -30 -18.5 -56.5t-39 -58t-34.5 -47.5q74 0 131 4q13 64 17 122q0 10 8 13.5t16 -1t8 -14.5q-4 -49 -16 -117q3 0 6.5 0.5t4.5 0.5q8 5 16 0.5t8.5 -12.5t-6.5 -14q-2 -2 -35 -7q-26 -128 -27 -190q0 -16 -16 -16t-16 16q3 68 26 188q-41 -4 -91 -5t-55 1
q-32 8 1 58q7 11 24 35q53 70 56 100q0 16 16 16t16 -16zM204 453q-101 -302 -121 -386q-11 -39 -11 -47q0 -15 -15.5 -15t-15.5 15l11 55q23 94 121 387q6 15 20.5 10t10.5 -19zM42 511v-329q0 -16 -16 -16t-16 16v329q0 16 16 16t16 -16z" />
    <glyph glyph-name="onehalf" unicode="&#xbd;" horiz-adv-x="366" 
d="M142 254q52 106 117 103q27 -1 39.5 -18t12 -42t-5.5 -46.5t-12 -41.5q-25 -66 -94 -161l134 56q9 4 16 -2t6.5 -14.5t-9.5 -12.5l-170 -72q-18 -6 -24.5 8.5t7.5 34.5q7 10 19 27t19.5 27t17 25.5t17.5 30.5q1 1 6 11.5t8.5 18.5t10 22t10.5 25t8 24.5t5 23.5t0.5 20
t-5 16t-12.5 8q-26 5 -51 -22.5t-41 -60.5q-4 -9 -12.5 -9.5t-14.5 6t-2 15.5zM182 458q-101 -302 -121 -386q-11 -39 -11 -47q0 -15 -15.5 -15t-15.5 15l11 55q23 94 121 387q6 15 20.5 10t10.5 -19zM42 555v-329q0 -16 -16 -16t-16 16v329q0 16 16 16t16 -16z" />
    <glyph glyph-name="threequarters" unicode="&#xbe;" horiz-adv-x="544" 
d="M59 506q1 1 16 9t20.5 10.5t21 10t23.5 10t22 6.5t23.5 4t21 -1.5t20.5 -7t16 -14.5q9 -11 9 -25t-5 -27t-16 -28.5t-21 -27t-23 -26.5t-19 -22q40 -12 58 -33t7 -61q-14 -42 -43 -63t-61.5 -19.5t-65 25.5t-51.5 66q-4 9 2 15.5t14.5 6t12.5 -9.5q28 -61 76.5 -71
t82.5 52q13 27 -0.5 41.5t-38 20.5t-27.5 10q-12 13 14.5 45.5t53 64.5t16.5 46q-26 34 -145 -36q-9 -4 -16.5 2t-7 14.5t9.5 12.5zM426 400q-4 -30 -18.5 -56.5t-39 -58t-34.5 -47.5q74 0 131 4q13 64 17 122q0 10 8 13.5t16 -1t8 -14.5q-4 -49 -16 -117q3 0 6.5 0.5
t4.5 0.5q8 5 16 0.5t8.5 -12.5t-6.5 -14q-2 -2 -35 -7q-26 -128 -27 -190q0 -16 -16 -16t-16 16q3 68 26 188q-41 -4 -91 -5t-55 1q-32 8 1 58q7 11 24 35q53 70 56 100q0 16 16 16t16 -16zM342 458q-101 -302 -121 -386q-11 -39 -11 -47q0 -15 -15.5 -15t-15.5 15l11 55
q23 94 121 387q6 15 20.5 10t10.5 -19z" />
    <glyph glyph-name="questiondown" unicode="&#xbf;" horiz-adv-x="210" 
d="M200 240q-7 -80 -65 -99q-48 -15 -90 18q-48 37 -31 98q7 28 30 57q11 13 31 29.5t32 31.5t14 36q0 16 16 16t16 -16q-4 -31 -15.5 -48.5t-34 -35t-35.5 -33.5q-45 -57 -14 -99q23 -31 60 -26q41 6 52 55q2 7 3 16q0 10 7.5 14t15.5 0t8 -14zM127 483q-3 8 -6 22
q-2 15 14 17q17 2 18 -14q0 -4 0.5 -5.5t1 -2t1 -3t1.5 -6.5q5 -13 -10 -19q-14 -5 -20 11z" />
    <glyph glyph-name="Agrave" unicode="&#xc0;" horiz-adv-x="379" 
d="M505 -225q10 0 14 -7.5t0 -15.5t-14 -8q-42 5 -75 22.5t-54 52.5t-34.5 63.5t-21.5 82t-11 78.5t-7 82q-1 17 -2 25l-95 -9q-41 -80 -74 -112q-27 -25 -50 -29t-41.5 9.5t-37.5 42.5q-8 14 7 21q13 7 20 -6q28 -40 49 -37t53 47q20 26 38 62q-49 -2 -86 5q-9 2 -11 10.5
t4 15t16 4.5q41 -8 93 -3q61 125 109 309q2 13 14 14q16 -1 17 -28q0 -207 5 -283q10 0 14 -7.5t0 -15.5t-13 -8q9 -148 23 -206q37 -160 151 -171zM220 174l39 3t39 4q-4 60 -4 112v75q-29 -96 -74 -194zM249 619q29 -47 51 -73q11 -11 -0.5 -22t-22.5 -1q-27 32 -55 79
q-5 9 0 17t13 8t14 -8z" />
    <glyph glyph-name="Aacute" unicode="&#xc1;" horiz-adv-x="379" 
d="M505 -225q10 0 14 -7.5t0 -15.5t-14 -8q-42 5 -75 22.5t-54 52.5t-34.5 63.5t-21.5 82t-11 78.5t-7 82q-1 17 -2 25l-95 -9q-41 -80 -74 -112q-27 -25 -50 -29t-41.5 9.5t-37.5 42.5q-8 14 7 21q13 7 20 -6q28 -40 49 -37t53 47q20 26 38 62q-49 -2 -86 5q-9 2 -11 10.5
t4 15t16 4.5q41 -8 93 -3q61 125 109 309q2 13 14 14q16 -1 17 -28q0 -207 5 -283q10 0 14 -7.5t0 -15.5t-13 -8q9 -148 23 -206q37 -160 151 -171zM220 174l39 3t39 4q-4 60 -4 112v75q-29 -96 -74 -194zM231 538q29 54 38 81q2 9 11 10.5t16 -4.5t4 -15q-12 -34 -40 -87
q-6 -8 -14.5 -8.5t-14 7t-0.5 16.5z" />
    <glyph glyph-name="Acircumflex" unicode="&#xc2;" horiz-adv-x="381" 
d="M505 -225q10 0 14 -7.5t0 -15.5t-14 -8q-42 5 -75 22.5t-54 52.5t-34.5 63.5t-21.5 82t-11 78.5t-7 82q-1 17 -2 25l-95 -9q-41 -80 -74 -112q-27 -25 -50 -29t-41.5 9.5t-37.5 42.5q-8 14 7 21q13 7 20 -6q28 -40 49 -37t53 47q20 26 38 62q-49 -2 -86 5q-9 2 -11 10.5
t4 15t16 4.5q41 -8 93 -3q61 125 109 309q2 13 14 14q16 -1 17 -28q0 -207 5 -283q10 0 14 -7.5t0 -15.5t-13 -8q9 -148 23 -206q37 -160 151 -171zM220 174l78 7q-4 60 -4 112v75q-29 -96 -74 -194zM259 619q5 9 14 8t13 -8t0 -17q-28 -47 -55 -79q-11 -10 -22.5 1t-0.5 22
q22 26 51 73zM335 619q29 -47 51 -73q11 -11 -0.5 -22t-22.5 -1q-27 32 -55 79q-5 9 0 17t13 8t14 -8z" />
    <glyph glyph-name="Atilde" unicode="&#xc3;" horiz-adv-x="381" 
d="M505 -225q10 0 14 -7.5t0 -15.5t-14 -8q-42 5 -75 22.5t-54 52.5t-34.5 63.5t-21.5 82t-11 78.5t-7 82q-1 17 -2 25l-95 -9q-41 -80 -74 -112q-27 -25 -50 -29t-41.5 9.5t-37.5 42.5q-8 14 7 21q13 7 20 -6q28 -40 49 -37t53 47q20 26 38 62q-49 -2 -86 5q-9 2 -11 10.5
t4 15t16 4.5q41 -8 93 -3q61 125 109 309q2 13 14 14q16 -1 17 -28q0 -207 5 -283q10 0 14 -7.5t0 -15.5t-13 -8q9 -148 23 -206q37 -160 151 -171zM219 542q2 26 14.5 37t31 8t36 -10t35.5 -15t25 -8q1 7 1 11q-1 10 6.5 15t16 1.5t8.5 -13.5q1 -24 -6.5 -35t-22.5 -10
t-28 5t-32 12.5t-26 10.5q-13 5 -17.5 5.5t-6.5 -2.5t-3 -13q0 -9 -8 -13t-16 0t-8 14zM220 174l78 7q-4 60 -4 112v75q-29 -96 -74 -194z" />
    <glyph glyph-name="Adieresis" unicode="&#xc4;" horiz-adv-x="377" 
d="M505 -225q10 0 14 -7.5t0 -15.5t-14 -8q-42 5 -75 22.5t-54 52.5t-34.5 63.5t-21.5 82t-11 78.5t-7 82q-1 17 -2 25l-95 -9q-41 -80 -74 -112q-27 -25 -50 -29t-41.5 9.5t-37.5 42.5q-8 14 7 21q13 7 20 -6q28 -40 49 -37t53 47q20 26 38 62q-49 -2 -86 5q-9 2 -11 10.5
t4 15t16 4.5q41 -8 93 -3q61 125 109 309q2 13 14 14q16 -1 17 -28q0 -207 5 -283q10 0 14 -7.5t0 -15.5t-13 -8q9 -148 23 -206q37 -160 151 -171zM220 174l78 7q-4 60 -4 112v75q-29 -96 -74 -194zM312 544q10 31 29 19q16 -10 14 -28q-1 -20 -33 -11q-15 6 -10 20z
M247 544q10 31 29 19q16 -10 14 -28q-1 -20 -33 -11q-15 6 -10 20z" />
    <glyph glyph-name="Aring" unicode="&#xc5;" horiz-adv-x="381" 
d="M505 -225q10 0 14 -7.5t0 -15.5t-14 -8q-42 5 -75 22.5t-54 52.5t-34.5 63.5t-21.5 82t-11 78.5t-7 82q-1 17 -2 25l-95 -9q-41 -80 -74 -112q-27 -25 -50 -29t-41.5 9.5t-37.5 42.5q-8 14 7 21q13 7 20 -6q28 -40 49 -37t53 47q20 26 38 62q-49 -2 -86 5q-9 2 -11 10.5
t4 15t16 4.5q41 -8 93 -3q70 155 106 297q-56 -2 -63 34q-6 30 26 54q46 33 108 1q7 -4 2 -10q-4 -4 -9 -1q-59 30 -99 -7q-26 -27 -10 -44t48 -13q3 9 11.5 12t13.5 -5q17 8 26 26q7 13 -3 20q-5 3 -1 9t9 1q9 -5 11 -17q4 -29 -37 -51q0 -1 0.5 -5t0.5 -6q0 -207 5 -283
q10 0 14 -7.5t0 -15.5t-13 -8q9 -148 23 -206q37 -160 151 -171zM220 174l78 7q-4 60 -4 112v75q-29 -96 -74 -194z" />
    <glyph glyph-name="AE" unicode="&#xc6;" horiz-adv-x="571" 
d="M505 -225q10 0 14 -7.5t0 -15.5t-14 -8q-41 -1 -74 15t-55 47t-37.5 67.5t-25 85t-14 92t-6.5 94.5l-88 -4q-41 -80 -74 -112q-27 -25 -50 -29t-41.5 9.5t-37.5 42.5q-8 14 7 21q13 7 20 -6q28 -40 49 -37t53 47q20 26 38 62q-49 -2 -86 5q-9 2 -11 10.5t4 15t16 4.5
q41 -8 93 -3q61 125 109 309q2 13 14 14q16 -1 17 -28v-27.5v-44v-45.5q18 42 39.5 69t49.5 40t62 -3.5t71 -64.5q7 -8 2.5 -16t-13 -8.5t-14.5 6.5q-30 38 -57.5 49.5t-48 1.5t-39 -36.5t-30 -57t-21.5 -68.5q3 -66 4 -78q141 16 175 17q9 0 13 -8t0 -16t-14 -8
q-45 -1 -169 -16h-4q10 -150 24 -209q23 -18 49.5 -18.5t59.5 25t66 75.5q5 9 14 8t13 -8t0 -17q-95 -143 -189 -109q42 -114 137 -124zM220 174h33t39 2q-1 23 -0.5 50.5t1.5 75.5t1 66q-29 -96 -74 -194z" />
    <glyph glyph-name="Ccedilla" unicode="&#xc7;" horiz-adv-x="295" 
d="M253 397q9 16 2 38.5t-28 28.5q-34 11 -77.5 -6.5t-68.5 -48.5q-56 -73 -47 -208t72 -198q21 -21 42 -21.5t37 12t31.5 36t24.5 42.5t17 40q0 9 8 13t16 0t8 -14q-24 -75 -62 -120q-36 -41 -74 -43l3 -6q47 -30 29 -70q-14 -32 -52 -38q-34 -5 -61 19q-20 26 15 24
q4 -3 12.5 -10t11.5 -8.5t9.5 -4t11.5 0t12.5 8.5t17.5 16q6 4 -0.5 16t-18 28.5t-12.5 26.5q-40 11 -73.5 63t-47 122.5t-10 143t40.5 132t103 79.5q97 31 132 -27q22 -36 8 -72q-8 -20 -22 -22q-12 -2 -16 9.5t6 18.5z" />
    <glyph glyph-name="Egrave" unicode="&#xc8;" horiz-adv-x="300" 
d="M265 62q5 9 14 8t13 -8t0 -17q-36 -55 -74.5 -84t-71.5 -31.5t-61.5 15.5t-47.5 52.5t-27.5 84.5t-2.5 106q-8 5 -7 15t11 13q6 37 16.5 77t27.5 83.5t40.5 73t50.5 44.5t62.5 -1.5t73.5 -65.5q7 -8 2.5 -16t-13 -8.5t-14.5 6.5q-51 53 -86.5 56t-63 -48.5t-42 -99.5
t-21.5 -98q23 2 90 9.5t106 8.5q9 0 13 -8t0 -16t-14 -8q-38 -1 -105 -8.5t-95 -9.5q-9 -71 7 -128.5t47 -82.5t78 -5.5t94 91.5zM136 619q29 -47 51 -73q11 -11 -0.5 -22t-22.5 -1q-27 32 -55 79q-5 9 0 17t13 8t14 -8z" />
    <glyph glyph-name="Eacute" unicode="&#xc9;" horiz-adv-x="300" 
d="M265 62q5 9 14 8t13 -8t0 -17q-36 -55 -74.5 -84t-71.5 -31.5t-61.5 15.5t-47.5 52.5t-27.5 84.5t-2.5 106q-8 5 -7 15t11 13q6 37 16.5 77t27.5 83.5t40.5 73t50.5 44.5t62.5 -1.5t73.5 -65.5q7 -8 2.5 -16t-13 -8.5t-14.5 6.5q-51 53 -86.5 56t-63 -48.5t-42 -99.5
t-21.5 -98q23 2 90 9.5t106 8.5q9 0 13 -8t0 -16t-14 -8q-38 -1 -105 -8.5t-95 -9.5q-9 -71 7 -128.5t47 -82.5t78 -5.5t94 91.5zM164 619q5 9 14 8t13 -8t0 -17q-28 -47 -55 -79q-11 -10 -22.5 1t-0.5 22q22 26 51 73z" />
    <glyph glyph-name="Ecircumflex" unicode="&#xca;" horiz-adv-x="300" 
d="M265 62q5 9 14 8t13 -8t0 -17q-36 -55 -74.5 -84t-71.5 -31.5t-61.5 15.5t-47.5 52.5t-27.5 84.5t-2.5 106q-8 5 -7 15t11 13q6 37 16.5 77t27.5 83.5t40.5 73t50.5 44.5t62.5 -1.5t73.5 -65.5q7 -8 2.5 -16t-13 -8.5t-14.5 6.5q-51 53 -86.5 56t-63 -48.5t-42 -99.5
t-21.5 -98q23 2 90 9.5t106 8.5q9 0 13 -8t0 -16t-14 -8q-38 -1 -105 -8.5t-95 -9.5q-9 -71 7 -128.5t47 -82.5t78 -5.5t94 91.5zM121 619q5 9 14 8t13 -8t0 -17q-28 -47 -55 -79q-11 -10 -22.5 1t-0.5 22q22 26 51 73zM212 619q29 -47 51 -73q11 -11 -0.5 -22t-22.5 -1
q-27 32 -55 79q-5 9 0 17t13 8t14 -8z" />
    <glyph glyph-name="Edieresis" unicode="&#xcb;" horiz-adv-x="300" 
d="M265 62q5 9 14 8t13 -8t0 -17q-36 -55 -74.5 -84t-71.5 -31.5t-61.5 15.5t-47.5 52.5t-27.5 84.5t-2.5 106q-8 5 -7 15t11 13q6 37 16.5 77t27.5 83.5t40.5 73t50.5 44.5t62.5 -1.5t73.5 -65.5q7 -8 2.5 -16t-13 -8.5t-14.5 6.5q-51 53 -86.5 56t-63 -48.5t-42 -99.5
t-21.5 -98q23 2 90 9.5t106 8.5q9 0 13 -8t0 -16t-14 -8q-38 -1 -105 -8.5t-95 -9.5q-9 -71 7 -128.5t47 -82.5t78 -5.5t94 91.5zM186 544q10 31 29 19q16 -10 14 -28q-1 -20 -33 -11q-15 6 -10 20zM121 544q10 31 29 19q16 -10 14 -28q-1 -20 -33 -11q-15 6 -10 20z" />
    <glyph glyph-name="Igrave" unicode="&#xcc;" horiz-adv-x="71" 
d="M40 475q-8 -53 -8 -225t14 -213q7 1 13 -3q9 -8 5 -18.5t-14.5 -14t-21.5 3.5q-26 23 -28 228.5t10 251.5q3 9 11.5 10.5t15 -5t3.5 -15.5zM22 619q29 -47 51 -73q11 -11 -0.5 -22t-22.5 -1q-27 32 -55 79q-5 9 0 17t13 8t14 -8z" />
    <glyph glyph-name="Iacute" unicode="&#xcd;" horiz-adv-x="71" 
d="M40 475q-8 -53 -8 -225t14 -213q7 1 13 -3q9 -8 5 -18.5t-14.5 -14t-21.5 3.5q-26 23 -28 228.5t10 251.5q3 9 11.5 10.5t15 -5t3.5 -15.5zM50 619q5 9 14 8t13 -8t0 -17q-28 -47 -55 -79q-11 -10 -22.5 1t-0.5 22q22 26 51 73z" />
    <glyph glyph-name="Icircumflex" unicode="&#xce;" horiz-adv-x="71" 
d="M40 475q-8 -53 -8 -225t14 -213q7 1 13 -3q9 -8 5 -18.5t-14.5 -14t-21.5 3.5q-26 23 -28 228.5t10 251.5q3 9 11.5 10.5t15 -5t3.5 -15.5zM-8 619q5 9 14 8t13 -8t0 -17q-28 -47 -55 -79q-11 -10 -22.5 1t-0.5 22q22 26 51 73zM64 619q29 -47 51 -73q11 -11 -0.5 -22
t-22.5 -1q-27 32 -55 79q-5 9 0 17t13 8t14 -8z" />
    <glyph glyph-name="Idieresis" unicode="&#xcf;" horiz-adv-x="71" 
d="M40 475q-8 -53 -8 -225t14 -213q7 1 13 -3q9 -8 5 -18.5t-14.5 -14t-21.5 3.5q-26 23 -28 228.5t10 251.5q3 9 11.5 10.5t15 -5t3.5 -15.5zM44 544q10 31 29 19q16 -10 14 -28q-1 -20 -33 -11q-15 6 -10 20zM-21 544q10 31 29 19q16 -10 14 -28q-1 -20 -33 -11
q-15 6 -10 20z" />
    <glyph glyph-name="Eth" unicode="&#xd0;" horiz-adv-x="331" 
d="M-38 220h55v229q0 16 16 16t16 -16v-35q150 153 225 89q58 -49 51 -196q-7 -155 -76 -285q-75 -144 -179 -155q-103 -11 -213 115q-6 7 -2.5 15.5t11.5 10t15 -5.5q47 -55 95.5 -85.5t103.5 -16.5q84 21 147 158q59 129 62 262q2 128 -54 152q-65 28 -186 -104v-148h52
q16 0 16 -16t-16 -16h-52v-204q0 -16 -17 -16q-6 0 -10.5 4.5t-4.5 11.5v204h-55q-16 0 -16 16t16 16z" />
    <glyph glyph-name="Ntilde" unicode="&#xd1;" horiz-adv-x="265" 
d="M36 426l7 -361q0 -10 -8 -14t-16 0t-8 13q0 2 -6 129t-4.5 219.5t17.5 92.5q5 0 15.5 -8t13.5 -13q19 -49 59 -144.5t70.5 -174t51.5 -149.5q1 52 -2 193q0 6 -1 41.5t-1.5 48t-1.5 46.5t-2.5 51.5t-3.5 47.5t-4.5 50t-6.5 43t-8 41q-2 9 4.5 14.5t15 4t11.5 -10.5
q21 -93 28 -318q7 -247 0 -338q-4 -28 -20 -27q-13 1 -15 16q-18 79 -47 161t-74.5 190.5t-63.5 155.5zM6 558q2 27 14.5 38t30.5 7t36 -11.5l36 -15t25 -6.5q1 7 1 11q-1 10 6.5 15t16 1.5t8.5 -13.5q1 -24 -6.5 -35t-22.5 -10t-28 5t-32 12.5t-26 10.5q-13 5 -17.5 5.5
t-6.5 -2.5t-3 -13q0 -9 -8 -13t-16 0t-8 14z" />
    <glyph glyph-name="Ograve" unicode="&#xd2;" horiz-adv-x="309" 
d="M129 468q-50 -6 -79 -107q-30 -107 -13 -209t73 -104q26 -1 58 21q51 36 77 99t13.5 128.5t-65.5 103.5q-17 11 -22 8t-5 -22q0 -10 -7.5 -14.5t-15.5 -0.5t-9 13q1 34 17 49t47 1q42 -20 65.5 -60.5t26.5 -87t-9 -95.5t-36.5 -88t-61 -63.5t-76.5 -22.5q-46 2 -74.5 51
t-32 117.5t7.5 137.5t44 120t77 57q16 0 16 -16t-16 -16zM159 619q29 -47 51 -73q11 -11 -0.5 -22t-22.5 -1q-27 32 -55 79q-5 9 0 17t13 8t14 -8z" />
    <glyph glyph-name="Oacute" unicode="&#xd3;" horiz-adv-x="316" 
d="M129 468q-50 -6 -79 -107q-30 -107 -13 -209t73 -104q26 -1 58 21q51 36 77 99t13.5 128.5t-65.5 103.5q-17 11 -22 8t-5 -22q0 -10 -7.5 -14.5t-15.5 -0.5t-9 13q1 34 17 49t47 1q42 -20 65.5 -60.5t26.5 -87t-9 -95.5t-36.5 -88t-61 -63.5t-76.5 -22.5q-46 2 -74.5 51
t-32 117.5t7.5 137.5t44 120t77 57q16 0 16 -16t-16 -16zM141 538q29 54 38 81q2 9 11 10.5t16 -4.5t4 -15q-12 -34 -40 -87q-6 -8 -14.5 -8.5t-14 7t-0.5 16.5z" />
    <glyph glyph-name="Ocircumflex" unicode="&#xd4;" horiz-adv-x="346" 
d="M129 468q-50 -6 -79 -107q-30 -107 -13 -209t73 -104q26 -1 58 21q51 36 77 99t13.5 128.5t-65.5 103.5q-17 11 -22 8t-5 -22q0 -10 -7.5 -14.5t-15.5 -0.5t-9 13q1 34 17 49t47 1q42 -20 65.5 -60.5t26.5 -87t-9 -95.5t-36.5 -88t-61 -63.5t-76.5 -22.5q-46 2 -74.5 51
t-32 117.5t7.5 137.5t44 120t77 57q16 0 16 -16t-16 -16zM101 619q5 9 14 8t13 -8t0 -17q-28 -47 -55 -79q-11 -10 -22.5 1t-0.5 22q22 26 51 73zM173 619q29 -47 51 -73q11 -11 -0.5 -22t-22.5 -1q-27 32 -55 79q-5 9 0 17t13 8t14 -8z" />
    <glyph glyph-name="Otilde" unicode="&#xd5;" horiz-adv-x="346" 
d="M129 468q-50 -6 -79 -107q-30 -107 -13 -209t73 -104q26 -1 58 21q51 36 77 99t13.5 128.5t-65.5 103.5q-17 11 -22 8t-5 -22q0 -10 -7.5 -14.5t-15.5 -0.5t-9 13q1 34 17 49t47 1q42 -20 65.5 -60.5t26.5 -87t-9 -95.5t-36.5 -88t-61 -63.5t-76.5 -22.5q-46 2 -74.5 51
t-32 117.5t7.5 137.5t44 120t77 57q16 0 16 -16t-16 -16zM56 541q2 27 14.5 38t30.5 7t36 -11.5l36 -15t25 -6.5q1 7 1 11q-1 10 6.5 15t16 1.5t8.5 -13.5q1 -24 -6.5 -35t-22.5 -10t-28 5t-32 12.5t-26 10.5q-13 5 -17.5 5.5t-6.5 -2.5t-3 -13q0 -9 -8 -13t-16 0t-8 14z
" />
    <glyph glyph-name="Odieresis" unicode="&#xd6;" horiz-adv-x="312" 
d="M155 553q10 31 29 19q16 -10 14 -28q-1 -20 -33 -11q-15 6 -10 20zM90 553q10 31 29 19q16 -10 14 -28q-1 -20 -33 -11q-15 6 -10 20zM129 468q-50 -6 -79 -107q-30 -107 -13 -209t73 -104q26 -1 58 21q51 36 77 99t13.5 128.5t-65.5 103.5q-17 11 -22 8t-5 -22
q0 -10 -7.5 -14.5t-15.5 -0.5t-9 13q1 34 17 49t47 1q42 -20 65.5 -60.5t26.5 -87t-9 -95.5t-36.5 -88t-61 -63.5t-76.5 -22.5q-46 2 -74.5 51t-32 117.5t7.5 137.5t44 120t77 57q16 0 16 -16t-16 -16z" />
    <glyph glyph-name="multiply" unicode="&#xd7;" horiz-adv-x="200" 
d="M100 226l62 63q11 11 22.5 -0.5t0.5 -22.5l-63 -62l63 -62q11 -11 -0.5 -22.5t-22.5 -0.5l-62 62l-22.5 -22.5l-23.5 -23.5l-16 -16q-11 -11 -22.5 0.5t-0.5 22.5l62 62l-62 62q-11 11 0.5 22.5t22.5 0.5z" />
    <glyph glyph-name="Oslash" unicode="&#xd8;" horiz-adv-x="346" 
d="M129 468q-46 -6 -74 -92t-22.5 -183t43.5 -132q13 43 33.5 101.5t47.5 129t39 105.5l-3 3q-17 11 -22 8t-5 -22q0 -10 -7.5 -14.5t-15.5 -0.5t-9 13q1 34 17 49t47 1q2 -2 9 -5l13 38q6 15 20.5 10t10.5 -19l-17 -49q44 -40 53 -109t-11.5 -132t-66.5 -108.5t-102 -42.5
q-7 0 -9 1v-1q-1 -1 -1 -2q-11 -38 -11 -47q0 -15 -15.5 -15t-15.5 15l11 55q0 1 0.5 3t0.5 3q-33 22 -50.5 76t-16.5 117.5t14 124.5t44 104t71 49q16 0 16 -16t-16 -16zM221 374q-11 -32 -38 -103.5t-46 -126t-31 -96.5q28 -3 62 21q71 50 89 144t-36 161z" />
    <glyph glyph-name="Ugrave" unicode="&#xd9;" 
d="M40 400q0 -5 -1.5 -31t-3.5 -58.5t-3.5 -72t-0.5 -75.5t4.5 -66t12 -47t21.5 -14q34 6 79 32t75 54q-15 174 -21 417q0 16 16 16t16 -16q2 -199 21 -418q4 -14 7 -54t7 -57q2 -9 -4.5 -15.5t-15.5 -4.5t-11 11q-5 20 -12 83q-78 -65 -152 -79q-23 -4 -39 11.5t-23.5 48
t-11 66.5t-2.5 81t2.5 77t5 68.5t3.5 42.5q0 10 7.5 14t15.5 0t8 -14zM123 619q29 -47 51 -73q11 -11 -0.5 -22t-22.5 -1q-27 32 -55 79q-5 9 0 17t13 8t14 -8z" />
    <glyph glyph-name="Uacute" unicode="&#xda;" 
d="M40 400q0 -5 -1.5 -31t-3.5 -58.5t-3.5 -72t-0.5 -75.5t4.5 -66t12 -47t21.5 -14q34 6 79 32t75 54q-15 174 -21 417q0 16 16 16t16 -16q2 -199 21 -418q4 -14 7 -54t7 -57q2 -9 -4.5 -15.5t-15.5 -4.5t-11 11q-5 20 -12 83q-78 -65 -152 -79q-23 -4 -39 11.5t-23.5 48
t-11 66.5t-2.5 81t2.5 77t5 68.5t3.5 42.5q0 10 7.5 14t15.5 0t8 -14zM105 538q29 54 38 81q2 9 11 10.5t16 -4.5t4 -15q-12 -34 -40 -87q-6 -8 -14.5 -8.5t-14 7t-0.5 16.5z" />
    <glyph glyph-name="Ucircumflex" unicode="&#xdb;" 
d="M40 400q0 -5 -1.5 -31t-3.5 -58.5t-3.5 -72t-0.5 -75.5t4.5 -66t12 -47t21.5 -14q34 6 79 32t75 54q-15 174 -21 417q0 16 16 16t16 -16q2 -199 21 -418q4 -14 7 -54t7 -57q2 -9 -4.5 -15.5t-15.5 -4.5t-11 11q-5 20 -12 83q-78 -65 -152 -79q-23 -4 -39 11.5t-23.5 48
t-11 66.5t-2.5 81t2.5 77t5 68.5t3.5 42.5q0 10 7.5 14t15.5 0t8 -14zM57 589q5 9 14 8t13 -8t0 -17q-28 -47 -55 -79q-12 -10 -23 2q-11 10 0 21q22 26 51 73zM129 589q29 -47 51 -73q11 -11 -0.5 -22t-22.5 -1q-27 32 -55 79q-5 9 0 17t13 8t14 -8z" />
    <glyph glyph-name="Udieresis" unicode="&#xdc;" 
d="M112 479q10 31 29 19q16 -10 14 -28q-1 -20 -33 -11q-15 6 -10 20zM47 479q10 31 29 19q16 -10 14 -28q-1 -20 -33 -11q-15 6 -10 20zM40 400q0 -5 -1.5 -31t-3.5 -58.5t-3.5 -72t-0.5 -75.5t4.5 -66t12 -47t21.5 -14q34 6 79 32t75 54q-15 174 -21 417q0 16 16 16
t16 -16q2 -199 21 -418q4 -14 7 -54t7 -57q2 -9 -4.5 -15.5t-15.5 -4.5t-11 11q-5 20 -12 83q-78 -65 -152 -79q-23 -4 -39 11.5t-23.5 48t-11 66.5t-2.5 81t2.5 77t5 68.5t3.5 42.5q0 10 7.5 14t15.5 0t8 -14z" />
    <glyph glyph-name="Yacute" unicode="&#xdd;" horiz-adv-x="220" 
d="M31 442q0 -3 -0.5 -20.5t-0.5 -33.5t0.5 -38.5t2 -41.5t3.5 -36t6.5 -27.5t10.5 -12.5q7 -2 58 40.5t65 44.5q-5 110 7 175q2 9 11 10.5t15.5 -4t4.5 -15.5q-9 -40 -6 -100.5t2.5 -135t-4 -140.5t-25.5 -117.5t-61 -64.5q-59 -22 -92 40q-28 54 -16 114q11 55 50 55
q24 1 55 -22q8 -6 5.5 -15t-10.5 -11.5t-16 2.5q-43 32 -55 -11q-11 -41 11 -91q23 -51 56 -35q19 10 39 45q16 31 24 79.5t7.5 99.5t-1.5 109q-14 -7 -46.5 -35.5t-35.5 -31.5q-104 -76 -97 190q1 34 1 35q0 16 16 16t16 -16zM78 538q29 54 38 81q2 9 11 10.5t16 -4.5
t4 -15q-12 -34 -40 -87q-6 -8 -14.5 -8.5t-14 7t-0.5 16.5z" />
    <glyph glyph-name="Thorn" unicode="&#xde;" horiz-adv-x="330" 
d="M20 -49v682q0 10 8 14t15.5 0t7.5 -14v-144q39 27 111 5q110 -35 138 -157q23 -103 -19 -204q-36 -86 -93 -103q-56 -17 -109 45q-12 13 -28 40v-164q0 -15 -15.5 -15t-15.5 15zM51 438v-248q10 -23 18 -40t24 -40.5t31 -34.5t36 -9.5t41 21.5q64 64 72.5 158.5
t-47.5 167.5q-25 31 -68.5 48.5t-77.5 6.5q-22 -7 -29 -30z" />
    <glyph glyph-name="germandbls" unicode="&#xdf;" horiz-adv-x="330" 
d="M61 20l-38 -2q28 30 34.5 79.5t-3.5 99t-19 105.5t-11.5 98.5t18.5 77.5q31 48 89 31q50 -15 73 -60q30 -60 -24 -107q52 -2 102 -50q28 -28 35 -66.5t-5 -76t-37 -74.5t-57.5 -64t-70 -42t-70.5 -11q-11 2 -13.5 9t4 15t17.5 12q74 -2 136 70q60 68 59 140
q-2 82 -88 105l-18 4q-11 1 -34.5 -0.5t-34.5 0.5q-18 8 -7 25q69 -2 82 48q11 40 -17 73q-34 39 -80 13l-17 -12q-18 -31 -14 -72t14 -95.5t20.5 -103.5t5.5 -96t-31 -73z" />
    <glyph glyph-name="agrave" unicode="&#xe0;" horiz-adv-x="238" 
d="M159 276q-71 -7 -109 -67q-28 -43 -14 -69q6 -11 20 -12t30 18.5t28.5 43t26 43.5t23.5 20q6 0 9.5 -3t4.5 -9t1.5 -10.5t0 -12t-0.5 -8.5q0 -4 -0.5 -28t-0.5 -42.5t1.5 -39.5t5.5 -30q15 11 31 52.5t21 67.5q0 10 8 14t16 0t8 -13q-5 -36 -26.5 -87t-46.5 -64
q-18 -9 -29.5 1.5t-15.5 33.5t-5.5 51t0.5 53q-57 -93 -99 -81q-49 10 -47 62q2 55 53 101q46 42 106 47q16 0 16 -16t-16 -16zM123 419q29 -47 51 -73q7 -7 4 -15.5t-11 -10.5t-16 3q-27 32 -55 79q-5 9 0 17t13 8t14 -8z" />
    <glyph glyph-name="aacute" unicode="&#xe1;" horiz-adv-x="242" 
d="M159 276q-71 -7 -109 -67q-28 -43 -14 -69q6 -11 20 -12t30 18.5t28.5 43t26 43.5t23.5 20q6 0 9.5 -3t4.5 -9t1.5 -10.5t0 -12t-0.5 -8.5q0 -4 -0.5 -28t-0.5 -42.5t1.5 -39.5t5.5 -30q15 11 31 52.5t21 67.5q0 10 8 14t16 0t8 -13q-5 -36 -26.5 -87t-46.5 -64
q-18 -9 -29.5 1.5t-15.5 33.5t-5.5 51t0.5 53q-57 -93 -99 -81q-49 10 -47 62q2 55 53 101q46 42 106 47q16 0 16 -16t-16 -16zM105 338q29 54 38 81q2 9 11 10.5t16 -4.5t4 -15q-12 -34 -40 -87q-6 -8 -14.5 -8.5t-14 7t-0.5 16.5z" />
    <glyph glyph-name="acircumflex" unicode="&#xe2;" horiz-adv-x="238" 
d="M159 276q-71 -7 -109 -67q-28 -43 -14 -69q6 -11 20 -12t30 18.5t28.5 43t26 43.5t23.5 20q6 0 9.5 -3t4.5 -9t1.5 -10.5t0 -12t-0.5 -8.5q0 -4 -0.5 -28t-0.5 -42.5t1.5 -39.5t5.5 -30q15 11 31 52.5t21 67.5q0 10 8 14t16 0t8 -13q-5 -36 -26.5 -87t-46.5 -64
q-18 -9 -29.5 1.5t-15.5 33.5t-5.5 51t0.5 53q-57 -93 -99 -81q-49 10 -47 62q2 55 53 101q46 42 106 47q16 0 16 -16t-16 -16zM89 410q5 9 14 8t13 -8t0 -17q-28 -47 -55 -79q-11 -10 -22.5 1t-0.5 22q22 26 51 73zM154 410q29 -47 51 -73q11 -11 -0.5 -22t-22.5 -1
q-27 32 -55 79q-5 9 0 17t13 8t14 -8z" />
    <glyph glyph-name="atilde" unicode="&#xe3;" horiz-adv-x="249" 
d="M159 276q-71 -7 -109 -67q-28 -43 -14 -69q6 -11 20 -12t30 18.5t28.5 43t26 43.5t23.5 20q6 0 9.5 -3t4.5 -9t1.5 -10.5t0 -12t-0.5 -8.5q0 -4 -0.5 -28t-0.5 -42.5t1.5 -39.5t5.5 -30q15 11 31 52.5t21 67.5q0 10 8 14t16 0t8 -13q-5 -36 -26.5 -87t-46.5 -64
q-18 -9 -29.5 1.5t-15.5 33.5t-5.5 51t0.5 53q-57 -93 -99 -81q-49 10 -47 62q2 55 53 101q46 42 106 47q16 0 16 -16t-16 -16zM23 353q2 27 14.5 38t30.5 7t36 -11.5l36 -15t25 -6.5q1 7 1 11q-1 10 6.5 15t16 1.5t8.5 -13.5q1 -24 -6.5 -35t-22.5 -10t-28 5t-32 12.5
t-26 10.5q-13 5 -17.5 5.5t-6.5 -2.5t-3 -13q0 -9 -8 -13t-16 0t-8 14z" />
    <glyph glyph-name="adieresis" unicode="&#xe4;" horiz-adv-x="235" 
d="M159 276q-71 -7 -109 -67q-28 -43 -14 -69q6 -11 20 -12t30 18.5t28.5 43t26 43.5t23.5 20q6 0 9.5 -3t4.5 -9t1.5 -10.5t0 -12t-0.5 -8.5q0 -4 -0.5 -28t-0.5 -42.5t1.5 -39.5t5.5 -30q15 11 31 52.5t21 67.5q0 10 8 14t16 0t8 -13q-5 -36 -26.5 -87t-46.5 -64
q-18 -9 -29.5 1.5t-15.5 33.5t-5.5 51t0.5 53q-57 -93 -99 -81q-49 10 -47 62q2 55 53 101q46 42 106 47q16 0 16 -16t-16 -16zM140 348q10 31 29 19q16 -10 14 -28q-1 -20 -33 -11q-15 6 -10 20zM75 348q10 31 29 19q16 -10 14 -28q-1 -20 -33 -11q-15 6 -10 20z" />
    <glyph glyph-name="aring" unicode="&#xe5;" horiz-adv-x="274" 
d="M159 276q-71 -7 -109 -67q-28 -43 -14 -69q6 -11 20 -12t30 18.5t28.5 43t26 43.5t23.5 20q6 0 9.5 -3t4.5 -9t1.5 -10.5t0 -12t-0.5 -8.5q0 -4 -0.5 -28t-0.5 -42.5t1.5 -39.5t5.5 -30q15 11 31 52.5t21 67.5q0 10 8 14t16 0t8 -13q-5 -36 -26.5 -87t-46.5 -64
q-18 -9 -29.5 1.5t-15.5 33.5t-5.5 51t0.5 53q-57 -93 -99 -81q-41 9 -46.5 48t24 82.5t79.5 65.5q-34 22 -18 47q15 24 49 19q34 -4 57 -39q3 -4 -3 -7q-4 0 -6 2q-27 43 -69 34q-25 -8 -22.5 -25t25.5 -26q19 6 42 9q5 0 10 -4q3 4 1 10q-1 3 0.5 5.5t4.5 2t4 -3.5
q3 -7 1 -15q-2 -6 -6 -9q2 -18 -15 -18z" />
    <glyph glyph-name="ae" unicode="&#xe6;" horiz-adv-x="345" 
d="M200 188q52 0 55 17q2 7 -6 15q-20 22 -40.5 13t-27.5 -40q-17 -75 27 -81q38 -6 82 35q30 28 40 61q4 16 18.5 12.5t12.5 -18.5q-20 -66 -83 -102q-61 -34 -101 -10q-32 20 -32 72q0 10 1 17q-57 -93 -99 -81q-49 10 -47 62q2 55 53 101q46 42 106 47q16 0 16 -16
t-16 -16q-71 -7 -109 -67q-28 -43 -14 -69q6 -11 20 -12q17 0 38 32t40 63.5t30 29.5q7 -1 10 -6q29 27 66.5 16t45.5 -47q7 -34 -20.5 -47t-65.5 -13q-16 0 -16 16t16 16z" />
    <glyph glyph-name="ccedilla" unicode="&#xe7;" horiz-adv-x="209" 
d="M108 236q15 15 20.5 33t-5.5 37q-18 20 -51 -33q-38 -64 -41 -127q-2 -62 43 -60q2 1 5 1q15 2 27.5 9t20 14t16 21.5t11.5 22.5t10 25.5l9 22.5q6 8 14 8t13.5 -8t0.5 -16q-39 -106 -96 -126q28 -19 32 -39q0 -26 -24.5 -35.5t-54.5 0.5q-17 24 4 25q6 0 12 -2t9.5 -2.5
t9.5 2.5t14 11q-3 6 -13.5 17t-14.5 18h-9q-43 1 -59.5 34.5t-9.5 78t25.5 87.5t41.5 66q37 36 71 15q31 -19 24 -62q-6 -33 -36 -63q-8 -6 -16 -2.5t-9 11.5t6 16z" />
    <glyph glyph-name="egrave" unicode="&#xe8;" horiz-adv-x="222" 
d="M55 178q52 0 55 17q2 7 -6 15q-20 22 -40.5 13t-27.5 -40q-17 -76 28 -81q38 -5 81 36q29 28 40 60q4 16 18.5 12.5t12.5 -18.5q-19 -67 -83 -103q-59 -33 -100 -9q-33 19 -33 72q0 62 32 88t66.5 13.5t42.5 -47.5q7 -34 -20.5 -47t-65.5 -13q-16 0 -16 16t16 16zM75 380
q29 -47 51 -73q7 -7 4 -15.5t-11 -10.5t-16 3q-27 32 -55 79q-5 9 0 17t13 8t14 -8z" />
    <glyph glyph-name="eacute" unicode="&#xe9;" horiz-adv-x="222" 
d="M55 178q52 0 55 17q2 7 -6 15q-20 22 -40.5 13t-27.5 -40q-17 -76 28 -81q38 -5 81 36q29 28 40 60q4 16 18.5 12.5t12.5 -18.5q-19 -67 -83 -103q-59 -33 -100 -9q-33 19 -33 72q0 62 32 88t66.5 13.5t42.5 -47.5q7 -34 -20.5 -47t-65.5 -13q-16 0 -16 16t16 16z
M103 380q5 9 14 8t13 -8t0 -17q-28 -47 -55 -79q-7 -6 -16 -3t-11 10.5t4 15.5q22 26 51 73z" />
    <glyph glyph-name="ecircumflex" unicode="&#xea;" horiz-adv-x="222" 
d="M55 178q52 0 55 17q2 7 -6 15q-20 22 -40.5 13t-27.5 -40q-17 -76 28 -81q38 -5 81 36q29 28 40 60q4 16 18.5 12.5t12.5 -18.5q-19 -67 -83 -103q-59 -33 -100 -9q-33 19 -33 72q0 62 32 88t66.5 13.5t42.5 -47.5q7 -34 -20.5 -47t-65.5 -13q-16 0 -16 16t16 16zM33 365
q5 9 14 8t13 -8t0 -17q-28 -47 -55 -79q-7 -6 -16 -3t-11 10.5t4 15.5q22 26 51 73zM105 365q29 -47 51 -73q7 -7 4 -15.5t-11 -10.5t-16 3q-27 32 -55 79q-5 9 0 17t13 8t14 -8z" />
    <glyph glyph-name="edieresis" unicode="&#xeb;" horiz-adv-x="222" 
d="M55 178q52 0 55 17q2 7 -6 15q-20 22 -40.5 13t-27.5 -40q-17 -76 28 -81q38 -5 81 36q29 28 40 60q4 16 18.5 12.5t12.5 -18.5q-19 -67 -83 -103q-59 -33 -100 -9q-33 19 -33 72q0 62 32 88t66.5 13.5t42.5 -47.5q7 -34 -20.5 -47t-65.5 -13q-16 0 -16 16t16 16zM80 304
q10 31 29 19q16 -10 14 -28q-1 -20 -33 -11q-15 6 -10 20zM15 304q10 31 29 19q16 -10 14 -28q-1 -20 -33 -11q-15 6 -10 20z" />
    <glyph glyph-name="igrave" unicode="&#xec;" horiz-adv-x="160" 
d="M37 223q-2 -16 -4 -41.5t-1 -56.5t8 -38q15 2 42 43t41 69q4 9 13 9.5t15 -6t2 -15.5q-55 -112 -100 -129q-43 -16 -51 51q-5 42 4 118q1 9 9.5 12t15.5 -2t6 -14zM23 265q-18 0 -16 22q3 21 18 24q3 1 6 0q16 -6 11 -26t-19 -20zM66 419q29 -47 51 -73q11 -11 -0.5 -22
t-22.5 -1q-27 32 -55 79q-5 9 0 17t13 8t14 -8z" />
    <glyph glyph-name="iacute" unicode="&#xed;" horiz-adv-x="160" 
d="M37 223q-2 -16 -4 -41.5t-1 -56.5t8 -38q15 2 42 43t41 69q4 9 13 9.5t15 -6t2 -15.5q-55 -112 -100 -129q-43 -16 -51 51q-5 42 4 118q1 9 9.5 12t15.5 -2t6 -14zM48 338q29 54 38 81q2 9 11 10.5t16 -4.5t4 -15q-12 -34 -40 -87q-6 -8 -14.5 -8.5t-14 7t-0.5 16.5z
M23 265q-18 0 -16 22q3 21 18 24q3 1 6 0q16 -6 11 -26t-19 -20z" />
    <glyph glyph-name="icircumflex" unicode="&#xee;" horiz-adv-x="43" 
d="M-32 362h55q1 0 1 -0.5t1 -0.5q12 -5 12 -15v-329q0 -16 -16 -16t-16 16v320h-37q-7 0 -7 12.5t7 12.5zM-33 482q5 9 14 8t13 -8t0 -17q-28 -47 -55 -79q-11 -10 -22.5 1t-0.5 22q22 26 51 73zM39 482q29 -47 51 -73q11 -11 -0.5 -22t-22.5 -1q-27 32 -55 79q-5 9 0 17
t13 8t14 -8z" />
    <glyph glyph-name="idieresis" unicode="&#xef;" horiz-adv-x="43" 
d="M-32 362h55q1 0 1 -0.5t1 -0.5q12 -5 12 -15v-329q0 -16 -16 -16t-16 16v320h-37q-7 0 -7 12.5t7 12.5zM26 408q10 31 29 19q16 -10 14 -28q-1 -20 -33 -11q-15 6 -10 20zM-39 408q10 31 29 19q16 -10 14 -28q-1 -20 -33 -11q-15 6 -10 20z" />
    <glyph glyph-name="eth" unicode="&#xf0;" horiz-adv-x="240" 
d="M109 341l15 25q5 9 14 8t13 -8t0 -17l-14 -23q71 -44 91.5 -127.5t-16 -144.5t-108.5 -50q-33 6 -58.5 28.5t-33.5 51.5t-4.5 56.5t29 46.5t66.5 19q10 0 19.5 -2t15 -4t15 -8.5t12.5 -8.5t14 -12t13 -12q7 -6 4.5 -15t-10.5 -12t-16 4q-1 1 -8 7.5t-9 8.5t-8 7t-9.5 6.5
t-9 4.5t-11 3.5t-11.5 0.5q-37 0 -54 -17.5t-13.5 -40.5t19.5 -45t38 -31q60 -22 91 33q30 53 9 126q-20 65 -74 101l-24 -30q-11 -10 -22.5 1t-0.5 22l17 21q-17 8 -50 13q-10 1 -13.5 9t1 15.5t14.5 7.5q37 -4 67 -18z" />
    <glyph glyph-name="ntilde" unicode="&#xf1;" horiz-adv-x="251" 
d="M31 205q27 81 77 96q25 7 39.5 -9t18 -48t3.5 -61.5t-3 -64t-3 -40.5q-2 -20 -1 -39q28 45 52 164q3 9 12 11t15.5 -4.5t3.5 -15.5q-4 -13 -13.5 -50t-18 -63t-18.5 -47q-5 -11 -14.5 -22t-21.5 -16t-21 8q-11 14 -4 132q7 121 -9 133q-3 2 -8 1q-11 -3 -20.5 -11
t-16 -17.5t-12 -25t-8.5 -27t-6 -30.5t-4 -27.5t-3 -26.5t-2 -21q-1 -9 -7.5 -13t-13.5 -2t-10 8q-6 15 -10 74t-4 88q7 15 21 7q4 -2 6 -8t2.5 -10t1 -12.5t0.5 -10.5zM8 352q2 27 14.5 38t30.5 7t36 -11.5l36 -15t25 -6.5q1 7 1 11q-1 10 6.5 15t16 1.5t8.5 -13.5
q1 -24 -6.5 -35t-22.5 -10t-28 5t-32 12.5t-26 10.5q-13 5 -17.5 5.5t-6.5 -2.5t-3 -13q0 -9 -8 -13t-16 0t-8 14z" />
    <glyph glyph-name="ograve" unicode="&#xf2;" horiz-adv-x="208" 
d="M74 228q-21 -2 -33.5 -33t-5.5 -61t34 -28q19 1 30 26q-41 6 -43 44t32 54q25 11 38.5 -8.5t12.5 -53.5q27 9 32 29q1 10 9.5 13t15.5 -2.5t6 -15.5q-12 -45 -69 -59q-16 -54 -61 -58q-47 -4 -64.5 41t2.5 92.5t64 51.5q16 0 16 -16t-16 -16zM80 372q29 -47 51 -73
q11 -11 -0.5 -22t-22.5 -1q-27 32 -55 79q-5 9 0 17t13 8t14 -8zM107 162q5 28 -6 39q-8 -3 -12.5 -11.5t-0.5 -17.5t19 -10z" />
    <glyph glyph-name="oacute" unicode="&#xf3;" horiz-adv-x="208" 
d="M74 228q-21 -2 -33.5 -33t-5.5 -61t34 -28q19 1 30 26q-41 6 -43 44t32 54q25 11 38.5 -8.5t12.5 -53.5q27 9 32 29q1 10 9.5 13t15.5 -2.5t6 -15.5q-12 -45 -69 -59q-16 -54 -61 -58q-47 -4 -64.5 41t2.5 92.5t64 51.5q16 0 16 -16t-16 -16zM87 373q5 9 14 8t13 -8
t0 -17q-28 -47 -55 -79q-7 -6 -16 -3t-11 10.5t4 15.5q22 26 51 73zM107 162q5 28 -6 39q-8 -3 -12.5 -11.5t-0.5 -17.5t19 -10z" />
    <glyph glyph-name="ocircumflex" unicode="&#xf4;" horiz-adv-x="208" 
d="M74 228q-21 -2 -33.5 -33t-5.5 -61t34 -28q19 1 30 26q-41 6 -43 44t32 54q25 11 38.5 -8.5t12.5 -53.5q27 9 32 29q1 10 9.5 13t15.5 -2.5t6 -15.5q-12 -45 -69 -59q-16 -54 -61 -58q-47 -4 -64.5 41t2.5 92.5t64 51.5q16 0 16 -16t-16 -16zM45 372q5 9 14 8t13 -8
t0 -17q-28 -47 -55 -79q-11 -10 -22.5 1t-0.5 22q22 26 51 73zM110 372q29 -47 51 -73q11 -11 -0.5 -22t-22.5 -1q-27 32 -55 79q-5 9 0 17t13 8t14 -8zM107 162q5 28 -6 39q-8 -3 -12.5 -11.5t-0.5 -17.5t19 -10z" />
    <glyph glyph-name="otilde" unicode="&#xf5;" horiz-adv-x="208" 
d="M74 228q-21 -2 -33.5 -33t-5.5 -61t34 -28q19 1 30 26q-41 6 -43 44t32 54q25 11 38.5 -8.5t12.5 -53.5q27 9 32 29q1 10 9.5 13t15.5 -2.5t6 -15.5q-12 -45 -69 -59q-16 -54 -61 -58q-47 -4 -64.5 41t2.5 92.5t64 51.5q16 0 16 -16t-16 -16zM-8 299q2 27 14.5 38t30.5 7
t36 -11.5l36 -15t25 -6.5q1 7 1 11q-1 10 6.5 15t16 1.5t8.5 -13.5q1 -24 -6.5 -35t-22.5 -10t-28 5t-32 12.5t-26 10.5q-13 5 -17.5 5.5t-6.5 -2.5t-3 -13q0 -9 -8 -13t-16 0t-8 14zM107 162q5 28 -6 39q-8 -3 -12.5 -11.5t-0.5 -17.5t19 -10z" />
    <glyph glyph-name="odieresis" unicode="&#xf6;" horiz-adv-x="208" 
d="M74 228q-21 -2 -33.5 -33t-5.5 -61t34 -28q19 1 30 26q-41 6 -43 44t32 54q25 11 38.5 -8.5t12.5 -53.5q27 9 32 29q1 10 9.5 13t15.5 -2.5t6 -15.5q-12 -45 -69 -59q-16 -54 -61 -58q-47 -4 -64.5 41t2.5 92.5t64 51.5q16 0 16 -16t-16 -16zM15 304q10 31 29 19
q16 -10 14 -28q-1 -20 -33 -11q-15 6 -10 20zM80 304q10 31 29 19q16 -10 14 -28q-1 -20 -33 -11q-15 6 -10 20zM107 162q5 28 -6 39q-8 -3 -12.5 -11.5t-0.5 -17.5t19 -10z" />
    <glyph glyph-name="divide" unicode="&#xf7;" horiz-adv-x="191" 
d="M26 167h139q16 0 16 -16t-16 -16h-139q-16 0 -16 16t16 16zM83 179q-15 6 -10 20q10 31 29 19q16 -10 15 -28q-2 -20 -34 -11zM73 99q10 31 29 19q16 -10 14 -28q-1 -20 -33 -11q-15 6 -10 20z" />
    <glyph glyph-name="oslash" unicode="&#xf8;" horiz-adv-x="208" 
d="M122 280l-16 -47q17 -2 25.5 -20.5t7.5 -44.5q27 9 32 29q1 10 9.5 13t15.5 -2.5t6 -15.5q-12 -45 -69 -59q-16 -54 -61 -58q-8 -2 -14 0q-3 -12 -3 -17q0 -15 -15.5 -15t-15.5 15q0 14 4 29q-24 19 -27.5 60t17 76t56.5 37q1 0 7 -2l10 31q6 15 20.5 10t10.5 -19z
M38 125q16 65 31 102q-22 -6 -32.5 -41.5t1.5 -60.5zM75 141q-5 -15 -9 -35h3q19 1 30 26q-10 1 -24 9zM107 162q5 28 -6 39q-7 -3 -12 -11l-1 -2q0 -2 -1 -3q-6 -22 20 -23z" />
    <glyph glyph-name="ugrave" unicode="&#xf9;" horiz-adv-x="214" 
d="M33 315q-6 -18 -2.5 -116.5t20.5 -101.5q7 -2 13.5 8.5t10.5 28.5t8 40t7 45t5.5 42.5t5 33t5.5 16.5q10 8 17.5 3.5t9.5 -18.5q3 -19 8 -54t9.5 -59.5t13.5 -55.5q33 69 39 79q8 14 17 8t8 -22q-40 -95 -68 -104q-10 -3 -19 15t-14 45t-7 56q-2 -8 -6.5 -36.5t-9 -49
t-18.5 -39t-34 -20.5q-26 -3 -40 32t-15.5 83.5t0.5 89.5t6 60q5 15 20 10.5t10 -19.5zM72 440q29 -47 51 -73q7 -7 4 -15.5t-11 -10.5t-16 3q-27 32 -55 79q-5 9 0 17t13 8t14 -8z" />
    <glyph glyph-name="uacute" unicode="&#xfa;" horiz-adv-x="214" 
d="M33 315q-6 -18 -2.5 -116.5t20.5 -101.5q7 -2 13.5 8.5t10.5 28.5t8 40t7 45t5.5 42.5t5 33t5.5 16.5q10 8 17.5 3.5t9.5 -18.5q3 -19 8 -54t9.5 -59.5t13.5 -55.5q33 69 39 79q8 14 17 8t8 -22q-40 -95 -68 -104q-10 -3 -19 15t-14 45t-7 56q-2 -8 -6.5 -36.5t-9 -49
t-18.5 -39t-34 -20.5q-26 -3 -40 32t-15.5 83.5t0.5 89.5t6 60q5 15 20 10.5t10 -19.5zM66 342q29 54 38 81q2 9 11 10.5t16 -4.5t4 -15q-12 -34 -40 -87q-6 -8 -14.5 -8.5t-14 7t-0.5 16.5z" />
    <glyph glyph-name="ucircumflex" unicode="&#xfb;" horiz-adv-x="214" 
d="M33 315q-6 -18 -2.5 -116.5t20.5 -101.5q7 -2 13.5 8.5t10.5 28.5t8 40t7 45t5.5 42.5t5 33t5.5 16.5q10 8 17.5 3.5t9.5 -18.5q3 -19 8 -54t9.5 -59.5t13.5 -55.5q33 69 39 79q8 14 17 8t8 -22q-40 -95 -68 -104q-10 -3 -19 15t-14 45t-7 56q-2 -8 -6.5 -36.5t-9 -49
t-18.5 -39t-34 -20.5q-26 -3 -40 32t-15.5 83.5t0.5 89.5t6 60q5 15 20 10.5t10 -19.5zM33 462q5 9 14 8t13 -8t0 -17q-28 -47 -55 -79q-7 -6 -16 -3t-11 10.5t4 15.5q22 26 51 73zM105 462q29 -47 51 -73q7 -7 4 -15.5t-11 -10.5t-16 3q-27 32 -55 79q-5 9 0 17t13 8t14 -8
z" />
    <glyph glyph-name="udieresis" unicode="&#xfc;" horiz-adv-x="214" 
d="M33 315q-6 -18 -2.5 -116.5t20.5 -101.5q7 -2 13.5 8.5t10.5 28.5t8 40t7 45t5.5 42.5t5 33t5.5 16.5q10 8 17.5 3.5t9.5 -18.5q3 -19 8 -54t9.5 -59.5t13.5 -55.5q33 69 39 79q8 14 17 8t8 -22q-40 -95 -68 -104q-10 -3 -19 15t-14 45t-7 56q-2 -8 -6.5 -36.5t-9 -49
t-18.5 -39t-34 -20.5q-26 -3 -40 32t-15.5 83.5t0.5 89.5t6 60q5 15 20 10.5t10 -19.5zM80 379q10 31 29 19q16 -10 14 -28q-1 -20 -33 -11q-15 6 -10 20zM15 379q10 31 29 19q16 -10 14 -28q-1 -20 -33 -11q-15 6 -10 20z" />
    <glyph glyph-name="yacute" unicode="&#xfd;" horiz-adv-x="245" 
d="M31 267v-13.5t0.5 -22.5t1.5 -28.5t3 -25t5.5 -19t7.5 -4.5q26 10 59 61v82q0 16 16 16t16 -16q0 -157 -4 -218q39 24 53.5 47.5t18.5 68.5q0 16 16 16t16 -16q-6 -63 -26.5 -91.5t-81.5 -63.5q-7 -53 -15 -78q-13 -38 -41 -30q-25 7 -31 36q-11 48 49 86q4 3 8 5
q5 50 6 103q-49 -55 -81 -36q-27 17 -27 141q0 10 8 14t15.5 0t7.5 -14zM43 338q29 54 38 81q2 9 11 10.5t16 -4.5t4 -15q-12 -34 -40 -87q-6 -8 -14.5 -8.5t-14 7t-0.5 16.5zM97 19q-16 -10 -21 -25t8 -30q3 5 13 55z" />
    <glyph glyph-name="thorn" unicode="&#xfe;" horiz-adv-x="313" 
d="M295 633v-682q0 -15 -15.5 -15t-15.5 15v164q-16 -27 -28 -40q-68 -80 -137 -30q-59 41 -82 143q-28 121 21 211q39 70 115 95q72 22 111 -5v144q0 10 8 14t15.5 0t7.5 -14zM264 190v248q-7 23 -29 30q-34 11 -77.5 -6.5t-68.5 -48.5q-56 -73 -47.5 -167.5t72.5 -158.5
q20 -20 41 -21.5t36 9.5t31 34.5t24 40.5t18 40z" />
    <glyph glyph-name="ydieresis" unicode="&#xff;" horiz-adv-x="245" 
d="M31 267v-13.5t0.5 -22.5t1.5 -28.5t3 -25t5.5 -19t7.5 -4.5q26 10 59 61v82q0 16 16 16t16 -16q0 -157 -4 -218q39 24 53.5 47.5t18.5 68.5q0 16 16 16t16 -16q-6 -63 -26.5 -91.5t-81.5 -63.5q-7 -53 -15 -78q-13 -38 -41 -30q-25 7 -31 36q-11 48 49 86q4 3 8 5
q5 50 6 103q-49 -55 -81 -36q-27 17 -27 141q0 10 8 14t15.5 0t7.5 -14zM15 372q10 31 29 19q16 -10 14 -28q-1 -20 -33 -11q-15 6 -10 20zM80 372q10 31 29 19q16 -10 14 -28q-1 -20 -33 -11q-15 6 -10 20zM97 19q-16 -10 -21 -25t8 -30q3 5 13 55z" />
    <glyph glyph-name="OE" unicode="&#x152;" horiz-adv-x="544" 
d="M129 468q-50 -6 -79 -107q-30 -107 -13 -209t73 -104q26 -1 58 21q49 36 74 99t13.5 129t-62.5 103q-17 11 -22 8t-5 -22q0 -10 -7.5 -14.5t-15.5 -0.5t-9 13q1 34 17 49t47 1q62 -30 83 -99q14 41 30 73t39 57.5t48 32.5t57.5 -9.5t67.5 -61.5q7 -8 2.5 -16t-13 -8.5
t-14.5 6.5q-49 53 -84.5 56t-63 -46t-42 -98.5t-21.5 -101.5q22 2 89 9.5t105 8.5q9 0 13 -8t0 -16t-14 -8q-31 0 -62 -3.5t-76.5 -10.5t-62.5 -9q-7 -70 9 -126t47.5 -80.5t77.5 -4.5t93 91q5 9 14 8t13 -8t0 -17q-47 -72 -97.5 -99t-89 -12t-66 61t-33.5 112
q-56 -94 -140 -90q-46 2 -74 51t-32 117.5t7 137.5t44 120t77 57q16 0 16 -16t-16 -16z" />
    <glyph glyph-name="oe" unicode="&#x153;" horiz-adv-x="293" 
d="M79 228q-21 -2 -33.5 -33t-5.5 -61t34 -28q19 1 30 26q-41 6 -43 44t32 54q22 10 36 -7q17 26 44 31.5t50 -8.5t29 -40q7 -29 -12 -42t-52.5 -18t-43.5 -12q8 -43 54 -31q46 11 79 58q13 18 19 37q4 16 18.5 12.5t12.5 -18.5q-11 -36 -39.5 -66t-59.5 -44.5t-61.5 -10.5
t-44.5 29q-17 -24 -45 -25q-47 -4 -64.5 41t2.5 92.5t64 51.5q16 0 16 -16t-16 -16zM215 210q-25 25 -48 6t-23 -48q7 2 22 4t25 3.5t21 6t10.5 11t-7.5 17.5zM106 201q-8 -3 -12.5 -11.5t-0.5 -17.5t18 -10q1 4 1 13q0 19 -6 26z" />
    <glyph glyph-name="Scaron" unicode="&#x160;" horiz-adv-x="269" 
d="M136 528q-4 -7 -11 -7q-9 -3 -16 7q-29 47 -51 73q-7 7 -4 15.5t11 10.5t16 -3q22 -25 41 -57q22 34 42 57q7 6 16 3t11 -10.5t-4 -15.5q-22 -26 -51 -73zM239 463q-17 6 -54.5 2.5t-75.5 -10.5t-62.5 -26t-16.5 -43q5 -17 18.5 -35t41 -46.5t36.5 -38.5q23 15 72.5 38
t58.5 15q13 -8 3 -22q-11 -6 -51 -24.5t-62 -31.5q9 -11 15 -21q20 -34 32 -71t5.5 -77.5t-41.5 -60.5q-48 -28 -93 11t-42 102q3 72 76 125q-3 4 -53 56q-31 34 -41.5 64.5t-1 51.5t29.5 38t49.5 26t60.5 13t61 2t52 -10q8 -6 7 -15.5t-8 -13t-16 1.5zM120 225
q-85 -57 -65 -125q12 -42 50 -60q40 -18 58 13q13 23 5 69q-9 53 -48 103z" />
    <glyph glyph-name="scaron" unicode="&#x161;" horiz-adv-x="202" 
d="M112 255q-19 -10 -26.5 -19.5t-4.5 -20t9.5 -19.5t18.5 -25t19 -29q34 16 39 20.5t43 50.5q6 8 15 5.5t12 -10t-3 -15.5q-38 -48 -45.5 -54t-46.5 -25q33 -70 30 -155q-3 -84 -48 -87q-11 0 -24 5q-20 7 -39 38.5t-28 70t6.5 79.5t60.5 63q-7 12 -22 35t-20 34.5
t-7.5 28.5t10 30.5t38.5 27.5q9 4 16 -2t6.5 -14.5t-9.5 -12.5zM114 100q-41 -21 -47 -64.5t9 -78t29 -44.5q29 -18 37 31q9 60 -16 130q-6 14 -12 26zM103 333q-4 -7 -11 -7q-9 -3 -16 7q-29 47 -51 73q-11 11 0.5 22t22.5 1q22 -25 41 -57q22 34 42 57q11 10 22.5 -1
t0.5 -22q-22 -26 -51 -73z" />
    <glyph glyph-name="Ydieresis" unicode="&#x178;" horiz-adv-x="220" 
d="M31 442q0 16 -16 16t-16 -16v-20q-7 -220 54 -222q18 0 42 17q3 3 35.5 31.5t46.5 35.5q1 -58 1.5 -109t-7.5 -99.5t-24 -79.5q-41 -73 -77 -38q-28 28 -31 85q-3 54 24 58q14 2 33 -13q8 -6 16.5 -2.5t10 11.5t-5.5 15q-65 48 -94 -3q-24 -42 -8 -108q17 -67 62 -79
q20 -6 43 3q39 13 61 64.5t25.5 117.5t4 140.5t-2.5 135t6 100.5q2 10 -4.5 15.5t-15.5 4t-11 -10.5q-12 -65 -7 -175q-14 -2 -65 -44.5t-58 -40.5q-6 2 -10.5 12.5t-6.5 27.5t-3.5 36t-2 41.5t-0.5 38.5t0.5 33.5t0.5 20.5zM112 479q10 31 29 19q16 -10 14 -28
q-1 -20 -33 -11q-15 6 -10 20zM47 479q10 31 29 19q16 -10 14 -28q-1 -20 -33 -11q-15 6 -10 20z" />
    <glyph glyph-name="Zcaron" unicode="&#x17d;" horiz-adv-x="452" 
d="M176 509q-4 -7 -11 -7q-9 -3 -16 7q-29 47 -51 73q-11 11 0.5 22t22.5 1q22 -25 41 -57q22 34 42 57q11 10 22.5 -1t0.5 -22q-22 -26 -51 -73zM15 449q14 0 47 2q161 7 215 -12q106 -35 -25 -176h60q15 0 15 -16t-15 -16q-13 0 -43 0.5t-46 0.5q-85 -89 -150 -191
q-12 -19 24 -14q34 4 192 57q33 11 43 13q37 9 99 14q16 0 16 -16t-16 -16q-94 -5 -265 -63q-137 -45 -138 2q0 35 99 151q4 5 14 16q28 34 40 48q-87 0 -134 -6q-9 -2 -15 5t-3.5 16t12.5 11q49 7 168 5q78 78 84 115q4 18 -18.5 28t-62 12.5t-75.5 2t-75.5 -2.5t-45.5 -2
q-10 0 -14 8t0 16t13 8z" />
    <glyph glyph-name="zcaron" unicode="&#x17e;" horiz-adv-x="193" 
d="M103 333q-4 -7 -11 -7q-9 -3 -16 7q-29 47 -51 73q-11 11 0.5 22t22.5 1q22 -25 41 -57q22 34 42 57q11 10 22.5 -1t0.5 -22q-22 -26 -51 -73zM185 210q5 8 14.5 6.5t13 -9t-2.5 -16.5q-4 -7 -28 -53.5t-42 -61.5q6 -36 -10.5 -78t-42.5 -58t-55 8q-19 20 -16 44t18 45
t37 35q15 9 31 17q-6 9 -53 35q-15 9 -15 21.5t10.5 25t23.5 24.5t25 24.5t13 20.5q-19 11 -88 -14q-2 -14 -12 -52q-1 -4 -8 -6t-13.5 -0.5t-6.5 5.5q0 2 2.5 16.5t4 23.5t5 19.5t8.5 15.5q1 0 2 1q20 10 46 18.5t56.5 6t35.5 -27.5q2 -14 -9 -31t-34.5 -40t-26.5 -26
q6 -4 19 -9.5t23 -12.5t18 -19q13 16 31 53t26 49zM53 -28q18 -26 41 28q17 37 17 59q-83 -50 -58 -87z" />
    <glyph glyph-name="circumflex" unicode="&#x2c6;" horiz-adv-x="179" 
d="M103 501q29 -47 51 -73q7 -7 4 -15.5t-11 -10.5t-16 3q-20 23 -42 57q-19 -32 -41 -57q-7 -6 -16 -3t-11 10.5t4 15.5q22 26 51 73q7 10 16 7q7 0 11 -7z" />
    <glyph glyph-name="tilde" unicode="&#x2dc;" horiz-adv-x="195" 
d="M10 530q2 27 14.5 38t30.5 7t36 -11.5l36 -15t25 -6.5q1 7 1 11q-1 10 6.5 15t16 1.5t8.5 -13.5q1 -24 -6.5 -35t-22.5 -10t-28 5t-32 12.5t-26 10.5q-13 5 -17.5 5.5t-6.5 -2.5t-3 -13q0 -9 -8 -13t-16 0t-8 14z" />
    <glyph glyph-name="A_ss01" unicode="&#x1001;" horiz-adv-x="318" 
d="M-32 70q11 -17 22 -26.5t21.5 -9.5t20 2.5t20 14t17.5 19.5t17 25t14 24.5t12 23.5q-50 -2 -88 5q-10 4 -11.5 12.5t4.5 14t15 3.5q40 -7 97 -2q44 95 85 225q-64 -24 -148 -10t-142 47q-61 -54 -205 -71t-285.5 -1t-220.5 50q-9 4 -9.5 12.5t6.5 14t16 1.5
q117 -52 340.5 -54.5t329.5 65.5q-34 26 -43 54.5t4 49t33 37.5t43.5 21t35.5 0q21 -10 20.5 -39.5t-13.5 -59.5t-31 -56q27 -14 73 -26.5t96.5 -18t87 12t36.5 61.5q0 12 13 15q17 4 20 -19l1 -9q0 -228 4 -291q11 0 15.5 -7.5t0 -15.5t-13.5 -8q9 -149 22 -207
q39 -171 156 -179q10 0 14 -8t0 -15.5t-14 -7.5q-53 8 -91 38.5t-58 61t-34 94.5t-17 93.5t-8 103.5q-1 16 -2 24l-97 -9q-14 -29 -28.5 -54t-37 -50.5t-44 -35.5t-48 0.5t-50.5 48.5q-5 9 0.5 16.5t13.5 7t13 -7.5zM-82 478q16 22 30.5 56t9.5 52q-3 8 -34 -7.5t-40 -39.5
t34 -61zM244 185q-6 90 -4 192q-37 -119 -76 -199q53 6 80 7z" />
    <glyph glyph-name="B_ss01" unicode="&#x1002;" horiz-adv-x="340" 
d="M-35 453q65 50 94 8q30 57 99 36q58 -18 94 -71q44 -63 6 -108q-12 -14 -33 -25q94 -26 108 -126q12 -91 -42 -183q-54 -91 -134 -109q-115 -26 -215 124q-5 8 -11 17q-4 9 1.5 16t12.5 6.5t12 -7.5q40 -66 85 -97.5t84.5 -30t75 24.5t59.5 61t36 84t6 89
q-4 26 -12.5 45.5t-23.5 31t-28 18.5t-36.5 9t-37.5 2.5t-42 -0.5t-40 -1q-3 -51 -12 -125.5t-9 -85.5q0 -14 -15 -14t-15 14q0 7 14 142t6 193q-55 -48 -156.5 -52.5t-159.5 37.5q-106 -68 -323 -68t-338 57q-8 3 -8.5 11.5t6 14t15.5 1.5q117 -57 316 -55.5t310 61.5
q-20 33 -18.5 69.5t27 64.5t61.5 24q25 -3 30.5 -23.5t-4.5 -47.5t-24 -51t-26 -38q32 -21 91 -26t116 10t78 45q-7 24 -19.5 25.5t-40.5 -20.5q-12 -10 -21.5 1t1.5 22zM-261 417q16 16 30.5 44.5t16.5 51.5q1 15 -12 14q-22 -3 -39 -31q-24 -40 4 -79zM76 421
q10 -43 8 -124q138 2 154 64q10 40 -32.5 79t-84.5 29q-32 -8 -45 -48z" />
    <glyph glyph-name="C_ss01" unicode="&#x1003;" horiz-adv-x="297" 
d="M255 397q9 17 2.5 38t-27.5 27q-58 18 -101.5 -10.5t-63 -85.5t-23 -122.5t15.5 -129.5t55 -100q20 -20 40.5 -20.5t35.5 11.5t30.5 35t24 41t16.5 39q0 9 8 12.5t15.5 -0.5t7.5 -13q-8 -26 -20.5 -52t-31 -53.5t-44 -42t-52.5 -9.5q-65 12 -105.5 125t-22.5 225
q-62 -37 -153 -39t-150 39q-106 -72 -332 -72t-349 60q-9 4 -9 12.5t6.5 14t15.5 1.5q120 -60 326 -58.5t319 64.5q-26 41 -18 82.5t40.5 67t63.5 9.5q25 -13 19 -46t-23.5 -65.5t-34.5 -49.5q50 -34 152 -26t140 54q24 67 87 110.5t126 20.5q31 -11 42.5 -39.5t4.5 -53.5
t-24 -29q-6 -1 -10.5 3.5t-5.5 10.5q-1 9 7 14zM-286 353q46 52 50 100q1 20 -18 13q-26 -8 -40 -40q-16 -38 8 -73z" />
    <glyph glyph-name="D_ss01" unicode="&#x1004;" horiz-adv-x="454" 
d="M186 431v-33q143 145 215 81q55 -49 47 -190q-9 -149 -76 -271q-75 -137 -179 -138q-91 -2 -188 109q-7 8 -3.5 16t11.5 9t15 -6q127 -145 241 -66q82 58 127 204q42 134 21 231q-18 89 -82 81q-60 -8 -149 -104v-363q0 -6 -4.5 -10.5t-10.5 -4.5t-10.5 4.5t-4.5 10.5
v337q-58 -41 -152.5 -43t-151.5 39q-69 -46 -197.5 -62t-257.5 -2t-208 52q-9 4 -9 12t6.5 13.5t15.5 1.5q118 -58 317 -56t311 63q-25 42 -16.5 82t40.5 63.5t62 7.5q24 -12 16.5 -45t-23.5 -62.5t-32 -47.5q51 -35 141.5 -28t137.5 50v65q0 15 15 15t15 -15zM-145 364
q16 16 31 45t17 52q1 15 -12 14q-21 -3 -39 -31q-26 -40 3 -80z" />
    <glyph glyph-name="E_ss01" unicode="&#x1005;" horiz-adv-x="331" 
d="M282 34q5 9 14.5 7.5t13.5 -9t0 -16.5q-37 -58 -78 -89.5t-76.5 -34.5t-66.5 16t-52 55.5t-30 90.5t-2 115q-9 6 -7.5 16.5t12.5 13.5q12 85 52 181t96 120q-24 35 -88.5 51.5t-132 11t-103.5 -29.5q14 -14 26 -35q26 -42 33.5 -74t1.5 -48t-22 -22q-27 -10 -54.5 4.5
t-43 42.5t-15.5 64.5t22 65.5q-82 45 -217 62t-272 2.5t-224 -57.5q-14 -6 -22 8.5t8 22.5q85 42 231 58t294 -2t226 -69q44 32 127.5 40t161 -16.5t98.5 -75.5q51 -4 107 -79q6 -9 1.5 -17.5t-13 -9.5t-15.5 7q-33 44 -63.5 57t-53.5 -3.5t-41.5 -44t-32.5 -70t-22.5 -75.5
t-14.5 -67q24 2 96.5 10.5t113.5 8.5q11 0 15 -8.5t-1 -17t-15 -8.5q-41 0 -115.5 -8.5t-98.5 -10.5q-7 -53 0 -96t21 -78t38.5 -51.5t52 -16t62 27.5t68.5 80zM-136 400q-2 24 -18.5 56t-36.5 54q-36 -50 1 -98q22 -28 43 -27q12 0 11 15z" />
    <glyph glyph-name="F_ss01" unicode="&#x1006;" horiz-adv-x="316" 
d="M122 463v-194q116 11 126 11q14 0 14 -16t-14 -16q-10 0 -126 -11v-307q0 -10 -8 -14t-15.5 0t-7.5 14v305q-7 -1 -21 -1q-13 0 -13 16t13 16q14 0 21 1v145q-59 -42 -164.5 -46t-171.5 36q-75 -48 -212.5 -65t-273.5 -2t-217 55q-9 4 -9.5 12.5t7 14t16.5 1.5
q125 -61 336.5 -59t329.5 67q-29 47 -18 89.5t47.5 66.5t64.5 4q22 -14 14 -48t-25 -65.5t-34 -49.5q33 -21 104.5 -25.5t134 13t68.5 52.5h-76q-11 0 -11 16t11 16q4 0 87.5 2t135.5 2.5t73 -2.5q7 -12 -1 -23q-18 -6 -45 -8.5t-44 -3t-53.5 0t-42.5 0.5zM-242 445
q18 18 33.5 49t17.5 54q2 18 -15 14q-25 -6 -42 -36q-23 -42 6 -81z" />
    <glyph glyph-name="G_ss01" unicode="&#x1007;" horiz-adv-x="325" 
d="M350 -121q9 -7 7 -16.5t-10 -13t-18 1.5q-65 59 -92 219q-41 -38 -97.5 -59t-93.5 -5q-30 13 -39 67t5 124.5t42 138.5t77.5 115t107.5 48q-58 48 -161.5 55.5t-165.5 -32.5q21 -21 41.5 -61.5t25 -79t-32.5 -47.5q-41 -8 -73.5 24t-36.5 76t21 86q-134 72 -366.5 74
t-375.5 -66q-10 -5 -18 1t-7.5 16t10.5 15q144 67 394.5 67.5t388.5 -81.5q46 34 137 42t172 -19.5t96 -82.5q15 -14 22 -21q49 -72 -74 -173q-12 -11 -25 4q-9 13 4 24q11 8 21.5 17.5t24 25.5t21 30t7 29.5t-12.5 27.5q-32 30 -85 1q-68 -35 -117 -162q-45 -117 -35 -199
q6 -53 39 -56q35 -2 85.5 26.5t66.5 53.5q-8 62 -6 108h-81q-17 0 -17 18t17 18l185 -3q17 0 17 -17.5t-17 -17.5q-12 0 -34 0.5t-34 0.5q-4 -79 22 -190t68 -152zM-56 383q-2 27 -19.5 60t-37.5 55q-37 -54 2 -103q23 -29 44 -27q12 0 11 15z" />
    <glyph glyph-name="H_ss01" unicode="&#x1008;" horiz-adv-x="295" 
d="M89 236h138q-16 163 -16 251q0 14 14.5 14t14.5 -14q0 -64 10 -192.5t40 -268t71 -139.5q8 1 12.5 -6t1 -14.5t-11.5 -7.5q-93 0 -132 338q0 3 -0.5 5.5t-0.5 4.5h-140q3 -39 5 -121q0 -14 -14.5 -14t-14.5 14q-2 81 -5 121h-52q-14 0 -14 14.5t14 14.5h51q0 28 -4 89
t-3 94q-52 -41 -143 -43t-157 33q-67 -44 -191.5 -59.5t-248 -2t-196.5 49.5q-9 4 -9.5 12t6 13t15.5 1q114 -54 304.5 -52.5t298.5 59.5q-18 24 -18.5 54.5t12.5 54t36 36.5t47 5q26 -10 21.5 -41.5t-21 -63t-32.5 -47.5q31 -20 95 -24t120.5 12t62.5 48q0 11 7.5 15.5
t14.5 0.5t7 -13q0 -135 5 -231zM-244 447q42 48 46 94q1 14 -11 13q-21 -2 -38 -29q-25 -39 3 -78z" />
    <glyph glyph-name="I_ss01" unicode="&#x1009;" horiz-adv-x="71" 
d="M53 475q-8 -65 -8.5 -236t14.5 -240q10 3 16 -3q16 -13 1 -29q-16 -18 -34 -6q-2 1 -3 2q-25 22 -30.5 187.5t3.5 268.5q-70 -52 -180 -55t-198 44q-86 -57 -244 -76t-313.5 -1t-251.5 62q-10 5 -10.5 15.5t7.5 16.5t18 1q96 -45 242 -61t290.5 2.5t234.5 67.5
q-19 24 -23 54.5t5.5 57t26 47.5t40.5 30t48 1q32 -12 27 -51t-26 -80t-42 -61q39 -27 124 -31t156.5 17.5t73.5 60.5q-2 17 15 19t21 -13v-11zM-363 457q20 20 38.5 56t20.5 63q2 22 -20 15q-28 -7 -47 -41q-26 -47 8 -93z" />
    <glyph glyph-name="J_ss01" unicode="&#x1010;" horiz-adv-x="294" 
d="M180 492q22 10 37.5 13.5t25 -1t14.5 -10.5t6.5 -21t1.5 -26.5t-1 -33t-1 -34.5q1 0 6.5 1.5t7.5 1.5q10 2 15.5 -5t3 -15.5t-11.5 -9.5l-21 -6q-7 -355 -138 -384q-46 -10 -82 46q-43 66 -28 153q21 121 151 184q30 15 65 26q2 89 -3 107q-39 -14 -126.5 -61t-130.5 -61
q-51 -19 -118.5 -12t-108.5 38q-122 -74 -349.5 -73.5t-357.5 60.5q-9 5 -9 14.5t7 14.5t16 0q83 -39 210.5 -53t254.5 2t204 58q-29 49 -17.5 92t49 66.5t64.5 2.5q18 -17 11.5 -49.5t-24 -64.5t-34.5 -48q48 -32 153 -30q21 0 69.5 22t113 56.5t75.5 39.5zM-253 425
q18 20 33.5 50t17.5 54q1 21 -19 14q-25 -9 -40 -41q-19 -40 8 -77zM230 337z" />
    <glyph glyph-name="K_ss01" unicode="&#x1011;" horiz-adv-x="257" 
d="M43 474q2 -125 5 -188q67 95 159 201q11 10 21 -0.5t-1 -21.5q-52 -60 -104 -127q17 -74 71 -208t92 -137q9 1 13.5 -5.5t1 -15t-12.5 -9.5q-31 3 -63 44.5t-57.5 104.5t-40.5 109t-26 87l-49 -69q-7 -16 -7 -157q0 -14 -15 -14t-15 14q-1 58 -0.5 172t-0.5 173
q-48 -39 -154 -43.5t-160 29.5q-66 -45 -196 -61.5t-259 -1.5t-203 52q-8 5 -8 12t6.5 12.5t14.5 1.5q118 -57 315 -55t308 62q-39 54 -4 112q24 41 61 46q21 3 35 -11q21 -21 0.5 -72t-46.5 -77q32 -22 101 -25t127 15t60 49q0 11 8 15.5t15.5 0.5t7.5 -14zM-297 453
q16 16 31 45t17 52q1 14 -11 13q-20 -1 -39 -28q-27 -41 2 -82z" />
    <glyph glyph-name="L_ss01" unicode="&#x1012;" horiz-adv-x="136" 
d="M71 486q-7 -57 3 -315q4 -68 4 -153v-2q117 21 135 22q16 0 16 -16q0 -17 -16 -17q-31 -2 -96 -14.5t-103 -14.5q-7 0 -11.5 5t-3.5 12q0 16 16 16q10 0 32 2q-1 1 -1 7q0 9 -0.5 18t-0.5 21q-12 307 -10 379q-27 -22 -68 -35t-71 -16q-137 -6 -201 40q-29 -18 -105 -40
q-68 -17 -168 -27t-206 -6.5t-165 24.5q-28 11 -80 36q-16 7 -8 22t22 8q50 -26 77 -35q88 -34 303 -21t306 63q-26 34 -20 85q5 49 51 75q41 24 66 4q38 -29 -16 -125q-2 -4 -5 -8q-15 -24 -26 -33q55 -36 175 -29q32 3 86 26.5t56 45.5q0 10 7 14q8 5 15 2q14 -5 11 -20z
M-302 469q20 20 35 51.5t17 54.5q2 22 -22 12q-27 -11 -40 -39l-5 -16q-3 -39 15 -63z" />
    <glyph glyph-name="M_ss01" unicode="&#x1013;" horiz-adv-x="311" 
d="M65 281l-25 69q2 -78 2 -96q5 -80 6 -160q0 -6 -4.5 -10.5t-10.5 -4.5t-10.5 4.5t-4.5 10.5q0 25 -2 70t-2 59q-7 112 -8 180q-25 -20 -62.5 -32.5t-65.5 -15.5q-126 -7 -184 36q-33 -21 -96 -36q-61 -15 -152 -24.5t-188.5 -6.5t-150.5 23q-25 9 -73 33q-15 6 -7 19
q5 14 20 7q46 -22 70 -31q81 -31 276.5 -19t278.5 57q-22 30 -18 78q4 46 47 70q38 21 61 2q35 -29 -20 -121q-9 -15 -23 -31q49 -33 159 -26q26 0 76.5 22.5t52.5 42.5v1q0 15 14 15q11 2 15 -9q1 -1 1 -5q1 -5 16 -47.5t40.5 -114t41.5 -116.5q11 31 31.5 101t39 124.5
t34.5 82.5q1 10 13 12q7 2 12 -3q10 -5 5 -16l23 -535q1 -6 -3.5 -10t-10.5 -4q-15 0 -15 13l-21 475q-24 -69 -56 -179q-23 -76 -37 -101q6 -16 12 -32.5t10.5 -28.5t5.5 -15q7 -12 -7 -20q-13 -6 -20 7q-13 31 -86 236zM-303 432q18 18 32 46.5t16 49.5t-20 11
q-25 -11 -37 -37l-4 -13q-4 -34 13 -57z" />
    <glyph glyph-name="N_ss01" unicode="&#x1014;" horiz-adv-x="265" 
d="M39 420l7 -353q0 -15 -15 -16q-7 0 -11.5 4.5t-4.5 10.5l-7 367q-25 -22 -67.5 -36.5t-67.5 -14.5q-132 -7 -190 38q-32 -22 -99 -38q-102 -27 -256 -32.5t-254 23.5q-38 15 -75 34q-15 7 -8 21q8 14 21 7q68 -31 73 -33q82 -31 286 -19t289 59q-25 33 -19 81q4 47 48 72
q40 22 64 2q34 -31 -21 -126q-19 -26 -24 -31q49 -34 165 -27q27 0 77.5 22.5t56.5 42.5v2q0 2 2 10q4 7 13 7q12 0 15 -11q10 -1 13 -10q16 -43 82.5 -205t94.5 -251q0 41 -3 188q0 7 -1.5 53.5t-2 65t-2.5 61t-4.5 67.5t-7 57t-10.5 56q-3 14 11 19q13 5 19 -11
q21 -90 28 -311q7 -231 -1 -329q-2 -28 -19 -26q-12 1 -14 15q-18 77 -45 153.5t-75 192t-61 149.5zM-314 461q18 18 32.5 48.5t16.5 51.5t-20 13q-25 -10 -38 -37l-5 -17q-4 -34 14 -59z" />
    <glyph glyph-name="O_ss01" unicode="&#x1015;" horiz-adv-x="319" 
d="M210 436q49 -25 76.5 -86t21.5 -120q-7 -78 -64 -153.5t-129 -72.5q-50 3 -77.5 48t-30 108.5t3.5 120.5t18 97q32 104 88 122q-14 20 -62.5 39t-75.5 22q-122 8 -175 -30q16 -16 26 -33q58 -99 24 -132q-23 -22 -65 -1q-47 24 -55 73q-1 3 -1 6q-5 53 20 85
q-91 50 -307 63.5t-304 -20.5q-16 -6 -44 -19t-34 -16q-16 -8 -21 8q-8 15 7 21q40 20 81 36q60 21 166.5 24.5t206 -6.5t168.5 -27q78 -21 105 -40q61 48 202 41q49 -3 111.5 -34t64.5 -73q-1 -16 -17 -16h-1q-29 -5 -50 -37.5t-31 -78t-14 -83.5t-4 -69q1 -29 4.5 -55
t13.5 -54t24.5 -43t40 -15t57.5 22q53 37 80 102t14 133t-68 108q-17 12 -22 8.5t-5 -22.5q0 -17 -16 -18q-17 0 -17 15q0 36 17 51.5t49 0.5zM-167 402q-2 23 -18 54.5t-34 52.5q-19 -25 -15 -62q2 -30 35 -52q27 -17 31 -1q1 4 1 8z" />
    <glyph glyph-name="P_ss01" unicode="&#x1016;" horiz-adv-x="238" 
d="M51 508v-109q11 24 20.5 39.5t24 32.5t32.5 24t39 2q47 -12 64 -93q18 -86 -12 -159q-35 -83 -111 -67q-26 5 -55 23l2 -271q0 -7 -5 -12t-12 -5q-16 0 -16 16l-1 294l-5 4l-24 21q-12 12 -1 23t22 1l7 -6v34q-27 -20 -66 -32.5t-68 -15.5q-133 -7 -197 40
q-27 -17 -103 -39q-109 -27 -266 -33t-263 24q-3 1 -79 35q-13 7 -8 21q8 15 22 8q42 -20 76 -34q90 -34 297.5 -20t299.5 62q-24 32 -20 83q5 49 51 74q40 24 65 4q37 -29 -18 -126q-2 -2 -3 -5q-4 -7 -25 -33q54 -35 171 -28q24 0 71 18.5t63 38.5l-1 166q0 16 16 16
q6 0 11 -4.5t5 -11.5zM-308 335q19 21 34.5 51.5t17.5 52.5q2 21 -21 13q-26 -10 -40 -37q-4 -9 -5 -18q-4 -36 14 -62zM52 330v-1l1 -90q60 -45 101 -26t49 104q4 39 -7.5 95t-41.5 54q-24 -1 -42 -23.5t-35.5 -62.5t-24.5 -50z" />
    <glyph glyph-name="Q_ss01" unicode="&#x1017;" horiz-adv-x="359" 
d="M455 10q13 -9 1 -21l-18 -16q-25 -19 -51.5 -22.5t-48 6t-43.5 29.5t-38.5 42.5t-32.5 50.5q-28 -15 -55 -19q-78 -9 -109.5 43t-22.5 130q9 60 42 141.5t76 99.5q-14 18 -57 35.5t-65 17.5q-107 7 -157 -26q13 -15 22 -30q55 -92 20 -120q-23 -18 -61 4q-41 24 -45 68
q-4 46 18 76q-82 44 -275 56.5t-272 -18.5q-24 -9 -70 -31q-12 -7 -20 7q-6 14 7 19q48 24 73 33q99 28 240.5 22t243.5 -31q65 -16 95 -35q54 42 181 35q42 -3 95.5 -28t60.5 -60q1 -1 1 -7q0 -14 -15 -14q-5 0 -6 1q-17 -2 -41 -44.5t-35 -71.5q-10 -26 -17 -56t-9.5 -67
t4 -65t30.5 -44.5t65 -10.5q21 4 44 16q-6 13 -14.5 34t-10.5 25q-11 30 -20 72t-13 92.5t13 87t56 40.5q50 6 82 -19.5t40 -69.5t1 -94.5t-32.5 -99t-62.5 -77.5q35 -68 80.5 -101t90.5 1l14 14q10 10 21 0zM-98 386q-2 22 -15.5 49.5t-31.5 45.5q-17 -23 -14 -56
q2 -27 32 -46q25 -16 29 1v6zM235 123q49 43 72 119.5t2.5 134.5t-84.5 50q-22 -2 -32.5 -23t-11.5 -48t4 -61.5t10 -56.5t10 -39q8 -31 30 -76z" />
    <glyph glyph-name="R_ss01" unicode="&#x1018;" horiz-adv-x="238" 
d="M343 22q6 -13 -6 -20l-13 -7q-40 -17 -76.5 3.5t-59.5 63t-37 89t-16 85.5q-1 0 -3 -0.5t-3 -0.5q-33 -10 -72 -3l3 -130q1 -6 -3.5 -10t-10.5 -4q-6 -1 -10.5 3.5t-4.5 10.5l-3 136q-2 1 -16 4q-15 6 -10 18q4 13 19 10l6 -2l-2 95q-51 -32 -114 -39q-122 -6 -180 36
q-27 -19 -93 -36q-98 -25 -242 -30t-240 22q-19 7 -71 32q-11 7 -7 20q7 11 20 7q55 -26 69 -31q79 -31 270 -19t273 56q-22 30 -18 76q4 45 47 69q39 21 60 0q31 -29 -21 -117q-7 -12 -23 -30q50 -33 156 -26q21 3 56 16t57 28l-3 96q0 15 15 15q13 0 15 -14l1 -53
q16 22 44 35q64 30 97 -28q30 -51 13 -121q-11 -48 -43 -74q-2 -25 8.5 -68.5t29 -85.5t48.5 -66.5t63 -10.5l11 5q13 7 20 -5zM-279 455q-3 -34 13 -56q18 18 31.5 45.5t15.5 49.5q2 20 -19 11q-25 -11 -37 -36zM140 271l3 2q27 19 36 66t-5 84.5t-46 32.5t-52 -31.5
t-22 -60.5v-1l3 -101q46 -9 76 5q1 0 2 1t2.5 2t2.5 1z" />
    <glyph glyph-name="T_ss01" unicode="&#x1019;" horiz-adv-x="187" 
d="M-24 500q37 -12 138 -25l2 1h2q1 0 3 -1t3 -1q117 -9 154 6q12 7 19 -5t-5 -19q-44 -20 -160 -11q0 -333 19 -432q2 -5 1 -12q0 -14 -14 -14q-5 0 -9.5 4t-4.5 10v5q-1 2 -3 14q-17 83 -17 427q-89 13 -124 22q-14 -30 -61 -50t-84 -23q-119 -6 -173 34q-32 -19 -91 -34
q-94 -25 -232 -30t-231 22q-23 9 -69 31q-14 6 -6 19q4 12 18 7q51 -25 67 -30q75 -30 260.5 -18.5t262.5 54.5q-22 29 -17 73q4 44 46 67q38 19 58 -1q27 -30 -22 -112q-12 -18 -21 -29q48 -32 150 -25q25 0 73 21.5t49 40.5q0 4 1 6q5 13 18 8zM-336 468q17 17 30.5 43.5
t15.5 47.5q2 17 -17 11q-23 -7 -36 -32q-4 -8 -5 -16q-4 -28 12 -54z" />
    <glyph glyph-name="U_ss01" unicode="&#x1020;" 
d="M43 392q-1 -23 -6 -78q-15 -167 0 -221q29 -110 178 26q-5 46 -7.5 104t-3.5 100t-2 109t-2 96q0 16 15.5 15t15.5 -15q0 -362 34 -515q2 -9 -4.5 -15t-15 -4t-10.5 11q-1 7 -5.5 23.5t-7.5 30.5t-3 22q-39 -31 -71 -48.5t-55 -21.5t-39.5 4.5t-27 23t-16.5 40t-8 50.5
t-2 59.5t2 62t4 62.5q1 6 1 9.5t0.5 9t0.5 9.5q-57 -44 -156.5 -45.5t-163.5 35.5q-72 -47 -205 -63.5t-265 -1.5t-212 53q-9 4 -9 12.5t7 14t16 1.5q122 -60 326.5 -58t318.5 65q-42 56 -6 115q26 41 64 48q27 3 41 -15q23 -34 -27 -119q-12 -19 -24 -31q34 -22 105 -25.5
t131.5 14.5t62.5 51q0 10 8 14t15.5 0t7.5 -14zM-309 372q18 20 33 49t17 52q1 20 -19 13q-26 -10 -40 -41q-15 -38 9 -73z" />
    <glyph glyph-name="V_ss01" unicode="&#x1021;" horiz-adv-x="231" 
d="M164 552q95 -36 75 -210q-16 -132 -80 -255q-45 -87 -74 -86q-6 1 -10 4q-27 21 -58 282q-61 -45 -167.5 -49.5t-169.5 40.5q-71 -48 -206 -65t-271.5 -2t-219.5 55q-9 4 -9.5 12.5t6.5 14t17 1.5q127 -60 333 -58t327 65q-28 45 -18 88t45 67.5t64 4.5q22 -15 15.5 -48
t-23.5 -64.5t-35 -49.5q34 -23 107 -26.5t135 15.5t64 52q0 10 7.5 14t15.5 0t8 -14q21 -197 50 -299q25 28 54.5 96.5t50 146t12.5 147t-55 91.5q-9 2 -10 10.5t5 15t15 4.5zM-266 423q2 18 -15 14q-24 -6 -41 -36q-23 -42 5 -81q46 53 51 103z" />
    <glyph glyph-name="W_ss01" unicode="&#x1022;" horiz-adv-x="337" 
d="M35 286q9 -32 24 -96.5t23 -96.5q13 92 50 223q9 32 25 21q8 -5 35 -109q39 -132 59 -177q6 41 26 112.5t33.5 124t13.5 117t-25 113.5q-4 8 1 14.5t11.5 6.5t11.5 -7q28 -53 29.5 -120t-12 -119.5t-34.5 -127t-28 -117.5q-18 -123 -78 63q-1 1 -2 3q-2 8 -3 11
q-8 23 -46 147q-41 -148 -45 -236q0 -12 -7 -18.5t-16 -0.5q-18 12 -64 223q-56 -44 -155.5 -46t-148.5 35q-65 -42 -186.5 -57t-241.5 -1.5t-191 47.5q-8 4 -8 11.5t5.5 12.5t13.5 1q111 -54 297.5 -52t290.5 59q-26 42 -15.5 80t43.5 58.5t56 1.5q17 -15 10.5 -43.5
t-21.5 -56t-30 -42.5q30 -20 95 -23t119.5 13.5t56.5 46.5q0 9 7 12.5t14 0.5t7 -12zM-284 267q15 15 29 42.5t16 48.5q1 18 -17 11q-24 -9 -36 -38q-14 -33 8 -64z" />
    <glyph glyph-name="X_ss01" unicode="&#x1023;" horiz-adv-x="246" 
d="M236 90q12 -10 4 -21.5t-21 -3.5q-43 33 -97 133q-4 -5 -32.5 -46.5t-40 -59.5t-33 -53t-33.5 -62.5t-18 -51.5q-1 -9 -9.5 -12.5t-15.5 1.5t-6 15q8 35 30 78.5t41 72.5t54 79.5t46 67.5q-54 103 -82 191q-53 -53 -158 -57t-176 36q-73 -48 -205.5 -64.5t-263.5 -1.5
t-213 53q-9 4 -9 12.5t7 14t16 1.5q123 -60 326.5 -57.5t319.5 64.5q-26 41 -18 82.5t41 67t64 9.5q24 -14 18 -47t-23.5 -65t-34.5 -49q34 -22 105 -25.5t131.5 14.5t62.5 52q0 9 7 13t15 1t9 -12q13 -71 81 -204q102 154 111 222q0 9 7.5 13t15.5 0.5t8 -12.5
q-2 -14 -5.5 -29t-9.5 -31t-11 -28.5t-15 -30.5t-15.5 -27.5t-18 -29t-17 -26t-18 -27t-16.5 -24.5q57 -104 95 -136zM-258 538q2 18 -15 15q-23 -6 -40 -36q-23 -41 6 -79q17 19 32 48t17 52z" />
    <glyph glyph-name="Y_ss01" unicode="&#x1024;" horiz-adv-x="220" 
d="M30 437q0 -3 -0.5 -21t-0.5 -34t0.5 -39t2 -41.5t4 -35.5t6.5 -28t10 -13q5 -2 28.5 16.5t52 41.5t42.5 28l3 82q1 17 2 40t1.5 36.5t1.5 17.5q2 10 11 12t16 -4.5t4 -15.5q-6 -30 -6.5 -86.5t2.5 -113.5t0 -121t-11.5 -114.5t-34.5 -87.5t-67 -46q-50 -11 -76 52
q-24 59 -8.5 116.5t60.5 48.5q20 -4 43 -22q8 -7 5.5 -16t-10 -11.5t-15.5 2.5q-25 20 -36 15q-27 -10 -21 -68q7 -58 35 -80q36 -28 73 41q16 32 24 81t7.5 99.5t-1.5 109.5q-14 -6 -44 -34t-39 -34q-22 -17 -39.5 -18t-27.5 13t-16.5 31.5t-9.5 46.5t-4 50t-1 49
q-64 -44 -165.5 -47t-167.5 38q-76 -49 -212.5 -67t-272.5 -2t-222 57q-9 3 -9.5 11.5t6.5 14.5t16 2q128 -61 338.5 -59t331.5 67q-19 26 -19.5 59t12.5 59t38 41.5t53 7.5q30 -11 25 -45.5t-23.5 -70.5t-36.5 -54q35 -22 108 -25.5t135.5 15t66.5 52.5q0 11 8 15t16 0
t8 -14zM-334 416q17 20 33 50.5t18 53.5q1 20 -19 13q-25 -8 -40 -39q-20 -41 8 -78z" />
    <glyph glyph-name="Z_ss01" unicode="&#x1025;" horiz-adv-x="297" 
d="M6 414q133 8 171 5q137 -13 60 -125q-12 -18 -30 -39h50q13 0 13 -13.5t-13 -13.5q-48 0 -75 1q-26 -30 -81.5 -140.5t-56.5 -112.5q21 2 120 31.5t110 31.5q33 7 85 12q13 0 13 -13.5t-13 -13.5q-23 -1 -45.5 -4.5t-48.5 -10.5t-41.5 -11t-47 -14t-43.5 -14
q-1 0 -11.5 -4t-19.5 -6.5t-22.5 -6t-24 -4.5t-20.5 0t-15.5 6.5t-5.5 14.5q0 18 55 126t78 134q-74 0 -115 -5q-8 -3 -13 3t-3 14t10 9q43 7 144 5q50 54 62 85t-8.5 41t-60.5 11.5t-95 -3.5l-48 -3q-17 -40 -79.5 -59.5t-130 -13.5t-101.5 32q-62 -42 -179.5 -56.5
t-233 -1t-184.5 46.5q-8 4 -8 11.5t6 12.5t14 1q108 -52 285.5 -50t279.5 56q-23 38 -15.5 74t37 57t55.5 7q21 -12 14.5 -41t-21 -56t-28.5 -43q29 -20 91.5 -23t115 13.5t54.5 45.5q-1 6 3.5 10t10.5 4zM-289 382q15 16 28.5 42t15.5 46q1 18 -18 10q-25 -10 -35 -39
q-12 -31 9 -59z" />
    <glyph glyph-name="A_ss02" unicode="&#x1026;" horiz-adv-x="353" 
d="M484 -235q16 0 16 -16t-16 -16l-4 1q-4 0 -9.5 1t-10.5 1l-23 2q-135 24 -163 410l-97 -8q-42 -82 -75 -115q-27 -26 -51 -30t-43 9.5t-39 43.5q-7 15 7 22q14 8 21 -6q18 -29 34 -36t32 4.5t39 41.5q22 31 39 64q-36 -4 -89 5q-16 6 -11 19q6 16 20 11q43 -7 96 -3
q39 82 69 173q-52 -39 -163 -52q-81 -7 -292 10.5t-290 2.5q-48 -9 -76.5 -36t-20.5 -72q5 -29 23 -44t44 -15.5t49.5 4.5t47.5 14q14 5 21 -8q7 -14 -8 -21q-29 -11 -56.5 -16.5t-56.5 -4t-53 17.5t-36 46q-18 45 2.5 90t66.5 63q39 17 117 19.5t153.5 -3.5t165 -12.5
t134.5 -5.5q34 1 58 3t57.5 8t56.5 16t45.5 28.5t34.5 44.5l14 50l2 15q2 17 17 15h1q16 2 16 -28q0 -228 4 -291q1 1 3 1q6 0 10.5 -4.5t4.5 -11.5q0 -6 -4.5 -11t-10.5 -5q4 -72 13.5 -133.5t25 -117t40 -90t56.5 -40.5q1 0 20 -2t22 -2zM193 173q13 1 39.5 3t39.5 4
q0 1 -4 115v77q-34 -108 -75 -199z" />
    <glyph glyph-name="A_ss03" unicode="&#x1027;" horiz-adv-x="366" 
d="M-437 789q-24 9 -47.5 14t-49.5 4.5t-44 -15.5t-23 -44q-8 -45 20.5 -72t76.5 -36q79 -15 290 2.5t292 10.5q93 -10 154 -45.5t77 -115.5l1 -12q3 -8 2 -18v-1v-2q0 -164 5 -286h3q6 0 10.5 -5t4.5 -11q0 -14 -15 -16q4 -72 13.5 -134t25 -117t40 -89.5t56.5 -40.5
q1 0 20 -2t22 -2q16 0 16 -17q0 -6 -4.5 -10.5t-11.5 -4.5q-1 0 -13 1.5t-24 2.5l-11 1q-41 7 -71.5 47.5t-48.5 103.5t-27.5 125.5t-14.5 133.5l-97 -8q-44 -87 -76 -115q-72 -72 -131 24q-8 12 5 21q15 8 22 -6q29 -41 50.5 -38t53.5 47q17 22 40 64q-55 -2 -89 6
q-6 1 -9.5 6.5t-1.5 12.5q5 16 20 10q40 -7 96 -2q64 131 110 310l-2 15q-9 44 -35.5 73t-69 42t-76.5 17.5t-84 5.5q-42 0 -133 -7t-166 -12.5t-154 -2.5t-118 20q-46 21 -65.5 64t-1.5 89q41 105 201 43q14 -5 8 -21q-6 -13 -21 -8zM285 170q-4 63 -4 116v77
q-38 -121 -76 -200q54 6 80 7z" />
    <glyph glyph-name="A_ss04" unicode="&#x1028;" horiz-adv-x="356" 
d="M1197 755q18 -46 -1.5 -89t-65.5 -64q-39 -16 -118 -19t-154 2.5t-165.5 12.5t-133.5 7q-46 -1 -78 -5t-72.5 -15t-68 -34.5t-40.5 -59.5v-9q0 -212 5 -290h3q15 0 15 -16q0 -6 -4.5 -10.5t-10.5 -4.5q4 -72 13.5 -134t25 -117t40 -89.5t56.5 -40.5q1 0 20 -2t22 -2
q7 0 11.5 -5t4.5 -12q0 -6 -4.5 -10.5t-11.5 -4.5q-1 0 -13 1.5t-24 2.5l-11 1q-134 24 -162 410l-97 -9q-43 -85 -76 -115q-72 -72 -131 24q-8 13 5 22q15 7 22 -7q29 -41 50.5 -37.5t53.5 47.5q16 19 40 64q-48 -2 -89 5q-14 5 -11 19q5 16 20 11q29 -5 96 -3
q63 134 104 292l1 1q10 55 47 90.5t80.5 49.5t103.5 20q80 7 291 -10t291 -2q110 21 96 108q-5 29 -23 43.5t-44 15t-49.5 -4.5t-47.5 -14q-14 -5 -20 8q-5 15 8 21q163 61 201 -43zM193 183q14 1 40.5 3t39.5 4q-1 21 -2 42.5t-1.5 43t-0.5 29.5v77q-37 -119 -76 -199z" />
    <glyph glyph-name="A_ss05" unicode="&#x1029;" horiz-adv-x="366" 
d="M118 77q18 23 36 57q-29 16 -68 10.5t-58 -34.5q-22 -33 -6 -62q17 -29 51 -12q22 11 45 41zM173 173q67 143 111 316q2 13 15 14q18 2 18 -28q-2 -314 20 -457q18 -19 65 -73t83 -93.5t90 -85t99.5 -67t98 -19t97.5 40.5q7 6 16 2.5t11 -11t-5 -14.5q-37 -31 -77.5 -43
t-76 -8t-76 24t-71.5 43.5t-69.5 60.5t-63.5 65t-59.5 67t-51.5 57q8 -41 13 -63t16.5 -50t26 -42t39 -26t58.5 -15q10 0 14 -8t0 -15.5t-14 -7.5q-31 3 -56.5 13t-43.5 23t-32 34t-23 40t-16.5 49t-12 52.5t-9.5 57.5q-73 77 -127 112q-52 -105 -109 -117q-59 -12 -80 36
q-19 44 6 90q22 40 65 48q15 4 55.5 0.5t55.5 -2.5zM300 56q-20 157 -15 318q-36 -115 -91 -228q52 -37 106 -90z" />
    <glyph glyph-name="A_ss06" unicode="&#x1030;" horiz-adv-x="369" 
d="M18 39q28 -41 49 -37.5t55 47.5q28 41 39 64q-49 -2 -88 5q-14 5 -11 19q4 16 20 11q44 -8 96 -3q66 140 111 316q2 14 14 15q16 -2 17 -29q0 -212 5 -290h2q16 0 16 -15q0 -7 -5 -11.5t-11 -4.5q13 -159 36 -241q137 59 197 55q49 -2 83.5 -36t34.5 -82
q0 -32 -15.5 -55.5t-42 -35.5t-54 -17t-57.5 -5h-4q-1 0 -25 2l-23 2q-71 15 -113 130q-38 -17 -116 -55.5t-139 -65t-111 -40.5q-196 -56 -274 66l-15 28q-5 14 8 21q14 7 22 -8l12 -24q74 -119 297 -33q43 15 153 68.5t154 72.5q-26 86 -40 251l-97 -9q-43 -85 -76 -115
q-43 -37 -72.5 -29t-59.5 53q-8 14 6 21q14 8 22 -6zM372 -144q32 -102 91 -112l17 -2q18 -2 23 -2h4q26 0 49.5 4t47 14t35.5 30.5t6 49.5q-9 45 -45 60t-84 6q-63 -11 -144 -48zM293 155q-1 21 -2 42.5t-1.5 43t-0.5 29.5v77q-31 -101 -76 -199q13 2 40 4t40 3z" />
    <glyph glyph-name="B_ss02" unicode="&#x1031;" horiz-adv-x="327" 
d="M-67 447q44 34 73 28q-32 130 -263 130q-45 1 -134.5 -5t-165 -12t-154 -3.5t-117.5 19.5q-46 18 -66 63t-2 90q42 103 201 42q14 -5 9 -20q-8 -13 -21 -9q-24 9 -47.5 14t-49.5 4.5t-44 -15t-23 -43.5q-8 -47 20.5 -73.5t76.5 -35.5q79 -15 289.5 2.5t292.5 10.5
q205 -22 230 -161l1 -4q27 38 75 29q39 -6 75.5 -33t55.5 -60t11 -69t-50 -57q68 -19 99 -83q16 -35 16.5 -78t-12 -85t-36.5 -80t-54.5 -67t-69 -42t-78 -7.5t-82 38t-80.5 92.5l-12 21q-8 13 6 22q14 8 21 -7l12 -19q41 -64 87 -93t86 -23.5t76.5 31.5t61 66.5t36.5 87.5
t6 88q-9 61 -48 87t-104 30q-20 -4 -62 -6h-19q-2 -43 -7 -90t-9.5 -87t-5.5 -46q0 -5 -5 -10t-10 -5q-7 0 -11.5 5t-4.5 10q0 7 15 150t5 205q-6 50 -19 58.5t-50 -19.5q-12 -9 -23 2q-8 12 2 22zM134 289l2 -1q2 0 4.5 1t4.5 2t3 1q50 10 68 34t8 50t-35 49.5t-55 34.5
q-36 14 -55.5 3.5t-28.5 -46.5l-1 -2v-1q13 -57 8 -131q47 2 71 5h2q2 1 4 1z" />
    <glyph glyph-name="B_ss03" unicode="&#x1032;" horiz-adv-x="327" 
d="M-66 445q57 48 90 20q30 137 229 152q81 7 291 -10t291 -2q110 22 96 108q-5 29 -23 44t-44 15t-49.5 -5t-47.5 -14q-13 -5 -21 9q-6 15 9 21q28 11 55.5 16.5t56.5 4t53 -17.5t36 -46q18 -45 -2.5 -89.5t-65.5 -63.5q-39 -17 -117.5 -20t-153.5 3t-165.5 13t-133.5 7
q-44 -1 -74 -4.5t-69 -13t-66.5 -30t-42.5 -51.5q19 10 49 7q40 -7 76 -34.5t55 -60.5t11 -68.5t-50 -57.5q68 -17 99 -82q16 -35 16.5 -78t-12 -85t-36.5 -80t-54.5 -67t-69 -42t-78 -7.5t-82 38t-80.5 92.5l-12 21q-8 14 6 22q13 8 21 -6l12 -20q41 -65 87 -94t86 -23
t76 32t60.5 66.5t36.5 87.5t6 88q-9 61 -47.5 87t-103.5 30q-38 -6 -62 -6h-19q-3 -54 -12.5 -132.5t-9.5 -89.5q0 -16 -16 -16t-16 16q0 10 15.5 151t5.5 203q-6 50 -19 58.5t-51 -19.5q-5 -5 -11.5 -4t-9.5 6q-5 5 -4.5 11.5t5.5 9.5zM135 289l2 -1h5q5 1 7 3
q49 11 67.5 35t8.5 50t-35 49.5t-55 34.5q-37 13 -56 2.5t-28 -47.5q0 -1 -1 -2q11 -48 9 -131q40 0 69 5q2 1 5 1q1 1 2 1z" />
    <glyph glyph-name="B_ss04" unicode="&#x1033;" horiz-adv-x="327" 
d="M-63 442q66 54 98 9q26 51 82 42q40 -6 76 -33t55 -60t10.5 -69t-49.5 -57q69 -18 100 -84q16 -35 16.5 -78t-12 -84.5t-36.5 -80t-55 -67t-69.5 -41.5t-78 -8t-82 38t-80.5 93l-12 21q-7 13 7 21q12 7 21 -5l12 -20q40 -65 86 -94t85.5 -23.5t76 32t61 67.5t36.5 88
t6 88q-9 62 -46.5 86.5t-104.5 28.5q-32 -5 -62 -5h-19q-2 -43 -6.5 -89.5t-10 -88t-5.5 -44.5q0 -16 -16 -16q-6 0 -10.5 4.5t-4.5 11.5q2 27 18 175q-77 -87 -252 -40q-80 22 -270 115t-269 108q-48 9 -84 -6t-45 -61q-6 -29 6 -49t36 -29.5t47.5 -13.5t49.5 -4
q16 0 16 -16q0 -7 -4.5 -11.5t-10.5 -4.5q-31 0 -58.5 5t-55 16.5t-43.5 35t-16 56.5q0 48 35 82t84 36q55 2 153 -37t216 -97t162 -75q46 -17 80 -25t78.5 -11.5t79.5 14.5t59 56l11 21q5 65 -2 113q-6 35 -12 48t-20 12.5t-39 -20.5q-10 -10 -21 1t2 23zM138 284h1
q10 2 12 2q49 11 67.5 35.5t8.5 50.5t-34.5 49.5t-54.5 34.5q-37 13 -56 2t-28 -47l-2 -3q13 -59 9 -130q41 0 70 5q1 1 7 1z" />
    <glyph glyph-name="B_ss05" unicode="&#x1034;" horiz-adv-x="366" 
d="M-21 473q69 53 99 10q24 51 83 41q39 -6 75 -32.5t55 -59.5t11 -69t-49 -57q69 -19 99 -84q16 -35 16 -78t-12 -84.5t-35.5 -79.5t-54 -66.5t-68.5 -42t-76.5 -9t-81 36.5t-80.5 90q-2 1 -6 5l-13 24q-24 38 -59 56t-79.5 14.5t-78.5 -11.5t-80 -25q-42 -16 -161.5 -74
t-217.5 -97t-152 -37q-49 2 -84 36t-35 82q0 43 29.5 69.5t65 34.5t78.5 8q15 0 15 -16q0 -6 -4.5 -10.5t-11.5 -4.5q-26 0 -49.5 -4t-47.5 -13.5t-36 -30t-6 -49.5q9 -45 45.5 -60.5t83.5 -6.5q80 14 270 107.5t269 115.5q196 56 273 -67l3 -7l12 -18q41 -65 87 -94t86 -23
t76 32.5t60.5 67t36.5 88t6 88.5q-9 61 -47 86t-105 29q-32 -5 -62 -5l-18 -1q-2 -42 -7 -89t-10 -87t-6 -46q0 -15 -15 -15q-7 0 -11.5 4.5t-4.5 10.5q0 10 15.5 151t5.5 203q-6 49 -19.5 58t-50.5 -18q-12 -12 -22 1q-10 11 1 22zM181 316h1q4 1 13 1q49 11 67.5 35.5
t8 50.5t-35 49.5t-54.5 35.5q-37 12 -56.5 1.5t-27.5 -46.5l-1 -1v-3q11 -47 9 -129q37 0 69 4q6 2 7 2z" />
    <glyph glyph-name="C_ss02" unicode="&#x1035;" horiz-adv-x="295" 
d="M249 407q9 17 2 38.5t-27 27.5q-35 9 -78 -8t-67 -47q-56 -71 -47.5 -205.5t71.5 -197.5q20 -20 41 -21t37.5 12t31.5 35.5t24.5 42.5t16.5 40q0 15 17 15q5 0 10 -5t5 -11q-13 -44 -34 -79l-13 -24q-77 -123 -273 -67q-80 22 -270 114.5t-269 107.5q-48 9 -84 -6
t-45 -60q-6 -29 6 -49.5t35.5 -30.5t47.5 -14t50 -4q6 1 10.5 -3.5t4.5 -11.5q0 -15 -15 -15q-31 0 -58 4.5t-54.5 16t-43.5 35t-16 56.5q0 48 35 82t84 36q54 2 152 -37t216.5 -96.5t162.5 -74.5q127 -48 200 -34q-37 17 -67 70.5t-41 122t-5.5 137t42 124.5t98.5 75
q97 30 132 -27q21 -35 6 -72q-8 -17 -21 -21q-15 -2 -17 14q-1 7 7 15z" />
    <glyph glyph-name="C_ss03" unicode="&#x1036;" horiz-adv-x="295" 
d="M285 398q53 3 88 26t26 70q-10 45 -46 60t-83 6q-80 -14 -270 -107t-268 -115q-196 -58 -274 67l-14 28q-8 14 7 21q14 5 21 -8l13 -25q19 -31 48 -47.5t56.5 -20.5t65.5 1.5t64 13t63 20.5q43 16 162 74t217 97t152 37q50 -2 84.5 -36t34.5 -82q0 -61 -51 -86.5
t-120 -25.5h-2q-7 0 -12 6q-3 4 -3 8q0 8 7 15q10 17 3 38.5t-28 27.5q-35 9 -78 -8t-67 -47q-57 -72 -47.5 -206t72.5 -197q20 -20 41 -21t36.5 11.5t31 36t24.5 42.5t17 40q2 15 17 15q15 -1 15 -17q-25 -76 -62 -118q-68 -78 -135 -18q-59 52 -82 172q-26 140 22 240
q38 77 114 100q60 19 92 4.5t43 -40t5 -52.5z" />
    <glyph glyph-name="C_ss04" unicode="&#x1037;" horiz-adv-x="295" 
d="M252 437q-8 19 -27 27q-35 9 -78 -8t-67 -47q-37 -46 -46 -126.5t11 -158t60 -117.5q77 -77 150 107q0 15 17 15q6 0 10.5 -4.5t4.5 -11.5q-25 -77 -62 -118q-68 -78 -134 -18q-59 52 -82 172q-26 140 22 240q38 77 113 100q86 27 123 -17q51 90 211 105q81 7 292 -10.5
t290 -2.5q48 9 76.5 36t20.5 73q-6 29 -24.5 44t-44 15t-49 -4.5t-46.5 -14.5q-15 -6 -21 9q-6 12 8 20q29 11 56.5 16.5t56.5 4.5t53 -17t36 -46q18 -45 -2.5 -90t-65.5 -63q-40 -17 -118.5 -19.5t-154 3.5t-164.5 12t-134 5q-218 0 -257 -112q7 -46 -16 -63q-5 -5 -9 -5
h-1h-1h-1q-3 0 -4 1q-5 1 -7 6q-4 3 -3 10l3 31q1 4 3 11t2 10z" />
    <glyph glyph-name="C_ss05" unicode="&#x1038;" horiz-adv-x="295" 
d="M249 396q10 17 3 38.5t-27 27.5q-35 11 -78 -6.5t-67 -47.5q-56 -71 -47 -206t71 -197q17 -17 34.5 -21.5t32.5 5.5t27 22t24 34.5t18.5 35.5t14.5 32q0 7 5 11.5t10 3.5q16 0 16 -16q-21 -71 -61 -118q-68 -78 -135 -18q-59 52 -82 171q-28 140 21 240q37 78 114 101
q42 12 70 9q-26 27 -60 37.5t-74 5.5t-71 -13t-72 -23q-46 -17 -163 -74t-215.5 -96.5t-152.5 -37.5q-49 2 -84 36t-35 82q0 33 16 56.5t43.5 35t55 16t58.5 4.5q6 0 11 -5t4 -10q0 -16 -16 -16q-26 0 -49.5 -4t-47.5 -13.5t-36 -30t-6 -49.5q10 -45 46 -60t83 -6
q80 14 270 106.5t269 114.5q193 56 273 -66l15 -28v-1q15 -26 9 -55.5t-25 -34.5q-15 -2 -17 14q0 10 7 14z" />
    <glyph glyph-name="D_ss02" unicode="&#x1039;" horiz-adv-x="331" 
d="M49 446v-4v-31q31 32 61 55.5t66.5 41.5t69 7t54.5 -54q31 -69 23 -163.5t-41 -188t-76 -151.5q-49 -64 -105.5 -82.5t-111.5 3.5t-110 81l-20 24q-9 13 2 21q11 11 22 -1q107 -126 197 -102q70 17 122 104.5t73 184t17 170.5q-4 53 -17 83.5t-33.5 36.5t-43.5 1
t-50.5 -26t-50.5 -42t-48 -48v-381q0 -6 -5 -10.5t-11 -4.5t-10.5 4.5t-4.5 10.5v461v4l4 29q16 80 77 115.5t154 45.5q81 7 292 -10.5t290 -2.5q48 9 76 36t20 72q-15 90 -164 41q-13 -4 -21 9q-4 13 9 20q160 62 201 -43q18 -45 -2 -89t-65 -63q-40 -17 -118.5 -19.5
t-153.5 3.5t-164.5 12t-134.5 5q-239 0 -266 -138z" />
    <glyph glyph-name="D_ss03" unicode="&#x1040;" horiz-adv-x="331" 
d="M46 441v-34q31 32 61 55.5t66.5 41t69 6.5t54.5 -53q31 -69 23 -164t-41 -188.5t-76 -151.5q-50 -64 -106.5 -82.5t-111.5 4t-109 80.5l-5 6l-4 -7q-77 -123 -273 -67q-80 23 -270 115t-268 107q-29 4 -55.5 2t-47.5 -19.5t-26 -49.5q-7 -29 4.5 -49t36 -29.5t48 -13.5
t49.5 -4q6 0 11 -4.5t5 -10.5q0 -16 -16 -17q-30 0 -57.5 5t-55 16.5t-43.5 35t-16 56.5q0 48 35 82.5t83 34.5q55 2 153.5 -37t216 -96t163.5 -74q220 -86 297 33l12 22q0 7 4 8q12 12 22 -1q109 -125 198 -102q70 17 122 104.5t72.5 184.5t16.5 170q-3 63 -21.5 93.5
t-43.5 31.5t-58.5 -18t-61 -44t-57.5 -57v-381q0 -16 -16 -16t-16 16v460q0 16 16 16t16 -16z" />
    <glyph glyph-name="D_ss04" unicode="&#x1041;" horiz-adv-x="331" 
d="M51 440v-35q24 25 47 45t53.5 38t56.5 22.5t52 -8.5t43 -48q31 -68 23 -162.5t-41.5 -189t-76.5 -151.5q-49 -63 -105.5 -82t-111.5 3.5t-110 81.5l-20 23q-9 12 3 22q13 9 21 -2q109 -124 197 -101q53 13 97 67.5t69 125.5t37 142t9 123q-4 53 -17 84t-33.5 36.5
t-43 0.5t-50.5 -26t-50.5 -41t-48.5 -48v-381q0 -7 -4.5 -11.5t-10.5 -4.5q-16 0 -16 16v363q-112 -66 -262 50q-65 50 -207 207t-211 200q-96 58 -144 -14q-30 -46 4 -83.5t89 -58.5q14 -6 8 -20q-6 -15 -19 -10q-64 25 -102.5 68t-16.5 101q18 45 62.5 63.5t91.5 2.5
q51 -20 127.5 -92t165.5 -170t123 -129q35 -32 64.5 -53t69 -39.5t79 -15.5t75.5 29l3 2v60q0 15 16 15q15 0 15 -15z" />
    <glyph glyph-name="D_ss05" unicode="&#x1042;" horiz-adv-x="331" 
d="M-931 32q-26 0 -49.5 -4t-47.5 -13.5t-35.5 -30t-5.5 -49.5q9 -46 45.5 -61t84.5 -6q79 14 268.5 107.5t268.5 115.5q58 16 103.5 18.5t92.5 -18t78 -67.5l14 -26q104 -122 194 -98q70 17 122 104.5t72.5 184.5t16.5 170q-4 53 -17 83.5t-33.5 36.5t-43.5 1t-50.5 -26
t-50.5 -42t-48 -48v-381q0 -6 -4.5 -11t-10.5 -5q-7 0 -11.5 5t-4.5 11v461q0 16 16 16q6 0 10.5 -4.5t4.5 -11.5v-35q31 32 61 55.5t67 41t69.5 6.5t54.5 -53q43 -104 8.5 -259t-103.5 -244q-49 -63 -105.5 -82t-111.5 3.5t-109 80.5l-21 23q-3 3 -3 9l-9 17
q-77 119 -297 33q-45 -17 -163 -74t-217 -96t-153 -37q-48 0 -83 35t-35 82q0 33 16 56.5t43.5 35t55 16.5t57.5 5q16 0 16 -16q-2 -15 -17 -15z" />
    <glyph glyph-name="E_ss02" unicode="&#x1043;" horiz-adv-x="300" 
d="M254 406q-55 68 -91.5 58.5t-73.5 -92.5q-31 -71 -46 -155q20 1 88 9.5t107 8.5q6 0 10.5 -4.5t4.5 -11.5t-5 -11.5t-11 -3.5q-38 0 -105.5 -8t-93.5 -10q-20 -151 56 -209q39 -29 81.5 -3.5t74.5 70.5l12 17q9 15 21 6q13 -9 6 -22l-13 -19q-24 -34 -54 -58t-70 -34.5
t-75 17.5q-90 65 -70 236q-7 4 -7 13q0 11 10 15q19 113 64 197q80 148 183 40q29 135 229 156q81 7 292 -11t290 -3q48 9 76.5 36.5t20.5 72.5q-5 29 -23 44t-44 15.5t-49.5 -4.5t-48.5 -14q-12 -6 -20 8q-7 14 8 21q29 11 56.5 16.5t56.5 4t53 -17.5t36 -46
q18 -45 -2.5 -90t-65.5 -63q-40 -17 -118.5 -19.5t-154 3.5t-164.5 12.5t-134 5.5q-238 0 -265 -138l-3 -27q-1 -15 -17 -15q-4 0 -5 1q-4 1 -7 6z" />
    <glyph glyph-name="E_ss03" unicode="&#x1044;" horiz-adv-x="300" 
d="M-785 238q-26 0 -49.5 -4t-47.5 -13.5t-35.5 -30t-5.5 -49.5q9 -45 45 -60t84 -6q81 14 270 107t268 115q56 15 100 18t90.5 -14.5t77.5 -61.5q19 101 59 176q45 85 99 85.5t107 -73.5q10 -13 -4 -22q-12 -7 -22 4q-54 68 -91 59t-73 -93q-31 -71 -46 -154q23 1 89.5 9
t104.5 8q15 0 15 -16q0 -6 -5 -11t-11 -5q-40 0 -110 -8t-88 -9q-21 -153 56 -208q39 -29 81.5 -4t74.5 70l12 18q8 14 21 5t5 -21l-13 -20q-17 -25 -39 -45t-48 -34.5t-55.5 -14t-56.5 19.5q-90 64 -70 234l-1 1v1q-4 3 -6 11l-6 12q-24 38 -60 55t-80 14t-78 -11.5
t-79 -24.5q-45 -17 -162.5 -74t-216 -96.5t-153.5 -37.5q-49 2 -84 35.5t-35 81.5q0 43 29.5 70t65.5 35.5t78 8.5q15 -2 15 -16q0 -16 -16 -16z" />
    <glyph glyph-name="E_ss04" unicode="&#x1045;" horiz-adv-x="300" 
d="M256 403q-54 68 -90.5 59t-73.5 -92q-32 -77 -46 -155q18 1 86.5 9.5t107.5 8.5q15 0 15 -17q0 -6 -4.5 -10.5t-11.5 -4.5q-39 0 -108.5 -8.5t-89.5 -9.5q-20 -151 56 -208q39 -29 81.5 -4t74.5 70l12 18q7 13 21 6q13 -9 5 -22l-12 -19q-17 -25 -39.5 -45t-49 -35
t-55.5 -14.5t-55 19.5q-47 33 -63.5 96.5t-7.5 139.5q-7 4 -7 13q0 12 11 14q17 107 63 198q44 85 99 85q-81 31 -227 -25q-45 -17 -163 -74.5t-216 -97t-153 -37.5q-49 2 -83.5 36t-34.5 82q0 33 16 56.5t43.5 35t55 16.5t57.5 5q6 0 11 -4.5t5 -11.5q-2 -17 -16 -15
q-25 0 -49.5 -4t-48.5 -14t-36 -30.5t-6 -48.5q10 -45 46.5 -60t83.5 -6q64 12 161 56t202.5 94.5t174.5 71.5q196 56 273 -67l15 -28q5 -9 -1 -15q-1 -6 -7 -10q-10 -10 -22 3z" />
    <glyph glyph-name="E_ss05" unicode="&#x1046;" horiz-adv-x="300" 
d="M256 404q-54 68 -91 59t-73 -93q-31 -71 -46 -154q17 1 86 9t109 8q6 0 10.5 -4.5t4.5 -10.5q-1 -16 -17 -16q-39 0 -108 -8t-90 -10q-9 -67 4 -123.5t52 -84.5q39 -29 81.5 -3.5t74.5 70.5l12 17q7 14 22 6q12 -9 5 -22l-13 -20q-23 -34 -53.5 -58t-70.5 -34t-76 18
q-90 66 -70 236q-7 3 -7 13q0 9 11 15q18 116 64 197q84 160 198 21q25 0 48.5 4.5t46 14.5t33.5 30t5 48q-10 45 -46.5 60t-83.5 6q-80 -14 -269.5 -107t-268.5 -115q-193 -57 -273 66l-15 28q-7 15 7 21q15 7 21 -7l13 -24q74 -121 297 -34q45 17 163 74.5t216.5 96.5
t152.5 37q49 -2 83.5 -36t34.5 -82q0 -60 -48.5 -86t-113.5 -26q-13 -9 -22 3z" />
    <glyph glyph-name="F_ss02" unicode="&#x1047;" horiz-adv-x="257" 
d="M105 468v-192q13 1 56.5 5t68.5 5q13 0 13 -16q0 -15 -13 -15q-9 0 -125 -11v-303q0 -16 -15 -16q-16 0 -16 16v301q-7 -1 -21 -1q-12 0 -12 15q0 17 12 17q14 0 21 1v194h-78q-11 0 -11 16q0 15 11 15h69l-5 9q-24 38 -59.5 55.5t-79.5 14.5t-78 -11.5t-80 -24.5
q-45 -17 -162.5 -74t-216.5 -96.5t-153 -37.5q-49 2 -83.5 36t-34.5 82q0 33 16 56t43 34.5t54.5 16.5t58.5 5q6 0 10.5 -5t4.5 -11t-5 -10.5t-11 -4.5q-26 0 -49.5 -4t-47.5 -14t-35.5 -30.5t-5.5 -48.5q8 -46 44.5 -61t84.5 -6q79 14 269.5 107t268.5 115q194 57 274 -66
l13 -26q92 0 136 3h36q9 13 17 -1q8 -15 -2 -22q-20 -7 -32 -8q-8 0 -18 -1q-29 -2 -132 -2z" />
    <glyph glyph-name="F_ss03" unicode="&#x1048;" horiz-adv-x="268" 
d="M-695 -168q7 1 12 -3t5 -11q2 -17 -14 -18q-31 -2 -59 1t-55.5 12.5t-45 31.5t-20.5 54q-4 48 27.5 84.5t80.5 42.5q55 5 155.5 -25.5t223 -78.5t168.5 -61t81 -18.5t79 -5t78 21t55 59.5l11 25v298q-3 0 -10 -0.5t-10 -0.5q-14 0 -14 16t14 16h20v194q-14 0 -39.5 0.5
t-37.5 0.5q-13 0 -13 15q0 16 13 16q180 0 240 3q27 3 35 1q8 11 17 -2q7 -12 -1 -22q-6 -2 -11.5 -3.5t-7.5 -2t-4 -1.5t-6 -1h-7.5h-13.5q-59 -4 -133 -4v-191q102 9 125 10q13 0 13 -15q0 -16 -13 -16q-9 0 -125 -11v-303v-5q0 -1 -1 -2l-13 -29q-70 -130 -267 -89
q-80 16 -276.5 93.5t-277.5 85.5q-113 10 -124 -76q-3 -29 11 -49t36.5 -27t49 -10.5t49.5 0.5z" />
    <glyph glyph-name="F_ss04" unicode="&#x1049;" 
d="M121 467v-192q13 1 56 5.5t68 5.5q6 0 10 -5t4 -11q0 -15 -14 -15q-23 -2 -124 -11v-304q0 -16 -16 -16t-16 16v301q-8 0 -11 -1h-1q-14 -7 -20 8l-13 24q-25 38 -60.5 55.5t-78.5 15t-79 -11.5t-80 -26q-45 -17 -162.5 -74t-216 -96.5t-152.5 -37.5q-49 2 -83.5 36
t-34.5 82q0 33 16 56.5t43 35t54.5 16.5t58.5 5q6 0 10.5 -5t4.5 -11q0 -15 -16 -15q-26 0 -50 -4t-47.5 -14t-35.5 -30.5t-6 -48.5q9 -47 45 -61.5t84 -5.5q81 14 270.5 107t268.5 115q193 56 273 -66l9 -17q2 0 5.5 0.5t4.5 0.5v194q-27 1 -78 1q-11 0 -11 15q0 16 11 16
q193 0 241 3h35q10 7 17 -2q7 -11 -1 -22q-20 -5 -50 -8q-66 -3 -132 -3z" />
    <glyph glyph-name="F_ss05" unicode="&#x1050;" 
d="M124 464v-192q96 9 124 10q14 0 14 -15q0 -16 -14 -16q-15 0 -124 -11v-303q0 -16 -16 -16q-6 0 -11 4.5t-5 11.5v301q-4 0 -10 -0.5t-9 -0.5q-14 0 -14 16t14 16q3 0 9 0.5t10 0.5v194h-63l-9 -20q-67 -130 -267 -89q-80 16 -277 93t-277 85q-49 7 -83.5 -11.5
t-40.5 -64.5q-4 -29 10 -48.5t37 -26.5t50 -10.5t49 0.5q15 0 18 -15q0 -15 -15 -17q-170 -12 -180 99q-4 48 27.5 84.5t80.5 42.5q55 5 155.5 -25.5t223 -78.5t168.5 -61q228 -67 293 57l11 25l1 1q2 11 12 11q179 0 239 3q28 2 35 1q10 10 18 -2q7 -13 -2 -22
q-7 -2 -13 -4t-7 -2.5t-5.5 -1t-8.5 -0.5h-16q-43 -3 -132 -3z" />
    <glyph glyph-name="F_ss06" unicode="&#x1051;" 
d="M122 465v-191q13 1 56.5 5t68.5 5q13 0 13 -15q0 -16 -13 -16q-9 0 -125 -11v-303q0 -7 -4.5 -11.5t-10.5 -4.5q-16 0 -16 16v301q-3 0 -10 -0.5t-10 -0.5q-14 0 -14 16q0 6 4 11t10 5h20v194q-14 0 -39.5 0.5t-37.5 0.5q-13 0 -13 15q0 16 13 16q194 0 232 2q4 4 10 3
q4 0 9 -0.5t8 -0.5q10 1 14 0h2q6 6 15 1q44 3 73.5 23t24.5 62q-10 87 -124 77q-80 -8 -277 -85t-277 -93q-199 -40 -267 88l-13 28q-5 15 10 21q14 5 20 -10l11 -24q21 -40 55 -60.5t78 -21t79.5 5.5t81.5 19q45 13 167 60.5t223.5 78t155.5 25.5q48 -6 80.5 -42.5
t28.5 -84.5q-10 -100 -152 -100h-27q-59 -4 -133 -4z" />
    <glyph glyph-name="F_ss07" unicode="&#x1052;" horiz-adv-x="279" 
d="M120 470v-192q85 8 124 11q14 0 14 -16q0 -6 -4 -11t-10 -5q-11 0 -124 -11v-303q0 -16 -16 -16q-6 0 -10.5 4.5t-4.5 11.5v301h-20q-14 0 -14 15q0 16 14 16q3 0 10 0.5t10 0.5v194h-78q-12 0 -12 16t12 16q188 0 241 2q8 0 13.5 0.5t7.5 1t3 0.5l2 13q16 80 77 115.5
t154 45.5q82 7 292 -10.5t289 -2.5q48 9 77 36t21 72q-18 92 -164 41q-15 -5 -22 8q-4 14 9 21q29 11 56.5 16.5t57 4.5t52.5 -17.5t35 -47.5q18 -45 -2 -88t-66 -64q-38 -17 -116.5 -20t-153.5 2.5t-166.5 12.5t-133.5 7q-39 -1 -66.5 -3.5t-64.5 -11t-61.5 -22.5t-45 -40
t-27.5 -62l-3 -18q1 -2 -1 -7v-2q0 -6 -5 -10.5t-11 -3.5q-5 0 -10 3q-8 0 -27 -1q-64 -3 -132 -3z" />
    <glyph glyph-name="G_ss02" unicode="&#x1053;" horiz-adv-x="323" 
d="M186 350q53 48 62 75q5 15 1 27v1q-1 1 -1 3l-8 10q-20 18 -46.5 11.5t-49.5 -23.5t-36 -36q-38 -50 -57.5 -127.5t-19.5 -151.5q0 -59 69 -36q53 17 90 54l9 11q-7 65 -4 94q-25 1 -73 1q-15 0 -15 16t15 16q28 0 82 -1t82 -1q16 0 16 -16q0 -6 -4.5 -11t-11.5 -5
q-40 0 -60 1q-4 -68 19 -167t61 -135q11 -10 4 -22q-9 -13 -23 -4l-13 12q-41 46 -69 182q-34 -33 -81.5 -51.5t-85.5 -4.5t-38 68q0 87 24 175t73 141q24 24 54.5 39.5t64.5 13.5t54 -31q5 -5 6 -10q0 -1 1 -1l13 -24q23 -38 59 -56t79.5 -15.5t79 11.5t79.5 26
q43 16 162 74t217 97t152 37q50 -2 84.5 -36t34.5 -82q0 -33 -16 -56.5t-43.5 -35t-55 -16t-58.5 -4.5q-6 0 -10.5 4.5t-4.5 10.5q0 16 16 16q26 0 49.5 4t47.5 13.5t36 30t6 49.5q-10 45 -46 60t-83 6q-80 -14 -270 -106.5t-268 -114.5q-181 -55 -261 48q-17 -38 -71 -83
q-13 -9 -22 3q-12 12 3 22z" />
    <glyph glyph-name="G_ss03" unicode="&#x1054;" horiz-adv-x="315" 
d="M-505 -91q-36 -3 -66.5 -12t-52.5 -34.5t-11 -62.5q13 -44 53.5 -57t80.5 2q78 21 259 130t258 137q133 51 214 12q-15 49 -23 93q-25 -24 -59.5 -40.5t-67.5 -21t-56 14t-23 59.5q0 86 24.5 174.5t73.5 141.5q24 24 54.5 39.5t64 13.5t53.5 -30q45 -66 -64 -153
q-11 -10 -23 2q-10 13 4 22q9 7 18.5 16t21.5 23t18.5 26.5t6 26.5t-11.5 24q-20 18 -46.5 11.5t-49.5 -23.5t-36 -36q-38 -50 -57.5 -127.5t-19.5 -151.5q0 -59 69 -36q52 16 90 53q6 7 10 12q-7 48 -5 95q-12 0 -36 0.5t-37 0.5q-15 0 -15 15q0 7 4.5 11.5t10.5 4.5
q53 0 165 -2q6 0 10.5 -4.5t4.5 -11.5q0 -6 -4.5 -10.5t-10.5 -4.5h-61q-4 -53 11.5 -133t42.5 -132q2 -3 6.5 -8.5t6.5 -8.5l15 -22q6 -8 5 -14h-1q0 -8 -7 -11q-13 -6 -21 5l-10 9q-14 18 -22 33q-28 27 -63 36.5t-76 1t-71 -19t-72 -29.5q-44 -21 -156 -88t-207 -114.5
t-149 -49.5q-49 -4 -86.5 27.5t-41.5 79.5q-3 33 11 58t40 39t53.5 21t57.5 9q7 1 12 -3.5t5 -11.5t-4.5 -11.5t-10.5 -4.5z" />
    <glyph glyph-name="G_ss04" unicode="&#x1055;" horiz-adv-x="315" 
d="M190 343q10 7 19.5 16t21 22.5t18 26t6.5 26t-11 24.5q-19 20 -47 11.5t-49 -24t-37 -34.5q-39 -50 -57.5 -127t-18.5 -154q0 -58 69 -35q52 17 90 54l9 11q-7 47 -5 95q-12 0 -36 0.5t-36 0.5q-15 0 -15 15q0 16 15 16q52 0 164 -2q6 0 10.5 -4.5t4.5 -10.5
q0 -7 -4.5 -11.5t-10.5 -4.5h-61q-4 -69 19 -168.5t62 -134.5q12 -9 3 -22q-9 -12 -22 -3l-13 13q-48 53 -68 181q-34 -34 -81.5 -52.5t-86 -4.5t-38.5 68q0 45 6 92q-54 -53 -180 -66q-81 -7 -291 10.5t-291 2.5q-48 -9 -76.5 -36t-20.5 -72q5 -29 23.5 -44t44.5 -15.5
t49.5 4.5t46.5 14q16 6 21 -9q6 -13 -8 -19q-23 -9 -44.5 -14.5t-46.5 -7t-45 3.5t-38 20t-28 40q-18 46 2.5 89t65.5 64q39 17 117.5 19.5t154.5 -3.5t165 -12.5t134 -5.5q49 1 83.5 5.5t77 17.5t69 42.5t35.5 73.5l3 26q2 17 16 15q26 53 52 82q24 24 54.5 39.5t64.5 13.5
t54 -31q12 -16 12.5 -34.5t-5.5 -33.5t-20.5 -32.5t-25 -28t-26.5 -24.5q-13 -10 -22 4q-9 9 3 22z" />
    <glyph glyph-name="G_ss05" unicode="&#x1056;" horiz-adv-x="301" 
d="M186 340q9 7 19 16t21.5 22.5t18 26t6 26.5t-11.5 24q-19 20 -46 12t-48.5 -24t-37.5 -35q-38 -49 -56.5 -127t-18.5 -154q0 -56 65 -37q52 15 91 52q8 8 12 15q-8 53 -6 95q-24 1 -72 1q-7 0 -11.5 4.5t-4.5 10.5q0 16 16 16q28 0 82 -0.5t82 -0.5q16 0 16 -16t-16 -16
q-10 0 -30.5 0.5t-29.5 0.5q-4 -69 19 -168t61 -136q12 -7 4 -22q-11 -11 -23 -3l-13 13q-44 47 -68 182q-34 -34 -81.5 -52.5t-86 -5t-38.5 67.5q0 88 24 175.5t73 141.5q19 20 46.5 34.5t57 18.5t52.5 -13q11 54 48 89t80 49t102 20q81 7 292 -10.5t290 -2.5q48 9 76.5 36
t20.5 72q-5 29 -23 44t-44 15.5t-49.5 -4.5t-48.5 -14q-15 -6 -20 8q-3 6 -0.5 12.5t8.5 8.5q29 11 56.5 16.5t56.5 4t53 -17.5t36 -46q18 -46 -2.5 -89t-65.5 -64q-39 -16 -118 -19t-153.5 2.5t-165.5 12.5t-134 7q-49 -1 -83.5 -6t-77 -18t-69 -42t-35.5 -73l-3 -27v-1
q11 -33 -14 -69.5t-61 -64.5q-13 -7 -23 3q-7 13 4 23z" />
    <glyph glyph-name="H_ss02" unicode="&#x1057;" horiz-adv-x="302" 
d="M70 445q-3 -20 -3 -53t1 -55.5t3.5 -66t2.5 -49.5l2 -20h150q-17 157 -17 274q0 16 17 16q0 -1 1 -1h2q26 0 49.5 4t46.5 14t34.5 30.5t5.5 48.5q-9 45 -45.5 60t-84.5 6q-78 -15 -268 -107t-270 -115q-196 -56 -273 67l-15 27q-6 16 8 21q13 7 21 -7l12 -25
q75 -120 297 -33q45 17 163 74.5t216.5 96.5t152.5 37q50 -2 84 -36t34 -82q0 -40 -25.5 -66t-58 -35t-72.5 -11q3 -70 9.5 -154t19.5 -197.5t37.5 -194t55.5 -92.5q3 -1 9 -1q7 1 12 -3.5t5 -11.5q2 -14 -15 -16h-7q-94 6 -137 380h-153q3 -44 5 -133q0 -6 -4.5 -10.5
t-11.5 -4.5q-6 0 -10.5 4.5t-4.5 10.5q-2 89 -5 133h-58q-16 0 -16 16t16 16h56v2q-1 14 -3 57t-3.5 71t-1.5 63.5t3 57.5q2 14 18 12q15 -5 13 -19z" />
    <glyph glyph-name="H_ss03" unicode="&#x1058;" horiz-adv-x="302" 
d="M-751 425q-25 -2 -48 -8t-46.5 -17.5t-33.5 -32.5t-2 -50q13 -44 53.5 -57t81.5 2q79 21 260.5 129.5t256.5 137.5q192 72 278 -43l18 -26q2 -8 1 -11v-1q-4 -45 5 -223l2 -21h150q-17 158 -17 274q0 6 4.5 11t11.5 5q6 0 10.5 -5t4.5 -11q0 -73 10.5 -207.5t41 -282.5
t71.5 -164h9q7 0 11.5 -4.5t4.5 -10.5q2 -15 -13 -17h-8q-95 6 -138 381h-153q4 -67 6 -133q0 -16 -16 -16t-16 16q0 25 -2 71t-2 62h-58q-16 0 -16 15q0 16 16 16h56l-1 3q-1 12 -3.5 54t-3.5 68.5t-1 61.5t3 57l-13 19q-27 36 -64 50.5t-80 8t-77 -18.5t-78 -32
q-40 -20 -154.5 -88t-209 -115t-147.5 -49q-50 -2 -87.5 28.5t-41.5 78.5q-5 62 45 92t118 35q6 1 11 -3.5t5 -11.5q0 -16 -15 -17z" />
    <glyph glyph-name="H_ss04" unicode="&#x1059;" horiz-adv-x="289" 
d="M950 812q-14 -4 -21 9q-6 14 9 20q28 11 55.5 16.5t57 4.5t53 -17t35.5 -47q18 -45 -2.5 -89.5t-65.5 -62.5q-38 -17 -116.5 -20t-153.5 2.5t-166.5 12t-133.5 6.5q-238 0 -265 -138l-4 -27v-4q3 -97 12.5 -217t39 -266t70.5 -163q3 -1 9 -1q15 0 17 -15q0 -15 -15 -17
h-7q-95 6 -138 381h-152q3 -44 5 -132q0 -16 -16 -16q-6 0 -11 4.5t-5 11.5q0 24 -2 70t-2 62h-59q-15 0 -15 16t15 16h57l-1 2q0 10 -2.5 56.5t-3.5 72t-1 62t3 58.5q1 6 6.5 9.5t11.5 1.5q7 -1 10.5 -6.5t1.5 -11.5q-4 -45 5 -224q1 -7 1 -20h151q-17 158 -17 274q0 1 2 7
l3 22q16 80 77 115.5t154 45.5q80 7 291 -10.5t291 -2.5q48 9 76.5 36t20.5 72q-6 29 -24 44t-44 15.5t-49 -4.5t-48 -14z" />
    <glyph glyph-name="H_ss05" unicode="&#x1060;" horiz-adv-x="306" 
d="M63 460q-3 -38 6 -224q1 -7 1 -21h151q-17 158 -17 274q0 6 2 8l2 21q30 146 232 161q81 7 291 -10.5t291 -2.5q48 9 76 36t20 73q-5 29 -23 44t-44 15t-49.5 -5t-47.5 -14q-14 -5 -21 9q-5 14 9 21q40 16 76 21t72.5 -9.5t52.5 -54.5q18 -45 -2.5 -90t-65.5 -63
q-40 -17 -118.5 -19.5t-153.5 3.5t-164 12.5t-134 5.5q-38 -1 -65.5 -3.5t-65 -11t-62 -22t-45.5 -39.5t-28 -62l-3 -27q0 -3 -1 -4q2 -64 8.5 -149t20 -202t38 -200.5t56.5 -94.5q4 -2 9 -2q6 1 11 -3.5t5 -10.5q2 -17 -14 -18h-8q-94 6 -137 381h-153q5 -66 6 -132
q0 -16 -17 -16q-6 0 -10.5 4.5t-4.5 11.5q-2 88 -5 132h-58q-15 0 -15 16t15 16h57l-1 2q-8 141 -8 197q-92 -98 -264 -27q-78 30 -259.5 137.5t-258.5 130.5q-41 15 -81 2t-53 -58q-8 -28 2 -49.5t32.5 -33.5t46.5 -18t49 -7q16 -2 14 -17q0 -15 -16 -15q-30 2 -57.5 9.5
t-53.5 21.5t-40 39t-11 57q2 48 40.5 78.5t87.5 28.5q55 -4 150 -51.5t205 -113.5t157 -87q42 -20 77 -32t77.5 -18.5t79.5 8t64 50.5l15 23q9 13 22 6l4 -4q7 -6 4 -14z" />
    <glyph glyph-name="H_ss06" unicode="&#x1061;" horiz-adv-x="299" 
d="M67 462q-4 -46 5 -224q0 -4 0.5 -11t0.5 -10h151q-18 168 -18 274q0 7 5 11.5t11 4.5q16 0 16 -16q0 -73 10.5 -207.5t41 -282.5t71.5 -164q2 -1 9 -1q6 1 11 -3.5t5 -10.5q2 -16 -14 -17h-8q-94 6 -137 380h-153q3 -44 5 -127q3 -12 -7 -19q-5 -3 -9 -2h-1q-12 0 -13 10
l-14 20q-22 29 -52.5 43.5t-58.5 16.5t-64.5 -6.5t-62 -18.5t-60.5 -26q-43 -20 -156 -88t-207.5 -115t-149.5 -51q-48 -2 -85.5 29t-41.5 79q-4 43 23 72.5t62 40.5t76 14q17 2 17 -14q1 -7 -3 -12t-11 -5q-36 -3 -66.5 -12t-52.5 -34.5t-11 -62.5q13 -44 53.5 -57t81.5 2
q78 21 259.5 130t257.5 138q175 66 263 -26q0 12 -0.5 25.5t-1.5 30t-1 25.5h-58q-16 0 -16 16t16 16h57v3q0 8 -4.5 80t-4 90.5t2.5 77.5q6 17 18 12q18 -6 13 -18z" />
    <glyph glyph-name="H_ss07" unicode="&#x1062;" horiz-adv-x="302" 
d="M67 457q-4 -45 5 -223q1 -8 1 -22h151q-17 157 -17 274q0 16 16 16q6 0 10.5 -4.5t4.5 -11.5q0 -98 21 -295t57 -294q29 -17 53 -48l18 -26q5 -15 -7 -22q-5 -3 -13 -1h-3q-39 4 -69 72q-84 44 -250 -34q-42 -20 -155.5 -87.5t-207.5 -114.5t-149 -51q-49 -2 -86.5 29
t-41.5 79q-5 62 44.5 91.5t117.5 34.5q7 1 11.5 -3.5t4.5 -10.5q1 -7 -3 -12t-11 -5q-25 -2 -48 -8t-46.5 -18t-33.5 -33t-2 -49q13 -45 53.5 -58t81.5 2q63 17 156 69.5t194 112.5t167 86q113 42 188 21q-33 99 -52 268h-153q3 -44 5 -133q0 -16 -15 -16q-7 0 -11.5 5
t-4.5 11q0 26 -2 72.5t-2 60.5h-58q-17 0 -17 15q0 16 17 16h56v3q0 7 -4.5 80.5t-4 91.5t2.5 76q3 15 19 12q6 -1 10 -6.5t2 -11.5z" />
    <glyph glyph-name="I_ss02" unicode="&#x1063;" horiz-adv-x="55" 
d="M41 467q-8 -51 -8 -202.5t13 -207.5q6 3 14 -2q12 -9 3 -22l-12 -10q-1 0 -2 -1q-13 -8 -22 6q0 1 -1 2t-2 2.5t-1 2.5l-11 16q-22 29 -52 43.5t-58 16t-64.5 -7t-62 -18.5t-60.5 -26q-45 -21 -157 -87.5t-206.5 -114t-149.5 -51.5q-49 -2 -86.5 28.5t-41.5 78.5
q-4 44 23.5 73t61 39.5t77.5 15.5q7 1 11.5 -3.5t4.5 -11.5q2 -15 -14 -17q-26 -2 -49 -8t-46.5 -17.5t-33 -33t-1.5 -49.5q13 -45 53.5 -58t81.5 2q79 21 261 130t256 138q162 60 248 -12q-8 94 -6 213.5t9 162.5q6 15 20 10q13 -4 10 -20z" />
    <glyph glyph-name="I_ss03" unicode="&#x1064;" horiz-adv-x="51" 
d="M37 423q-5 -61 -4.5 -205.5t11.5 -182.5q8 3 13 -2q13 -10 4 -22q-21 -21 -34 -7q-25 23 -27.5 214.5t9.5 236.5v2l1 4q30 145 231 160q81 7 292 -10t290 -2q110 21 96 108q-5 29 -23 44t-43.5 15.5t-49 -4.5t-48.5 -14q-14 -7 -20 8q-3 6 -0.5 12.5t8.5 8.5
q29 11 56.5 16.5t57 4.5t53 -17.5t35.5 -47.5q18 -45 -2 -88t-66 -64q-39 -16 -118 -19t-153.5 2.5t-166 12t-134.5 6.5q-46 0 -82.5 -4.5t-77.5 -17.5t-68 -43t-36 -74l-3 -27v-1q-1 -1 -1 -3z" />
    <glyph glyph-name="I_ss04" unicode="&#x1065;" horiz-adv-x="51" 
d="M43 470q-8 -52 -8 -202.5t13 -206.5q6 1 14 -2q11 -11 2 -23q-16 -22 -34 -6q-20 18 -25.5 156t2.5 228q-80 -90 -253 -39q-78 22 -268 114.5t-271 106.5q-48 9 -84 -5.5t-45 -60.5q-6 -28 6 -48.5t35.5 -30.5t47.5 -14t50 -4q7 1 11.5 -3.5t4.5 -11.5t-4.5 -11.5
t-10.5 -4.5q-31 0 -58.5 5t-54.5 16.5t-43 35t-16 56.5q0 48 34.5 82t83.5 36q54 2 152.5 -37.5t215.5 -97t163 -74.5t80 -25t78.5 -11.5t79.5 14.5t59 56l14 24q3 10 15 9q3 0 4 -1q15 -6 10 -20z" />
    <glyph glyph-name="J_ss02" unicode="&#x1066;" horiz-adv-x="257" 
d="M1159 769q18 -45 -2.5 -89.5t-65.5 -62.5q-39 -17 -117.5 -20t-153 2.5t-166 12.5t-134.5 7q-49 -1 -84 -6t-77 -18t-68 -41.5t-35 -72.5l-3 -28q0 -1 -1 -3q0 -9 1 -13v-69q1 1 14 4q15 2 18 -12q5 -16 -12 -18q-3 -1 -10 -2.5t-10 -3.5q-10 -347 -134 -360
q-59 -8 -92 54.5t-24 124.5q21 149 219 205q0 91 -4 106l-7 -3q-15 -6 -32 -13.5t-25.5 -11.5t-24 -8.5t-36.5 -9.5q-12 -5 -18 12q-3 14 12 19q60 16 84 28q43 19 56 18q34 135 228 150q81 7 291.5 -10.5t290.5 -2.5q48 9 76.5 36t20.5 73q-5 29 -23 44t-44 15t-49.5 -5
t-47.5 -14q-15 -6 -20 9q-7 14 8 20q29 11 56 17t56.5 5t53 -17.5t35.5 -47.5zM212 199q3 17 9 128q-134 -43 -174 -132q-23 -43 -11 -104.5t57 -80.5q29 -11 51.5 7t36.5 59t20 66t11 57z" />
    <glyph glyph-name="J_ss03" unicode="&#x1067;" horiz-adv-x="257" 
d="M287 358q5 -16 -12 -18q-7 -3 -21 -5q-10 -348 -134 -361q-59 -6 -92 55.5t-24 123.5q20 142 219 206q2 87 -3 105l-8 -3q-7 -3 -21 -9.5t-18 -8.5t-14.5 -6t-17 -6t-17 -5t-23.5 -6l-11 -21q-77 -122 -274 -67q-80 22 -269.5 114.5t-267.5 107.5q-48 9 -84.5 -6
t-45.5 -60q-6 -29 5.5 -49.5t35.5 -30t47.5 -13.5t49.5 -4q7 0 12 -4.5t5 -11.5q0 -6 -4.5 -11t-11.5 -5q-30 0 -57.5 5t-55 16.5t-43.5 35t-16 56.5q0 49 34.5 82.5t84.5 35.5q54 2 152.5 -37.5t215.5 -96.5t163 -74q223 -85 297 34l13 23q4 9 13 10q54 14 84 28
q44 23 61.5 16.5t19.5 -58.5q0 -7 0.5 -30t0.5 -38q1 0 6 1.5t8 1.5q12 4 18 -12zM214 198q2 10 8 127q-134 -43 -174 -132q-22 -42 -10 -104t56 -80q29 -11 52 7t37 58t20 66.5t11 57.5z" />
    <glyph glyph-name="J_ss04" unicode="&#x1068;" horiz-adv-x="253" 
d="M282 361q4 -17 -12 -18q-3 -1 -9.5 -3t-10.5 -3q-7 -345 -134 -360q-40 -5 -69.5 25t-41 73t-5.5 82q20 142 219 204q0 90 -4 105l-8 -2q-9 -4 -24 -11t-21 -9.5t-16.5 -6.5t-21 -7t-25.5 -6q-2 -2 -2 -3q-12 -4 -19 3q-4 3 -6 8l-12 19q-28 35 -64.5 49.5t-80 7.5
t-76 -18.5t-77.5 -31.5q-48 -21 -157.5 -87t-205 -114.5t-150.5 -50.5q-48 -4 -86.5 28t-40.5 79q-5 62 42.5 90.5t118.5 36.5q17 0 17 -15q1 -6 -3.5 -11t-10.5 -5q-37 -3 -67.5 -12t-52 -34.5t-10.5 -62.5q13 -44 53 -57t81 2q78 21 260 129.5t257 137.5q192 72 278 -43
l10 -14q38 10 73 26q44 23 61.5 16.5t19.5 -59.5q0 -7 0.5 -30t0.5 -38l14 3q12 5 18 -12zM209 200q3 21 9 128q-134 -40 -175 -132q-23 -41 -10.5 -104t56.5 -80q29 -11 52.5 8t37 55.5t21 68t9.5 56.5z" />
    <glyph glyph-name="K_ss02" unicode="&#x1069;" horiz-adv-x="213" 
d="M40 482q1 -96 6 -200q71 102 168 213q11 10 22 -2q10 -10 -2 -22q-72 -87 -108 -134q17 -76 74 -218.5t97 -145.5q15 2 17 -14q2 -7 -5 -14l-15 -23q-87 -116 -278 -43q-76 29 -257.5 138t-260.5 130q-41 15 -81 2t-53 -57q-8 -28 1.5 -49.5t32.5 -33.5t46.5 -18t48.5 -8
q7 0 11.5 -5t3.5 -12q0 -6 -5 -10.5t-12 -3.5q-68 5 -117 34.5t-44 91.5q2 48 41 79t87 29q55 -4 149 -50.5t208 -114t155 -87.5q42 -21 76.5 -32.5t77 -18.5t80 7.5t64.5 50.5l5 8q-80 45 -172 357q-35 -48 -51 -73q0 -2 -1 -3l-2 -3q0 -53 -3 -107q-2 -16 -2 -53
q0 -6 -4.5 -10.5t-10.5 -4.5q-7 0 -11.5 4.5t-4.5 10.5q-1 16 1 55q3 80 3 120t-3 120t-3 120q0 6 4.5 10.5t11.5 4.5q6 0 10.5 -4.5t4.5 -10.5z" />
    <glyph glyph-name="K_ss03" unicode="&#x1070;" horiz-adv-x="227" 
d="M42 478q1 -95 6 -199q90 126 168 213q12 12 22 -2q10 -10 -1 -22q-55 -62 -110 -134q10 -37 25.5 -82.5t41.5 -116t54 -117.5t51 -48q15 2 17 -15q1 -6 -3.5 -11t-10.5 -6l-12 1q-36 5 -77.5 80.5t-65 144t-43.5 138.5q-9 -12 -18.5 -25t-19 -27t-14.5 -21q-2 -2 -3 -5
q0 -53 -3 -107q-3 -26 -2 -53q0 -6 -5 -11l-12 -24q-78 -123 -274 -67q-81 22 -269.5 115t-268.5 108q-47 9 -83.5 -6.5t-45.5 -60.5q-6 -28 6 -48.5t35.5 -30.5t47.5 -14t49 -4q7 1 11.5 -3.5t4.5 -11.5q0 -16 -15 -16q-31 0 -58.5 5t-54.5 16.5t-43 34.5t-16 56
q0 48 34.5 82t83.5 36q54 2 153 -37.5t216.5 -96.5t162.5 -74q45 -16 79 -24.5t78 -11.5t80 14t60 55l12 25q0 7 2 49q4 80 3.5 120t-3.5 119.5t-3 119.5q0 16 16 16q6 0 10.5 -4.5t4.5 -11.5z" />
    <glyph glyph-name="K_ss04" unicode="&#x1071;" horiz-adv-x="209" 
d="M-713 535q6 -2 8.5 -8.5t-0.5 -12.5q-5 -14 -20 -8q-63 28 -100 72t-12 101q20 45 65 61.5t91 -1.5q50 -21 124.5 -97t158.5 -175t119 -133q35 -33 63 -55t67 -43t78.5 -19.5t76.5 27.5l10 8q0 33 -3 109.5t-3 117.5q0 6 4.5 11t10.5 5q7 0 11.5 -5t4.5 -11q1 -97 6 -200
q71 102 168 213q11 10 22 -1t-2 -23q-54 -66 -108 -133q105 -361 171 -365q15 2 17 -14t-14 -17h-11q-27 4 -57 46t-55.5 105t-43.5 114t-31 99q-33 -43 -52 -73q0 -2 -1 -3l-2 -3q0 -53 -3 -106q-2 -17 -2 -53q0 -7 -4.5 -11.5t-10.5 -4.5q-16 0 -16 16q0 32 1 55
q3 31 3 93q-35 -21 -71 -25.5t-70.5 7t-64.5 28.5t-63 44q-55 46 -131 135.5t-146.5 169.5t-125.5 116q-93 62 -145 -8q-31 -45 1 -83t87 -62z" />
    <glyph glyph-name="K_ss05" unicode="&#x1072;" horiz-adv-x="224" 
d="M43 480q1 -64 7 -199q87 128 168 213q10 9 21 -2t-2 -22q-34 -41 -108 -134q8 -38 35 -118t67.5 -162t68.5 -84q7 1 12 -3.5t5 -10.5q2 -17 -14 -18l-11 1q-27 4 -57 46t-55.5 105t-43.5 114t-31 99q-38 -51 -51 -74q0 -1 -1.5 -2t-1.5 -3q0 -59 -4 -107q-2 -39 -1 -53
q0 -6 -4.5 -11t-11.5 -5t-11.5 5t-4.5 11q0 40 2 55q2 35 2.5 77.5t0 71.5t-2.5 81.5t-3 75.5q-79 -99 -259 -48q-81 23 -270.5 115.5t-267.5 107.5q-47 9 -83.5 -6.5t-45.5 -60.5q-6 -28 5.5 -48.5t35.5 -30.5t47.5 -14t49.5 -4q7 1 11.5 -4t4.5 -11q0 -16 -16 -16
q-42 0 -77.5 8t-65 34.5t-29.5 69.5q0 48 35 82t84 36q54 2 152.5 -37t216.5 -96.5t163 -74.5q220 -86 297 33l12 25q4 9 16 9h1h1q2 0 3 -1l3 -2v-1h1h1v-1v-1h1q3 -2 3 -10z" />
    <glyph glyph-name="K_ss06" unicode="&#x1073;" horiz-adv-x="216" 
d="M35 483q0 -67 6 -197q91 127 168 213q11 9 22 -2q10 -14 -2 -22q-48 -54 -109 -134q17 -76 74 -218.5t98 -145.5q16 0 16 -15q2 -15 -14 -16h-11q-35 5 -76.5 80t-66.5 144.5t-44 138.5q-35 -48 -51 -73l-2 -4l-1 -1q0 -59 -4 -107q0 -13 -0.5 -27t-0.5 -25q0 -7 -5 -12
l-13 -24q-78 -123 -273 -66q-78 22 -267.5 114.5t-270.5 106.5q-47 9 -83.5 -6t-46.5 -60q-6 -28 6 -48.5t35.5 -30.5t47.5 -14t50 -4q16 0 16 -15q0 -16 -15 -16q-31 0 -58.5 5t-54.5 16.5t-43 35t-16 56.5q0 48 34.5 82t83.5 36q55 2 153 -37t216.5 -97.5t161.5 -74.5
q44 -17 80 -25.5t79 -11t79 15t59 55.5l13 23q0 8 2 50q2 35 2.5 78t0 71.5t-2.5 81t-3 73.5q-77 -96 -259 -46q-80 23 -269 115t-268 107q-48 9 -84.5 -6t-45.5 -60q-6 -29 6 -49.5t35.5 -30.5t47.5 -14t50 -4q14 2 16 -15q0 -6 -4.5 -11t-11.5 -5q-31 0 -58.5 5
t-54.5 16.5t-43 35t-16 56.5q0 48 34.5 82t83.5 36q55 2 153 -37t217.5 -97t161.5 -74q44 -17 79.5 -25.5t79 -11.5t79 14.5t59.5 55.5l13 24q3 10 14 10q10 0 14 -7v-1v-1q2 -6 2 -9z" />
    <glyph glyph-name="K_ss07" unicode="&#x1074;" horiz-adv-x="209" 
d="M33 485q0 -37 2.5 -104.5t2.5 -94.5q79 114 168 213q11 9 22 -2q12 -12 -1 -22q-55 -62 -110 -134q6 -22 14 -46.5t23 -70.5t31 -85t34 -77.5t36.5 -61t33.5 -23.5q15 2 17 -15q1 -6 -3.5 -10.5t-10.5 -5.5h-11q-27 4 -57 46t-56 105t-43 113.5t-31 98.5
q-9 -12 -18.5 -25t-19 -27t-14.5 -21l-3 -4q0 -54 -3 -108q-2 -17 -2 -52q0 -16 -16 -16q-15 0 -15 16q0 39 2 54q3 77 2.5 117t-3.5 117t-3 117q-2 6 -1 8l4 31q8 42 29.5 72.5t55 48t68 26.5t78.5 14q80 7 291 -10.5t291 -2.5q110 21 96 109q-5 28 -23 42.5t-44 15
t-49.5 -4t-47.5 -13.5q-14 -5 -20 8t8 21q29 11 56.5 16.5t56.5 4t53 -17.5t36 -46q18 -45 -2.5 -89.5t-65.5 -63.5q-40 -17 -118.5 -19.5t-154 3.5t-164.5 12.5t-134 5.5q-238 0 -265 -138l-3 -21v-1q1 -1 1 -3z" />
    <glyph glyph-name="K_ss08" unicode="&#x1075;" horiz-adv-x="209" 
d="M955 811q-6 -3 -12.5 -0.5t-8.5 8.5q-5 15 9 20q28 11 55.5 16.5t57 4.5t53 -17t35.5 -47q18 -45 -2.5 -89.5t-65.5 -62.5q-39 -17 -117.5 -20t-153.5 2.5t-166.5 12.5t-133.5 7q-31 -1 -54 -3t-54.5 -6.5t-54.5 -14t-45 -24t-36.5 -38t-20.5 -53.5l-3 -27q0 -1 -1 -2
q0 -3 -1 -5l-4 -4q-85 -102 -109 -134q8 -28 18 -60t30.5 -90t39.5 -101.5t42 -77.5t41 -35q17 1 18 -15q1 -6 -3.5 -11t-10.5 -6l-11 1q-28 4 -58 46t-55.5 105t-42.5 113t-31 99q-33 -43 -52 -73q-2 -2 -3 -5q0 -53 -3 -107q-3 -26 -2 -53q0 -6 -4.5 -10.5t-11.5 -4.5
q-6 0 -10.5 4.5t-4.5 10.5q0 32 1 55q5 71 -2 305q-79 -99 -259 -47q-80 22 -270 114.5t-269 107.5q-47 9 -83 -6t-46 -60q-6 -28 6 -48.5t35.5 -30.5t47.5 -14t50 -4q6 1 11 -3.5t5 -11.5q0 -16 -16 -16q-31 0 -58 4.5t-54.5 16t-43.5 35t-16 56.5q0 48 34.5 82t84.5 36
q54 2 152 -37t216 -96.5t163 -74.5q223 -86 297 33l13 25q5 11 16 9l4 -2t3 -1h1v-1h1v-1h1v-1h1q3 -3 3 -10q1 -95 6 -199q48 72 163 208l3 25q30 146 231 161q81 7 291.5 -10.5t290.5 -2.5q47 9 76.5 36.5t21.5 72.5q-18 91 -165 41z" />
    <glyph glyph-name="L_ss02" unicode="&#x1076;" horiz-adv-x="125" 
d="M69 471q-6 -48 4 -302q4 -64 4 -173v-1q118 19 129 20q16 0 16 -16q0 -6 -4.5 -11t-11.5 -5q-28 -2 -91 -13.5t-100 -13.5q-15 2 -15 16q0 6 5 10.5t11 4.5l31 3q-1 1 -1 6v37q-13 315 -11 384q-79 -93 -254 -41q-80 22 -270 115t-269 108q-111 16 -129 -67
q-6 -28 6 -48.5t35.5 -30.5t47.5 -14t50 -4q7 0 11.5 -4.5t4.5 -10.5q0 -15 -15 -17q-30 0 -58 5t-55 17t-43.5 35.5t-16.5 55.5q0 48 34.5 82t84.5 36q54 2 152 -37t217.5 -97t161.5 -74q44 -17 79.5 -25.5t79 -11.5t79 14.5t59.5 55.5l13 25q8 14 21 7q11 -5 9 -15
q0 -4 -1 -5z" />
    <glyph glyph-name="L_ss03" unicode="&#x1077;" horiz-adv-x="125" 
d="M70 478v-5l-1 -1q-6 -49 4 -301q0 -23 2.5 -95t2.5 -96v-1l-1 -1q14 2 40 7.5t47.5 9t41.5 4.5q16 0 16 -16q0 -6 -4.5 -10.5t-11.5 -4.5q-30 -2 -92 -14t-98 -14q-16 0 -16 16q0 6 5 10.5t12 4.5l30 2q-1 2 -1 7q0 8 -0.5 17t-0.5 20q0 14 -5 139t-5.5 181t3.5 135v3
l4 31q16 80 76.5 115.5t153.5 45.5q81 7 291.5 -10.5t290.5 -2.5q48 9 76.5 36t20.5 72q-15 90 -164 41q-15 -5 -20 9q-7 12 7 20q29 11 56.5 16.5t57 4.5t53 -17t35.5 -47q18 -45 -2.5 -89.5t-65.5 -62.5q-39 -17 -117.5 -20t-153.5 3t-165 12.5t-135 5.5q-237 0 -264 -138
z" />
    <glyph glyph-name="L_ss04" unicode="&#x1078;" horiz-adv-x="139" 
d="M64 474q-6 -49 4 -301l4 -148l-1 -1q14 2 41 7t48 8.5t41 4.5q15 0 15 -16q0 -15 -15 -15q-28 -2 -76 -11.5t-56 -10.5q0 -1 -1 -3l-18 -26q-88 -116 -278 -44q-75 29 -256.5 138t-260.5 130q-41 15 -81 2t-53 -57q-11 -37 11 -62.5t52.5 -34.5t66.5 -12q5 0 10 -5t4 -12
q-2 -16 -17 -14q-31 3 -57.5 10.5t-53 21t-40.5 38t-11 57.5q4 49 41 79t87 28q55 -4 150 -51.5t205.5 -113.5t157.5 -87q41 -20 76 -32t77.5 -18.5t80 7.5t64.5 50l4 6q-3 0 -9 -0.5t-10 -0.5q-7 0 -11.5 4.5t-3.5 11.5q0 6 4.5 11t11.5 5q23 0 30 2q-1 1 -1 6q0 9 -0.5 17
t-0.5 20q-16 358 -5 422q6 15 20 10q15 -6 10 -20z" />
    <glyph glyph-name="M_ss02" unicode="&#x1079;" horiz-adv-x="311" 
d="M36 354q2 -24 2.5 -60.5t0.5 -40.5q3 -55 5 -169q0 -15 -15 -15q-16 0 -16 15q-3 113 -4 135q-8 139 -8 186q-79 -98 -259 -46q-80 23 -270 115t-268 107q-48 9 -84 -6t-45 -61q-6 -29 5.5 -49.5t35.5 -30t47.5 -13.5t49.5 -4q16 0 16 -15q2 -14 -15 -16q-31 0 -58.5 5
t-55 16.5t-43.5 35t-16 56.5q0 48 35 82.5t84 34.5q55 2 154 -38t214 -96t164 -73q220 -86 297 33l13 24q0 2 4 5q3 5 10 6q17 0 17 -15q5 -15 35 -100q34 -99 69 -193q7 21 47.5 152t62.5 172q2 11 13 13q8 2 14 -3q7 -9 4 -17l25 -564q0 -6 -4.5 -10.5t-10.5 -4.5
q-15 0 -17 14l-21 500q-13 -37 -36 -111.5t-24 -76.5q-19 -71 -38 -106q6 -16 13 -34.5t11 -29.5t6 -16q8 -15 -7 -21q-14 -7 -22 7q-27 64 -91 248q-23 66 -26 73z" />
    <glyph glyph-name="M_ss03" unicode="&#x1080;" horiz-adv-x="311" 
d="M63 289l-26 72q2 -23 2.5 -59.5t0.5 -40.5q4 -84 6 -169q0 -16 -16 -16t-16 16q-2 113 -4 136q0 8 -4 77t-4 85.5t1 75.5v2q-1 6 3.5 10.5t10.5 5.5q7 1 12 -3.5t5 -10.5l35 -101q19 -56 69 -193q9 25 48.5 155t61.5 170q0 12 13 12q8 2 14 -3q8 -8 5 -16l24 -564
q0 -15 -15 -15q-16 0 -17 13l-21 501q-47 -140 -59 -188q-22 -74 -39 -107l30 -80q7 -13 -8 -21q-14 -6 -21 8q-4 9 -11.5 27.5t-10.5 27.5v-2q-68 -127 -268 -87q-80 16 -276.5 93.5t-276.5 85.5q-49 4 -84 -13.5t-41 -62.5q-3 -29 11 -49t37 -27t49.5 -10.5t48.5 0.5
q7 1 12 -3.5t6 -10.5q2 -17 -14 -18q-170 -11 -180 99q-4 48 28 84.5t80 42.5q55 5 156 -26t222.5 -78.5t167.5 -60.5q229 -67 294 57l11 24q0 2 1 2v1q-11 30 -29 82.5t-24 69.5z" />
    <glyph glyph-name="M_ss04" unicode="&#x1081;" horiz-adv-x="311" 
d="M37 352q1 -43 1 -102q6 -112 7 -169q0 -6 -4.5 -10.5t-11.5 -4.5t-11.5 4.5t-4.5 10.5q-2 112 -4 136q-9 199 -6 238q-1 0 -1 2q-1 7 3.5 11.5t10.5 4.5q17 2 18 -14q5 -15 35 -100q37 -108 68 -194q12 34 33.5 107t41 130t35.5 88q2 11 13 13q8 2 14 -3q8 -8 4 -17
l25 -564q0 -3 -1 -4v-1q-1 -2 -1 -4l-17 -27q-86 -115 -278 -42q-78 29 -259 137.5t-258 129.5q-41 15 -81.5 2t-53.5 -58q-8 -28 1.5 -49t33 -33t46.5 -18t49 -8q6 0 10.5 -5t3.5 -11q0 -7 -5 -11.5t-11 -3.5q-68 5 -117 34.5t-46 92.5q4 47 42 78t87 29q55 -4 150 -51.5
t205 -113.5t157 -87q43 -20 77 -32t77 -18.5t80.5 7.5t64.5 50l12 20l-21 496q-32 -91 -59 -188q-22 -76 -39 -106q6 -16 13 -34.5t11 -29.5t6 -16q7 -13 -7 -21q-6 -3 -12.5 -0.5t-8.5 8.5q-13 29 -92 248q-4 13 -13 38t-12 35z" />
    <glyph glyph-name="M_ss05" unicode="&#x1082;" horiz-adv-x="311" 
d="M62 281l-27 73q2 -24 2.5 -60.5t0.5 -40.5q5 -84 6 -167q0 -6 -1 -7l-13 -29q-68 -128 -267 -88q-80 16 -277 93.5t-277 85.5q-114 10 -124 -77q-4 -29 10 -48.5t37 -26.5t50 -10.5t49 0.5q15 2 17 -14q2 -14 -14 -18q-170 -12 -180 99q-4 48 27.5 84.5t80.5 42.5
q55 5 155.5 -25.5t223 -78.5t168.5 -61q228 -67 293 56l10 23q-2 110 -4 133q-9 199 -6 238q-1 1 -1 2q-1 6 3 11t11 5q17 2 18 -14l35 -101q32 -94 68 -193q9 25 48.5 155t61.5 170q0 12 13 12q8 2 14 -3q8 -8 5 -16l24 -564q0 -15 -15 -15t-17 14l-21 500
q-13 -37 -35 -109t-24 -79q-21 -72 -39 -106q8 -21 18 -48.5t12 -32.5q3 -5 0.5 -11.5t-7.5 -8.5q-14 -7 -22 7q-19 45 -90 248z" />
    <glyph glyph-name="M_ss06" unicode="&#x1083;" horiz-adv-x="311" 
d="M1083 -184q22 -4 49 -0.5t50 10.5t37 26.5t10 48.5q-10 87 -124 77q-80 -8 -277 -85.5t-277 -93.5q-199 -41 -267 88l-13 28q0 1 -0.5 2t-0.5 2v2l-21 500q-47 -140 -59 -188q-26 -81 -39 -107q6 -15 12.5 -34t10.5 -30t7 -16q6 -15 -8 -20q-15 -7 -21 7q-22 50 -91 248
q-3 8 -12 33t-14 40q2 -82 2 -101q5 -84 6 -169q0 -16 -16 -16q-6 0 -10.5 4.5t-4.5 11.5q-2 88 -5 136q-9 199 -6 238q-1 1 -1 2q-1 6 4 10.5t11 5.5q16 2 17 -14l35 -101q19 -56 69 -193q7 20 47.5 152t62.5 173q2 12 12 12q8 1 15 -3q7 -7 4 -16l25 -563l10 -22
q65 -124 293 -57q47 13 168.5 61t222.5 79t156 26q49 -6 80.5 -42.5t27.5 -84.5q-10 -111 -180 -99q-16 2 -14 17t17 15z" />
    <glyph glyph-name="M_ss07" unicode="&#x1084;" horiz-adv-x="311" 
d="M34 360q3 -43 3 -102q5 -82 6 -168q0 -15 -15 -15q-17 0 -17 15q0 73 -4 136q-9 198 -6 237q0 1 -1 2q0 17 15 17t17 -15q5 -15 35 -100q19 -56 69 -193q12 35 33 107t40 129.5t37 87.5q0 6 1 7q41 126 227 141q80 7 291 -10.5t291 -2.5q48 9 76 36t20 72q-5 29 -23 44
t-44 15.5t-49.5 -4.5t-47.5 -14q-15 -6 -20 8q-7 14 8 20q23 9 44.5 14.5t46.5 7t45 -3.5t38 -20t28 -40q18 -45 -2.5 -90t-65.5 -63q-39 -16 -118 -19t-153.5 2.5t-165.5 12t-134 6.5q-47 -1 -79.5 -5t-74 -15.5t-68.5 -36.5t-39 -64v-2q-1 -2 -1 -3l24 -564
q1 -5 -3.5 -9.5t-11.5 -4.5q-16 0 -16 13l-21 501q-11 -28 -22.5 -65t-22.5 -74t-15 -50q-22 -76 -39 -106l30 -80q7 -13 -7 -21q-15 -6 -22 8q-19 45 -90 248q-16 46 -27 73z" />
    <glyph glyph-name="M_ss08" unicode="&#x1085;" horiz-adv-x="311" 
d="M39 352q2 -86 2 -101q5 -84 6 -169q0 -6 -4.5 -11t-10.5 -5q-7 0 -11.5 5t-4.5 11q-2 92 -5 136q0 19 -3.5 85t-3.5 100q-79 -99 -259 -47q-81 23 -270.5 115.5t-267.5 107.5q-48 9 -84.5 -6.5t-45.5 -60.5q-6 -29 6 -49t36 -29.5t47.5 -13.5t49.5 -4q16 0 16 -16
q0 -7 -4.5 -11.5t-10.5 -4.5q-43 0 -78.5 8t-65 34.5t-29.5 69.5q0 48 35 82.5t84 36.5q54 2 152.5 -37t217 -97.5t161.5 -74.5q46 -17 80 -25t78.5 -11.5t79.5 14.5t59 56l14 24q1 3 4 6q4 4 10 4q7 1 12 -3t5 -11q5 -15 35 -100q37 -108 68 -194q7 19 48 151.5t63 173.5
q0 4 1 5l1 7q16 80 77 115t154 45q81 7 291.5 -10.5t290.5 -2.5q48 9 76.5 36t20.5 73q-5 29 -23 43.5t-44 15t-49.5 -4.5t-48.5 -14q-13 -4 -20 9q-7 14 8 20q23 9 44.5 14.5t46.5 7t45 -3.5t38 -20t28 -40q18 -45 -2.5 -90t-65.5 -63q-39 -16 -118 -19t-153.5 2.5
t-165.5 12t-134 6.5q-47 0 -83.5 -4.5t-77.5 -17.5t-68 -43t-36 -74l-1 -9v-1l-1 -3l25 -563q0 -14 -15 -14q-7 -1 -12 3t-5 10l-21 500q-13 -37 -36 -111.5t-24 -76.5q-23 -78 -38 -106q8 -21 18 -48.5t12 -32.5q6 -13 -7 -20q-16 -7 -22 8q-25 59 -91 248q-3 9 -12 33
t-14 39z" />
    <glyph glyph-name="N_ss02" unicode="&#x1086;" horiz-adv-x="265" 
d="M32 434l7 -358q0 -15 -15 -15q-16 0 -16 15l-8 421q-1 7 3.5 11.5t11.5 4.5q11 0 15 -10q11 -2 14 -11q14 -39 83 -205t95 -258q2 44 -1 191q-8 279 -29 366q-5 13 11 19q13 5 19 -11q21 -93 28 -316q7 -244 0 -335l-2 -10v-1v-1q-3 -4 -5 -10l-10 -19q-78 -122 -274 -66
q-78 22 -267.5 114.5t-270.5 106.5q-49 9 -84.5 -5.5t-44.5 -60.5q-6 -28 6 -48.5t35.5 -30.5t47.5 -14t49 -4q16 0 16 -15q0 -16 -15 -16q-31 0 -58.5 5t-55 16.5t-43.5 35t-16 56.5q0 47 35 81.5t84 36.5q55 2 154 -38.5t214 -96.5t164 -73q220 -86 297 33l9 17
q-18 78 -46.5 157.5t-74.5 189t-62 151.5z" />
    <glyph glyph-name="N_ss03" unicode="&#x1087;" horiz-adv-x="265" 
d="M34 431l7 -358q0 -6 -4.5 -10.5t-10.5 -4.5q-7 -1 -11.5 3.5t-4.5 11.5l-8 368q-80 -100 -260 -48q-80 22 -269 114.5t-269 107.5q-47 9 -83.5 -6t-46.5 -60q-6 -28 6 -48.5t35.5 -30.5t47.5 -14t50 -4q16 0 16 -15q2 -15 -15 -17q-42 0 -78 8.5t-65.5 35.5t-29.5 70
q0 47 35 81t84 36q55 2 153 -37t216.5 -97t161.5 -74q47 -17 80.5 -25t78 -11t79.5 14.5t60 55.5l13 23q2 6 8.5 8.5t12.5 -0.5q4 -1 7 -6q0 -3 1 -3q11 0 14 -11q17 -45 84 -209t95 -253q0 92 -2 190q0 8 -1.5 54.5t-2 66t-2.5 62.5t-4.5 69t-7 58.5t-10.5 56.5
q-5 15 11 19q14 2 19 -12q21 -89 28 -315q7 -237 -1 -335q-2 -28 -18 -27q-14 1 -16 15q-18 79 -46 159t-75 192t-62 152z" />
    <glyph glyph-name="N_ss04" unicode="&#x1088;" horiz-adv-x="265" 
d="M39 425l7 -359v-1q0 -7 -1 -9l-14 -28q-78 -122 -274 -66q-79 22 -269 115t-269 107q-48 9 -84 -6t-45 -60q-6 -29 5.5 -49.5t35.5 -30.5t47.5 -14t49.5 -4q7 1 11.5 -3.5t4.5 -11.5q0 -16 -16 -16q-30 0 -57.5 5t-55 16.5t-43.5 35t-16 56.5q0 48 35 82t84 36
q54 2 152.5 -37t217.5 -97t162 -74q220 -86 297 33l11 21l-9 421q0 7 4.5 11.5t10.5 4.5q13 0 16 -11q10 0 13 -10q16 -45 84.5 -208.5t94.5 -254.5q1 54 -2 191q-8 269 -28 366q-5 13 11 19q13 5 19 -12q21 -89 28 -315q7 -235 -1 -335q-2 -27 -18 -27q-14 1 -16 16
q-18 78 -46 157.5t-75 193t-62 152.5z" />
    <glyph glyph-name="N_ss05" unicode="&#x1089;" horiz-adv-x="265" 
d="M35 434l7 -358q0 -15 -16 -15q-8 0 -9 3l-6 6l-12 25q-25 38 -60.5 55.5t-79 14.5t-77.5 -11.5t-80 -25.5q-45 -17 -163 -74.5t-216.5 -96.5t-152.5 -37q-49 2 -84 36t-35 82q0 33 16 56.5t43.5 35t54.5 16t58 4.5q16 0 16 -16q-2 -17 -16 -15q-26 0 -49.5 -4t-47.5 -14
t-35.5 -30.5t-5.5 -48.5q8 -45 44.5 -60t84.5 -6q79 14 269.5 107t268.5 115q180 50 258 -45l-8 364q0 7 4.5 11.5t10.5 4.5q12 0 16 -10q10 -1 13 -11q18 -50 85 -211t94 -252q1 38 -0.5 106t-1.5 85q-8 279 -29 366q-5 13 12 19q13 5 19 -11q21 -93 28 -316
q7 -235 -1 -335q-2 -28 -18 -27q-13 2 -16 16q-18 79 -46 158t-75.5 193t-61.5 151z" />
    <glyph glyph-name="N_ss06" unicode="&#x1090;" horiz-adv-x="265" 
d="M39 425l8 -358q0 -15 -15 -17q-7 0 -12 4.5t-5 11.5l-9 421q0 6 4.5 11t11.5 5q12 0 15 -11q9 0 14 -9q15 -40 83 -206.5t96 -257.5q2 112 -3 191q0 234 -27 365q-1 0 -3 2l-15 23q-28 36 -64.5 50.5t-80.5 7.5t-76 -18t-78 -32q-42 -20 -155.5 -87.5t-207.5 -114.5
t-149 -51q-48 -4 -86.5 28.5t-40.5 79.5q-5 62 42.5 90.5t118.5 36.5q7 0 12 -4.5t5 -10.5q2 -15 -15 -17q-36 -3 -66.5 -12t-52 -34t-10.5 -62q13 -45 53 -57.5t81 2.5q78 21 260 129.5t257 137.5q192 72 278 -43l17 -26l1 -2q4 -2 5 -8q20 -96 27 -314q7 -246 0 -335
q-1 -18 -9 -24t-15.5 -1.5t-10.5 13.5q-18 79 -45.5 157t-75.5 194.5t-62 151.5z" />
    <glyph glyph-name="N_ss07" unicode="&#x1091;" horiz-adv-x="265" 
d="M32 432l8 -358q0 -7 -5 -12t-10 -5q-7 0 -12 4.5t-5 11.5l-8 420q-1 7 3.5 11.5t11.5 4.5q10 1 15 -10q11 0 14 -10q17 -46 84 -209.5t95 -254.5q2 114 -3 191q0 249 -28 366q-2 7 1.5 12.5t10.5 6.5q13 6 19 -11q20 -99 27 -315q7 -246 0 -335q-1 -2 -1 -10l9 -21
q21 -39 55 -59.5t77.5 -21.5t80 5t81.5 19q46 13 168 61.5t223 79.5t155 24q50 -6 81.5 -41.5t27.5 -84.5q-3 -33 -21 -55t-46 -31.5t-55.5 -12t-58.5 -0.5q-7 0 -11 5t-3 12q1 16 18 14q22 -4 48.5 0t49.5 11t37 26.5t10 48.5q-6 46 -40 63.5t-84 13.5q-80 -8 -276 -85.5
t-278 -93.5q-199 -41 -267 88l-12 28l-3 6q-18 79 -46.5 159.5t-74 189t-62.5 154.5z" />
    <glyph glyph-name="N_ss08" unicode="&#x1092;" horiz-adv-x="265" 
d="M944 912q-14 -7 -20 8q-6 14 9 20q28 11 55.5 16.5t57 4.5t53 -17t35.5 -47q18 -46 -2.5 -89t-65.5 -64q-39 -16 -118 -19t-153.5 2.5t-165.5 12.5t-134 7q-49 -1 -83.5 -5.5t-77 -17.5t-69 -42.5t-35.5 -73.5l-3 -27q20 -98 27 -314q7 -244 0 -335q-2 -27 -18 -26
q-14 1 -16 15q-18 79 -47 159.5t-74.5 189.5t-62.5 154l7 -358q0 -16 -15 -17q-16 0 -16 16l-8 367q-81 -101 -259 -46q-78 22 -267.5 114.5t-270.5 106.5q-48 9 -84 -6t-45 -60q-6 -29 5.5 -49.5t35.5 -30t47.5 -13.5t49.5 -4q16 0 16 -16q0 -15 -15 -15q-31 0 -58.5 4.5
t-54.5 16t-43 35t-16 56.5q0 48 34.5 82t83.5 36q55 2 153.5 -37.5t216 -96.5t162.5 -74q43 -17 79 -26t79 -11.5t79 15.5t60 56l12 22q2 4 7 9h1q0 1 3 1h1h1v1h1h1q1 0 3 -0.5t4 -0.5q6 -3 8 -10q11 0 14 -10q17 -46 83.5 -210t94.5 -253q2 16 0.5 102t-1.5 88
q-8 279 -29 366q-1 2 -1 6v3l4 32q26 145 231 160q80 7 291 -10.5t291 -2.5q48 9 76 36t20 72q-15 91 -164 42z" />
    <glyph glyph-name="O_ss02" unicode="&#x1093;" horiz-adv-x="303" 
d="M130 467q-28 -4 -49 -35.5t-30.5 -74t-14 -81.5t-2.5 -65q0 -26 3.5 -52.5t13 -52.5t23.5 -41.5t38 -15t55 21.5q79 57 91.5 162t-66.5 166q-17 11 -21.5 8.5t-4.5 -21.5q0 -16 -15 -17q-6 -1 -11 4t-6 11q1 35 17 49t47 0q47 -23 72.5 -81.5t21.5 -114.5
q-7 -76 -61.5 -148t-123.5 -69q-40 2 -65 32t-32.5 76.5t-7 93.5t8.5 94q-78 -74 -242 -28q-80 22 -269 114.5t-269 107.5q-47 9 -84 -6t-46 -60q-6 -29 6 -49.5t35.5 -30.5t47.5 -14t50 -4q7 1 11.5 -3.5t4.5 -11.5q1 -7 -3.5 -11.5t-11.5 -4.5q-31 0 -58.5 5t-55 16.5
t-43.5 35t-16 56.5q0 48 35 82t84 36q55 2 154 -38t214.5 -96.5t162.5 -73.5q223 -85 297 34l13 23l4 5q32 90 98 98q6 0 10.5 -5t4.5 -11t-5 -10.5t-10 -4.5z" />
    <glyph glyph-name="O_ss03" unicode="&#x1094;" horiz-adv-x="302" 
d="M127 468q-28 -4 -48.5 -35.5t-30 -75.5t-13.5 -80.5t-4 -65.5q0 -26 3.5 -52t13 -52t24 -41.5t38.5 -15t55 21.5q50 36 75.5 98.5t13.5 127t-64 101.5q-19 16 -24 7l-3 -22q0 -15 -16 -15q-5 0 -12 7l-4 8q2 22 4 27l1 6q8 42 29.5 72.5t55 48t68 26.5t78.5 14
q80 7 291 -10.5t291 -2.5q48 9 76 36t20 72q-5 29 -23 44t-44 15.5t-49.5 -4.5t-47.5 -14q-14 -6 -20 9t9 20q28 11 55.5 16.5t57 4.5t53 -17t35.5 -47q18 -45 -2.5 -89.5t-65.5 -62.5q-39 -16 -118 -19.5t-153.5 2t-165.5 12t-134 6.5q-212 0 -257 -109q9 -1 20 -6
q48 -23 73 -81t21 -116q-7 -75 -60.5 -147.5t-123.5 -69.5q-48 1 -74.5 44.5t-29.5 104t3 116.5t18 93q9 27 16 43t19 34.5t29.5 29t40.5 13.5q6 0 11 -4.5t5 -10.5t-5 -10.5t-11 -4.5z" />
    <glyph glyph-name="O_ss04" unicode="&#x1095;" horiz-adv-x="302" 
d="M128 465q-26 -4 -51 -39l-4 -11l-2 -1q-38 -72 -38 -205q0 -26 3.5 -52.5t13 -52.5t24 -41.5t38.5 -15t54 21.5q79 57 91.5 162t-66.5 166q-16 14 -23 7l-3 -23q-1 -6 -5.5 -10.5t-10.5 -3.5q-7 0 -12 6h-1q-2 4 -2 8q0 19 3 27l1 7q30 145 231 160q80 7 290.5 -10
t291.5 -2q48 9 76.5 36t20.5 72q-18 91 -165 41q-14 -7 -21 8q-5 15 9 20q29 11 56 17t56.5 5t53 -17.5t35.5 -47.5q18 -45 -2 -88t-66 -64q-38 -17 -116.5 -20t-153.5 2.5t-166.5 12.5t-133.5 7q-45 -1 -77 -5t-72 -14.5t-67.5 -33t-40.5 -56.5q4 -1 10.5 -3.5t9.5 -3.5
q48 -23 73 -81t21 -116q-7 -75 -61 -147t-124 -69q-45 1 -70.5 40.5t-30.5 96t-0.5 110.5t15.5 95q-80 -49 -221 -11q-79 22 -269 115t-269 107q-48 9 -84 -6t-45 -60q-6 -29 5.5 -49.5t35.5 -30t47.5 -13.5t49.5 -4q16 0 16 -16q0 -15 -16 -15q-31 0 -58 4.5t-54.5 16
t-43.5 35t-16 56.5q0 48 35 82t84 36q54 2 152.5 -37t217.5 -97t162 -74q43 -17 79 -26t79 -11.5t79 15.5t60 56l2 4l10 20q4 6 10 8q25 27 60 31q16 0 16 -16q0 -6 -4.5 -10.5t-11.5 -4.5z" />
    <glyph glyph-name="P_ss02" unicode="&#x1096;" horiz-adv-x="238" 
d="M48 509l1 -107q11 24 20 39.5t23 32t31.5 23t38.5 1.5q47 -11 63 -91q18 -86 -13 -157q-36 -82 -112 -63q-23 6 -49 21l1 -264q0 -16 -16 -16q-15 0 -15 16l-2 286q-3 3 -6 4l-22 21q-11 11 -1 22q12 11 22 1l6 -6v31q-79 -68 -238 -24q-78 22 -268 114.5t-270 106.5
q-49 9 -84.5 -5.5t-44.5 -60.5q-6 -28 6 -48.5t35.5 -30.5t47.5 -14t50 -4q15 0 15 -15q0 -16 -15 -16q-30 0 -57.5 5t-55 16.5t-43.5 35t-16 56.5q0 48 34.5 82t83.5 36q55 2 153.5 -38.5t213.5 -96.5t165 -73q43 -16 76 -24.5t75 -12.5t76.5 10.5t59.5 46.5v160
q0 16 16 16q6 0 10.5 -4.5t4.5 -11.5zM50 335h-1l1 -89q58 -44 99 -25t49 101q4 36 -8 92t-41 54q-24 -1 -41.5 -23.5t-34 -60.5t-23.5 -49z" />
    <glyph glyph-name="P_ss03" unicode="&#x1097;" horiz-adv-x="238" 
d="M46 508l1 -107q12 24 20.5 38.5t22.5 32t31.5 24t38.5 1.5q47 -11 63 -91q18 -86 -13 -158q-36 -82 -112 -62q-23 5 -49 21l1 -265q0 -4 -3 -9l-10 -25q-69 -128 -268 -88q-80 16 -276.5 93.5t-277.5 85.5q-114 10 -124 -77q-3 -29 11 -48.5t36.5 -26.5t49 -10.5
t49.5 0.5q7 1 12 -3.5t6 -10.5q2 -15 -14 -17q-172 -12 -182 99q-4 48 29 85t81 41q54 5 155 -26t223 -78.5t168 -60.5q229 -67 294 56l10 23l-2 284q-1 0 -2 1.5t-3 2.5l-23 21q-11 12 -1 22q12 12 23 1l5 -6l-1 237q0 6 4.5 10.5t11.5 4.5q15 0 15 -15zM48 333v-88
q59 -44 99.5 -25t48.5 102q4 37 -8 91.5t-41 52.5q-24 0 -41.5 -22t-34.5 -61.5t-23 -49.5z" />
    <glyph glyph-name="P_ss04" unicode="&#x1098;" horiz-adv-x="238" 
d="M48 506l1 -107q12 24 20.5 38.5t22.5 32t31.5 24t38.5 1.5q47 -11 63 -91q17 -86 -14 -157q-36 -82 -113 -63q-23 6 -48 21l2 -265q0 -7 -5 -11.5t-11 -4.5q-16 0 -16 16l-2 287l-4 4l-23 21q-4 1 -4 5q-2 2 -2 3l-11 25q-17 32 -44.5 51.5t-55 25.5t-65.5 3.5t-64.5 -8
t-63.5 -15.5q-47 -13 -168.5 -61t-223 -79.5t-155.5 -24.5q-48 4 -80.5 41t-28.5 85q3 32 21 54t46 31.5t55.5 12.5t58.5 1q6 -1 10.5 -6t3.5 -11q-2 -16 -17 -14q-22 4 -49 0.5t-50 -10.5t-37 -27t-10 -49q6 -46 40 -63t83 -13q81 8 278 85.5t277 93.5q199 40 267 -88
l11 -26l5 -5l-1 237q0 15 16 15q15 0 15 -15zM49 331v-88q59 -44 99.5 -25t48.5 101q4 39 -7.5 93t-41.5 52q-23 0 -40.5 -22t-35 -61.5t-23.5 -49.5z" />
    <glyph glyph-name="P_ss05" unicode="&#x1099;" horiz-adv-x="238" 
d="M52 525l-3 -23v-100q11 24 20 39t23 32.5t32 23.5t39 0q46 -11 62 -89q18 -86 -13 -157q-35 -82 -111 -64q-24 5 -50 21l2 -265q0 -7 -5 -11.5t-11 -4.5q-16 0 -16 16l-2 288q-1 0 -4 3l-24 21q-11 11 -1 22q11 11 22 0l7 -5l-2 226v3v8l2 8l2 15q30 145 231 160
q80 7 291 -10t291 -2q111 21 97 108q-5 29 -23 44t-44 15.5t-49.5 -4.5t-48.5 -14q-12 -6 -20 8q-3 6 -0.5 12.5t8.5 8.5q29 11 56.5 16.5t57 4.5t52.5 -17.5t35 -47.5q18 -44 -2.5 -87.5t-65.5 -64.5q-39 -17 -117.5 -20t-153.5 3t-165.5 13t-133.5 7q-49 -1 -83.5 -6
t-77 -18t-69 -42.5t-35.5 -73.5zM50 334v-88q59 -44 99.5 -25.5t48.5 101.5q4 37 -8 92t-41 53q-24 0 -41.5 -22t-34.5 -61.5t-23 -49.5z" />
    <glyph glyph-name="Q_ss02" unicode="&#x1100;" horiz-adv-x="346" 
d="M142 463q-17 2 -43 -42t-42 -82q-14 -35 -22 -77.5t-7 -88t28 -72.5t79 -20q22 1 48 17q-11 22 -27 62q-12 33 -21.5 77t-14 98.5t13.5 93.5t60 43q54 6 88 -21.5t42 -74t1 -100t-34.5 -105t-66.5 -83.5q17 -33 36 -59t44 -46t49.5 -20t52.5 18l16 14l1 2h1q5 5 11 3h1
q5 0 8 -4h1l1 -1q4 -5 4 -10t-4 -9l-11 -25q-66 -129 -267 -88q-80 16 -276.5 93.5t-276.5 85.5q-115 10 -125 -77q-3 -29 11 -48.5t37 -26.5t49.5 -10.5t48.5 0.5q7 1 12 -3.5t6 -11.5q0 -15 -14 -17q-172 -11 -181 99q-4 48 28 84.5t81 42.5q54 5 155.5 -26t223.5 -79
t168 -61q43 -11 73.5 -17t71.5 -7.5t73.5 12t55.5 41.5q-53 -19 -103.5 21.5t-87.5 110.5q-35 -17 -59 -20q-83 -11 -117.5 45.5t-23.5 139.5q3 27 16 69.5t32 88t47 76t56 26.5q15 -6 11 -19q-2 -14 -18 -12zM209 117q53 47 77.5 128t2 142.5t-90.5 53.5q-23 -3 -34.5 -26
t-12.5 -51t4 -65t10 -59t11 -43q17 -45 33 -80z" />
    <glyph glyph-name="Q_ss03" unicode="&#x1101;" horiz-adv-x="356" 
d="M147 461q-17 2 -46 -47t-38 -77q-14 -35 -22 -77.5t-7.5 -88t27.5 -72.5t79 -20q23 1 48 16q-18 38 -26 63q-12 30 -22.5 76t-14.5 99.5t14.5 93t60.5 43.5q88 9 119.5 -64t3.5 -169.5t-94 -150.5q17 -33 36.5 -58.5t44.5 -45.5t49.5 -20t52.5 18l16 13q10 13 22 1
q10 -12 0 -22l-19 -18q-27 -21 -55 -24.5t-51 6.5t-46.5 31.5t-41 46t-33.5 53.5q-28 -15 -60 -20q-82 -11 -117 45t-24 139q7 44 19 80q-79 -56 -222 -11q-78 22 -267.5 114.5t-270.5 106.5q-48 9 -84 -6t-45 -60q-6 -29 5.5 -49.5t35.5 -30t47.5 -13.5t49.5 -4
q16 0 16 -16t-15 -16q-31 0 -58.5 5t-54.5 16.5t-43 35t-16 56.5q0 48 34.5 82t83.5 36q55 2 153.5 -37.5t216 -96.5t162.5 -74q223 -87 297 34l6 10q50 105 101 99q16 -6 12 -19q-3 -13 -19 -12zM214 115q53 47 78 128t2.5 142.5t-90.5 53.5q-36 -5 -43.5 -59t1.5 -103.5
t20 -81.5q20 -55 32 -80z" />
    <glyph glyph-name="Q_ss04" unicode="&#x1102;" horiz-adv-x="349" 
d="M148 465h-2q-17 2 -46.5 -47t-37.5 -78q-14 -35 -22 -77.5t-7 -88t27.5 -72.5t78.5 -20q23 3 48 17q-17 35 -27 63q-12 34 -21.5 77.5t-14 97.5t14 92t60.5 44q88 11 119.5 -62.5t3.5 -170.5t-94 -151q39 -73 86.5 -108t95.5 2l16 14q11 11 22 0q13 -10 1 -22l-20 -17
q-36 -24 -67 -25.5t-62 21t-54.5 51t-43.5 66.5q-27 -15 -59 -20q-82 -11 -117 45t-24 139q9 65 47.5 156t85.5 104l3 17q30 146 230 161q83 7 293 -10.5t289 -2.5q48 9 76.5 36t20.5 73q-5 29 -23 44t-44 15t-49.5 -5t-47.5 -14q-15 -5 -20 9q-7 14 8 21q28 11 55.5 16.5
t56.5 4t53 -17.5t36 -46q18 -45 -2.5 -90t-65.5 -63q-39 -17 -117 -19.5t-153.5 3.5t-165.5 12t-135 5q-237 0 -264 -137l-3 -27q-2 -10 -12 -15h-1h-1h-1h-1h-1h-1zM213 119q52 48 76.5 128.5t3 141.5t-90.5 53q-83 -12 -21 -243q21 -58 32 -80z" />
    <glyph glyph-name="Q_ss05" unicode="&#x1103;" horiz-adv-x="353" 
d="M144 467q-17 2 -45.5 -46.5t-38.5 -77.5q-11 -27 -19 -60t-10 -71.5t5.5 -68.5t33 -47.5t68.5 -11.5q23 3 47 17q-18 38 -26 63q-13 31 -23 77t-13.5 98.5t14.5 91.5t60 45q53 6 87 -21.5t42.5 -74t1.5 -100t-34.5 -105.5t-66.5 -84q18 -33 37 -58.5t43.5 -45.5t49 -20
t52.5 18l16 14q11 11 22 1q10 -10 1 -22l-20 -18q-27 -21 -55 -24.5t-51 6.5t-46.5 31.5t-41 46t-33.5 53.5q-27 -15 -59 -20q-83 -11 -117.5 45.5t-23.5 139.5q9 53 18 79q-75 -52 -222 -12q-80 22 -269.5 114.5t-267.5 107.5q-29 4 -55.5 2t-47.5 -19.5t-26 -49.5
q-6 -29 5.5 -49t35.5 -29.5t47.5 -13.5t49.5 -4q15 0 16 -16q0 -15 -16 -15q-31 0 -58 4.5t-54.5 16t-43.5 35t-16 56.5q0 48 34.5 82t84.5 36q54 2 152.5 -37t216.5 -96.5t163 -74.5q43 -17 78.5 -26t79 -11.5t79 15t59.5 55.5l6 11q40 88 86 98l3 19q30 145 230 160
q81 7 292 -10t290 -2q111 21 97 108q-5 29 -23 44t-44 15.5t-49.5 -4.5t-47.5 -14q-14 -7 -21 8q-6 15 9 21q40 16 76 21t72.5 -9.5t52.5 -54.5q18 -45 -2 -88.5t-65 -64.5q-39 -16 -118 -19t-154 2.5t-166 12t-134 6.5q-50 -1 -83.5 -5.5t-76.5 -17.5t-69 -42t-35 -73
l-4 -27q0 -9 -9 -13q-6 -4 -13 -3zM212 120q52 46 77 128t3 143.5t-91 52.5q-19 -2 -30.5 -17.5t-14 -40t-1.5 -50t6.5 -55t9.5 -47t8 -33.5q18 -50 33 -81z" />
    <glyph glyph-name="R_ss02" unicode="&#x1104;" horiz-adv-x="238" 
d="M50 512l1 -56h1q15 21 46 37q67 32 103 -28q32 -53 17 -128q-11 -56 -47 -85q-2 -38 16 -103t57.5 -115.5t86.5 -29.5l11 6q5 3 12 1t9 -7q4 -5 2.5 -11.5t-7.5 -9.5l-14 -7q-43 -18 -82.5 3.5t-64.5 66.5t-40 96t-17 93l-6 -2q-35 -10 -77 -2l3 -140q0 -16 -15 -16
q-7 0 -12 4.5t-5 10.5l-3 147q-2 1 -7.5 2t-8.5 2q-16 5 -11 20q6 15 19 10l8 -2l-3 97q-80 -69 -239 -25q-80 22 -269 114.5t-269 107.5q-48 9 -84 -6t-45 -61q-6 -28 6 -48.5t35.5 -30.5t47.5 -14t50 -4q15 0 16 -15q0 -6 -5 -11t-11 -5q-30 0 -57.5 5t-55 16.5t-43.5 35
t-16 56.5q0 48 35 82.5t84 34.5q54 2 153 -38t214 -96t164 -73q44 -16 76.5 -24.5t74.5 -12.5t77 10t60 46l-3 101q0 7 4.5 11.5t10.5 4.5q17 0 17 -15zM146 272q0 1 2 1q29 22 39 72.5t-5 91t-49 34.5t-56 -34t-24 -65v-1l3 -109q53 -8 83 6q5 2 7 4z" />
    <glyph glyph-name="R_ss07" unicode="&#x1105;" horiz-adv-x="238" 
d="M367 -14l-2 -4l-11 -27q-70 -128 -268 -88q-79 16 -276 93t-278 86q-49 4 -83 -13t-40 -63q-4 -29 10 -48.5t37 -27t50 -11t49 0.5q13 1 17 -14q1 -6 -3.5 -11t-10.5 -6q-172 -11 -181 99q-4 48 28 84.5t81 42.5q54 5 155 -26.5t222 -79t169 -60.5q219 -68 289 48
q-50 -8 -93 39.5t-64 110.5t-23 117q-1 -1 -6 -1q-31 -10 -77 -3l3 -140q0 -16 -15 -16q-6 0 -11 4.5t-5 10.5l-3 147q-12 2 -17 5q-15 5 -10 19q1 6 7 9.5t12 1.5l7 -3l-7 242q0 6 4.5 11t10.5 5q7 0 12 -4.5t5 -10.5l2 -57q16 21 46 38q67 33 103 -27q32 -53 17 -128
q-12 -56 -47 -85q-2 -39 16 -104t58 -114.5t86 -29.5l11 4q8 5 13 2q6 -2 9 -6q3 -8 2 -12zM149 267q29 21 39 71.5t-5 91t-49 34.5q-34 -5 -56 -34t-24 -65v-1l3 -108q44 -11 83 5q3 1 7 5q2 0 2 1z" />
    <glyph glyph-name="R_ss03" unicode="&#x1106;" horiz-adv-x="242" 
d="M49 506l2 -56q17 21 47 37q67 32 103 -28q32 -53 16 -128q-11 -55 -47 -85q-2 -26 9.5 -72.5t31 -92.5t52 -72t67.5 -11l12 6q13 8 21 -6q9 -14 -6 -21l-15 -8q-42 -18 -81 4t-64.5 67t-40.5 96t-17 93l-6 -2q-34 -9 -77 -3l4 -139q0 -7 -4.5 -11.5t-10.5 -4.5
q-17 0 -17 15l-4 147q-2 0 -7 1.5t-9 2.5q-3 1 -5 3h-1v1h-1q-1 1 -3 6l-11 25q-17 32 -44.5 51.5t-55 25.5t-65.5 3.5t-64.5 -8t-63.5 -15.5q-48 -13 -169 -60.5t-222.5 -79t-155.5 -26.5q-49 6 -81 42.5t-28 84.5q10 111 181 99q6 -1 10.5 -6t3.5 -11q-1 -15 -18 -15
q-22 4 -48.5 0.5t-49.5 -10.5t-37 -26.5t-10 -48.5q10 -86 123 -76q81 8 277 85t278 93q202 41 266 -88l9 -20l-5 241q0 15 15 16q6 0 11 -4.5t5 -10.5zM145 266q2 2 3 2q29 21 39 71.5t-5 91t-49 34.5q-35 -6 -56.5 -34t-23.5 -65v-1l2 -109q50 -9 83 6q4 2 7 4z" />
    <glyph glyph-name="R_ss04" unicode="&#x1107;" horiz-adv-x="238" 
d="M49 511l2 -57q17 24 46 38q68 32 103 -28q32 -53 17 -126q-12 -56 -48 -86q-2 -27 9.5 -73.5t31 -92.5t52.5 -72t68 -11l11 6q15 8 22 -6q8 -14 -6 -21l-14 -7q-43 -18 -82.5 3.5t-64.5 66.5t-40 96t-17 93l-6 -2q-32 -9 -78 -2l4 -140q0 -5 -1 -6v-3l-13 -29
q-69 -130 -268 -88q-80 16 -276.5 93.5t-276.5 85.5q-114 10 -124 -77q-4 -29 10 -48.5t37 -26.5t50 -10.5t49 0.5q6 1 11 -3.5t6 -10.5q2 -15 -14 -17q-172 -11 -181 99q-4 48 28.5 85t80.5 41q55 5 156 -26t222.5 -78.5t167.5 -60.5q229 -67 294 56l11 25l-4 145
q-10 2 -16 5q-16 5 -11 19q6 16 19 11l8 -3l-7 242q0 7 4.5 11.5t10.5 4.5q7 0 12 -4.5t5 -10.5zM145 272q1 0 2 1q29 21 39 71.5t-5 91t-49 34.5t-56 -34.5t-24 -64.5v-1l2 -109q49 -8 84 6q3 1 7 5z" />
    <glyph glyph-name="R_ss05" unicode="&#x1108;" horiz-adv-x="220" 
d="M339 -23q8 -14 -6 -21l-14 -7q-36 -15 -67 -3t-55.5 41t-42 68.5t-27.5 79t-11 72.5q-2 0 -3 -0.5t-3 -0.5q-34 -10 -77 -3l3 -135l1 -2q5 -15 -9 -20q-12 -3 -18 6q-4 4 -4 9l-9 20q-17 32 -44 51t-54.5 25t-65.5 3.5t-65 -8t-64 -15.5q-46 -13 -167.5 -60.5t-222 -78.5
t-154.5 -26q-49 6 -81 42.5t-28 84.5q3 32 20.5 54t45.5 31.5t55.5 12t58.5 0.5q16 -1 14 -17t-17 -14q-23 4 -49.5 0.5t-49 -10.5t-36.5 -26.5t-11 -48.5q10 -87 124 -77q81 8 276.5 85.5t275.5 93.5q170 35 245 -56l-2 83q-14 3 -16 4q-16 6 -11 19q6 16 20 11l6 -2
l-5 241q-2 14 15 16q6 0 11 -4.5t5 -11.5l1 -56q18 23 47 38q68 32 103 -28q32 -53 17 -126q-12 -56 -48 -86q-2 -27 9.5 -73t31 -92t52.5 -72t68 -11l10 6q15 8 22 -6zM124 246q29 22 39 72t-5 90t-49 35q-34 -6 -56 -34.5t-24 -64.5v-1l3 -108q49 -9 83 5q3 1 7 5q1 0 2 1
z" />
    <glyph glyph-name="R_ss06" unicode="&#x1109;" horiz-adv-x="238" 
d="M56 529l-10 -23l2 -53q17 21 47 37q67 31 103 -28q32 -53 16 -127q-11 -56 -47 -86q-2 -26 9.5 -72.5t31 -92.5t52.5 -72t68 -11l11 6q13 8 21 -6t-6 -21l-14 -7q-43 -18 -82 3.5t-64.5 67t-40.5 96t-17 92.5q-3 0 -5 -2q-35 -10 -78 -2l3 -140q1 -6 -3.5 -11t-11.5 -5
q-6 0 -11 4.5t-5 11.5l-3 146q-14 2 -17 4q-15 6 -10 20q6 15 19 10q2 -1 7 -1l-6 239q-1 2 1 8l12 29q69 130 268 88q80 -16 276.5 -93.5t276.5 -85.5q115 -10 125 77q3 29 -11 48.5t-37 26.5t-49.5 10.5t-48.5 -0.5q-7 -1 -12 3.5t-6 10.5q-2 16 14 17q31 2 58.5 -0.5
t55.5 -12t46 -31t21 -54.5q4 -48 -28 -84.5t-81 -42.5q-54 -7 -155.5 24t-224 79.5t-167.5 61.5q-37 10 -64 15.5t-65 8t-65.5 -3.5t-54.5 -25t-44 -51zM143 269q1 1 2 1q29 22 39 72.5t-5.5 91t-49.5 34.5t-56 -34.5t-24 -64.5v-1l3 -109q53 -8 83 6q6 2 8 4z" />
    <glyph glyph-name="S_ss02" unicode="&#x1110;" horiz-adv-x="227" 
d="M258 319q11 -11 3 -23q-11 -6 -50.5 -24t-61.5 -31q10 -14 14 -21q20 -34 31.5 -70t5.5 -76.5t-41 -60.5q-43 -25 -83.5 5.5t-49.5 85.5q-71 -71 -233 -41q-80 16 -276.5 93.5t-276.5 85.5q-115 10 -125 -76q-3 -29 11 -49t36.5 -27t49 -10.5t49.5 0.5q17 2 18 -14
q1 -7 -3 -12t-11 -5q-172 -11 -181 99q-4 47 28.5 83.5t80.5 42.5q54 7 155 -24t223.5 -79.5t167.5 -61.5q226 -67 291 52q4 15 14 30l3 5l8 12q15 17 46 41q-9 10 -27 28.5t-25 26.5q-129 145 78 185q78 16 130 -2q5 -3 6.5 -10t-2.5 -12q-7 -13 -21 -5q-17 6 -54 3
t-74.5 -10t-62 -26t-17.5 -43q4 -12 15.5 -28t21.5 -27.5t30 -32.5t28 -30q37 20 79 39q8 3 13.5 5.5t6.5 3.5t3 1.5t7 0.5q9 12 22 3zM169 123q-9 57 -47 101q-32 -20 -49 -44l-12 -29q-2 -2 -3 -5q-3 -14 -2 -23q6 -66 47 -84q33 -15 54 14q20 25 12 70z" />
    <glyph glyph-name="S_ss03" unicode="&#x1111;" horiz-adv-x="220" 
d="M257 319q12 -11 2 -22q-11 -6 -50 -24t-61 -31q8 -12 15 -21q20 -34 31.5 -70.5t5 -77t-41.5 -60.5q-27 -13 -53 -9t-45 27t-29 51t-4.5 63t28.5 63q14 17 45 41q-8 10 -26 28t-26 28q-29 32 -42 62q-80 -96 -257 -45q-80 22 -270 114.5t-269 107.5q-48 9 -84 -6t-45 -61
q-6 -29 6 -49t36 -29.5t47.5 -13.5t49.5 -4q14 0 16 -15q0 -16 -16 -16q-31 0 -58 4.5t-54 16t-43 35t-16 56.5q0 48 34 82t84 36q54 2 152.5 -37t216.5 -96.5t163 -74.5q43 -17 78.5 -26t79 -11.5t79 15t59.5 55.5l8 15q19 50 123 69q80 16 130 -2q13 -7 4 -22
q-7 -12 -21 -4q-34 9 -108.5 -3t-94.5 -43l-4 -7q-4 -13 0 -23q2 -7 6 -15t11 -17t12.5 -16t16 -18.5t15.5 -17t17 -18t16 -16.5q41 23 79 38q5 2 9 4l6 3t3.5 1.5t2 1t2 1t3 0.5h4.5q8 13 22 3zM168 123q-9 56 -47 102q-70 -48 -65 -102q4 -66 46 -84q32 -14 54 13
q20 25 12 71z" />
    <glyph glyph-name="S_ss04" unicode="&#x1112;" horiz-adv-x="213" 
d="M1170 790q18 -45 -2.5 -89t-65.5 -64q-39 -16 -118 -19t-153.5 2.5t-165.5 12.5t-134 7q-49 -1 -83.5 -6t-77 -18t-69 -42t-35.5 -73l-3 -27q-1 0 -1 -1v-2l-2 -6q-10 -14 -22 -5q-16 6 -53.5 3t-75 -10t-62.5 -26t-16 -43q4 -13 15.5 -29.5t21 -27.5t30.5 -33t28 -29
q32 19 78 40q23 9 30 11q11 11 23 2q12 -8 2 -22q-11 -6 -50.5 -24t-61.5 -31q4 -4 9 -12.5t6 -9.5q20 -34 31.5 -70t5 -76t-41.5 -60q-26 -13 -52 -9t-45.5 26.5t-30 50.5t-5 63t29.5 63q15 19 46 42l-53 54q-45 50 -47.5 88.5t30 62t95.5 35.5q64 13 108 4l2 14
q16 80 77 115.5t154 45.5q80 7 291 -10.5t291 -2.5q48 9 76 36t20 72q-15 91 -164 42q-14 -7 -20 8q-6 14 8 20q29 11 56.5 16.5t57 4.5t53 -17t35.5 -47zM168 122q-9 54 -48 102q-70 -48 -65 -102q4 -66 45 -84q33 -14 55 13q21 25 13 71z" />
    <glyph glyph-name="S_ss05" unicode="&#x1113;" horiz-adv-x="216" 
d="M1170 784q18 -45 -2.5 -89.5t-65.5 -62.5q-39 -17 -118 -20t-153.5 2.5t-165.5 12.5t-134 7q-48 -1 -82.5 -6t-77.5 -18t-69.5 -42t-35.5 -73l-2 -27q-2 -15 -18 -15q-6 1 -11 6q-39 8 -109 -4t-90 -42l-4 -8q-4 -10 0 -22q4 -13 15.5 -29.5t21 -27.5t30.5 -33t28 -29
q41 22 78 39q23 9 30 11q12 12 22 2q12 -9 3 -22q-11 -6 -50.5 -24t-61.5 -31q4 -4 9 -12.5t6 -9.5q20 -34 31.5 -70t5 -76t-41.5 -60q-26 -14 -52.5 -10t-45.5 26.5t-29 50.5t-4.5 63t28.5 64q19 23 45 42q-11 13 -52 54q-30 36 -42 63q-80 -96 -257 -45q-80 22 -269 114.5
t-269 107.5q-47 9 -83.5 -6t-46.5 -60q-6 -28 6 -48.5t35.5 -30.5t47.5 -14t50 -4q16 0 16 -15q0 -7 -4.5 -11.5t-10.5 -4.5q-31 0 -58.5 5t-54.5 16.5t-43 35t-16 56.5q0 48 34.5 82t83.5 36q54 2 152 -37.5t216 -97t164 -74.5q222 -86 297 34l7 14q18 50 123 70
q66 12 108 4l1 10q11 55 48 91t80.5 50t102.5 20q81 7 292 -10.5t290 -2.5q48 9 76.5 36t20.5 72q-15 91 -164 42q-14 -7 -21 8q-6 14 8 20q29 11 56.5 16.5t57 4.5t53 -17t35.5 -47zM169 121q-10 55 -48 101q-70 -48 -65 -101q6 -66 47 -85q32 -14 54 14q20 25 12 71z" />
    <glyph glyph-name="T_ss02" unicode="&#x1114;" horiz-adv-x="171" 
d="M-663 -51q15 0 17 -15t-13 -17q-172 -12 -182 99q-4 47 28.5 84t81.5 43q54 5 155 -26.5t222 -79t169 -60.5q228 -67 293 57l11 24v3q-2 5 -4 15q-19 91 -19 371q-96 11 -153 29q-15 6 -10 21q5 13 21 9q45 -16 154 -28h1q1 1 3 1t4 -1h3q122 -14 171 6q15 8 22 -6
q8 -14 -5 -22q-51 -21 -179 -12v-37v-39v-36.5t0.5 -39t1.5 -36t2 -39t2.5 -36.5t3.5 -39t5 -36t6 -38q1 -3 1 -13q0 -5 -3 -10l-11 -26q-69 -128 -267 -87q-80 16 -277 93t-277 85q-114 10 -124 -76q-4 -29 10 -48.5t37 -26.5t50 -10.5t49 0.5z" />
    <glyph glyph-name="T_ss03" unicode="&#x1115;" horiz-adv-x="188" 
d="M-41 505q41 -15 155 -27h4q5 0 7 -1q123 -14 171 6q15 7 22 -5q9 -14 -5 -22q-58 -24 -180 -12q0 -300 22 -413q1 -7 1 -13q0 -16 -16 -16q-6 0 -10.5 4.5t-4.5 11.5q0 5 -1 7t-3 14q-19 92 -19 408q-86 8 -141 25l-8 -16q-78 -122 -274 -66q-80 22 -269 114.5
t-269 107.5q-48 9 -84 -6t-45 -61q-6 -28 6 -48.5t35.5 -30.5t47.5 -14t49 -4q7 0 11.5 -4.5t4.5 -10.5q0 -16 -15 -16q-31 0 -58.5 5t-54.5 16.5t-43 34.5t-16 56q0 48 34.5 82t83.5 36q54 2 152 -36.5t218 -96.5t162 -74q220 -86 297 33l13 25q6 9 15 8h1h1q1 -1 3 -1z
" />
    <glyph glyph-name="T_ss04" unicode="&#x1116;" horiz-adv-x="181" 
d="M-41 511q41 -14 154 -27h4q6 0 8 -1q113 -12 165 4l2 20q30 146 231 161q83 8 293.5 -10t288.5 -3q48 9 76.5 36t20.5 73q-5 29 -23 44t-44 15t-49.5 -5t-47.5 -14q-15 -6 -21 9q-5 13 9 21q40 16 76 21t72.5 -9.5t52.5 -54.5q18 -45 -2.5 -90t-65.5 -63
q-39 -17 -117.5 -20t-153.5 2.5t-166.5 12.5t-133.5 7q-38 -1 -65.5 -3.5t-64.5 -11t-62 -22.5t-45.5 -40t-27.5 -61l-3 -27q0 -1 -0.5 -3t-0.5 -4l-7 -6l-4 -2q-52 -20 -175 -11q0 -304 22 -417q1 -2 0.5 -6.5t-0.5 -6.5q0 -7 -4.5 -11.5t-10.5 -4.5t-10.5 4.5t-4.5 11.5
q0 5 -1 7t-3 14q-19 91 -19 413q-102 12 -154 28q-6 2 -9 8.5t-1 12.5q8 14 21 9z" />
    <glyph glyph-name="T_ss05" unicode="&#x1117;" horiz-adv-x="175" 
d="M-46 504q56 -16 155 -27h4q5 0 6 -1q116 -12 167 4l3 22q16 80 76.5 115.5t153.5 45.5q81 7 291.5 -10.5t290.5 -2.5q48 9 76.5 36t20.5 72q-15 90 -164 41q-14 -5 -21 8q-5 14 8 21q29 11 56.5 16.5t56.5 4t53 -17.5t36 -46q18 -46 -2.5 -89t-65.5 -64
q-39 -17 -117 -19.5t-153.5 3.5t-165.5 12.5t-135 5.5q-47 0 -83.5 -4.5t-77.5 -18t-67.5 -42.5t-35.5 -73l-4 -27q0 -6 -4 -10l-4 -4q-49 -20 -180 -13q0 -284 21 -407q2 -5 2 -12q0 -17 -16 -17t-16 17q0 3 -4 20q-18 88 -18 403q-102 13 -142 25l-8 -16
q-77 -122 -273 -66q-80 22 -269 114.5t-269 107.5q-48 9 -84 -6t-45 -60q-6 -29 5.5 -49.5t35.5 -30t47.5 -13.5t49.5 -4q16 0 16 -16t-15 -16q-31 0 -58.5 5t-54.5 16.5t-43 35t-16 56.5q0 48 34.5 82t83.5 36q54 2 152.5 -37t217 -97.5t161.5 -74.5q46 -16 80 -24.5
t78 -11.5t79.5 15t59.5 56l14 23q4 10 15 9h1q3 0 4 -1z" />
    <glyph glyph-name="U_ss02" unicode="&#x1118;" 
d="M43 399q0 -5 -1.5 -31t-3.5 -57.5t-3.5 -71t-0.5 -75t4.5 -65t11.5 -46t21 -14.5q34 6 78 31.5t75 54.5q-18 204 -20 413q0 6 4.5 10.5t10.5 4.5q7 0 11.5 -4.5t4.5 -10.5q6 -263 21 -415v-6l4 -42q5 -41 9 -62q5 -14 -10 -20q-15 -5 -20 11q-2 12 -9 67q-2 10 -2 16
q-80 -66 -151 -79q-23 -5 -38.5 10.5t-23.5 48t-11 68t-3 80.5q-73 -93 -247 -57q-80 16 -276.5 93.5t-277.5 85.5q-48 4 -83 -14t-41 -63q-3 -29 11 -48.5t37 -27t49.5 -11t48.5 0.5q17 2 18 -14q0 -16 -15 -17q-170 -12 -180 99q-4 49 27.5 84.5t81.5 41.5q54 5 155 -25.5
t223 -78.5t168 -61q229 -68 294 57l10 24q2 29 5 68.5t3 46.5q0 16 16 16q6 0 10.5 -4.5t4.5 -11.5z" />
    <glyph glyph-name="U_ss03" unicode="&#x1119;" 
d="M40 398q0 -6 -1.5 -31.5t-3.5 -57.5t-3.5 -71.5t-0.5 -75.5t4.5 -65.5t11.5 -46t21 -14.5q33 6 78.5 32t74.5 54q-15 153 -21 413q0 16 16 16t16 -16q0 -210 20 -415q1 -1 1 -5l4 -43q7 -51 9 -61q5 -14 -10 -20q-14 -5 -20 11q-4 14 -10 67q-1 3 -1 15q-79 -63 -152 -79
q-22 -4 -37.5 9.5t-23 44.5t-11.5 60.5t-3 77t2 73.5t4 69q-79 -93 -255 -42q-80 22 -269 114.5t-269 107.5q-48 9 -84 -6t-45 -61q-6 -29 6 -49t36 -29.5t47.5 -13.5t48.5 -4q16 0 16 -16q0 -15 -15 -15q-31 0 -58.5 4.5t-54.5 16t-43 35t-16 56.5q0 47 34.5 81.5
t83.5 36.5q54 2 152.5 -37t217.5 -97t162 -74q220 -86 297 33l13 25q5 12 18 8q13 -3 13 -15z" />
    <glyph glyph-name="U_ss04" unicode="&#x1120;" 
d="M43 397q0 -5 -1.5 -30.5t-3.5 -57.5t-3 -71.5t0 -75t4.5 -65.5t12 -46.5t20.5 -14.5q32 6 77.5 32.5t75.5 53.5q-15 153 -21 413q0 16 16 16t16 -16q0 -210 20 -415v-5q3 -16 5 -43q7 -51 9 -61q5 -14 -10 -20q-15 -5 -20 11q-4 14 -10 67l-2 15q-83 -68 -151 -79
q-23 -4 -38.5 11t-23 46t-11.5 65t-3 79t2.5 76t5 68.5t3.5 43.5l-12 23q-24 38 -59.5 55.5t-80 14t-78 -11.5t-79.5 -25q-45 -17 -163 -74.5t-216.5 -96.5t-152.5 -37q-50 2 -84 36t-34 82q0 33 16 56.5t43 35t54.5 16.5t57.5 5q16 0 16 -16q0 -15 -16 -15q-26 0 -49.5 -4
t-47.5 -14t-35.5 -30.5t-5.5 -49.5q9 -45 45.5 -60.5t83.5 -4.5q79 14 269.5 106.5t268.5 114.5q193 56 273 -66l15 -28v-1q2 -2 2 -8z" />
    <glyph glyph-name="U_ss05" unicode="&#x1121;" 
d="M42 398q-1 -12 -3 -40t-4.5 -71.5t-2.5 -87t3 -82t12 -61t23 -19.5q34 6 78 31.5t75 54.5q-18 201 -20 404q-2 6 -2 7l4 31q30 145 231 160q81 7 292 -10t291 -2q110 21 96 108q-5 29 -23 44t-44 15.5t-49.5 -4.5t-48.5 -14q-12 -7 -20 8q-6 15 9 21q28 11 55.5 16.5
t57 4t53.5 -17.5t36 -46q18 -45 -3 -88.5t-66 -64.5q-40 -17 -118.5 -19.5t-153.5 3.5t-164 12.5t-135 5.5q-49 -1 -83 -5.5t-77 -17.5t-69.5 -42t-35.5 -73l-2 -22v-1q0 -210 20 -415q1 -1 1 -5q2 -36 4 -43q7 -52 9 -62q5 -13 -11 -19q-13 -5 -19 10q-4 14 -10 68
q-1 4 -1 15q-83 -66 -152 -79q-32 -6 -50 25.5t-22 87.5t-2.5 107t5.5 106.5t4 65.5q0 6 4.5 10.5t11.5 4.5t11.5 -4.5t4.5 -10.5z" />
    <glyph glyph-name="U_ss06" unicode="&#x1122;" 
d="M46 398q0 -5 -1.5 -30.5t-3.5 -57.5t-3.5 -71.5t-0.5 -75t4.5 -65.5t11.5 -46.5t21 -14.5q34 6 78.5 31.5t73.5 53.5q-19 230 -19 410q-1 1 -1 5l4 31q16 80 77 115t154 45q81 7 292 -10.5t290 -2.5q48 9 76 36t20 73q-14 92 -164 41q-14 -7 -21 8q-5 15 9 20
q29 11 56.5 16.5t57 4.5t53 -17t35.5 -47q18 -46 -2.5 -89t-65.5 -64q-39 -16 -118 -19t-154 2.5t-165.5 12.5t-133.5 7q-49 -1 -83.5 -6t-77 -18t-69 -42t-35.5 -73l-3 -27q0 -207 20 -413q1 -1 1 -6q2 -33 4 -42q6 -44 9 -61q4 -16 -11 -20q-15 -5 -19 11q-4 21 -10 66
q-2 14 -2 15q-75 -61 -151 -78q-22 -4 -37.5 9.5t-23 44.5t-11.5 61t-3 77t2 73.5t4 67.5q-77 -91 -255 -41q-78 22 -267.5 114.5t-270.5 106.5q-48 9 -84 -6t-45 -60q-6 -28 6 -48.5t35.5 -30.5t47.5 -14t49 -4q16 0 17 -15q0 -16 -16 -16q-31 0 -58.5 5t-54.5 16.5t-43 35
t-16 56.5q0 48 34.5 82t83.5 36q55 2 153 -37t217 -97.5t162 -74.5q222 -86 297 34l13 24q6 13 18 8q13 -1 13 -15z" />
    <glyph glyph-name="V_ss02" unicode="&#x1123;" horiz-adv-x="235" 
d="M46 347q20 -189 50 -300q26 28 59 112.5t45 132.5q10 38 15 78.5t-4 87t-40 63.5l-12 6q-14 6 -11 20q7 14 20 10l19 -8q95 -54 44 -264q-4 -18 -19.5 -63t-38 -99t-49 -88t-45.5 -22q-17 10 -38 137.5t-26 193.5q0 1 -1 1l-13 25q-74 119 -297 33q-46 -17 -163 -74
t-215.5 -96.5t-152.5 -37.5q-50 2 -84 36t-34 82q0 33 16 56.5t43 35t54 16t58 4.5q16 0 16 -16q0 -6 -5 -10.5t-11 -4.5q-26 0 -49.5 -4t-47.5 -13.5t-36 -29.5t-6 -49q9 -47 45 -61.5t84 -5.5q80 14 270 107t268 115q196 58 274 -67l14 -27q2 -2 2 -4z" />
    <glyph glyph-name="V_ss03" unicode="&#x1124;" horiz-adv-x="227" 
d="M172 565l12 -6q94 -54 43 -263q-4 -19 -19.5 -63.5t-37.5 -99t-48 -89t-46 -21.5q-18 10 -38 136t-27 199q0 6 4.5 10.5t11.5 4.5t11.5 -4.5t4.5 -10.5q4 -63 18.5 -154.5t31.5 -145.5q26 28 56.5 107.5t47.5 138.5q10 39 15 78.5t-4.5 86t-39.5 64.5h-1l-7 -13
q-77 -123 -273 -67q-79 22 -268.5 114.5t-270.5 107.5q-47 9 -83.5 -6t-45.5 -60q-6 -28 6 -48.5t35.5 -30.5t47.5 -14t50 -4q16 0 16 -15q0 -7 -4.5 -12t-10.5 -5q-43 0 -78.5 8t-64.5 35t-29 71q0 48 34.5 82t83.5 36q54 2 152.5 -37.5t215.5 -97t163 -74.5
q44 -17 80 -25.5t79 -11t79 15t59 55.5l12 20v2q2 5 6 8q10 5 16 1q3 -1 5 -3z" />
    <glyph glyph-name="V_ss04" unicode="&#x1125;" horiz-adv-x="227" 
d="M50 353q4 -62 18.5 -154t31.5 -145q26 28 56.5 107.5t47.5 137.5q10 39 15 78.5t-4 86t-40 63.5l-13 7q-15 6 -10 20t20 9l19 -8q94 -54 43 -264q-4 -17 -19.5 -62t-37.5 -99.5t-48.5 -89t-46.5 -22.5q-26 16 -58 287q-81 -107 -265 -53q-80 22 -269 114.5t-269 107.5
q-48 9 -84 -6t-45 -61q-6 -28 6 -48.5t35.5 -30.5t47.5 -14t50 -4q15 0 16 -15q0 -6 -4.5 -10.5t-11.5 -4.5q-31 0 -58 4.5t-54.5 16t-43.5 35t-16 56.5q0 48 34.5 82t84.5 36q54 2 153 -38t215 -96.5t163 -73.5q44 -17 79.5 -25.5t79 -11.5t79 14.5t59.5 55.5l13 25
q3 6 12 8h3q16 0 16 -15z" />
    <glyph glyph-name="V_ss05" unicode="&#x1126;" horiz-adv-x="227" 
d="M50 349q23 -214 50 -299q26 28 56.5 107.5t47.5 137.5q44 187 -28 228l-14 7q-14 5 -9 20v1v1l12 28q67 129 268 88q80 -16 277 -93.5t277 -85.5q48 -4 82.5 14t40.5 63q4 29 -9.5 49t-36.5 27t-50 10.5t-49 -0.5q-15 -2 -18 14q-1 6 3.5 11t10.5 6q31 2 59 -1t56 -12.5
t45.5 -31.5t20.5 -54q4 -49 -27.5 -84.5t-81.5 -41.5q-54 -7 -155 24t-223 79t-168 61t-81.5 19t-79 5.5t-78 -20.5t-55.5 -60l-5 -13l3 -2q93 -54 43 -264q-4 -17 -19 -62.5t-37 -99.5t-48.5 -88.5t-46.5 -21.5q-17 10 -37 135.5t-27 198.5q0 16 16 16q6 0 10.5 -4.5
t4.5 -11.5z" />
    <glyph glyph-name="V_ss06" unicode="&#x1127;" horiz-adv-x="220" 
d="M48 355q22 -203 49 -300q27 28 58 108t47 137q44 188 -29 229l-13 6l-3 2q-14 6 -8 19l13 29q66 129 266 88q82 -16 278 -93.5t276 -85.5q114 -10 124 77q4 29 -10 48.5t-37 26.5t-49.5 10.5t-48.5 -0.5q-7 -1 -12 3.5t-6 11.5q-1 5 3.5 10t10.5 6q31 2 58.5 -0.5
t55.5 -12t46 -31t21 -54.5q4 -48 -28 -84.5t-81 -42.5q-54 -7 -155.5 24t-224 79.5t-167.5 61.5q-37 10 -63.5 15.5t-64.5 8t-65.5 -3.5t-55 -25t-44.5 -51l-5 -12l4 -3q96 -54 44 -263q-4 -19 -19.5 -64t-37.5 -99t-48.5 -88t-45.5 -22q-14 9 -31.5 102t-28.5 185
q-80 -110 -263 -54q-80 22 -270 115t-269 108q-47 9 -83.5 -6.5t-45.5 -60.5q-6 -28 6 -48.5t35.5 -30.5t47.5 -14t50 -4q14 0 16 -15q0 -16 -16 -16q-31 0 -58.5 5t-54.5 16.5t-43 34.5t-16 56q0 48 35 82t84 36q54 2 152.5 -37t216.5 -96.5t163 -74.5q222 -87 296 34
l13 24q3 7 11 9h1h3q6 0 11 -4.5t5 -10.5z" />
    <glyph glyph-name="W_ss02" unicode="&#x1128;" horiz-adv-x="370" 
d="M31 317q10 -36 26.5 -108.5t25.5 -108.5q15 115 57 250q7 26 17 26q5 0 10 -3q5 -2 13 -26t18 -60l9 -36q4 -13 16.5 -54.5t25.5 -80.5t24 -63q1 4 3.5 21.5t5.5 28.5q7 29 24.5 88.5t27.5 101t18 95t1.5 101t-26.5 87.5q-4 5 -2 12t7 10q14 7 22 -6q31 -60 32.5 -135
t-13.5 -133.5t-38.5 -142t-31.5 -132.5l-1 -18q-2 -18 -6.5 -26t-14.5 -9q-29 -3 -71 140q-24 71 -51 165q-47 -164 -51 -265q-1 -13 -7.5 -20t-17.5 -1q-11 5 -28 64.5t-35.5 143.5t-19.5 87l-12 24q-16 26 -38 42.5t-48 22t-50 6t-55.5 -6.5t-53 -13.5t-52.5 -17.5
q-46 -17 -163 -74t-215.5 -96.5t-152.5 -37.5q-50 2 -84.5 36t-34.5 82q0 43 29.5 69.5t65 34.5t77.5 8q16 0 16 -16q-2 -15 -16 -15q-26 0 -49.5 -4t-47.5 -13.5t-36 -30t-6 -49.5q9 -45 45 -60.5t85 -6.5q79 14 268.5 107.5t268.5 115.5q196 56 274 -67l15 -27v-2v-1
q1 -1 1 -3z" />
    <glyph glyph-name="W_ss03" unicode="&#x1129;" horiz-adv-x="359" 
d="M32 317q9 -33 25 -106t27 -111q12 90 56 250q9 34 28 23q9 -5 40 -122q32 -120 66 -199q1 3 3.5 21.5t5.5 29.5q7 28 23 82.5t26 94t18.5 89t6 95t-17.5 84.5q-78 -119 -271 -64q-82 23 -271 115t-268 107q-47 9 -83.5 -6.5t-45.5 -60.5q-6 -29 5.5 -49.5t35.5 -30
t47.5 -13.5t49.5 -4q7 0 11.5 -4.5t4.5 -10.5q0 -16 -15 -16q-31 0 -58.5 5t-54.5 16.5t-43 34.5t-16 56q0 48 34.5 82t83.5 36q54 2 152.5 -37t217.5 -97t162 -74q222 -86 297 34l13 24q2 6 8.5 8.5t12.5 -0.5q1 -1 9 -11q29 -60 30 -134.5t-14 -132.5t-38 -140.5
t-31 -131.5q0 -2 -0.5 -10.5t-1.5 -14.5t-3.5 -13t-6.5 -11t-11 -5q-28 -3 -70 140q-34 102 -52 165q-46 -160 -50 -265q-1 -13 -8.5 -20.5t-17.5 0.5q-15 7 -42 118t-40 180q-2 15 14 17q15 2 17 -13z" />
    <glyph glyph-name="W_ss04" unicode="&#x1130;" horiz-adv-x="363" 
d="M32 317q9 -36 25.5 -108.5t26.5 -108.5q15 115 57 250q7 26 17 26q5 0 10 -3q5 -2 13 -26t17 -60l10 -36q4 -13 16.5 -54.5t25.5 -80.5t24 -63q1 7 3.5 23t4.5 27q7 29 24.5 88.5t27.5 101t18.5 94.5t2 101t-26.5 88q-4 5 -2 12t7 10q14 7 22 -6q31 -60 32.5 -135
t-13.5 -133.5t-38.5 -142t-31.5 -132.5l-2 -18q-1 -18 -5.5 -26t-14.5 -9q-29 -3 -71 140q-32 94 -51 165q-47 -164 -51 -265q-1 -13 -8 -20t-18 -1q-4 2 -9 12.5t-11 29.5t-11.5 37.5t-12 46.5t-11 46t-11 47t-8.5 39q-80 -113 -267 -58q-81 22 -269.5 115t-268.5 108
q-47 9 -83.5 -6.5t-45.5 -60.5q-6 -29 5.5 -49.5t35.5 -30t47.5 -13.5t49.5 -4q7 0 11.5 -4.5t4.5 -10.5q0 -16 -15 -16q-43 0 -78.5 8t-64.5 34.5t-29 69.5q0 48 34.5 82t83.5 36q54 2 153 -37.5t216.5 -96.5t162.5 -74q43 -17 79 -26t79 -11.5t79 15.5t60 56l13 24
q6 15 21 7q5 -2 7 -7z" />
    <glyph glyph-name="W_ss05" unicode="&#x1131;" horiz-adv-x="366" 
d="M31 285q9 -33 25 -106t27 -111q15 115 57 250q9 34 27 24q3 -2 7 -13t9 -27.5t9.5 -32l9 -31t5.5 -19.5q33 -121 66 -198q1 5 4 22t5 28q7 28 24.5 88t27.5 101.5t18 95t1.5 101t-27.5 87.5v4l-1 1q-2 5 0 10l12 29q69 128 268 88q80 -16 277 -93.5t277 -85.5
q113 -10 123 77q4 29 -9.5 48.5t-36.5 26.5t-50 10.5t-49 -0.5q-12 -2 -18 14q-1 6 3.5 11t10.5 6q171 12 181 -99q4 -48 -28 -84t-81 -42q-53 -7 -154.5 24.5t-224 79.5t-167.5 61q-38 10 -64 15.5t-64.5 8t-66 -3.5t-55 -25t-44.5 -51l-9 -20q30 -59 31 -133.5
t-14.5 -132.5t-38.5 -140.5t-31 -130.5q0 -2 -0.5 -10.5t-1.5 -14.5t-3 -13t-6.5 -11t-10.5 -4q-32 -3 -71 140q-3 9 -23 70t-29 94q-47 -190 -50 -265q0 -13 -8 -20.5t-18 0.5q-6 4 -16 32t-20.5 69.5t-19 78.5t-17 75t-9.5 43q-1 12 14 18q15 2 17 -14z" />
    <glyph glyph-name="W_ss06" unicode="&#x1132;" horiz-adv-x="363" 
d="M30 312q10 -36 26 -108.5t25 -108.5q8 64 57 250q9 33 27 23q5 -3 13.5 -28.5t16.5 -56t11 -37.5q34 -127 65 -199q1 5 4 22.5t5 28.5q7 28 24.5 88.5t27.5 101.5t18 94.5t1.5 101t-26.5 87.5q-1 1 -1 4q-3 5 0 9l12 30q68 127 267 87q82 -16 278 -93.5t277 -85.5
q49 -4 83 13.5t40 63.5q4 30 -9 49t-38.5 26.5t-48.5 9.5t-50 1q-15 -2 -17 13q-1 7 3.5 12t10.5 6q31 2 58.5 -1t55.5 -12.5t46 -31.5t21 -54q4 -48 -28.5 -84.5t-80.5 -42.5q-54 -5 -155.5 26t-223.5 79t-168 61q-37 10 -63.5 15.5t-64.5 8t-65.5 -3.5t-55 -25.5
t-44.5 -51.5l-9 -19q29 -60 30 -134t-14 -132t-38 -140.5t-31 -129.5q0 -2 -0.5 -10.5t-1.5 -14.5t-3.5 -13t-6.5 -11t-11 -5q-28 -3 -70 140q-42 130 -52 165q-46 -162 -50 -264q-1 -13 -8 -20t-18 -1q-6 3 -13 21.5t-16.5 53t-15.5 59t-16.5 69t-12.5 54.5
q-79 -113 -268 -57q-78 22 -267.5 115t-270.5 107q-47 9 -83.5 -6t-45.5 -60q-6 -29 6 -49.5t36 -30t47.5 -13.5t49.5 -4q16 0 16 -16q0 -6 -4.5 -11t-10.5 -5q-31 0 -58.5 5t-55 16.5t-43.5 35t-16 56.5q0 47 35 81.5t84 36.5q54 2 152 -37t217 -97t162 -74q223 -85 297 34
l13 23q7 15 21 8q6 -2 7 -8q1 0 3 -5z" />
    <glyph glyph-name="X_ss02" unicode="&#x1133;" horiz-adv-x="242" 
d="M274 479q-3 -36 -13.5 -61.5t-33.5 -67.5q-20 -38 -81 -128q57 -106 96 -139q16 -10 4 -22q-8 -13 -21 -4q-44 36 -99 135q-5 -7 -24 -35t-25.5 -37.5t-22 -33.5t-24 -38t-19.5 -33.5t-20 -37.5q-13 -23 -24 -63q-6 -17 -18 -13q-6 1 -10.5 6t-3.5 11q4 15 9.5 30
t13.5 32.5t14 30t17.5 32t17.5 29t20.5 31t18.5 27.5t20 29t18 26l26 37q-55 104 -84 194q-79 -115 -269 -59q-80 22 -269.5 115t-268.5 108q-47 9 -83.5 -6.5t-45.5 -60.5q-6 -29 6 -49.5t36 -30t47.5 -13.5t49.5 -4q6 0 10.5 -4.5t4.5 -10.5q0 -16 -15 -16q-43 0 -78 8
t-64 34.5t-29 69.5q0 48 34 82t84 36q54 2 152 -37t216.5 -96.5t162.5 -74.5q223 -87 297 34l13 24q8 14 21 7q11 -5 9 -14q12 -70 83 -206q103 154 112 225q0 15 15 17q15 0 17 -15z" />
    <glyph glyph-name="X_ss03" unicode="&#x1134;" horiz-adv-x="242" 
d="M273 471q-2 -25 -9.5 -48.5t-14 -36.5t-22.5 -43q-41 -72 -82 -129q63 -110 97 -139q13 -9 4 -21q-10 -14 -22 -4q-43 36 -98 134q-103 -152 -137 -214q-11 -21 -23 -63q-1 -16 -18 -14q-6 1 -10.5 6t-2.5 11q5 22 15.5 47.5t20 44.5t28 48.5t27.5 42.5t31 45t27 39
l25 37q-77 142 -93 230l-13 25q-24 38 -59.5 55.5t-80 14t-78 -11.5t-79.5 -25q-45 -17 -162.5 -74t-216.5 -96.5t-153 -37.5q-49 2 -83.5 36t-34.5 82q0 33 16 56t43 34.5t54.5 16.5t58.5 5q15 0 15 -16q0 -6 -4.5 -10.5t-10.5 -4.5q-26 0 -50 -4t-47.5 -14t-35.5 -30.5
t-6 -48.5q9 -45 45.5 -60.5t83.5 -6.5q80 14 270 107.5t268 115.5q196 56 274 -67l14 -27l1 -1q1 -1 1 -5q15 -73 84 -207q104 155 112 225q0 16 15 17q16 0 16 -16z" />
    <glyph glyph-name="X_ss04" unicode="&#x1135;" horiz-adv-x="238" 
d="M273 477q-1 -9 -2 -17t-3 -16t-3.5 -13.5t-5 -14t-5 -12.5t-6 -13.5t-6.5 -12.5t-7.5 -14.5t-7.5 -14.5q-15 -28 -81 -129q56 -103 96 -139q13 -9 4 -21q-3 -6 -10 -7.5t-12 3.5q-44 34 -98 134q-99 -139 -136 -214q-20 -39 -24 -63q-2 -6 -4 -9l-13 -24
q-78 -125 -274 -67q-80 23 -269.5 115.5t-267.5 107.5q-47 9 -84 -6.5t-46 -60.5q-6 -28 6 -48.5t35.5 -30.5t47.5 -14t50 -4q7 0 11.5 -4.5t4.5 -10.5q0 -16 -16 -16q-42 0 -77.5 8t-65 34.5t-29.5 69.5q0 48 34.5 82t84.5 36q54 2 152 -37t216.5 -96.5t162.5 -74.5
t79.5 -26t79 -11.5t79.5 15.5t59 56l13 24l1 2q8 32 28 71t33.5 61t46.5 70.5t39 57.5l26 37q-77 149 -94 234q-2 6 2.5 11t11.5 6q15 2 17 -13q11 -62 83 -208q105 159 113 226q0 16 15 17q16 0 16 -16z" />
    <glyph glyph-name="X_ss05" unicode="&#x1136;" horiz-adv-x="238" 
d="M286 492l-9 -21q-8 -54 -46 -125q-46 -79 -82 -129q63 -110 97 -138q13 -9 4 -22q-8 -14 -22 -4q-43 34 -98 135q-90 -127 -137 -215q-14 -30 -23 -63q-1 -7 -6 -11t-12 -2q-7 0 -11 5t-2 12q8 32 28 72.5t32.5 61.5t48.5 74t40 59l25 37q-75 139 -94 233q-1 7 3 12t10 5
q17 3 18 -13q13 -69 83 -208q104 156 112 223q-1 1 1 8l1 1q0 1 0.5 1t0.5 1l11 25q64 129 267 88q80 -16 276.5 -93.5t277.5 -85.5q48 -4 82.5 14t40.5 63q12 94 -145 86q-17 -2 -18 14q0 16 15 17q31 2 58 -0.5t55 -12t46 -31.5t21 -55q4 -49 -27.5 -84.5t-81.5 -41.5
q-54 -7 -155.5 24t-223 79t-168.5 61q-45 13 -81 19t-79 5.5t-77.5 -20.5t-55.5 -60z" />
    <glyph glyph-name="X_ss06" unicode="&#x1137;" horiz-adv-x="227" 
d="M285 487l-9 -22q-1 -9 -2.5 -18t-3 -16t-5 -16t-5 -13.5t-7 -14.5t-7 -13.5t-8 -16t-8.5 -15.5q-32 -57 -81 -130q58 -105 96 -138q15 -10 4 -21q-9 -14 -21 -4q-43 33 -99 135q-93 -131 -136 -215q-15 -29 -24 -63q-1 -16 -18 -14q-15 2 -13 18q6 22 16.5 47t20 44
t27.5 48t27 42.5t31 45.5t27 40l9 15q10 14 17 21q-60 109 -84 195q-79 -115 -270 -59q-78 22 -267 114.5t-270 106.5q-111 21 -129 -65q-6 -29 6 -49.5t35.5 -30.5t47 -14t49.5 -4q16 0 16 -15q0 -16 -15 -16q-31 0 -58.5 5t-54.5 16.5t-43 35t-16 56.5q0 48 34.5 82
t83.5 36q54 2 152.5 -37t217.5 -97t162 -74q220 -86 297 33l12 24q8 15 22 8q10 -4 8 -16q16 -73 84 -205q102 154 111 224q0 4 1 5l3 7l10 23q68 128 267 88q82 -16 278 -93.5t276 -85.5q114 -10 124 76q4 29 -10 49t-37 27t-49.5 10.5t-48.5 -0.5q-16 -1 -19 14
q0 17 15 18q30 2 58 -1t56 -12.5t46 -31.5t21 -54q4 -48 -28.5 -84.5t-80.5 -42.5q-54 -7 -155.5 24.5t-223 79.5t-168.5 61q-31 8 -53.5 13t-54 9.5t-56 1.5t-50 -10t-46 -25.5t-34.5 -45.5z" />
    <glyph glyph-name="Y_ss02" unicode="&#x1138;" horiz-adv-x="220" 
d="M202 503q16 -6 11 -19q-11 -25 -6.5 -169t2.5 -176q-7 -113 -42 -167l-6 -10q-77 -122 -274 -67q-78 22 -268 115t-269 107q-47 9 -83.5 -6t-46.5 -60q-6 -28 6 -48.5t35.5 -30.5t47.5 -14t50 -4q16 0 16 -15q0 -16 -16 -16q-30 0 -57.5 5t-55 16.5t-43.5 35t-16 56.5
q0 48 34.5 82t84.5 36q54 2 152 -37t217.5 -97.5t161.5 -74.5q223 -85 297 34l13 24q1 1 4 5q22 43 26 124t-1 154q-14 -6 -44.5 -34.5t-35.5 -32.5q-81 -56 -95 89q-6 59 0 134q0 7 4.5 12t10.5 5q7 0 11.5 -5t4.5 -12q0 -6 -1 -13q0 -188 23 -195q7 -3 24.5 12.5t42.5 37
t44 30.5q1 0 4.5 1.5t5.5 2.5h1q-5 110 7 174q5 16 19 11z" />
    <glyph glyph-name="Y_ss03" unicode="&#x1139;" horiz-adv-x="220" 
d="M34 438q0 -9 -1 -12q0 -188 23 -195q7 -3 24.5 12.5t42.5 37t44 30.5l10 4l1 1q-5 109 7 173q6 15 19 10q14 -5 11 -19q-11 -25 -6.5 -169t2.5 -176q-2 -36 -6.5 -64t-15.5 -63t-33.5 -58t-54.5 -30q-49 -10 -75 52q-24 57 -8.5 114t60.5 48q18 -4 41 -21q12 -12 2 -22
q-9 -12 -22 -3q-24 19 -35 15q-21 -12 -19.5 -58.5t15.5 -71.5q12 -25 30 -22.5t33 16t26 31.5q24 44 29 126t0 159q-13 -5 -43.5 -33.5t-36.5 -32.5q-22 -15 -39 -16t-27 10.5t-17.5 30.5t-10 43t-4 48.5t0.5 47.5q-77 -94 -257 -42q-78 22 -268 114.5t-269 106.5
q-29 4 -55.5 2.5t-47.5 -19t-26 -49.5q-6 -28 5.5 -48.5t35.5 -30.5t47.5 -14t49.5 -4q16 0 16 -15q0 -16 -16 -16q-30 0 -57.5 5t-55 16.5t-43.5 35t-16 56.5q0 48 34.5 82t84.5 36q54 2 152.5 -37t217 -97.5t161.5 -74.5q223 -85 297 34l13 24q4 6 8 7q2 2 6 2q7 0 12 -5
q4 -4 4 -12z" />
    <glyph glyph-name="Y_ss04" unicode="&#x1140;" horiz-adv-x="220" 
d="M35 440q0 -6 -1 -13v-24.5v-33.5t0.5 -34.5t2 -37t4 -30.5t6.5 -24.5t9 -10.5q7 -3 24.5 12.5t42.5 37t44 30.5q1 0 4.5 1.5t5.5 2.5h1q-5 110 7 174q6 15 19 10q15 -4 11 -19q-10 -28 -6 -169.5t2 -175.5q-12 -192 -110 -215q-49 -10 -75 52q-24 57 -8.5 114t60.5 48
q18 -4 41 -21q12 -10 3 -22q-10 -12 -22 -3q-24 19 -36 15q-21 -12 -19.5 -58.5t15.5 -71.5q12 -25 30 -22.5t33 16t26 31.5q16 30 24 78t7.5 98.5t-1.5 108.5q-14 -6 -45.5 -35t-35.5 -32q-100 -69 -96 169v30q1 17 1 22l-12 23q-24 38 -59.5 55.5t-79.5 14.5t-79 -11.5
t-79 -24.5q-45 -17 -163 -74.5t-216 -96.5t-152 -37q-50 2 -84.5 36t-34.5 82q0 33 16 56.5t43.5 35t55 16.5t57.5 5q7 0 11.5 -5t4.5 -11q0 -7 -5 -11.5t-11 -4.5q-26 0 -49.5 -4t-47.5 -13.5t-36 -30t-6 -49.5q9 -45 45 -60t84 -6q80 14 270 107t268 115q196 58 273 -66
l15 -28q0 -1 1 -3t1 -3q1 -1 1 -5z" />
    <glyph glyph-name="Y_ss05" unicode="&#x1141;" horiz-adv-x="220" 
d="M33 437v-13q0 -186 22 -196q6 -2 24 13t43.5 36.5t42.5 30.5q5 4 11 4q0 1 1 1q-2 121 7 174q2 5 6 8q1 3 7 7q14 7 21 -8l13 -24q76 -121 297 -34q43 16 162 74t217 97t152 37q50 -2 84 -36t34 -82q0 -33 -16 -56t-43 -34.5t-54.5 -16.5t-57.5 -5q-15 0 -15 16
q0 6 4.5 10.5t10.5 4.5q26 0 50 4t47.5 14t35.5 30.5t6 48.5q-9 45 -45.5 60.5t-83.5 6.5q-79 -15 -269 -107.5t-270 -114.5q-189 -56 -267 58q-7 -38 -2.5 -156t2.5 -156q-13 -194 -110 -214q-49 -11 -75 51q-24 59 -8 116t62 45q18 -5 39 -21q14 -10 2 -22q-10 -13 -21 -2
q-24 19 -36 15q-21 -11 -19.5 -57.5t15.5 -72.5q11 -22 29.5 -21.5t34.5 14.5t26 32q16 30 23.5 78t7 98.5t-1.5 108.5q-14 -7 -46.5 -35.5t-35.5 -31.5q-102 -74 -95 183v19q1 16 1 21q0 6 4.5 11t11.5 5q15 0 15 -16z" />
    <glyph glyph-name="Y_ss06" unicode="&#x1142;" horiz-adv-x="220" 
d="M29 435q0 -8 -1 -11q0 -188 23 -195q8 -3 25 12.5t41.5 37t43.5 30.5l11 4q-2 120 8 172l4 31q30 146 230 161q83 8 293.5 -10t288.5 -3q48 9 76.5 36t20.5 73q-5 29 -23 44t-44 15t-49.5 -5t-47.5 -14q-16 -6 -21 8q-5 16 9 21q40 16 76 21t72.5 -9.5t52.5 -54.5
q18 -45 -2.5 -89.5t-65.5 -62.5q-39 -17 -117.5 -20t-153.5 2.5t-166.5 12.5t-133.5 7q-49 -1 -83.5 -6t-77 -18t-69 -42t-35.5 -73l-3 -27l-1 -1v-4q-11 -25 -6.5 -169t2.5 -176q-12 -192 -110 -215q-49 -10 -75 52q-24 58 -8 114q15 57 61 47q18 -5 40 -21q13 -10 2 -21
q-9 -12 -22 -3q-24 19 -36 15q-21 -12 -19.5 -58.5t15.5 -71.5q12 -25 30 -22.5t34 15.5t26 31q16 30 23.5 78.5t7 99t-1.5 107.5q-14 -5 -43.5 -32.5t-37.5 -32.5q-34 -18 -53.5 -14t-29.5 39t-12 67.5t-1 72.5q-79 -95 -257 -43q-79 22 -268 114.5t-270 107.5
q-47 9 -83.5 -6t-45.5 -60q-6 -29 6 -49.5t36 -30t47.5 -13.5t49.5 -4q16 0 16 -16q0 -6 -4.5 -11t-11.5 -5q-30 0 -57.5 5t-55 16.5t-43.5 35t-16 56.5q0 48 34.5 82t84.5 36q54 2 152.5 -37t217 -97.5t161.5 -74.5q46 -16 80 -24.5t78 -11.5t79.5 15t59.5 56l13 23
q7 15 21 8q11 -5 9 -17z" />
    <glyph glyph-name="Z_ss02" unicode="&#x1143;" horiz-adv-x="356" 
d="M17 471l10 -18q7 0 38 1.5t48.5 2t49 1t52 -2.5t44 -7.5t38 -13.5t21.5 -21q27 -48 -66 -145q10 0 29.5 -0.5t28.5 -0.5q7 0 11.5 -4.5t4.5 -10.5t-4.5 -11t-11.5 -5q-13 0 -42 0.5t-45 0.5l-13 -14q-18 -21 -75.5 -95.5t-72.5 -97.5q20 2 74.5 17t120 35t73.5 22
q44 10 99 14q7 0 11.5 -5t4.5 -11q0 -16 -16 -16q-22 -2 -46.5 -6t-42 -7.5t-46 -11t-41 -11.5t-45.5 -14t-42 -13q-2 -1 -21.5 -7.5t-36.5 -10.5t-37 -6.5t-32 3.5t-12 21q0 8 12 28t33.5 48.5t40 52t41 52t27.5 34.5q-74 2 -133 -6q-17 -2 -18 13q-5 16 12 18q55 8 167 6
q3 3 14.5 15.5t16 17.5t14 16.5t14.5 18t11 16t9 17t4 14.5q3 17 -19 27t-61 12.5t-74.5 2t-75 -2.5t-45.5 -2q-12 0 -16 13l-10 20q-24 38 -59.5 55.5t-79.5 14.5t-79 -11.5t-79 -24.5q-45 -17 -163 -74.5t-216.5 -96.5t-152.5 -37q-49 2 -83.5 36t-34.5 82q0 33 16 56.5
t43 35t54.5 16t58.5 4.5q6 0 10.5 -4.5t4.5 -10.5q0 -16 -16 -16q-26 0 -49.5 -4t-47.5 -13.5t-36 -30t-6 -49.5q10 -45 46.5 -60t83.5 -6q81 14 270.5 106.5t267.5 114.5q193 56 273 -66z" />
    <glyph glyph-name="Z_ss03" unicode="&#x1144;" horiz-adv-x="349" 
d="M8 445h2q8 0 36.5 2t48.5 2.5t51 1t53.5 -2t46 -7t39.5 -13.5t23 -22q26 -47 -65 -145q10 0 29.5 -0.5t28.5 -0.5q16 0 16 -15q0 -16 -16 -16q-13 0 -42.5 0.5t-45.5 0.5l-12 -13q-21 -24 -78 -97.5t-70 -96.5q19 1 75 17t118 35t75 22q39 8 99 13q7 0 11.5 -4.5
t4.5 -10.5q0 -16 -16 -16q-22 -1 -47 -5t-41.5 -7t-46.5 -11.5t-40 -11.5t-46 -14.5t-42 -13.5q-6 -3 -17 -6.5t-27.5 -8.5t-32 -7t-30 -2t-23 6t-8.5 18q0 25 153 215q-73 1 -134 -6q-14 0 -18 13q-2 17 13 18q55 8 167 6q3 3 14.5 15.5t16 17.5t14 16.5t14.5 18t11 16
t9 17t4 14.5q8 54 -261 38l-3 -17q-16 -80 -77 -115.5t-153 -45.5q-83 -7 -293 10t-289 3q-48 -9 -76.5 -35.5t-20.5 -73.5q5 -28 23 -42.5t44 -15t49.5 4t47.5 13.5q14 5 21 -8q5 -17 -9 -21q-22 -9 -43.5 -14t-46.5 -6.5t-45 3.5t-38 20t-28 40q-18 44 2.5 89t65.5 63
q39 17 117.5 19.5t154 -3.5t165 -12t134.5 -5q47 0 83.5 4.5t77.5 18t67.5 42.5t35.5 73l4 27q0 7 5 11t11 3z" />
    <glyph glyph-name="Z_ss04" unicode="&#x1145;" horiz-adv-x="356" 
d="M17 454q12 0 53 2t74 2t72 -2.5t65.5 -13t36.5 -28.5q27 -48 -66 -145q10 0 30 -0.5t29 -0.5q6 0 10.5 -4.5t4.5 -11.5q0 -5 -4.5 -10t-10.5 -5q-13 0 -42.5 0.5t-45.5 0.5l-13 -14q-16 -16 -75 -92.5t-72 -100.5q24 2 138 36t129 37q44 11 99 15q15 0 15 -16t-15 -16
q-22 -2 -46.5 -6t-42 -7.5t-46 -11t-41 -11.5t-45.5 -14t-42 -13q-138 -51 -138 0q0 8 12 28t33.5 48.5t39.5 51.5t41.5 52t27.5 35q-75 2 -134 -6q-15 -2 -19 13q-1 16 12 18q57 8 168 6q3 3 14.5 15.5t16 17.5t14 16.5t14.5 18t11 16t9 17t4 14.5q3 14 -11 23t-42 13
t-55 5.5t-64 0.5t-55 -2t-41 -3l-11 -20q-77 -122 -273 -66q-80 23 -270 115t-268 107q-48 9 -84.5 -6t-45.5 -60q-6 -29 6 -49.5t36 -30t47.5 -13.5t49.5 -4q15 0 16 -16q0 -16 -16 -16q-31 0 -58.5 5t-54.5 16.5t-43 35t-16 56.5q0 47 34.5 81.5t83.5 36.5q55 2 153.5 -37
t216.5 -96.5t163 -74.5q43 -17 79 -26t79 -11.5t79 15.5t60 56l12 23q5 9 12 9z" />
    <glyph glyph-name="a_ss02" unicode="&#x1146;" horiz-adv-x="274" 
d="M157 275q-71 -6 -109 -65q-28 -44 -14 -70q6 -11 20 -12q17 -1 38 30t39.5 62.5t29.5 31.5q6 0 10 -3t5 -8.5t1 -10t-0.5 -11.5t-0.5 -9q0 -1 -0.5 -27t-0.5 -43t2 -39t6 -31q13 11 30 55t20 65q0 36 44 42.5t98.5 -6.5t104.5 -19t62 5q41 51 137 76.5t202 24.5t205 -16
t155 -39q9 -4 9.5 -12t-6.5 -13.5t-15 -1.5q-74 33 -210 47.5t-270.5 -5t-181.5 -77.5q-18 -21 -67 -20t-96 13.5t-90 16t-49 -13.5q2 -28 -23 -84.5t-48 -67.5q-18 -10 -29.5 0.5t-15.5 33.5t-5.5 51t0.5 54q-58 -93 -99 -81q-50 12 -47 65q4 55 56 101q45 38 103 43
q16 0 16 -16t-16 -16zM1265 226q4 15 23.5 10.5t19.5 -17.5q0 -18 -22 -15q-20 3 -22 16q0 3 1 6z" />
    <glyph glyph-name="a_ss03" unicode="&#x1147;" horiz-adv-x="274" 
d="M1238 211q9 -4 9.5 -12.5t-6.5 -14t-16 -1.5q-126 60 -335 58t-328 -65q24 -32 20 -82q-3 -30 -24 -53t-47 -30q-58 -14 -55 40q2 50 42 107q8 12 16 20q-43 27 -122 28.5t-126 -22.5q-7 -39 -27.5 -83.5t-43.5 -57.5q-17 -9 -28.5 2t-15.5 34t-5.5 51t0.5 54
q-26 -42 -49.5 -64.5t-50.5 -17.5q-49 12 -46 65q4 56 56 101q44 38 103 43q16 0 16 -16t-16 -16q-72 -5 -110 -66q-26 -42 -13 -69q6 -11 19 -12t29.5 18.5t29 43.5t26.5 43.5t23 18.5q6 0 9.5 -3t5 -9t2 -10t0 -11.5t-0.5 -8.5q0 -123 5 -140q15 12 27.5 43.5t19.5 59
t8 28.5q58 35 156 31.5t144 -37.5q70 48 208.5 65t276 1.5t214.5 -54.5zM485 54q-2 -18 15 -14q25 6 42 36q23 41 -6 81q-19 -21 -34 -51t-17 -52z" />
    <glyph glyph-name="b_ss02" unicode="&#x1148;" horiz-adv-x="198" 
d="M1164 267q8 -4 8.5 -12t-6 -13.5t-14.5 -1.5q-75 32 -210 46.5t-270.5 -4t-182.5 -77.5q-18 -22 -67.5 -20.5t-97 14t-90 15.5t-46.5 -15q9 -25 -11 -47t-48 -36q7 -46 -8.5 -90t-47.5 -46q-52 -3 -71 106q-19 114 7 234q24 113 70 116q5 1 11 -1q41 -11 46 -49.5
t-17 -86t-45.5 -84.5t-43.5 -61q0 -14 1.5 -35t5.5 -48.5t13.5 -44.5t21.5 -14q11 2 19 32t8 62q-40 -5 -41 27q-1 27 20 44q24 20 41 -17q2 -5 4 -11q38 18 34 40q-10 49 52 53q35 2 155 -19q88 -16 100 -2q42 52 138 77.5t202 24.5t205 -16.5t155 -39.5zM94 139zM81 405
q-14 4 -25 -21.5t-16 -63.5t-7 -66.5t-2 -42.5q117 176 50 194zM1187 235q4 14 23.5 10t19.5 -17q0 -17 -21 -15q-21 3 -22 17q-1 3 0 5z" />
    <glyph glyph-name="b_ss03" unicode="&#x1149;" horiz-adv-x="198" 
d="M1161 207q9 -4 9.5 -12.5t-6.5 -14t-16 -1.5q-125 60 -334 58t-328 -66q32 -42 16.5 -96t-68.5 -68q-57 -16 -55 37q1 50 41 108l17 22q-42 29 -122 30t-126 -24q-4 -39 -60 -68q7 -46 -8.5 -90t-47.5 -46q-34 -1 -55 46t-24 115.5t4 136.5t28.5 115t50.5 46
q49 -3 57.5 -40.5t-14.5 -88.5t-47 -91.5t-43 -63.5q0 -43 9.5 -95.5t32.5 -47.5q11 2 19 32.5t8 62.5q-23 -4 -34 9.5t-6.5 32.5t19.5 29q31 18 45 -28q30 13 34 32q4 37 68.5 48.5t136.5 0t101 -32.5q72 49 210 65.5t273.5 1t214.5 -53.5zM94 136zM91 397q-18 12 -31 -10
t-18.5 -63t-7.5 -70t-2 -48q14 20 26 40.5t23.5 44.5t17.5 44t4.5 37t-12.5 25zM409 50q-2 -18 16 -14q24 6 41 36q22 41 -6 80q-19 -20 -34 -50t-17 -52z" />
    <glyph glyph-name="c_ss02" unicode="&#x1150;" horiz-adv-x="209" 
d="M107 225q15 15 21.5 34t-5.5 37q-20 20 -53 -33q-37 -60 -38 -119q-2 -56 41 -54q3 1 6 1q18 2 31.5 9.5t23.5 22.5t15 24.5t13.5 31t10.5 26.5q18 30 52.5 38.5t71.5 0.5t76.5 -16t66 -13t41.5 10q41 51 137.5 76.5t202.5 24.5t205 -16t155 -39q8 -4 8.5 -12t-6.5 -13.5
t-15 -1.5q-76 32 -210.5 46.5t-269.5 -4.5t-182 -77q-18 -22 -50 -24t-67 7.5t-69.5 18.5t-67 5.5t-51.5 -26.5q-4 -8 -15.5 -33.5t-19 -38t-21.5 -29.5t-32.5 -24t-42.5 -6q-42 1 -59 32.5t-10 73t25.5 82.5t41.5 64q37 35 71 14q31 -19 23 -62q-5 -32 -35 -62
q-12 -10 -21.5 2t1.5 22zM1204 239q4 13 23 9.5t19 -16.5q0 -18 -21 -15q-18 2 -22 15z" />
    <glyph glyph-name="c_ss03" unicode="&#x1151;" horiz-adv-x="209" 
d="M1176 224q9 -4 10 -13t-6 -14.5t-16 -1.5q-126 60 -335 58t-327 -65q23 -31 19 -82q-4 -31 -23.5 -53t-45.5 -29q-58 -18 -57 36q1 49 40 107l18 23q-45 29 -125 30t-129 -26q-9 -26 -17.5 -43t-24 -39.5t-37.5 -34.5t-50 -12q-42 1 -59 33t-10 73.5t25.5 83t41.5 62.5
q38 36 71 14q30 -19 22 -63q-6 -31 -34 -60q-8 -7 -16 -3t-9.5 12t5.5 15q15 15 21.5 33t-5.5 38q-19 20 -51 -31q-38 -59 -41 -119q-4 -58 41 -56q3 1 6 1q17 2 30.5 9.5t24 23t15 23.5t13.5 31.5t11 27.5q32 42 145.5 36.5t160.5 -38.5q70 47 206 64t273.5 2.5
t218.5 -53.5zM424 66q-2 -18 15 -14q25 6 42 36q24 42 -5 81q-20 -20 -35 -49.5t-17 -53.5z" />
    <glyph glyph-name="d_ss02" unicode="&#x1152;" horiz-adv-x="277" 
d="M1248 272q9 -4 9 -12t-6.5 -13.5t-15.5 -1.5q-76 32 -210 46.5t-269 -4t-182 -77.5q-18 -21 -52 -23t-71.5 7.5t-74 18.5t-66.5 5t-42 -27l-6 -24t-9.5 -35.5t-11.5 -38.5t-15 -39.5t-18 -31t-21.5 -20t-24.5 -0.5q-33 13 -33 109q-75 -68 -111 -20q-28 37 -15 108
q13 73 58 95q35 17 79 -11q1 4 2.5 20.5t3.5 30t5 32.5t7 33.5t9 28.5t11.5 22t14.5 9q56 10 22 -138q-20 -86 -54 -174q0 -1 -0.5 -18t0 -28t1.5 -27.5t3.5 -27t7.5 -15.5q10 -4 24.5 35t27 86.5t15.5 52.5q16 30 50.5 39.5t71.5 1.5t77 -16.5t67.5 -13.5t41.5 10
q42 52 138 77.5t202 24.5t205 -16.5t155 -39.5zM198 419q-14 -30 -24 -127q26 89 24 127zM129 156q1 15 3 45.5t4 45.5q-47 47 -81 -2q-27 -40 -24 -94q3 -47 32 -45q26 2 66 50zM1271 240q4 14 23.5 10t19.5 -17q0 -17 -21 -15q-21 3 -22 17q-1 3 0 5z" />
    <glyph glyph-name="d_ss03" unicode="&#x1153;" horiz-adv-x="277" 
d="M1243 210q9 -4 9 -12.5t-6.5 -14.5t-15.5 -2q-126 60 -335 58t-327 -65q25 -33 19 -82q-4 -34 -29 -58t-54 -26q-51 -4 -43 49q6 51 46 106l12 14q-44 28 -123 29t-127 -24q-1 -4 -9.5 -36t-16 -55.5t-20 -52t-28.5 -40.5t-33 -5q-33 15 -33 109q-75 -67 -111 -20
q-28 37 -14 108q14 73 58 95q36 17 79 -10q1 5 2.5 21t3.5 29.5t5 32.5t6.5 33.5t8.5 28.5t11.5 22t14.5 9q55 10 24 -132q-21 -97 -56 -180q0 -103 13 -116q6 -3 14.5 13.5t17 43t16 54t13.5 48t9 22.5q46 37 149.5 33t150.5 -40q72 49 210 65.5t274 1t215 -53.5zM198 411
q-12 -26 -23 -127q27 94 23 127zM130 148q2 53 7 91q-47 47 -81 -3q-28 -39 -24 -93q2 -48 31 -46q27 2 67 51zM491 52q-2 -18 15 -14q24 6 41 36q24 42 -5 81q-20 -20 -34.5 -49.5t-16.5 -53.5z" />
    <glyph glyph-name="e_ss02" unicode="&#x1154;" horiz-adv-x="222" 
d="M1216 239q4 15 23.5 10.5t19.5 -17.5q0 -17 -21 -15q-21 3 -22 17q-1 3 0 5zM1193 271q9 -4 9 -12t-6.5 -13.5t-15.5 -1.5q-75 32 -209.5 46.5t-270 -4t-182.5 -77.5q-20 -24 -70 -21.5t-97 16.5t-89 15t-46 -25q-20 -66 -83 -102q-61 -34 -101 -10q-32 20 -32 72
q2 79 53 100q38 15 69 -11q15 -13 19 -34q7 -34 -21 -47.5t-64 -13.5q-16 0 -16 16t16 16q7 0 15.5 1t22.5 4t15.5 9.5t-5.5 17.5q-20 22 -40.5 13t-26.5 -39q-17 -75 27 -82q38 -5 82 37q29 27 39 60q7 32 38 42t70.5 2.5t82 -15.5t73.5 -13.5t44 8.5q56 67 199.5 89
t282.5 6.5t218 -49.5z" />
    <glyph glyph-name="e_ss03" unicode="&#x1155;" horiz-adv-x="222" 
d="M1187 221q15 -7 8 -21q-7 -15 -21 -8q-125 60 -334 58.5t-327 -65.5q23 -31 19 -82q-4 -36 -32 -60t-57 -24q-57 0 -33 75q18 55 51 91l2 2q-36 24 -139.5 27.5t-107.5 -21.5q-20 -66 -83 -102q-60 -34 -101 -9q-32 19 -32 71q1 61 33 87t66 14t42 -47q7 -33 -21 -46.5
t-64 -13.5q-16 0 -16 16t16 16q7 0 15.5 1t22.5 4t15.5 9.5t-5.5 17.5q-20 22 -40.5 13t-26.5 -39q-17 -75 27 -81q37 -6 80 35q28 26 39 56q2 38 67 48.5t137.5 -2t101.5 -33.5q71 47 206.5 64.5t272.5 3t219 -54.5zM435 63q-2 -18 15 -14q24 6 41 36q24 42 -5 81
q-19 -21 -34 -50.5t-17 -52.5z" />
    <glyph glyph-name="f_ss02" unicode="&#x1156;" horiz-adv-x="161" 
d="M1130 277q-57 25 -155.5 40t-204 16t-201.5 -25t-139 -77q-13 -14 -45.5 -8t-77 14t-84.5 15t-69 -4.5t-30 -45.5q-2 -26 -8.5 -29.5t-24 5.5t-30.5 9q-17 -1 -20.5 -19.5t5.5 -48.5t14.5 -44t11.5 -29q13 -34 2 -88q-7 -29 -15 -26q-2 0 -5 5q-14 24 -19 116.5t-1 169.5
q36 6 60.5 46.5t24.5 78.5q0 34 -17.5 55t-45.5 6q-33 -17 -47.5 -133t-5 -233t37.5 -136q24 -16 42 0.5t22 44.5q5 38 0.5 73t-18 78t-14.5 49q44 -16 61.5 -6.5t21.5 56.5q0 20 25 23t63.5 -5.5t79.5 -17.5t78.5 -7.5t53.5 20.5q47 59 182 78t269.5 4t209.5 -47
q9 -4 15.5 1.5t6.5 13.5t-9 12zM53 347q12 37 24 35q14 -3 11 -39q-4 -57 -50 -85q7 67 15 89zM1153 245q-3 -15 17 -21q21 -6 25 10q1 2 1 4q0 13 -19.5 17.5t-23.5 -10.5z" />
    <glyph glyph-name="f_ss03" unicode="&#x1157;" horiz-adv-x="161" 
d="M1128 223q-80 41 -218.5 56t-274.5 -3t-205 -64q-31 22 -95.5 33.5t-128 0t-82.5 -46.5q-2 -26 -9 -29.5t-24 5.5t-30 9q-42 0 12 -140q10 -38 -2 -93q-5 -24 -12 -23q-2 0 -5 5q-15 25 -19.5 124t0.5 163q36 6 60 46.5t24 79.5q0 32 -17.5 53.5t-45.5 6.5
q-32 -17 -47.5 -133.5t-6.5 -233.5t38 -136q24 -16 42 0.5t22 44.5q7 24 2.5 60.5t-9 54.5t-13.5 47t-11 39q43 -15 60.5 -6.5t21.5 53.5q47 25 126 24t123 -29q-37 -37 -53 -99q-16 -66 20 -73q17 -3 45 10q52 29 56 77q6 49 -19 82q118 64 327 66.5t334 -58.5q9 -5 16 0
t7 14t-9 13zM53 344q12 38 24 35q14 -3 11 -38q-4 -58 -51 -85q6 62 16 88zM375 67q3 22 18 52t33 50q35 -47 -1 -91q-21 -25 -40 -24q-11 0 -10 13z" />
    <glyph glyph-name="g_ss02" unicode="&#x1158;" horiz-adv-x="263" 
d="M1256 240q4 14 23.5 10t19.5 -17q0 -17 -21 -15q-21 3 -22 17q-1 3 0 5zM1234 272q13 -7 6.5 -20t-19.5 -7q-76 32 -210.5 46.5t-270 -4t-182.5 -77.5q-16 -19 -52 -21t-75.5 7t-78 17.5t-65.5 6t-31 -22.5q-10 -85 -55 -126q4 -75 -28 -139.5t-97 -93.5
q-35 -14 -46.5 17t-1.5 67q10 37 34 69.5t44 48.5t62 46q-4 49 -24 94q-16 -26 -45 -50t-53 -24q-42 0 -46 50q-4 53 32 102q43 60 99 37q5 -2 10 -5q8 -5 7 -14t-8 -12.5t-15 0.5q-39 20 -71 -32q-27 -42 -22 -76t43 -4q10 7 20 17q8 6 12.5 12t6 8.5t5 10.5t4.5 11
q-6 4 -11 1q-15 -6 -21.5 7.5t7.5 21.5q39 14 62.5 -26t34.5 -101q5 7 9.5 14.5t7.5 18.5t4.5 16t4.5 19.5t4 17.5q4 32 34.5 42.5t70.5 3.5t84 -15t75 -13.5t44 8.5q43 51 139 77t201.5 25t204 -16t156.5 -40zM63 -133q52 23 78 71t28 110q-79 -55 -105 -118
q-2 -7 -4 -14.5t-4.5 -22t-1 -22t8.5 -4.5z" />
    <glyph glyph-name="g_ss03" unicode="&#x1159;" horiz-adv-x="263" 
d="M1229 221q8 -5 8.5 -12.5t-6.5 -13.5t-16 -2q-125 60 -334 58t-328 -66q26 -31 20 -82q-4 -35 -31.5 -59.5t-55.5 -24.5q-57 -2 -35 73q16 55 50 93l3 3q-42 28 -122 29t-127 -24q-14 -84 -54 -120q2 -77 -29 -141t-96 -92q-35 -14 -46.5 17t-1.5 67q10 37 34 69.5
t44 48.5t62 46q-5 55 -25 93q-12 -24 -43 -48.5t-54 -24.5q-42 0 -46 50q-4 53 32 102q43 60 99 37q5 -2 10 -5q8 -5 7 -14t-8 -12.5t-15 0.5q-40 21 -73 -33q-26 -44 -20 -77q7 -34 49 1q7 6 14 13q16 17 28 42q-7 4 -11 1q-9 -4 -16 2t-7 14.5t9 12.5q39 16 62.5 -24.5
t34.5 -102.5q7 11 14.5 36t13 44t6.5 20q48 37 150.5 32.5t150.5 -38.5q70 47 206.5 64.5t274 2.5t218.5 -55zM63 -131q51 23 77.5 71.5t28.5 109.5q-80 -53 -105 -118q-11 -30 -9 -54q1 -12 8 -9zM476 64q-2 -18 16 -14q24 6 41 37q22 41 -6 79q-19 -20 -34 -50t-17 -52z
" />
    <glyph glyph-name="h_ss02" unicode="&#x1160;" horiz-adv-x="205" 
d="M1197 229q4 15 23.5 11t19.5 -17q0 -12 -12 -14.5t-22.5 4t-8.5 16.5zM1174 262q9 -4 9 -12t-6.5 -13.5t-15.5 -1.5q-75 32 -209.5 46.5t-270 -4t-182.5 -77.5q-18 -23 -68.5 -21t-98.5 15t-89.5 15.5t-43.5 -18.5q-18 -113 -52 -123q-17 -6 -26 5t-12 32t-3.5 43
t-1.5 42.5t-5 26.5q-20 -7 -61 -65l-6 -125q0 -16 -16 -16t-16 16q9 274 33 364q10 37 37.5 37t33.5 -33q10 -43 -1 -78.5t-31.5 -64t-23.5 -36.5q51 56 78 20q11 -18 12.5 -73t2.5 -61q16 23 27 94q5 35 49.5 41t96.5 -7.5t99.5 -19.5t60.5 6q42 52 138 77.5t202 24.5
t205 -16.5t155 -39.5zM70 396q-4 -2 -9 -28t-8.5 -57t-4.5 -34q18 25 26.5 58t-4.5 61z" />
    <glyph glyph-name="h_ss03" unicode="&#x1161;" horiz-adv-x="205" 
d="M1168 206q9 -4 9 -13.5t-7 -15t-15 -0.5q-125 60 -334.5 58t-327.5 -65q36 -48 12 -106t-82 -64q-41 -3 -36 51q5 55 44 106q7 9 13 15q-43 29 -130.5 29.5t-118.5 -23.5q-16 -107 -51 -119q-17 -6 -26.5 5t-11.5 32.5t-2.5 43.5t-1.5 43t-5 27q-11 -3 -31.5 -26.5
t-30.5 -40.5q-5 -93 -5 -125q0 -15 -16 -15t-16 15q9 275 33 365q5 24 20.5 33t30.5 0t19 -30q10 -32 3.5 -60t-14.5 -41t-23 -35t-22 -41q51 55 78 18q12 -18 13 -73.5t2 -60.5q9 14 19 59t12 47q46 37 149.5 33t150.5 -39q71 48 209 64.5t274.5 1.5t215.5 -53zM67 387
q-6 -1 -13.5 -51.5t-7.5 -66.5q17 25 25.5 57t-4.5 61zM415 48q-2 -17 16 -13q25 6 42 36q22 40 -7 79q-19 -20 -34 -50t-17 -52z" />
    <glyph glyph-name="i_ss02" unicode="&#x1162;" horiz-adv-x="160" 
d="M41 224q-16 -116 3 -135q26 3 83 111q13 31 46 40.5t71 1.5t79 -17t69 -13.5t42 10.5q54 67 198.5 89t284.5 6t217 -50q9 -4 9.5 -12t-6 -13.5t-15.5 -1.5q-76 32 -210.5 46.5t-269.5 -4t-182 -77.5q-16 -21 -50.5 -23t-72.5 7.5t-75 18.5t-66.5 6t-39.5 -26
q-56 -111 -99 -128q-17 -7 -28.5 0t-16 24.5t-7 36t-1 43.5t2.5 37.5t3 25.5q1 10 9.5 13t15.5 -2t6 -14zM1157 235q4 15 23.5 10.5t19.5 -17.5q0 -17 -21 -14q-21 2 -22 16q-1 3 0 5zM28 266q-18 0 -16 22q2 20 17 23q3 1 6 0q15 -4 10.5 -24.5t-17.5 -20.5z" />
    <glyph glyph-name="i_ss03" unicode="&#x1163;" horiz-adv-x="160" 
d="M22 266q-18 0 -16 21t16 24q4 1 8 0q16 -4 10.5 -24.5t-18.5 -20.5zM1122 210q9 -4 9.5 -12.5t-6.5 -14t-16 -1.5q-126 60 -335 58t-327 -65q17 -23 19 -54t-8.5 -56.5t-33.5 -42.5t-51 -14q-36 6 -33.5 40.5t21 72t37.5 56.5q-43 29 -122.5 29.5t-128.5 -24.5
q-47 -102 -95 -122q-17 -7 -29 0t-16.5 25t-7 36t-1 43.5t2.5 37.5t3 26q1 9 10 12t16 -2t6 -14q-15 -118 2 -135q15 1 33 27t33 55.5t20 33.5q46 38 149.5 32t150.5 -40q72 48 209.5 65.5t273.5 2.5t215 -55zM370 53q-2 -17 16 -12q24 6 41 36q22 40 -6 78q-19 -20 -34 -50
t-17 -52z" />
    </font>
</defs>
</svg>
