<svg id="behance-icon" viewBox="0 0 512 512"><path d="M457.2 145.1H331.9V114h125.3v31.1zM248.6 272.7c8.1 12.5 12.1 27.7 12.1 45.6 0 18.5-4.6 35-13.8 49.6-5.9 9.7-13.2 17.8-22 24.4-9.9 7.6-21.7 12.8-35.1 15.6-13.5 2.8-28.2 4.2-43.9 4.2H5.7v-311H156c37.9.6 64.7 11.6 80.6 33.1 9.5 13.2 14.2 29.1 14.2 47.5 0 19-4.8 34.2-14.4 45.8-5.3 6.5-13.2 12.4-23.7 17.7 15.8 5.9 27.8 15 35.9 27.5zM77.4 223.8h65.8c13.5 0 24.5-2.6 32.9-7.7 8.4-5.1 12.6-14.2 12.6-27.3 0-14.5-5.6-24.1-16.7-28.7-9.6-3.2-21.8-4.9-36.7-4.9H77.4v68.6zm117.7 90.1c0-16.2-6.6-27.3-19.8-33.3-7.4-3.4-17.8-5.2-31.1-5.3H77.4v82.9h65.8c13.5 0 24-1.8 31.5-5.5 13.6-6.7 20.4-19.7 20.4-38.8zm308.6-50.6c1.5 10.2 2.2 24.9 1.9 44.2H343.4c.9 22.4 8.6 38.1 23.3 47 8.8 5.6 19.6 8.4 32.1 8.4 13.2 0 24-3.4 32.3-10.2 4.5-3.7 8.5-8.8 12-15.3h59.5c-1.6 13.2-8.7 26.6-21.6 40.3-19.9 21.6-47.9 32.5-83.8 32.5-29.6 0-55.8-9.2-78.5-27.4-22.6-18.3-34-48-34-89.3 0-38.7 10.2-68.2 30.7-88.8 20.5-20.6 47.1-30.9 79.7-30.9 19.4 0 36.8 3.4 52.4 10.4 15.5 7 28.3 17.9 38.5 33 9.1 13.2 15 28.6 17.7 46.1zm-58.5 5.8c-1.1-15.5-6.3-27.2-15.6-35.2-9.2-8-20.7-12.1-34.5-12.1-15 0-26.5 4.3-34.7 12.8-8.3 8.4-13.4 19.9-15.5 34.5h100.3zm0 0"/></svg>