<svg id="behance-icon" viewBox="0 0 16.0960903 10.0155087">
<path d="M14.5362482,1.4173411h-4.0336151V0.4155848h4.0336151V1.4173411z M7.8184047,5.5251737
	c0.2602191,0.4035225,0.3903289,0.8924346,0.3903289,1.4669738c0,0.5948834-0.1468792,1.1273899-0.4453239,1.5981951
	C7.5738363,8.9019823,7.3379803,9.1648817,7.0551863,9.377037c-0.318789,0.2454624-0.6970487,0.4131289-1.1309724,0.5030003
	c-0.4348102,0.0900898-0.9065089,0.1354713-1.4137592,0.1354713H0V0h4.837069
	c1.219049,0.0201192,2.083539,0.3728904,2.5934706,1.0670327c0.306488,0.4254227,0.4585042,0.9353541,0.4585042,1.5291189
	c0,0.6123147-0.1535783,1.1021271-0.4627547,1.4741237c-0.172142,0.2088056-0.4263234,0.3990474-0.7632189,0.5702891
	C7.1730018,4.8274565,7.5597553,5.1207638,7.8184047,5.5251737L7.8184047,5.5251737z M2.3097756,3.9488847h2.1193087
	c0.4359293,0,0.7877998-0.0829396,1.0585322-0.248812c0.2716188-0.1649921,0.405972-0.458518,0.405972-0.8803725
	c0-0.4663296-0.1790671-0.7752876-0.5378761-0.9239539C5.04743,1.7929127,4.6526332,1.738593,4.1742277,1.738593H2.3097756
	V3.9488847z M6.0979185,6.8490753c0-0.5204449-0.2121553-0.8794718-0.6364594-1.072402
	c-0.2376366-0.1099901-0.5729699-0.1658792-1.001749-0.1703477H2.3097756v2.669704h2.1168458
	c0.4339232,0,0.7710443-0.0567827,1.0138249-0.1757174C5.8788319,7.8821259,6.0979185,7.4663091,6.0979185,6.8490753
	L6.0979185,6.8490753z M16.0322819,5.2204657c0.0489578,0.3272901,0.0706425,0.8023453,0.061924,1.4242797h-5.2229252
	c0.0288382,0.7202926,0.2776499,1.22508,0.7491331,1.5132432c0.2848034,0.1808538,0.6297531,0.2698317,1.0339413,0.2698317
	c0.4263268,0,0.7737284-0.1081963,1.0410976-0.3290701c0.1457596-0.118041,0.2740784-0.2839203,0.3858566-0.4927187h1.9143057
	c-0.0507441,0.4263163-0.2812319,0.8575583-0.6952543,1.2968445c-0.6418276,0.6968231-1.5420847,1.0471315-2.6983166,1.0471315
	c-0.9543571,0-1.7962656-0.2950945-2.5272894-0.8828154C9.3466234,8.4776716,8.9815645,7.5206289,8.9815645,6.1931586
	c0-1.2443118,0.3284025-2.197104,0.9867678-2.8599453c0.6610603-0.6644104,1.5150414-0.9945927,2.5664234-0.9945927
	c0.6234961,0,1.1859598,0.1108773,1.6871729,0.3353333c0.5003185,0.2244422,0.91255,0.5772135,1.2382736,1.0618818
	C15.7546215,4.1637211,15.9439735,4.6571083,16.0322819,5.2204657L16.0322819,5.2204657z M14.1477079,5.4073648
	c-0.0348759-0.4987564-0.2016459-0.8758974-0.5012131-1.1345468c-0.2968788-0.2584319-0.6679811-0.3885412-1.1117392-0.3885412
	c-0.4819908,0-0.8539801,0.1388283-1.1186714,0.4122353c-0.2662535,0.2716188-0.4321327,0.6418281-0.5003223,1.1108527H14.1477079z
	 M14.1477079,5.4073648"/>
</svg>
