<svg id="creative-market-icon" viewBox="0 0 16.2879791 16.0960903">
<path d="M16.2815094,7.3483491l-0.5777159-5.7861352c-0.0633249-0.6344424-0.575058-1.1306875-1.2111044-1.1745385
	L8.914629,0.0030968c-0.3710613-0.0255683-0.7354784,0.1080925-1.0019755,0.367533L0.3954794,7.6883435
	c-0.5223632,0.5085244-0.5279993,1.3460021-0.0125092,1.8614459l6.1633368,6.1633368
	c0.5057755,0.5057764,1.3240991,0.5112734,1.8366113,0.0123262l7.5095673-7.3103828
	C16.1778603,8.1373472,16.3210526,7.744658,16.2815094,7.3483491z M11.973341,9.2332106l-0.9413996,1.5948124L9.1910686,9.5622997
	C9.0696421,9.4788132,8.9055099,9.5725183,8.9156828,9.7195129l0.1542339,2.2287035H7.2179556L7.37219,9.719512
	c0.0101724-0.1469946-0.1539598-0.2407455-0.2753859-0.1572132L5.2559319,10.828022L4.3145332,9.2332106l2.0528874-1.0277271
	c0.1296744-0.064929,0.1296744-0.2499552,0-0.3148837L4.3145332,6.8629184l0.9413991-1.5948119l1.8408728,1.2657228
	C7.2182312,6.6173158,7.3823633,6.5236106,7.372191,6.376616L7.2179565,4.147912h1.8519611L8.9156837,6.376616
	C8.9055109,6.5236106,9.069643,6.6173611,9.1910696,6.5338292l1.8408718-1.2657232l0.9414005,1.5948114l-2.3673601,1.185123
	L11.973341,9.2332106z M13.1837578,3.9246705c-0.5040808,0-0.9126692-0.4086347-0.9126692-0.9126694
	s0.4086342-0.9126694,0.9126692-0.9126694c0.5040808,0,0.9126692,0.4086347,0.9126692,0.9126694
	S13.6877928,3.9246705,13.1837578,3.9246705z"/>
</svg>
