<svg id="creative-market-icon" viewBox="0 0 512 512"><path d="M505.6 235.1L487.9 57.5c-1.9-19.5-17.7-34.7-37.2-36L279.5 9.7c-11.4-.8-22.6 3.3-30.8 11.3L18 245.6c-16 15.6-16.2 41.3-.4 57.1l189.2 189.2c15.5 15.5 40.6 15.7 56.4.4l230.5-224.4c8.7-8.5 13.1-20.6 11.9-32.8zM373.4 293l-28.9 49-56.5-38.9c-3.7-2.6-8.8.3-8.5 4.8l4.7 68.4h-56.9l4.7-68.4c.3-4.5-4.7-7.4-8.5-4.8L167 342l-28.9-49 63-31.5c4-2 4-7.7 0-9.7l-63-31.5 28.9-49 56.5 38.9c3.7 2.6 8.8-.3 8.5-4.8l-4.7-68.4h56.9l-4.7 68.4c-.3 4.5 4.7 7.4 8.5 4.8l56.5-38.9 28.9 49-72.7 36.4 72.7 36.3zm37.1-163c-15.5 0-28-12.5-28-28s12.5-28 28-28 28 12.5 28 28-12.5 28-28 28z"/></svg>