<svg id="instagram-icon" viewBox="0 0 16.0960903 16.0960903">
		<path d="M11.066062,0H5.0300283C2.2524467,0,0,2.2524467,0,5.0300283v6.0360336
			c0,2.7775812,2.2524467,5.0300283,5.0300283,5.0300283h6.0360336c2.7775812,0,5.0300283-2.2524471,5.0300283-5.0300283V5.0300283
			C16.0960903,2.2524467,13.8436432,0,11.066062,0z M14.5870819,11.066062c0,1.9415913-1.5794287,3.5210199-3.5210199,3.5210199
			H5.0300283c-1.9415908,0-3.5210199-1.5794287-3.5210199-3.5210199V5.0300283c0-1.9415908,1.5794291-3.5210199,3.5210199-3.5210199
			h6.0360336c1.9415913,0,3.5210199,1.5794291,3.5210199,3.5210199V11.066062z"/>
		<path d="M8.0480452,4.0240226c-2.2222667,0-4.0240226,1.8017559-4.0240226,4.0240226s1.8017559,4.0240221,4.0240226,4.0240221
			s4.0240221-1.8017559,4.0240221-4.0240221S10.2703114,4.0240226,8.0480452,4.0240226z M8.0480452,10.5630589
			c-1.3862762,0-2.5150142-1.1287374-2.5150142-2.5150137c0-1.3872814,1.1287379-2.5150142,2.5150142-2.5150142
			s2.5150137,1.1277328,2.5150137,2.5150142C10.5630589,9.4343214,9.4343214,10.5630589,8.0480452,10.5630589z"/>
		<circle cx="12.3738699" cy="3.7222209" r="0.5362009"/>
</svg>
