<svg id="instagram-icon" viewBox="0 0 512 512"><path d="M350 6.1H162.5C76.2 6.1 6.2 76.1 6.2 162.3v187.5c0 86.3 70 156.3 156.3 156.3H350c86.3 0 156.3-70 156.3-156.3V162.3C506.2 76.1 436.2 6.1 350 6.1zm109.3 343.7c0 60.3-49.1 109.4-109.4 109.4H162.5c-60.3 0-109.4-49.1-109.4-109.4V162.3C53.1 102 102.2 53 162.5 53H350c60.3 0 109.4 49.1 109.4 109.4v187.4z"/><path d="M256.2 131.1c-69 0-125 56-125 125s56 125 125 125 125-56 125-125-56-125-125-125zm0 203.1c-43.1 0-78.1-35.1-78.1-78.1 0-43.1 35.1-78.1 78.1-78.1s78.1 35 78.1 78.1c0 43-35 78.1-78.1 78.1z"/><circle cx="390.6" cy="121.7" r="16.7"/></svg>