<svg id="linkedin-icon" viewBox="0 0 15.3885698 14.7048492">
		<path d="M15.3885698,9.0151443v5.6897049h-3.2987127V9.3966532c0-1.3332567-0.476614-2.243319-1.6705112-2.243319
			c-0.9117775,0-1.4535837,0.612772-1.6923218,1.2062955C8.640255,8.5716515,8.6175957,8.8663845,8.6175957,9.163681v5.5411682
			H5.3182473c0,0,0.0442357-8.9909849,0-9.9217815h3.2993484v1.4059176C8.6109753,6.1998839,8.601779,6.2107835,8.5960064,6.2214737
			h0.0215893V6.1889849c0.4383593-0.6745334,1.2206125-1.6388826,2.972991-1.6388826
			C13.7614441,4.5501022,15.3885698,5.9677801,15.3885698,9.0151443L15.3885698,9.0151443z M1.8667213,0
			C0.7380044,0,0,0.7405743,0,1.7141137c0,0.9525955,0.7170606,1.7147593,1.8233269,1.7147593h0.0218048
			c1.1505085,0,1.8658603-0.7621639,1.8658603-1.7147593C3.689409,0.7405743,2.9956403,0,1.8667213,0L1.8667213,0z
			 M0.1961976,14.7048492h3.2978616V4.7830672H0.1961976V14.7048492z M0.1961976,14.7048492"/>
</svg>
