<svg id="upwork-icon" viewBox="0 0 512 512"><path d="M233.8 435.8c1.6-9.2 2.9-18.4 4.9-27.4 9.5-44.5 19.1-89 28.8-133.5.8-3.5.3-6.2-1.7-9.4-11.5-18.6-22.7-37.5-34-56.3-.9-1.6-1.8-3.2-3.8-4.7 0 3-.1 6.1 0 9.1.5 19.3-1.1 38.1-8.6 56.3-19.3 46.8-67 74.4-117.7 67.8-48.3-6.3-88.1-46.4-94.2-95.4-.7-5.2-1.1-10.5-1.1-15.7-.1-47.8 0-95.7-.1-143.5v-5.3h54.9v6.9c0 46.5-.1 93.1 0 139.6.1 26.3 16.6 47.9 41 53.8 33.8 8.2 66.3-17 66.5-52.2.3-47.3.1-94.6.1-141.8v-7.2h57.1c13 42.9 32.1 83.2 56.7 122.2 1.2-3.5 2.2-6.2 3.1-8.8 12-32.8 31.4-59.3 64.4-73.6 67.2-29.2 146.5 16.4 155.3 89.1 7.3 60.4-29.3 114.7-87.1 127.8-34 7.7-66.3 1.1-96.6-15.6-1.9-1.1-3.8-2.2-6.4-3.7-3.2 15.7-6.3 30.9-9.3 46-4.7 23.1-9.3 46.3-14 69.4-.4 2-1.2 3.9-1.8 5.8-18.8.3-37.6.3-56.4.3zm154.1-156.2c43 .7 72.8-38.2 60.8-74.3-7.9-23.6-25.1-37-49.9-39.1-22.9-2-39.8 8.5-50.9 28.3-2.9 5.2-5.5 10.7-7.1 16.4-3.8 13.5-7.1 27.2-10.3 40.8-.3 1.3.5 3.7 1.7 4.5 17.6 13.9 37.2 22.7 55.7 23.4z"/></svg>