<svg id="upwork-icon" viewBox="0 0 19.4713478 13.9736929">
<path d="M8.862443,13.9736929c0.0626192-0.3564348,0.1143093-0.7152004,0.1897116-1.0689106
	c0.3696184-1.7338562,0.7448521-3.4665165,1.1205912-5.199059c0.0292387-0.1348233,0.0101576-0.240613-0.0665846-0.3645597
	c-0.4492798-0.725626-0.8846483-1.4598675-1.3241177-2.1915574C8.7456188,5.0889616,8.7135773,5.0256839,8.6326199,4.9668684
	c0,0.1181464-0.0023937,0.2363501,0.0003901,0.3544312c0.017683,0.7500734-0.0432358,1.485353-0.33424,2.1910071
	c-0.7510777,1.8212838-2.6102805,2.8966804-4.5851851,2.6409869c-1.8800334-0.2434101-3.4291484-1.808753-3.6701553-3.7133164
	C0.0178336,6.2377048,0.002513,6.0326743,0.0021686,5.8288908C-0.0009802,3.965663,0.0002435,2.1024275,0.0001914,0.2391941
	C0.0001896,0.1752168,0.0001912,0.1112394,0.0001912,0.0344652c0.7175831,0,1.4144995,0,2.1373866,0
	c0,0.0961986-0.0000014,0.1820173,0.0000002,0.267836c0.000031,1.812086-0.0025022,3.6241767,0.001092,5.4362555
	c0.0020349,1.0258365,0.6463797,1.8656297,1.5960236,2.0962086c1.3166142,0.3196802,2.5822983-0.6631289,2.5904713-2.0313883
	c0.0109987-1.8412478,0.0029736-3.6826091,0.0031123-5.5239215C6.3282838,0.1925426,6.3282776,0.1056295,6.3282776,0
	c0.7463121,0,1.4792461,0,2.2244329,0c0.5060806,1.6716473,1.2503071,3.2408879,2.2066202,4.7583504
	c0.0486174-0.1371741,0.0843878-0.2408614,0.1220236-0.3438687c0.4668121-1.2776468,1.2232647-2.3074443,2.5064468-2.8654838
	c2.6164541-1.137864,5.7061987,0.6394199,6.0476751,3.4714551c0.2836437,2.3523755-1.1396961,4.4681869-3.3901005,4.9786792
	c-1.3232803,0.3001795-2.5804853,0.0442047-3.762578-0.6057501c-0.0756989-0.0416212-0.1497078-0.086319-0.2482319-0.1433115
	c-0.1244602,0.6124563-0.2452059,1.2023516-0.3640852,1.7926226c-0.1815033,0.9012175-0.3610735,1.802824-0.5436296,2.703826
	c-0.0156841,0.077404-0.0475588,0.1515265-0.0719109,0.2271738C10.3241081,13.9736929,9.593276,13.9736929,8.862443,13.9736929z
	 M14.8614826,7.8900466c1.6738358,0.0275459,2.8356438-1.4879842,2.3663025-2.892323
	c-0.3076591-0.9205508-0.9782906-1.4402351-1.9442949-1.5245056c-0.8934298-0.0779393-1.5480919,0.3320553-1.980691,1.1017981
	c-0.1135731,0.2020841-0.2139225,0.4184785-0.2771587,0.6405959c-0.1496038,0.5254726-0.2762117,1.0576305-0.4028063,1.5893025
	c-0.012434,0.052218,0.0213747,0.1430931,0.0644236,0.1767478C13.3765039,7.5204897,14.1431694,7.8656178,14.8614826,7.8900466z"/>
</svg>
