<svg xmlns="http://www.w3.org/2000/svg" xmlns:xlink="http://www.w3.org/1999/xlink"><symbol viewBox="0 0 512 512" id="behance-icon"><path d="M457.2 145.1H331.9V114h125.3v31.1zM248.6 272.7c8.1 12.5 12.1 27.7 12.1 45.6 0 18.5-4.6 35-13.8 49.6-5.9 9.7-13.2 17.8-22 24.4-9.9 7.6-21.7 12.8-35.1 15.6-13.5 2.8-28.2 4.2-43.9 4.2H5.7v-311H156c37.9.6 64.7 11.6 80.6 33.1 9.5 13.2 14.2 29.1 14.2 47.5 0 19-4.8 34.2-14.4 45.8-5.3 6.5-13.2 12.4-23.7 17.7 15.8 5.9 27.8 15 35.9 27.5zM77.4 223.8h65.8c13.5 0 24.5-2.6 32.9-7.7 8.4-5.1 12.6-14.2 12.6-27.3 0-14.5-5.6-24.1-16.7-28.7-9.6-3.2-21.8-4.9-36.7-4.9H77.4v68.6zm117.7 90.1c0-16.2-6.6-27.3-19.8-33.3-7.4-3.4-17.8-5.2-31.1-5.3H77.4v82.9h65.8c13.5 0 24-1.8 31.5-5.5 13.6-6.7 20.4-19.7 20.4-38.8zm308.6-50.6c1.5 10.2 2.2 24.9 1.9 44.2H343.4c.9 22.4 8.6 38.1 23.3 47 8.8 5.6 19.6 8.4 32.1 8.4 13.2 0 24-3.4 32.3-10.2 4.5-3.7 8.5-8.8 12-15.3h59.5c-1.6 13.2-8.7 26.6-21.6 40.3-19.9 21.6-47.9 32.5-83.8 32.5-29.6 0-55.8-9.2-78.5-27.4-22.6-18.3-34-48-34-89.3 0-38.7 10.2-68.2 30.7-88.8 20.5-20.6 47.1-30.9 79.7-30.9 19.4 0 36.8 3.4 52.4 10.4 15.5 7 28.3 17.9 38.5 33 9.1 13.2 15 28.6 17.7 46.1zm-58.5 5.8c-1.1-15.5-6.3-27.2-15.6-35.2-9.2-8-20.7-12.1-34.5-12.1-15 0-26.5 4.3-34.7 12.8-8.3 8.4-13.4 19.9-15.5 34.5h100.3zm0 0"/></symbol><symbol viewBox="0 0 512 512" id="creative-market-icon"><path d="M505.6 235.1L487.9 57.5c-1.9-19.5-17.7-34.7-37.2-36L279.5 9.7c-11.4-.8-22.6 3.3-30.8 11.3L18 245.6c-16 15.6-16.2 41.3-.4 57.1l189.2 189.2c15.5 15.5 40.6 15.7 56.4.4l230.5-224.4c8.7-8.5 13.1-20.6 11.9-32.8zM373.4 293l-28.9 49-56.5-38.9c-3.7-2.6-8.8.3-8.5 4.8l4.7 68.4h-56.9l4.7-68.4c.3-4.5-4.7-7.4-8.5-4.8L167 342l-28.9-49 63-31.5c4-2 4-7.7 0-9.7l-63-31.5 28.9-49 56.5 38.9c3.7 2.6 8.8-.3 8.5-4.8l-4.7-68.4h56.9l-4.7 68.4c-.3 4.5 4.7 7.4 8.5 4.8l56.5-38.9 28.9 49-72.7 36.4 72.7 36.3zm37.1-163c-15.5 0-28-12.5-28-28s12.5-28 28-28 28 12.5 28 28-12.5 28-28 28z"/></symbol><symbol viewBox="0 0 512 512" id="instagram-icon"><path d="M350 6.1H162.5C76.2 6.1 6.2 76.1 6.2 162.3v187.5c0 86.3 70 156.3 156.3 156.3H350c86.3 0 156.3-70 156.3-156.3V162.3C506.2 76.1 436.2 6.1 350 6.1zm109.3 343.7c0 60.3-49.1 109.4-109.4 109.4H162.5c-60.3 0-109.4-49.1-109.4-109.4V162.3C53.1 102 102.2 53 162.5 53H350c60.3 0 109.4 49.1 109.4 109.4v187.4z"/><path d="M256.2 131.1c-69 0-125 56-125 125s56 125 125 125 125-56 125-125-56-125-125-125zm0 203.1c-43.1 0-78.1-35.1-78.1-78.1 0-43.1 35.1-78.1 78.1-78.1s78.1 35 78.1 78.1c0 43-35 78.1-78.1 78.1z"/><circle cx="390.6" cy="121.7" r="16.7"/></symbol><symbol viewBox="0 0 512 512" id="linkedin-icon"><path d="M506.4 310v184.9H399.2V322.4c0-43.3-15.5-72.9-54.3-72.9-29.6 0-47.2 19.9-55 39.2-2.8 6.9-3.6 16.5-3.6 26.1v180H179.2s1.4-292.1 0-322.4h107.2v45.7c-.2.4-.5.7-.7 1.1h.7v-1.1C300.6 196.3 326 165 383 165c70.5 0 123.4 46 123.4 145zM67 17.1c-36.7 0-60.7 24.1-60.7 55.7 0 31 23.3 55.7 59.2 55.7h.7c37.4 0 60.6-24.8 60.6-55.7-.6-31.6-23.1-55.7-59.8-55.7zM12.7 494.9h107.2V172.5H12.7v322.4zm0 0"/></symbol><symbol viewBox="0 0 512 512" id="upwork-icon"><path d="M233.8 435.8c1.6-9.2 2.9-18.4 4.9-27.4 9.5-44.5 19.1-89 28.8-133.5.8-3.5.3-6.2-1.7-9.4-11.5-18.6-22.7-37.5-34-56.3-.9-1.6-1.8-3.2-3.8-4.7 0 3-.1 6.1 0 9.1.5 19.3-1.1 38.1-8.6 56.3-19.3 46.8-67 74.4-117.7 67.8-48.3-6.3-88.1-46.4-94.2-95.4-.7-5.2-1.1-10.5-1.1-15.7-.1-47.8 0-95.7-.1-143.5v-5.3h54.9v6.9c0 46.5-.1 93.1 0 139.6.1 26.3 16.6 47.9 41 53.8 33.8 8.2 66.3-17 66.5-52.2.3-47.3.1-94.6.1-141.8v-7.2h57.1c13 42.9 32.1 83.2 56.7 122.2 1.2-3.5 2.2-6.2 3.1-8.8 12-32.8 31.4-59.3 64.4-73.6 67.2-29.2 146.5 16.4 155.3 89.1 7.3 60.4-29.3 114.7-87.1 127.8-34 7.7-66.3 1.1-96.6-15.6-1.9-1.1-3.8-2.2-6.4-3.7-3.2 15.7-6.3 30.9-9.3 46-4.7 23.1-9.3 46.3-14 69.4-.4 2-1.2 3.9-1.8 5.8-18.8.3-37.6.3-56.4.3zm154.1-156.2c43 .7 72.8-38.2 60.8-74.3-7.9-23.6-25.1-37-49.9-39.1-22.9-2-39.8 8.5-50.9 28.3-2.9 5.2-5.5 10.7-7.1 16.4-3.8 13.5-7.1 27.2-10.3 40.8-.3 1.3.5 3.7 1.7 4.5 17.6 13.9 37.2 22.7 55.7 23.4z"/></symbol></svg>