<svg xmlns="http://www.w3.org/2000/svg" x="0px" y="0px" viewBox="0 0 512 512">
	<path d="M113.5,429.8H82.7c-40.7,0-72.6-27.9-72.6-63.6V127c0-35.6,31.9-63.6,72.6-63.6h30.7c4.9,0,8.8,4,8.8,8.8
		c0,94.9,0,173.1-0.1,268.9c0,4.8-3.8,8.7-8.6,8.8L69.3,351c-5,0-5.2,5.2-5.2,6.3v2.1c0,4.9-4,8.8-8.8,8.8s-8.8-4-8.8-8.8v-2.1
		c0-13.7,9.8-24,22.7-24l35.5-0.8c0.1-89,0.1-163.3,0.1-251.4H82.7c-30.8,0-54.9,20.2-54.9,45.9v239.3c0,25.7,24.1,45.9,54.9,45.9
		h30.7c4.9,0,8.8,4,8.8,8.8C122.3,425.9,118.4,429.8,113.5,429.8z"/>
	<path d="M247.7,125.8H113.5c-4.9,0-8.8-4-8.8-8.8c0-4.9,4-8.8,8.8-8.8h134.2c4.9,0,8.8,4,8.8,8.8
		C256.6,121.8,252.6,125.8,247.7,125.8z"/>
	<path d="M216.4,429.8H113.5c-4.9,0-8.8-4-8.8-8.8c0-4.9,4-8.8,8.8-8.8h102.9c4.9,0,8.8,4,8.8,8.8
		C225.3,425.9,221.3,429.8,216.4,429.8z"/>
	<path d="M343.9,199.8c-39.6,0-71.8-32.2-71.8-71.8s32.2-71.8,71.8-71.8s71.8,32.2,71.8,71.8S383.5,199.8,343.9,199.8z
		 M343.9,73.8c-29.9,0-54.1,24.3-54.1,54.1s24.3,54.1,54.1,54.1c29.9,0,54.1-24.3,54.1-54.1S373.7,73.8,343.9,73.8z"/>
	<path d="M387.1,429.8h-85.8c-4.9,0-8.8-4-8.8-8.8c0-4.9,4-8.8,8.8-8.8h85.8c4.9,0,8.8,4,8.8,8.8
		C396,425.9,392,429.8,387.1,429.8z"/>
	<path d="M493,429.8h-26.7c-4.9,0-8.8-4-8.8-8.8c0-4.9,4-8.8,8.8-8.8h17.9V125.8h-37.9c-4.9,0-8.8-4-8.8-8.8
		c0-4.9,4-8.8,8.8-8.8H493c4.9,0,8.8,4,8.8,8.8V421C501.8,425.9,497.9,429.8,493,429.8z"/>
	<path d="M450.9,334H236.8c-4.9,0-8.8-4-8.8-8.8c0-4.9,4-8.8,8.8-8.8h214.1c4.9,0,8.8,4,8.8,8.8
		C459.8,330.1,455.8,334,450.9,334z"/>
	<path d="M343.9,73.9c-4.9,0-8.8-4-8.8-8.8V14.8c0-4.9,4-8.8,8.8-8.8c4.9,0,8.8,4,8.8,8.8v50.2
		C352.7,70,348.8,73.9,343.9,73.9z"/>
	<path d="M343.9,365.1c-4.9,0-8.8-4-8.8-8.8v-58.1c0-4.9,4-8.8,8.8-8.8c4.9,0,8.8,4,8.8,8.8v58.1
		C352.7,361.2,348.8,365.1,343.9,365.1z"/>
	<path d="M249.7,475.6h-17.3c-4.9,0-8.8-4-8.8-8.8c0-4.9,4-8.8,8.8-8.8h17.3c4.9,0,8.8,4,8.8,8.8
		C258.6,471.6,254.6,475.6,249.7,475.6z"/>
	<path d="M249.7,475.6c-0.8,0-1.6-0.1-2.4-0.3c-4.7-1.3-7.4-6.2-6.1-10.9l77.5-276.6c1.3-4.7,6.2-7.5,10.9-6.1
		c4.7,1.3,7.4,6.2,6.1,10.9l-77.5,276.6C257.1,473,253.6,475.6,249.7,475.6z"/>
	<path d="M254.3,506c-4.3,0-8.1-3.1-8.7-7.5l-4.6-30.4c-0.7-4.8,2.6-9.3,7.4-10.1c4.8-0.8,9.3,2.6,10.1,7.4l4.6,30.4
		c0.7,4.8-2.6,9.3-7.4,10.1C255.2,506,254.7,506,254.3,506z"/>
	<path d="M455.4,475.6H438c-4.9,0-8.8-4-8.8-8.8c0-4.9,4-8.8,8.8-8.8h17.3c4.9,0,8.8,4,8.8,8.8
		C464.2,471.6,460.3,475.6,455.4,475.6z"/>
	<path d="M438,475.6c-3.9,0-7.4-2.6-8.5-6.5L352,192.5c-1.3-4.7,1.4-9.6,6.1-10.9c4.7-1.3,9.6,1.4,10.9,6.1l77.5,276.6
		c1.3,4.7-1.4,9.6-6.1,10.9C439.6,475.5,438.8,475.6,438,475.6z"/>
	<path d="M433.5,506c-0.4,0-0.9,0-1.3-0.1c-4.8-0.7-8.1-5.2-7.4-10.1l4.6-30.4c0.7-4.8,5.1-8.2,10.1-7.4
		c4.8,0.7,8.1,5.2,7.4,10.1l-4.6,30.4C441.5,502.9,437.8,506,433.5,506z"/>
</svg>
