<svg xmlns="http://www.w3.org/2000/svg" x="0px" y="0px" viewBox="0 0 512 512">
	<path d="M408.6,165.1c-27.4,0-49.7-22.3-49.7-49.7s22.3-49.7,49.7-49.7s49.7,22.3,49.7,49.7S436,165.1,408.6,165.1z
		 M408.6,78.4c-20.4,0-37,16.6-37,37s16.6,37,37,37c20.4,0,37-16.6,37-37S429,78.4,408.6,78.4z"/>
	<path d="M228.5,363.7h-78.4c-3.5,0-6.4-2.8-6.4-6.4v-47.7c0-3.5,2.8-6.4,6.4-6.4h78.4c3.5,0,6.4,2.8,6.4,6.4v47.7
		C234.9,360.9,232,363.7,228.5,363.7z M156.5,351h65.7v-35h-65.7V351z"/>
	<path d="M499.6,446.4h-47.1c-3.5,0-6.4-2.8-6.4-6.4V180c0-3.5,2.8-6.4,6.4-6.4h47.1c3.5,0,6.4,2.8,6.4,6.4v260
		C506,443.5,503.2,446.4,499.6,446.4z M458.9,433.6h34.4V186.4h-34.4V433.6z"/>
	<path d="M452.5,186.4c-1.6,0-3.2-0.6-4.5-1.8L424.2,161c-2.5-2.5-2.5-6.5-0.1-9c2.5-2.5,6.5-2.5,9-0.1l23.9,23.5
		c2.5,2.5,2.5,6.5,0.1,9C455.8,185.7,454.2,186.4,452.5,186.4z M495.9,181.5c-1.6,0-3.1-0.6-4.4-1.7l-44.8-42.6
		c-2.5-2.4-2.6-6.4-0.2-9c2.4-2.5,6.4-2.6,9-0.2l44.8,42.6c2.5,2.4,2.6,6.4,0.2,9C499.3,180.9,497.6,181.5,495.9,181.5z"/>
	<path d="M337.7,434.3c-21.8,0-39.5-17.7-39.5-39.5c0-21.8,17.7-39.5,39.5-39.5c21.8,0,39.5,17.7,39.5,39.5
		C377.2,416.6,359.5,434.3,337.7,434.3z M337.7,368.1c-14.8,0-26.8,12-26.8,26.8c0,14.8,12,26.8,26.8,26.8s26.8-12,26.8-26.8
		C364.5,380.1,352.5,368.1,337.7,368.1z"/>
	<path d="M45.5,434.3C23.7,434.3,6,416.6,6,394.9c0-21.8,17.7-39.5,39.5-39.5s39.5,17.7,39.5,39.5
		C84.9,416.6,67.2,434.3,45.5,434.3z M45.5,368.1c-14.8,0-26.8,12-26.8,26.8c0,14.8,12,26.8,26.8,26.8s26.8-12,26.8-26.8
		C72.2,380.1,60.2,368.1,45.5,368.1z"/>
	<path d="M338.4,368.1H44.8c-3.5,0-6.4-2.8-6.4-6.4c0-3.5,2.8-6.4,6.4-6.4h293.6c3.5,0,6.4,2.8,6.4,6.4
		C344.8,365.3,341.9,368.1,338.4,368.1z"/>
	<path d="M338.4,434.3H44.8c-3.5,0-6.4-2.8-6.4-6.4s2.8-6.4,6.4-6.4h293.6c3.5,0,6.4,2.8,6.4,6.4
		S341.9,434.3,338.4,434.3z"/>
	<path d="M191.6,406.7c-3.5,0-6.4-2.8-6.4-6.4v-11c0-3.5,2.8-6.4,6.4-6.4c3.5,0,6.4,2.8,6.4,6.4v11
		C198,403.8,195.1,406.7,191.6,406.7z"/>
	<path d="M152.7,406.7c-3.5,0-6.4-2.8-6.4-6.4v-11c0-3.5,2.8-6.4,6.4-6.4c3.5,0,6.4,2.8,6.4,6.4v11
		C159,403.8,156.2,406.7,152.7,406.7z"/>
	<path d="M114.7,406.7c-3.5,0-6.4-2.8-6.4-6.4v-11c0-3.5,2.8-6.4,6.4-6.4s6.4,2.8,6.4,6.4v11
		C121,403.8,118.2,406.7,114.7,406.7z"/>
	<path d="M268.1,406.7c-3.5,0-6.4-2.8-6.4-6.4v-11c0-3.5,2.8-6.4,6.4-6.4c3.5,0,6.4,2.8,6.4,6.4v11
		C274.5,403.8,271.6,406.7,268.1,406.7z"/>
	<path d="M230.1,406.7c-3.5,0-6.4-2.8-6.4-6.4v-11c0-3.5,2.8-6.4,6.4-6.4c3.5,0,6.4,2.8,6.4,6.4v11
		C236.5,403.8,233.6,406.7,230.1,406.7z"/>
	<path d="M259.2,304c-2.9,0-5.6-2-6.2-5c-0.7-3.4,1.4-6.8,4.9-7.6l42.5-9.2l26.4-27.3l-0.1-19.8c0-1.6,0.6-3.2,1.7-4.3
		l30.5-33.2L330,169.7L298,201.5c-1.1,1.1-2.7,1.8-4.3,1.9l-19.8,0.6l-26.3,27.3l-7.5,43c-0.6,3.5-3.9,5.8-7.4,5.2
		c-3.5-0.6-5.8-3.9-5.2-7.4l7.9-44.9c0.2-1.2,0.8-2.4,1.7-3.3l29.5-30.6c1.2-1.2,2.7-1.9,4.4-1.9l19.9-0.6l34.6-34.4
		c2.4-2.4,6.4-2.5,8.9-0.1l37.7,36.4c2.5,2.4,2.6,6.3,0.3,8.9l-33,35.9l0.1,19.9c0,1.7-0.6,3.3-1.8,4.5l-29.5,30.6
		c-0.9,0.9-2,1.5-3.2,1.8l-44.4,9.6C260.1,304,259.6,304,259.2,304z"/>
	<path d="M317.9,278.2c-1.6,0-3.2-0.6-4.4-1.8l-60.8-58.6c-2.5-2.4-2.6-6.5-0.2-9c2.4-2.5,6.5-2.6,9-0.2l60.8,58.6
		c2.5,2.4,2.6,6.5,0.2,9C321.2,277.6,319.5,278.2,317.9,278.2z"/>
	<path d="M340.6,170.7c-1.6,0-3.2-0.6-4.4-1.8c-2.5-2.4-2.6-6.5-0.2-9l9.3-9.6c10.3-9.9,5.6-16.4,3.8-18.9
		c-2.1-2.8-1.4-6.8,1.4-8.9c2.9-2.1,6.8-1.4,8.9,1.4c8.3,11.5,6.4,24.3-5.1,35.3l-9.1,9.4C343.9,170,342.3,170.7,340.6,170.7z"/>
	<path d="M363.9,193.2c-1.6,0-3.2-0.6-4.4-1.8c-2.5-2.4-2.6-6.5-0.2-9l9.3-9.6c10.4-11.7,23.2-14.1,34.9-6.2
		c2.9,1.9,3.7,5.9,1.8,8.8c-2,2.9-5.9,3.7-8.8,1.8c-2.5-1.7-9.3-6.2-18.6,4.3l-9.5,9.8C367.2,192.5,365.6,193.2,363.9,193.2z"/>
</svg>
