<svg xmlns="http://www.w3.org/2000/svg" x="0px" y="0px" viewBox="0 0 512 512">
	<path d="M255.6,336.5c-4.8,0-9.5-1-17.8-2.9c-28.7-6.9-50.4-20.4-64.7-40.1c-11.9-16.2-17-44-20.7-65.5
		c-17.8-13-22.4-42.8-9.6-67.8l3.9-7.7l15.3,7.9l-3.9,7.7c-10.3,20.1-5,41,6.3,47.1l3.7,2l0.7,4.1c3.2,19.2,8.1,48.1,18.2,62
		c11.8,16.3,30.3,27.5,54.8,33.5c13.7,3.3,13.7,3.3,27.5,0c24.5-5.9,43-17.2,54.8-33.4c10.2-13.9,15-42.9,18.3-62l0.7-4.1l3.7-2
		c11.7-6.4,17.3-27.9,7.4-47.1l-3.9-7.7l15.3-7.9l3.9,7.7c12.7,24.7,7.6,54.6-10.8,67.8c-3.6,21.6-8.8,49.3-20.7,65.5
		c-14.3,19.6-36.1,33.1-64.7,40C265.1,335.5,260.4,336.5,255.6,336.5z"/>
	<polygon points="296.4,130.9 279.1,130.9 279.1,23.2 232.1,23.2 232.1,130.9 214.8,130.9 214.8,6 296.4,6 "/>
	<path d="M393.3,169.5H116v-37.2l27.8-5.5C141.9,66.2,171.7,21.5,218,17l8.6-0.8l1.7,17.2l-8.6,0.8
		c-45,4.4-61.7,52.9-58.4,99l0.6,7.6l-28.7,5.7v5.9h242.8v-5.9l-28.7-5.7l0.6-7.6c3.4-46.1-13.3-94.6-58.4-99l-8.6-0.8l1.7-17.2
		l8.6,0.8c46.3,4.6,76.1,49.2,74.3,109.8l27.7,5.5V169.5z"/>
	<polygon points="256.2,456.9 181,333.3 179.5,293.3 196.8,292.7 198.1,328.1 256.2,423.7 314.4,328.1 315.7,292.7 
		333,293.3 331.5,333.3 "/>
	<path d="M486.1,506H16.5l0.9-9.4c5.3-55.9,7.9-83.8,21.7-106.5c19.2-31.6,54.5-44.4,124.9-69.7l25.1-9.1l5.9,16.2
		l-25.1,9.1c-66.6,24-100,36-116,62.5c-11.1,18.2-13.9,42.8-18.4,89.8h441.2c-4.5-47.1-7.3-71.6-18.4-89.8
		c-16-26.4-49.4-38.5-116-62.5l-25.1-9.1l5.9-16.2l25.1,9.1c70.4,25.4,105.7,38.1,124.9,69.7c13.8,22.8,16.4,50.6,21.7,106.2l0.9,9.4
		L486.1,506z"/>
	<rect x="214.8" y="6" width="81.5" height="17.2"/>
</svg>
