<svg xmlns="http://www.w3.org/2000/svg" x="0px" y="0px" viewBox="0 0 512 512">
	<path d="M424.4,398.3c-2.6,0-5-1.4-6.2-3.7L372.9,313c-19.9-15.7-31.3-39.1-31.3-64.6c0-45.3,36.9-82.2,82.2-82.2
		s82.2,36.9,82.2,82.2c0,24.2-10.5,47-28.9,62.6l-46.4,83.6C429.4,397,427,398.3,424.4,398.3z M423.8,180.4c-37.5,0-68,30.5-68,68
		c0,21.4,9.8,41.2,26.9,54.2c0.8,0.6,1.4,1.3,1.9,2.2l39.8,71.8l40.8-73.6c0.4-0.8,1-1.5,1.7-2c15.8-13,24.8-32.1,24.8-52.5
		C491.8,210.9,461.3,180.4,423.8,180.4z"/>
	<path d="M425,292.9c-1.4,0-2.7-0.4-3.9-1.2c-2-1.3-3.2-3.5-3.2-5.9v-43.9c0-2.8,1.6-5.3,4.1-6.5l34.3-15.8
		c2.2-1,4.8-0.8,6.8,0.5c2,1.3,3.3,3.6,3.3,6V271c0,2.8-1.7,5.4-4.3,6.5l-34.3,14.9C426.9,292.7,425.9,292.9,425,292.9z
		 M432.1,246.4V275l20.1-8.7v-29.1L432.1,246.4z"/>
	<path d="M425,292.9c-1,0-1.9-0.2-2.8-0.6l-36.7-15.8c-2.6-1.1-4.3-3.7-4.3-6.5v-43.9c0-2.4,1.2-4.6,3.2-5.9
		c2-1.3,4.5-1.5,6.7-0.6l36.7,15.8c2.6,1.1,4.3,3.7,4.3,6.5v43.9c0,2.4-1.2,4.6-3.2,5.9C427.7,292.5,426.3,292.9,425,292.9z
		 M395.4,265.4l22.5,9.7v-28.5l-22.5-9.7V265.4z"/>
	<path d="M425,249c-1,0-1.9-0.2-2.8-0.6l-36.7-15.8c-2.6-1.1-4.3-3.7-4.3-6.5c0-2.8,1.6-5.4,4.2-6.5l35.5-15.8
		c1.8-0.8,3.9-0.8,5.8,0l35.5,15.8c2.5,1.1,4.2,3.7,4.2,6.4c0,2.8-1.6,5.3-4.1,6.5l-34.3,15.8C427,248.8,426,249,425,249z M406,226
		l18.9,8.1l17.2-7.9l-18.3-8.1L406,226z"/>
	<path d="M88.9,272.4c-2.6,0-5-1.4-6.2-3.7l-45.3-81.7C17.4,171.4,6,147.9,6,122.5c0-45.3,36.9-82.2,82.2-82.2
		s82.2,36.9,82.2,82.2c0,24.2-10.5,47-29,62.6l-46.4,83.6C93.8,271,91.4,272.4,88.9,272.4z M88.2,54.5c-37.5,0-68,30.5-68,68
		c0,21.4,9.8,41.2,26.9,54.2c0.8,0.6,1.4,1.3,1.9,2.2l39.8,71.8l40.8-73.6c0.4-0.8,1-1.5,1.7-2c15.8-13,24.8-32.1,24.8-52.6
		C156.2,85,125.7,54.5,88.2,54.5z"/>
	<path d="M89.4,167c-1.4,0-2.7-0.4-3.9-1.2c-2-1.3-3.2-3.5-3.2-5.9V116c0-2.8,1.6-5.3,4.1-6.5l34.3-15.8
		c2.2-1,4.8-0.8,6.8,0.5c2,1.3,3.3,3.6,3.3,6V145c0,2.8-1.7,5.4-4.3,6.5l-34.3,14.9C91.3,166.8,90.4,167,89.4,167z M96.5,120.5v28.6
		l20.1-8.7v-29.1L96.5,120.5z"/>
	<path d="M89.4,167c-1,0-1.9-0.2-2.8-0.6l-36.7-15.8c-2.6-1.1-4.3-3.7-4.3-6.5v-43.9c0-2.4,1.2-4.6,3.2-5.9
		c2-1.3,4.5-1.5,6.7-0.6l36.7,15.8c2.6,1.1,4.3,3.7,4.3,6.5v43.9c0,2.4-1.2,4.6-3.2,5.9C92.1,166.6,90.8,167,89.4,167z M59.8,139.4
		l22.5,9.7v-28.5L59.8,111V139.4z"/>
	<path d="M89.4,123.1c-1,0-1.9-0.2-2.8-0.6l-36.7-15.8c-2.6-1.1-4.3-3.7-4.3-6.5c0-2.8,1.6-5.4,4.2-6.5l35.5-15.8
		c1.8-0.8,3.9-0.8,5.8,0l35.5,15.8c2.5,1.1,4.2,3.7,4.2,6.4c0,2.8-1.6,5.3-4.1,6.5l-34.3,15.8C91.4,122.8,90.4,123.1,89.4,123.1z
		 M70.4,100.1l18.9,8.1l17.2-7.9l-18.3-8.1L70.4,100.1z"/>
	<path d="M88.2,357.5c-13.4,0-24.3-10.9-24.3-24.2S74.8,309,88.2,309c13.4,0,24.2,10.9,24.2,24.2
		S101.6,357.5,88.2,357.5z M88.2,323.2c-5.5,0-10,4.5-10,10s4.5,10,10,10c5.5,0,10-4.5,10-10S93.8,323.2,88.2,323.2z"/>
	<path d="M425.2,471.7c-13.4,0-24.2-10.9-24.2-24.2s10.9-24.2,24.2-24.2s24.2,10.9,24.2,24.2S438.6,471.7,425.2,471.7z
		 M425.2,437.4c-5.5,0-10,4.5-10,10s4.5,10,10,10s10-4.5,10-10S430.8,437.4,425.2,437.4z"/>
	<path d="M402.9,455.3H159.7c-3,0-5.7-1.9-6.7-4.7c-1-2.8-0.1-6,2.2-7.9l126.8-102.2H114.3c-3.9,0-7.1-3.2-7.1-7.1
		s3.2-7.1,7.1-7.1h187.9c3,0,5.7,1.9,6.7,4.7s0.1,6-2.2,7.9L179.9,441.1h223c3.9,0,7.1,3.2,7.1,7.1S406.8,455.3,402.9,455.3z"/>
</svg>
