<svg xmlns="http://www.w3.org/2000/svg" x="0px" y="0px" viewBox="0 0 512 512">
	<path d="M440.4,398.2H71.6c-4.4,0-8-3.6-8-8c0-4.4,3.6-8,8-8h368.9c4.4,0,8,3.6,8,8
		C448.4,394.7,444.8,398.2,440.4,398.2z M448,372.5c-1.1,0-2.3-0.3-3.4-0.8L408,354.3l-36.6,17.4c-2.2,1-4.7,1-6.9,0l-36.6-17.4
		l-36.6,17.4c-2.2,1-4.7,1-6.9,0l-36.6-17.4L211,371.7c-2.2,1-4.7,1-6.9,0l-36.6-17.4l-36.6,17.4c-2.2,1-4.7,1-6.9,0l-36.7-17.4
		l-36.6,17.4c-4,1.9-8.7,0.2-10.6-3.8c-1.9-4-0.2-8.7,3.8-10.6L84,338.2c2.2-1,4.7-1,6.9,0l36.7,17.4l36.6-17.4c2.2-1,4.7-1,6.9,0
		l36.6,17.4l36.7-17.4c2.2-1,4.7-1,6.9,0l36.6,17.4l36.6-17.4c2.2-1,4.7-1,6.9,0l36.6,17.4l36.6-17.4c2.2-1,4.7-1,6.9,0l40.1,19.1
		c4,1.9,5.7,6.7,3.8,10.6C453.9,370.8,451,372.5,448,372.5z"/>
	<path d="M440.4,498.7H71.6c-4.4,0-8-3.6-8-8s3.6-8,8-8h368.9c4.4,0,8,3.6,8,8S444.8,498.7,440.4,498.7z"/>
	<path d="M282.6,460.9c-4.4,0-8-3.6-8-8v-22.5c0-4.4,3.6-8,8-8s8,3.6,8,8v22.5C290.5,457.3,287,460.9,282.6,460.9z"/>
	<path d="M222.5,460.9c-4.4,0-8-3.6-8-8v-22.5c0-4.4,3.6-8,8-8s8,3.6,8,8v22.5C230.5,457.3,227,460.9,222.5,460.9z"/>
	<path d="M164,460.9c-4.4,0-8-3.6-8-8v-22.5c0-4.4,3.6-8,8-8c4.4,0,8,3.6,8,8v22.5C171.9,457.3,168.4,460.9,164,460.9z"
		/>
	<path d="M342,460.9c-4.4,0-8-3.6-8-8v-22.5c0-4.4,3.6-8,8-8s8,3.6,8,8v22.5C349.9,457.3,346.4,460.9,342,460.9z"/>
	<path d="M64.2,498.7C32.1,498.7,6,472.6,6,440.5s26.1-58.2,58.2-58.2c32.1,0,58.2,26.1,58.2,58.2
		S96.4,498.7,64.2,498.7z M64.2,398.2c-23.3,0-42.3,19-42.3,42.3s19,42.3,42.3,42.3c23.3,0,42.3-19,42.3-42.3S87.6,398.2,64.2,398.2
		z"/>
	<path d="M447.8,498.7c-32.1,0-58.2-26.1-58.2-58.2s26.1-58.2,58.2-58.2s58.2,26.1,58.2,58.2S479.9,498.7,447.8,498.7z
		 M447.8,398.2c-23.3,0-42.3,19-42.3,42.3s19,42.3,42.3,42.3c23.3,0,42.3-19,42.3-42.3S471.1,398.2,447.8,398.2z"/>
	<path d="M204.2,315.4H67.9c-4.4,0-8-3.6-8-8v-170c0-4.4,3.6-8,8-8h136.2c4.4,0,8,3.6,8,8v170
		C212.1,311.8,208.6,315.4,204.2,315.4z M75.9,299.4h120.3V145.4H75.9V299.4z"/>
	<path d="M136.3,108.3c-4.4,0-8-3.6-8-8v-79c0-4.4,3.6-8,8-8c4.4,0,8,3.6,8,8v79C144.3,104.7,140.7,108.3,136.3,108.3z"
		/>
	<path d="M67.5,142.8c-2,0-4.1-0.8-5.6-2.3l-47-47c-3.1-3.1-3.1-8.2,0-11.3c3.1-3.1,8.2-3.1,11.3,0l47,47
		c3.1,3.1,3.1,8.2,0,11.3C71.6,142.1,69.6,142.8,67.5,142.8z"/>
	<path d="M204.6,142.8c-2,0-4.1-0.8-5.6-2.3c-3.1-3.1-3.1-8.2,0-11.3l47-47c3.1-3.1,8.2-3.1,11.3,0
		c3.1,3.1,3.1,8.2,0,11.3l-47,47C208.6,142.1,206.6,142.8,204.6,142.8z"/>
	<path d="M136.4,116.6c-2,0-4.1-0.8-5.6-2.3c-3.1-3.1-3.1-8.2,0-11.3l24.3-24.4c3.1-3.1,8.2-3.1,11.3,0
		c3.1,3.1,3.1,8.2,0,11.3l-24.3,24.4C140.5,115.9,138.5,116.6,136.4,116.6z"/>
	<path d="M136.1,116.6c-2,0-4.1-0.8-5.6-2.3L106.2,90c-3.1-3.1-3.1-8.2,0-11.3c3.1-3.1,8.2-3.1,11.3,0l24.3,24.4
		c3.1,3.1,3.1,8.2,0,11.3C140.2,115.9,138.2,116.6,136.1,116.6z"/>
	<path d="M436.4,315.4H300.2c-4.4,0-8-3.6-8-8v-170c0-4.4,3.6-8,8-8h136.2c4.4,0,8,3.6,8,8v170
		C444.4,311.8,440.9,315.4,436.4,315.4z M308.2,299.4h120.3V145.4H308.2V299.4z"/>
	<path d="M404,280.3h-71.3c-4.4,0-8-3.6-8-8c0-4.4,3.6-8,8-8H404c4.4,0,8,3.6,8,8C411.9,276.7,408.4,280.3,404,280.3z"
		/>
	<path d="M404,251.8h-71.3c-4.4,0-8-3.6-8-8s3.6-8,8-8H404c4.4,0,8,3.6,8,8S408.4,251.8,404,251.8z"/>
	<path d="M390.2,188.2h-43.7c-4.4,0-8-3.6-8-8v-42.8c0-4.4,3.6-8,8-8h43.7c4.4,0,8,3.6,8,8v42.8
		C398.2,184.6,394.6,188.2,390.2,188.2z M354.5,172.2h27.8v-26.8h-27.8V172.2z"/>
</svg>
